ISO-10303-21;
HEADER;
/* Generated by software containing ST-Developer
 * from STEP Tools, Inc. (www.steptools.com) 
 */
/* OPTION: using custom renumber hook */

FILE_DESCRIPTION(
/* description */ ('STEP AP242 Edition 2',
'CAx-IF Rec.Pracs.---Representation and Presentation of Product Manufa
cturing Information (PMI)---4.0---2014-10-13',
'CAx-IF Rec.Pracs.---3D Tessellated Geometry---0.4---2014-09-14','2;1',
'CAx-IF Rec.Pracs.---User Defined Attributes---1.5---2016-08-15'),
/* implementation_level */ '2;1');

FILE_NAME(
/* name */ 
'1-4- ID x 1-2- OD  Flanged Ball Bearing - 1-4- ID x 1-2- OD  Flanged 
Ball Bearing',
/* time_stamp */ '2026-04-15T18:24:45Z',
/* author */ (''),
/* organization */ (''),
/* preprocessor_version */ 'ST-DEVELOPER v20',
/* originating_system */ 'ONSHAPE BY PTC INC, 1.213',
/* authorisation */ '  ');

FILE_SCHEMA (('AP242_MANAGED_MODEL_BASED_3D_ENGINEERING_MIM_LF { 1 0 10303 442 3 1 4 }'));
ENDSEC;

DATA;
#10=CONICAL_SURFACE('',#556,0.0066802,0.785398163397445);
#11=CONICAL_SURFACE('',#557,0.00635,0.785398163397453);
#12=CONICAL_SURFACE('',#558,0.003429,0.785398163397446);
#13=CONICAL_SURFACE('',#559,0.003175,0.78539816339745);
#14=CONICAL_SURFACE('',#563,0.0053848,0.785398163397452);
#15=CONICAL_SURFACE('',#566,0.0053848,0.785398163397452);
#16=CYLINDRICAL_SURFACE('',#545,0.00635);
#17=CYLINDRICAL_SURFACE('',#547,0.0069342);
#18=CYLINDRICAL_SURFACE('',#549,0.003175);
#19=CYLINDRICAL_SURFACE('',#552,0.0057404);
#20=CYLINDRICAL_SURFACE('',#553,0.0039243);
#21=CYLINDRICAL_SURFACE('',#554,0.0057404);
#22=CYLINDRICAL_SURFACE('',#555,0.0039243);
#23=CYLINDRICAL_SURFACE('',#560,0.006096);
#24=CYLINDRICAL_SURFACE('',#561,0.0040005);
#25=CYLINDRICAL_SURFACE('',#562,0.0040005);
#26=CYLINDRICAL_SURFACE('',#569,0.0058674);
#27=CYLINDRICAL_SURFACE('',#570,0.0058674);
#28=SHAPE_REPRESENTATION_RELATIONSHIP('','',#493,#31);
#29=SHAPE_REPRESENTATION_RELATIONSHIP('','',#494,#32);
#30=SHAPE_REPRESENTATION_RELATIONSHIP('','',#495,#33);
#31=ADVANCED_BREP_SHAPE_REPRESENTATION('',(#487),#879);
#32=ADVANCED_BREP_SHAPE_REPRESENTATION('',(#488),#880);
#33=ADVANCED_BREP_SHAPE_REPRESENTATION('',(#489),#881);
#34=TOROIDAL_SURFACE('',#501,0.0057404,0.000127000000000001);
#35=TOROIDAL_SURFACE('',#571,0.00549001024484277,0.000254);
#36=TOROIDAL_SURFACE('',#572,0.00549001024484277,0.000254);
#37=TOROIDAL_SURFACE('',#573,0.00497478975515723,0.000254);
#38=TOROIDAL_SURFACE('',#574,0.00497478975515723,0.000254);
#39=TOROIDAL_SURFACE('',#580,0.0057404,0.000127000000000001);
#40=ORIENTED_EDGE('',*,*,#120,.T.);
#41=ORIENTED_EDGE('',*,*,#121,.F.);
#42=ORIENTED_EDGE('',*,*,#120,.F.);
#43=ORIENTED_EDGE('',*,*,#121,.T.);
#44=ORIENTED_EDGE('',*,*,#122,.F.);
#45=ORIENTED_EDGE('',*,*,#123,.T.);
#46=ORIENTED_EDGE('',*,*,#124,.T.);
#47=ORIENTED_EDGE('',*,*,#125,.F.);
#48=ORIENTED_EDGE('',*,*,#126,.F.);
#49=ORIENTED_EDGE('',*,*,#127,.T.);
#50=ORIENTED_EDGE('',*,*,#128,.T.);
#51=ORIENTED_EDGE('',*,*,#129,.T.);
#52=ORIENTED_EDGE('',*,*,#130,.T.);
#53=ORIENTED_EDGE('',*,*,#131,.F.);
#54=ORIENTED_EDGE('',*,*,#132,.T.);
#55=ORIENTED_EDGE('',*,*,#133,.F.);
#56=ORIENTED_EDGE('',*,*,#134,.F.);
#57=ORIENTED_EDGE('',*,*,#135,.T.);
#58=ORIENTED_EDGE('',*,*,#136,.F.);
#59=ORIENTED_EDGE('',*,*,#137,.T.);
#60=ORIENTED_EDGE('',*,*,#138,.F.);
#61=ORIENTED_EDGE('',*,*,#139,.T.);
#62=ORIENTED_EDGE('',*,*,#140,.T.);
#63=ORIENTED_EDGE('',*,*,#141,.F.);
#64=ORIENTED_EDGE('',*,*,#142,.F.);
#65=ORIENTED_EDGE('',*,*,#143,.T.);
#66=ORIENTED_EDGE('',*,*,#144,.T.);
#67=ORIENTED_EDGE('',*,*,#145,.T.);
#68=ORIENTED_EDGE('',*,*,#146,.T.);
#69=ORIENTED_EDGE('',*,*,#147,.T.);
#70=ORIENTED_EDGE('',*,*,#148,.T.);
#71=ORIENTED_EDGE('',*,*,#149,.T.);
#72=ORIENTED_EDGE('',*,*,#150,.T.);
#73=ORIENTED_EDGE('',*,*,#135,.F.);
#74=ORIENTED_EDGE('',*,*,#141,.T.);
#75=ORIENTED_EDGE('',*,*,#151,.T.);
#76=ORIENTED_EDGE('',*,*,#152,.T.);
#77=ORIENTED_EDGE('',*,*,#153,.T.);
#78=ORIENTED_EDGE('',*,*,#138,.T.);
#79=ORIENTED_EDGE('',*,*,#124,.F.);
#80=ORIENTED_EDGE('',*,*,#144,.F.);
#81=ORIENTED_EDGE('',*,*,#133,.T.);
#82=ORIENTED_EDGE('',*,*,#142,.T.);
#83=ORIENTED_EDGE('',*,*,#122,.T.);
#84=ORIENTED_EDGE('',*,*,#146,.F.);
#85=ORIENTED_EDGE('',*,*,#130,.F.);
#86=ORIENTED_EDGE('',*,*,#151,.F.);
#87=ORIENTED_EDGE('',*,*,#139,.F.);
#88=ORIENTED_EDGE('',*,*,#150,.F.);
#89=ORIENTED_EDGE('',*,*,#143,.F.);
#90=ORIENTED_EDGE('',*,*,#147,.F.);
#91=ORIENTED_EDGE('',*,*,#153,.F.);
#92=ORIENTED_EDGE('',*,*,#145,.F.);
#93=ORIENTED_EDGE('',*,*,#152,.F.);
#94=ORIENTED_EDGE('',*,*,#140,.F.);
#95=ORIENTED_EDGE('',*,*,#134,.T.);
#96=ORIENTED_EDGE('',*,*,#136,.T.);
#97=ORIENTED_EDGE('',*,*,#132,.F.);
#98=ORIENTED_EDGE('',*,*,#148,.F.);
#99=ORIENTED_EDGE('',*,*,#131,.T.);
#100=ORIENTED_EDGE('',*,*,#154,.T.);
#101=ORIENTED_EDGE('',*,*,#155,.T.);
#102=ORIENTED_EDGE('',*,*,#156,.T.);
#103=ORIENTED_EDGE('',*,*,#157,.T.);
#104=ORIENTED_EDGE('',*,*,#125,.T.);
#105=ORIENTED_EDGE('',*,*,#128,.F.);
#106=ORIENTED_EDGE('',*,*,#123,.F.);
#107=ORIENTED_EDGE('',*,*,#126,.T.);
#108=ORIENTED_EDGE('',*,*,#156,.F.);
#109=ORIENTED_EDGE('',*,*,#127,.F.);
#110=ORIENTED_EDGE('',*,*,#154,.F.);
#111=ORIENTED_EDGE('',*,*,#129,.F.);
#112=ORIENTED_EDGE('',*,*,#149,.F.);
#113=ORIENTED_EDGE('',*,*,#157,.F.);
#114=ORIENTED_EDGE('',*,*,#137,.F.);
#115=ORIENTED_EDGE('',*,*,#155,.F.);
#116=ORIENTED_EDGE('',*,*,#158,.F.);
#117=ORIENTED_EDGE('',*,*,#159,.T.);
#118=ORIENTED_EDGE('',*,*,#159,.F.);
#119=ORIENTED_EDGE('',*,*,#158,.T.);
#120=EDGE_CURVE('',#160,#160,#200,.T.);
#121=EDGE_CURVE('',#161,#161,#201,.T.);
#122=EDGE_CURVE('',#162,#162,#202,.T.);
#123=EDGE_CURVE('',#163,#163,#203,.T.);
#124=EDGE_CURVE('',#164,#164,#204,.T.);
#125=EDGE_CURVE('',#165,#165,#205,.T.);
#126=EDGE_CURVE('',#166,#166,#206,.T.);
#127=EDGE_CURVE('',#167,#167,#207,.T.);
#128=EDGE_CURVE('',#168,#168,#208,.T.);
#129=EDGE_CURVE('',#169,#169,#209,.T.);
#130=EDGE_CURVE('',#170,#170,#210,.T.);
#131=EDGE_CURVE('',#171,#171,#211,.T.);
#132=EDGE_CURVE('',#172,#172,#212,.T.);
#133=EDGE_CURVE('',#173,#173,#213,.T.);
#134=EDGE_CURVE('',#174,#174,#214,.T.);
#135=EDGE_CURVE('',#175,#175,#215,.T.);
#136=EDGE_CURVE('',#176,#176,#216,.T.);
#137=EDGE_CURVE('',#177,#177,#217,.T.);
#138=EDGE_CURVE('',#178,#178,#218,.T.);
#139=EDGE_CURVE('',#179,#179,#219,.T.);
#140=EDGE_CURVE('',#180,#180,#220,.T.);
#141=EDGE_CURVE('',#181,#181,#221,.T.);
#142=EDGE_CURVE('',#182,#182,#222,.T.);
#143=EDGE_CURVE('',#183,#183,#223,.T.);
#144=EDGE_CURVE('',#184,#184,#224,.T.);
#145=EDGE_CURVE('',#185,#185,#225,.T.);
#146=EDGE_CURVE('',#186,#186,#226,.T.);
#147=EDGE_CURVE('',#187,#187,#227,.T.);
#148=EDGE_CURVE('',#188,#188,#228,.T.);
#149=EDGE_CURVE('',#189,#189,#229,.T.);
#150=EDGE_CURVE('',#190,#190,#230,.T.);
#151=EDGE_CURVE('',#191,#191,#231,.T.);
#152=EDGE_CURVE('',#192,#192,#232,.T.);
#153=EDGE_CURVE('',#193,#193,#233,.T.);
#154=EDGE_CURVE('',#194,#194,#234,.T.);
#155=EDGE_CURVE('',#195,#195,#235,.T.);
#156=EDGE_CURVE('',#196,#196,#236,.T.);
#157=EDGE_CURVE('',#197,#197,#237,.T.);
#158=EDGE_CURVE('',#198,#198,#238,.T.);
#159=EDGE_CURVE('',#199,#199,#239,.T.);
#160=VERTEX_POINT('',#754);
#161=VERTEX_POINT('',#757);
#162=VERTEX_POINT('',#762);
#163=VERTEX_POINT('',#764);
#164=VERTEX_POINT('',#767);
#165=VERTEX_POINT('',#769);
#166=VERTEX_POINT('',#772);
#167=VERTEX_POINT('',#774);
#168=VERTEX_POINT('',#777);
#169=VERTEX_POINT('',#779);
#170=VERTEX_POINT('',#782);
#171=VERTEX_POINT('',#784);
#172=VERTEX_POINT('',#787);
#173=VERTEX_POINT('',#789);
#174=VERTEX_POINT('',#792);
#175=VERTEX_POINT('',#794);
#176=VERTEX_POINT('',#797);
#177=VERTEX_POINT('',#799);
#178=VERTEX_POINT('',#802);
#179=VERTEX_POINT('',#804);
#180=VERTEX_POINT('',#807);
#181=VERTEX_POINT('',#809);
#182=VERTEX_POINT('',#812);
#183=VERTEX_POINT('',#814);
#184=VERTEX_POINT('',#817);
#185=VERTEX_POINT('',#819);
#186=VERTEX_POINT('',#822);
#187=VERTEX_POINT('',#824);
#188=VERTEX_POINT('',#827);
#189=VERTEX_POINT('',#829);
#190=VERTEX_POINT('',#832);
#191=VERTEX_POINT('',#835);
#192=VERTEX_POINT('',#838);
#193=VERTEX_POINT('',#840);
#194=VERTEX_POINT('',#854);
#195=VERTEX_POINT('',#856);
#196=VERTEX_POINT('',#859);
#197=VERTEX_POINT('',#861);
#198=VERTEX_POINT('',#871);
#199=VERTEX_POINT('',#874);
#200=CIRCLE('',#498,0.000127000000000001);
#201=CIRCLE('',#500,0.000127000000000001);
#202=CIRCLE('',#504,0.0057404);
#203=CIRCLE('',#505,0.0058674);
#204=CIRCLE('',#507,0.0057404);
#205=CIRCLE('',#508,0.0058674);
#206=CIRCLE('',#510,0.0058674);
#207=CIRCLE('',#511,0.00549001024484277);
#208=CIRCLE('',#513,0.0058674);
#209=CIRCLE('',#514,0.00549001024484277);
#210=CIRCLE('',#516,0.0039243);
#211=CIRCLE('',#517,0.0040005);
#212=CIRCLE('',#519,0.0040005);
#213=CIRCLE('',#520,0.0039243);
#214=CIRCLE('',#522,0.006096);
#215=CIRCLE('',#523,0.00635);
#216=CIRCLE('',#525,0.0040005);
#217=CIRCLE('',#526,0.00497478975515723);
#218=CIRCLE('',#528,0.0057404);
#219=CIRCLE('',#529,0.0066802);
#220=CIRCLE('',#531,0.006096);
#221=CIRCLE('',#532,0.0069342);
#222=CIRCLE('',#534,0.0057404);
#223=CIRCLE('',#535,0.006096);
#224=CIRCLE('',#537,0.0039243);
#225=CIRCLE('',#538,0.003429);
#226=CIRCLE('',#540,0.0039243);
#227=CIRCLE('',#541,0.003429);
#228=CIRCLE('',#543,0.0040005);
#229=CIRCLE('',#544,0.00497478975515723);
#230=CIRCLE('',#546,0.00635);
#231=CIRCLE('',#548,0.0069342);
#232=CIRCLE('',#550,0.003175);
#233=CIRCLE('',#551,0.003175);
#234=CIRCLE('',#564,0.00531040512242138);
#235=CIRCLE('',#565,0.00515439487757862);
#236=CIRCLE('',#567,0.00531040512242138);
#237=CIRCLE('',#568,0.00515439487757862);
#238=CIRCLE('',#577,0.000127000000000001);
#239=CIRCLE('',#579,0.000127000000000001);
#240=EDGE_LOOP('',(#40));
#241=EDGE_LOOP('',(#41));
#242=EDGE_LOOP('',(#42));
#243=EDGE_LOOP('',(#43));
#244=EDGE_LOOP('',(#44));
#245=EDGE_LOOP('',(#45));
#246=EDGE_LOOP('',(#46));
#247=EDGE_LOOP('',(#47));
#248=EDGE_LOOP('',(#48));
#249=EDGE_LOOP('',(#49));
#250=EDGE_LOOP('',(#50));
#251=EDGE_LOOP('',(#51));
#252=EDGE_LOOP('',(#52));
#253=EDGE_LOOP('',(#53));
#254=EDGE_LOOP('',(#54));
#255=EDGE_LOOP('',(#55));
#256=EDGE_LOOP('',(#56));
#257=EDGE_LOOP('',(#57));
#258=EDGE_LOOP('',(#58));
#259=EDGE_LOOP('',(#59));
#260=EDGE_LOOP('',(#60));
#261=EDGE_LOOP('',(#61));
#262=EDGE_LOOP('',(#62));
#263=EDGE_LOOP('',(#63));
#264=EDGE_LOOP('',(#64));
#265=EDGE_LOOP('',(#65));
#266=EDGE_LOOP('',(#66));
#267=EDGE_LOOP('',(#67));
#268=EDGE_LOOP('',(#68));
#269=EDGE_LOOP('',(#69));
#270=EDGE_LOOP('',(#70));
#271=EDGE_LOOP('',(#71));
#272=EDGE_LOOP('',(#72));
#273=EDGE_LOOP('',(#73));
#274=EDGE_LOOP('',(#74));
#275=EDGE_LOOP('',(#75));
#276=EDGE_LOOP('',(#76));
#277=EDGE_LOOP('',(#77));
#278=EDGE_LOOP('',(#78));
#279=EDGE_LOOP('',(#79));
#280=EDGE_LOOP('',(#80));
#281=EDGE_LOOP('',(#81));
#282=EDGE_LOOP('',(#82));
#283=EDGE_LOOP('',(#83));
#284=EDGE_LOOP('',(#84));
#285=EDGE_LOOP('',(#85));
#286=EDGE_LOOP('',(#86));
#287=EDGE_LOOP('',(#87));
#288=EDGE_LOOP('',(#88));
#289=EDGE_LOOP('',(#89));
#290=EDGE_LOOP('',(#90));
#291=EDGE_LOOP('',(#91));
#292=EDGE_LOOP('',(#92));
#293=EDGE_LOOP('',(#93));
#294=EDGE_LOOP('',(#94));
#295=EDGE_LOOP('',(#95));
#296=EDGE_LOOP('',(#96));
#297=EDGE_LOOP('',(#97));
#298=EDGE_LOOP('',(#98));
#299=EDGE_LOOP('',(#99));
#300=EDGE_LOOP('',(#100));
#301=EDGE_LOOP('',(#101));
#302=EDGE_LOOP('',(#102));
#303=EDGE_LOOP('',(#103));
#304=EDGE_LOOP('',(#104));
#305=EDGE_LOOP('',(#105));
#306=EDGE_LOOP('',(#106));
#307=EDGE_LOOP('',(#107));
#308=EDGE_LOOP('',(#108));
#309=EDGE_LOOP('',(#109));
#310=EDGE_LOOP('',(#110));
#311=EDGE_LOOP('',(#111));
#312=EDGE_LOOP('',(#112));
#313=EDGE_LOOP('',(#113));
#314=EDGE_LOOP('',(#114));
#315=EDGE_LOOP('',(#115));
#316=EDGE_LOOP('',(#116));
#317=EDGE_LOOP('',(#117));
#318=EDGE_LOOP('',(#118));
#319=EDGE_LOOP('',(#119));
#320=FACE_BOUND('',#240,.T.);
#321=FACE_BOUND('',#241,.T.);
#322=FACE_BOUND('',#242,.T.);
#323=FACE_BOUND('',#243,.T.);
#324=FACE_BOUND('',#244,.T.);
#325=FACE_BOUND('',#245,.T.);
#326=FACE_BOUND('',#246,.T.);
#327=FACE_BOUND('',#247,.T.);
#328=FACE_BOUND('',#248,.T.);
#329=FACE_BOUND('',#249,.T.);
#330=FACE_BOUND('',#250,.T.);
#331=FACE_BOUND('',#251,.T.);
#332=FACE_BOUND('',#252,.T.);
#333=FACE_BOUND('',#253,.T.);
#334=FACE_BOUND('',#254,.T.);
#335=FACE_BOUND('',#255,.T.);
#336=FACE_BOUND('',#256,.T.);
#337=FACE_BOUND('',#257,.T.);
#338=FACE_BOUND('',#258,.T.);
#339=FACE_BOUND('',#259,.T.);
#340=FACE_BOUND('',#260,.T.);
#341=FACE_BOUND('',#261,.T.);
#342=FACE_BOUND('',#262,.T.);
#343=FACE_BOUND('',#263,.T.);
#344=FACE_BOUND('',#264,.T.);
#345=FACE_BOUND('',#265,.T.);
#346=FACE_BOUND('',#266,.T.);
#347=FACE_BOUND('',#267,.T.);
#348=FACE_BOUND('',#268,.T.);
#349=FACE_BOUND('',#269,.T.);
#350=FACE_BOUND('',#270,.T.);
#351=FACE_BOUND('',#271,.T.);
#352=FACE_BOUND('',#272,.T.);
#353=FACE_BOUND('',#273,.T.);
#354=FACE_BOUND('',#274,.T.);
#355=FACE_BOUND('',#275,.T.);
#356=FACE_BOUND('',#276,.T.);
#357=FACE_BOUND('',#277,.T.);
#358=FACE_BOUND('',#278,.T.);
#359=FACE_BOUND('',#279,.T.);
#360=FACE_BOUND('',#280,.T.);
#361=FACE_BOUND('',#281,.T.);
#362=FACE_BOUND('',#282,.T.);
#363=FACE_BOUND('',#283,.T.);
#364=FACE_BOUND('',#284,.T.);
#365=FACE_BOUND('',#285,.T.);
#366=FACE_BOUND('',#286,.T.);
#367=FACE_BOUND('',#287,.T.);
#368=FACE_BOUND('',#288,.T.);
#369=FACE_BOUND('',#289,.T.);
#370=FACE_BOUND('',#290,.T.);
#371=FACE_BOUND('',#291,.T.);
#372=FACE_BOUND('',#292,.T.);
#373=FACE_BOUND('',#293,.T.);
#374=FACE_BOUND('',#294,.T.);
#375=FACE_BOUND('',#295,.T.);
#376=FACE_BOUND('',#296,.T.);
#377=FACE_BOUND('',#297,.T.);
#378=FACE_BOUND('',#298,.T.);
#379=FACE_BOUND('',#299,.T.);
#380=FACE_BOUND('',#300,.T.);
#381=FACE_BOUND('',#301,.T.);
#382=FACE_BOUND('',#302,.T.);
#383=FACE_BOUND('',#303,.T.);
#384=FACE_BOUND('',#304,.T.);
#385=FACE_BOUND('',#305,.T.);
#386=FACE_BOUND('',#306,.T.);
#387=FACE_BOUND('',#307,.T.);
#388=FACE_BOUND('',#308,.T.);
#389=FACE_BOUND('',#309,.T.);
#390=FACE_BOUND('',#310,.T.);
#391=FACE_BOUND('',#311,.T.);
#392=FACE_BOUND('',#312,.T.);
#393=FACE_BOUND('',#313,.T.);
#394=FACE_BOUND('',#314,.T.);
#395=FACE_BOUND('',#315,.T.);
#396=FACE_BOUND('',#316,.T.);
#397=FACE_BOUND('',#317,.T.);
#398=FACE_BOUND('',#318,.T.);
#399=FACE_BOUND('',#319,.T.);
#400=PLANE('',#497);
#401=PLANE('',#499);
#402=PLANE('',#503);
#403=PLANE('',#506);
#404=PLANE('',#509);
#405=PLANE('',#512);
#406=PLANE('',#515);
#407=PLANE('',#518);
#408=PLANE('',#521);
#409=PLANE('',#524);
#410=PLANE('',#527);
#411=PLANE('',#530);
#412=PLANE('',#533);
#413=PLANE('',#536);
#414=PLANE('',#539);
#415=PLANE('',#542);
#416=PLANE('',#576);
#417=PLANE('',#578);
#418=ADVANCED_FACE('',(#320),#400,.T.);
#419=ADVANCED_FACE('',(#321),#401,.F.);
#420=ADVANCED_FACE('',(#322,#323),#34,.T.);
#421=ADVANCED_FACE('',(#324,#325),#402,.F.);
#422=ADVANCED_FACE('',(#326,#327),#403,.F.);
#423=ADVANCED_FACE('',(#328,#329),#404,.F.);
#424=ADVANCED_FACE('',(#330,#331),#405,.F.);
#425=ADVANCED_FACE('',(#332,#333),#406,.T.);
#426=ADVANCED_FACE('',(#334,#335),#407,.T.);
#427=ADVANCED_FACE('',(#336,#337),#408,.T.);
#428=ADVANCED_FACE('',(#338,#339),#409,.T.);
#429=ADVANCED_FACE('',(#340,#341),#410,.T.);
#430=ADVANCED_FACE('',(#342,#343),#411,.F.);
#431=ADVANCED_FACE('',(#344,#345),#412,.F.);
#432=ADVANCED_FACE('',(#346,#347),#413,.T.);
#433=ADVANCED_FACE('',(#348,#349),#414,.F.);
#434=ADVANCED_FACE('',(#350,#351),#415,.T.);
#435=ADVANCED_FACE('',(#352,#353),#16,.T.);
#436=ADVANCED_FACE('',(#354,#355),#17,.T.);
#437=ADVANCED_FACE('',(#356,#357),#18,.F.);
#438=ADVANCED_FACE('',(#358,#359),#19,.F.);
#439=ADVANCED_FACE('',(#360,#361),#20,.T.);
#440=ADVANCED_FACE('',(#362,#363),#21,.F.);
#441=ADVANCED_FACE('',(#364,#365),#22,.T.);
#442=ADVANCED_FACE('',(#366,#367),#10,.T.);
#443=ADVANCED_FACE('',(#368,#369),#11,.T.);
#444=ADVANCED_FACE('',(#370,#371),#12,.F.);
#445=ADVANCED_FACE('',(#372,#373),#13,.F.);
#446=ADVANCED_FACE('',(#374,#375),#23,.T.);
#447=ADVANCED_FACE('',(#376,#377),#24,.F.);
#448=ADVANCED_FACE('',(#378,#379),#25,.F.);
#449=ADVANCED_FACE('',(#380,#381),#14,.T.);
#450=ADVANCED_FACE('',(#382,#383),#15,.T.);
#451=ADVANCED_FACE('',(#384,#385),#26,.F.);
#452=ADVANCED_FACE('',(#386,#387),#27,.F.);
#453=ADVANCED_FACE('',(#388,#389),#35,.F.);
#454=ADVANCED_FACE('',(#390,#391),#36,.F.);
#455=ADVANCED_FACE('',(#392,#393),#37,.T.);
#456=ADVANCED_FACE('',(#394,#395),#38,.T.);
#457=ADVANCED_FACE('',(#396),#416,.T.);
#458=ADVANCED_FACE('',(#397),#417,.F.);
#459=ADVANCED_FACE('',(#398,#399),#39,.T.);
#460=CLOSED_SHELL('',(#418,#419,#420));
#461=CLOSED_SHELL('',(#421,#422,#423,#424,#425,#426,#427,#428,#429,#430,
#431,#432,#433,#434,#435,#436,#437,#438,#439,#440,#441,#442,#443,#444,#445,
#446,#447,#448,#449,#450,#451,#452,#453,#454,#455,#456));
#462=CLOSED_SHELL('',(#457,#458,#459));
#463=STYLED_ITEM('',(#466),#487);
#464=STYLED_ITEM('',(#467),#488);
#465=STYLED_ITEM('',(#468),#489);
#466=PRESENTATION_STYLE_ASSIGNMENT((#469));
#467=PRESENTATION_STYLE_ASSIGNMENT((#470));
#468=PRESENTATION_STYLE_ASSIGNMENT((#471));
#469=SURFACE_STYLE_USAGE(.BOTH.,#472);
#470=SURFACE_STYLE_USAGE(.BOTH.,#473);
#471=SURFACE_STYLE_USAGE(.BOTH.,#474);
#472=SURFACE_SIDE_STYLE('',(#475));
#473=SURFACE_SIDE_STYLE('',(#476));
#474=SURFACE_SIDE_STYLE('',(#477));
#475=SURFACE_STYLE_FILL_AREA(#478);
#476=SURFACE_STYLE_FILL_AREA(#479);
#477=SURFACE_STYLE_FILL_AREA(#480);
#478=FILL_AREA_STYLE('',(#481));
#479=FILL_AREA_STYLE('',(#482));
#480=FILL_AREA_STYLE('',(#483));
#481=FILL_AREA_STYLE_COLOUR('',#484);
#482=FILL_AREA_STYLE_COLOUR('',#485);
#483=FILL_AREA_STYLE_COLOUR('',#486);
#484=COLOUR_RGB('',0.231372549019608,0.380392156862745,0.705882352941177);
#485=COLOUR_RGB('',0.917647058823529,0.917647058823529,0.917647058823529);
#486=COLOUR_RGB('',0.768627450980392,0.886274509803922,0.952941176470588);
#487=MANIFOLD_SOLID_BREP('535198',#460);
#488=MANIFOLD_SOLID_BREP('535198',#461);
#489=MANIFOLD_SOLID_BREP('535198',#462);
#490=SHAPE_DEFINITION_REPRESENTATION(#894,#493);
#491=SHAPE_DEFINITION_REPRESENTATION(#895,#494);
#492=SHAPE_DEFINITION_REPRESENTATION(#896,#495);
#493=SHAPE_REPRESENTATION('535198',(#496),#879);
#494=SHAPE_REPRESENTATION('535198',(#502),#880);
#495=SHAPE_REPRESENTATION('535198',(#575),#881);
#496=AXIS2_PLACEMENT_3D('',#751,#581,#582);
#497=AXIS2_PLACEMENT_3D('',#752,#583,#584);
#498=AXIS2_PLACEMENT_3D('',#753,#585,#586);
#499=AXIS2_PLACEMENT_3D('',#755,#587,#588);
#500=AXIS2_PLACEMENT_3D('',#756,#589,#590);
#501=AXIS2_PLACEMENT_3D('',#758,#591,#592);
#502=AXIS2_PLACEMENT_3D('',#759,#593,#594);
#503=AXIS2_PLACEMENT_3D('',#760,#595,#596);
#504=AXIS2_PLACEMENT_3D('',#761,#597,#598);
#505=AXIS2_PLACEMENT_3D('',#763,#599,#600);
#506=AXIS2_PLACEMENT_3D('',#765,#601,#602);
#507=AXIS2_PLACEMENT_3D('',#766,#603,#604);
#508=AXIS2_PLACEMENT_3D('',#768,#605,#606);
#509=AXIS2_PLACEMENT_3D('',#770,#607,#608);
#510=AXIS2_PLACEMENT_3D('',#771,#609,#610);
#511=AXIS2_PLACEMENT_3D('',#773,#611,#612);
#512=AXIS2_PLACEMENT_3D('',#775,#613,#614);
#513=AXIS2_PLACEMENT_3D('',#776,#615,#616);
#514=AXIS2_PLACEMENT_3D('',#778,#617,#618);
#515=AXIS2_PLACEMENT_3D('',#780,#619,#620);
#516=AXIS2_PLACEMENT_3D('',#781,#621,#622);
#517=AXIS2_PLACEMENT_3D('',#783,#623,#624);
#518=AXIS2_PLACEMENT_3D('',#785,#625,#626);
#519=AXIS2_PLACEMENT_3D('',#786,#627,#628);
#520=AXIS2_PLACEMENT_3D('',#788,#629,#630);
#521=AXIS2_PLACEMENT_3D('',#790,#631,#632);
#522=AXIS2_PLACEMENT_3D('',#791,#633,#634);
#523=AXIS2_PLACEMENT_3D('',#793,#635,#636);
#524=AXIS2_PLACEMENT_3D('',#795,#637,#638);
#525=AXIS2_PLACEMENT_3D('',#796,#639,#640);
#526=AXIS2_PLACEMENT_3D('',#798,#641,#642);
#527=AXIS2_PLACEMENT_3D('',#800,#643,#644);
#528=AXIS2_PLACEMENT_3D('',#801,#645,#646);
#529=AXIS2_PLACEMENT_3D('',#803,#647,#648);
#530=AXIS2_PLACEMENT_3D('',#805,#649,#650);
#531=AXIS2_PLACEMENT_3D('',#806,#651,#652);
#532=AXIS2_PLACEMENT_3D('',#808,#653,#654);
#533=AXIS2_PLACEMENT_3D('',#810,#655,#656);
#534=AXIS2_PLACEMENT_3D('',#811,#657,#658);
#535=AXIS2_PLACEMENT_3D('',#813,#659,#660);
#536=AXIS2_PLACEMENT_3D('',#815,#661,#662);
#537=AXIS2_PLACEMENT_3D('',#816,#663,#664);
#538=AXIS2_PLACEMENT_3D('',#818,#665,#666);
#539=AXIS2_PLACEMENT_3D('',#820,#667,#668);
#540=AXIS2_PLACEMENT_3D('',#821,#669,#670);
#541=AXIS2_PLACEMENT_3D('',#823,#671,#672);
#542=AXIS2_PLACEMENT_3D('',#825,#673,#674);
#543=AXIS2_PLACEMENT_3D('',#826,#675,#676);
#544=AXIS2_PLACEMENT_3D('',#828,#677,#678);
#545=AXIS2_PLACEMENT_3D('',#830,#679,#680);
#546=AXIS2_PLACEMENT_3D('',#831,#681,#682);
#547=AXIS2_PLACEMENT_3D('',#833,#683,#684);
#548=AXIS2_PLACEMENT_3D('',#834,#685,#686);
#549=AXIS2_PLACEMENT_3D('',#836,#687,#688);
#550=AXIS2_PLACEMENT_3D('',#837,#689,#690);
#551=AXIS2_PLACEMENT_3D('',#839,#691,#692);
#552=AXIS2_PLACEMENT_3D('',#841,#693,#694);
#553=AXIS2_PLACEMENT_3D('',#842,#695,#696);
#554=AXIS2_PLACEMENT_3D('',#843,#697,#698);
#555=AXIS2_PLACEMENT_3D('',#844,#699,#700);
#556=AXIS2_PLACEMENT_3D('',#845,#701,#702);
#557=AXIS2_PLACEMENT_3D('',#846,#703,#704);
#558=AXIS2_PLACEMENT_3D('',#847,#705,#706);
#559=AXIS2_PLACEMENT_3D('',#848,#707,#708);
#560=AXIS2_PLACEMENT_3D('',#849,#709,#710);
#561=AXIS2_PLACEMENT_3D('',#850,#711,#712);
#562=AXIS2_PLACEMENT_3D('',#851,#713,#714);
#563=AXIS2_PLACEMENT_3D('',#852,#715,#716);
#564=AXIS2_PLACEMENT_3D('',#853,#717,#718);
#565=AXIS2_PLACEMENT_3D('',#855,#719,#720);
#566=AXIS2_PLACEMENT_3D('',#857,#721,#722);
#567=AXIS2_PLACEMENT_3D('',#858,#723,#724);
#568=AXIS2_PLACEMENT_3D('',#860,#725,#726);
#569=AXIS2_PLACEMENT_3D('',#862,#727,#728);
#570=AXIS2_PLACEMENT_3D('',#863,#729,#730);
#571=AXIS2_PLACEMENT_3D('',#864,#731,#732);
#572=AXIS2_PLACEMENT_3D('',#865,#733,#734);
#573=AXIS2_PLACEMENT_3D('',#866,#735,#736);
#574=AXIS2_PLACEMENT_3D('',#867,#737,#738);
#575=AXIS2_PLACEMENT_3D('',#868,#739,#740);
#576=AXIS2_PLACEMENT_3D('',#869,#741,#742);
#577=AXIS2_PLACEMENT_3D('',#870,#743,#744);
#578=AXIS2_PLACEMENT_3D('',#872,#745,#746);
#579=AXIS2_PLACEMENT_3D('',#873,#747,#748);
#580=AXIS2_PLACEMENT_3D('',#875,#749,#750);
#581=DIRECTION('',(0.,0.,1.));
#582=DIRECTION('',(1.,0.,0.));
#583=DIRECTION('',(0.,0.,1.));
#584=DIRECTION('',(1.,0.,0.));
#585=DIRECTION('',(0.,0.,1.));
#586=DIRECTION('',(1.,0.,0.));
#587=DIRECTION('',(0.64278760968653,0.,0.766044443118986));
#588=DIRECTION('',(0.766044443118986,0.,-0.64278760968653));
#589=DIRECTION('',(0.64278760968653,0.,0.766044443118986));
#590=DIRECTION('',(0.766044443118986,0.,-0.64278760968653));
#591=DIRECTION('',(0.,1.,0.));
#592=DIRECTION('',(0.,0.,1.));
#593=DIRECTION('',(0.,0.,1.));
#594=DIRECTION('',(1.,0.,0.));
#595=DIRECTION('',(0.,-1.,0.));
#596=DIRECTION('',(0.,0.,1.));
#597=DIRECTION('',(0.,1.,0.));
#598=DIRECTION('',(0.,0.,1.));
#599=DIRECTION('',(0.,1.,0.));
#600=DIRECTION('',(0.,0.,1.));
#601=DIRECTION('',(0.,1.,0.));
#602=DIRECTION('',(0.,0.,1.));
#603=DIRECTION('',(0.,1.,0.));
#604=DIRECTION('',(0.,0.,1.));
#605=DIRECTION('',(0.,1.,0.));
#606=DIRECTION('',(0.,0.,1.));
#607=DIRECTION('',(0.,1.,0.));
#608=DIRECTION('',(0.,0.,-1.));
#609=DIRECTION('',(0.,1.,0.));
#610=DIRECTION('',(0.,0.,1.));
#611=DIRECTION('',(0.,1.,0.));
#612=DIRECTION('',(0.,0.,1.));
#613=DIRECTION('',(0.,-1.,0.));
#614=DIRECTION('',(0.,0.,-1.));
#615=DIRECTION('',(0.,1.,0.));
#616=DIRECTION('',(0.,0.,1.));
#617=DIRECTION('',(0.,-1.,0.));
#618=DIRECTION('',(0.,0.,-1.));
#619=DIRECTION('',(0.,-1.,0.));
#620=DIRECTION('',(0.,0.,1.));
#621=DIRECTION('',(0.,1.,0.));
#622=DIRECTION('',(0.,0.,1.));
#623=DIRECTION('',(0.,1.,0.));
#624=DIRECTION('',(0.,0.,1.));
#625=DIRECTION('',(0.,1.,0.));
#626=DIRECTION('',(0.,0.,1.));
#627=DIRECTION('',(0.,1.,0.));
#628=DIRECTION('',(0.,0.,1.));
#629=DIRECTION('',(0.,1.,0.));
#630=DIRECTION('',(0.,0.,1.));
#631=DIRECTION('',(0.,1.,0.));
#632=DIRECTION('',(0.,0.,1.));
#633=DIRECTION('',(0.,1.,0.));
#634=DIRECTION('',(0.,0.,1.));
#635=DIRECTION('',(0.,1.,0.));
#636=DIRECTION('',(0.,0.,1.));
#637=DIRECTION('',(0.,1.,0.));
#638=DIRECTION('',(0.,0.,1.));
#639=DIRECTION('',(0.,1.,0.));
#640=DIRECTION('',(0.,0.,1.));
#641=DIRECTION('',(0.,1.,0.));
#642=DIRECTION('',(0.,0.,1.));
#643=DIRECTION('',(0.,1.,0.));
#644=DIRECTION('',(0.,0.,1.));
#645=DIRECTION('',(0.,1.,0.));
#646=DIRECTION('',(0.,0.,1.));
#647=DIRECTION('',(0.,1.,0.));
#648=DIRECTION('',(0.,0.,1.));
#649=DIRECTION('',(0.,1.,0.));
#650=DIRECTION('',(0.,0.,1.));
#651=DIRECTION('',(0.,1.,0.));
#652=DIRECTION('',(0.,0.,1.));
#653=DIRECTION('',(0.,1.,0.));
#654=DIRECTION('',(0.,0.,1.));
#655=DIRECTION('',(0.,1.,0.));
#656=DIRECTION('',(0.,0.,1.));
#657=DIRECTION('',(0.,-1.,0.));
#658=DIRECTION('',(0.,0.,-1.));
#659=DIRECTION('',(0.,-1.,0.));
#660=DIRECTION('',(0.,0.,1.));
#661=DIRECTION('',(0.,1.,0.));
#662=DIRECTION('',(0.,0.,1.));
#663=DIRECTION('',(0.,1.,0.));
#664=DIRECTION('',(0.,0.,1.));
#665=DIRECTION('',(0.,-1.,0.));
#666=DIRECTION('',(0.,0.,1.));
#667=DIRECTION('',(0.,1.,0.));
#668=DIRECTION('',(0.,0.,1.));
#669=DIRECTION('',(0.,-1.,0.));
#670=DIRECTION('',(0.,0.,-1.));
#671=DIRECTION('',(0.,1.,0.));
#672=DIRECTION('',(0.,0.,1.));
#673=DIRECTION('',(0.,-1.,0.));
#674=DIRECTION('',(0.,0.,-1.));
#675=DIRECTION('',(0.,1.,0.));
#676=DIRECTION('',(0.,0.,1.));
#677=DIRECTION('',(0.,-1.,0.));
#678=DIRECTION('',(0.,0.,-1.));
#679=DIRECTION('',(0.,-1.,0.));
#680=DIRECTION('',(0.,0.,-1.));
#681=DIRECTION('',(0.,1.,0.));
#682=DIRECTION('',(0.,0.,1.));
#683=DIRECTION('',(0.,-1.,0.));
#684=DIRECTION('',(0.,0.,-1.));
#685=DIRECTION('',(0.,-1.,0.));
#686=DIRECTION('',(0.,0.,1.));
#687=DIRECTION('',(0.,1.,0.));
#688=DIRECTION('',(0.,0.,1.));
#689=DIRECTION('',(0.,1.,0.));
#690=DIRECTION('',(0.,0.,1.));
#691=DIRECTION('',(0.,-1.,0.));
#692=DIRECTION('',(0.,0.,1.));
#693=DIRECTION('',(0.,-1.,0.));
#694=DIRECTION('',(0.,0.,-1.));
#695=DIRECTION('',(0.,-1.,0.));
#696=DIRECTION('',(0.,0.,-1.));
#697=DIRECTION('',(0.,-1.,0.));
#698=DIRECTION('',(0.,0.,-1.));
#699=DIRECTION('',(0.,-1.,0.));
#700=DIRECTION('',(0.,0.,-1.));
#701=DIRECTION('',(0.,-1.,0.));
#702=DIRECTION('',(0.,0.,-1.));
#703=DIRECTION('',(0.,1.,0.));
#704=DIRECTION('',(0.,0.,1.));
#705=DIRECTION('',(0.,-1.,0.));
#706=DIRECTION('',(0.,0.,-1.));
#707=DIRECTION('',(0.,1.,0.));
#708=DIRECTION('',(0.,0.,1.));
#709=DIRECTION('',(0.,1.,0.));
#710=DIRECTION('',(0.,0.,1.));
#711=DIRECTION('',(0.,-1.,0.));
#712=DIRECTION('',(0.,0.,-1.));
#713=DIRECTION('',(0.,-1.,0.));
#714=DIRECTION('',(0.,0.,-1.));
#715=DIRECTION('',(0.,-1.,0.));
#716=DIRECTION('',(0.,0.,-1.));
#717=DIRECTION('',(0.,1.,0.));
#718=DIRECTION('',(0.,0.,-1.));
#719=DIRECTION('',(0.,-1.,0.));
#720=DIRECTION('',(0.,0.,-1.));
#721=DIRECTION('',(0.,1.,0.));
#722=DIRECTION('',(0.,0.,-1.));
#723=DIRECTION('',(0.,-1.,0.));
#724=DIRECTION('',(0.,0.,1.));
#725=DIRECTION('',(0.,1.,0.));
#726=DIRECTION('',(0.,0.,1.));
#727=DIRECTION('',(0.,-1.,0.));
#728=DIRECTION('',(0.,0.,1.));
#729=DIRECTION('',(0.,-1.,0.));
#730=DIRECTION('',(0.,0.,1.));
#731=DIRECTION('',(0.,1.,0.));
#732=DIRECTION('',(0.,0.,1.));
#733=DIRECTION('',(0.,-1.,0.));
#734=DIRECTION('',(0.,0.,-1.));
#735=DIRECTION('',(0.,-1.,0.));
#736=DIRECTION('',(0.,0.,-1.));
#737=DIRECTION('',(0.,1.,0.));
#738=DIRECTION('',(0.,0.,1.));
#739=DIRECTION('',(0.,0.,1.));
#740=DIRECTION('',(1.,0.,0.));
#741=DIRECTION('',(0.,0.,1.));
#742=DIRECTION('',(1.,0.,0.));
#743=DIRECTION('',(0.,0.,-1.));
#744=DIRECTION('',(1.,0.,0.));
#745=DIRECTION('',(0.64278760968653,0.,0.766044443118986));
#746=DIRECTION('',(0.766044443118986,0.,-0.64278760968653));
#747=DIRECTION('',(-0.64278760968653,0.,-0.766044443118986));
#748=DIRECTION('',(0.766044443118986,0.,-0.64278760968653));
#749=DIRECTION('',(0.,-1.,0.));
#750=DIRECTION('',(0.,0.,1.));
#751=CARTESIAN_POINT('',(0.,0.,0.));
#752=CARTESIAN_POINT('',(-0.0057404,0.004318,0.));
#753=CARTESIAN_POINT('',(-0.0057404,0.004318,0.));
#754=CARTESIAN_POINT('',(-0.0056134,0.004318,0.));
#755=CARTESIAN_POINT('',(-0.00439740152128023,0.004318,0.00368985799464456));
#756=CARTESIAN_POINT('',(-0.00439740152128023,0.004318,0.00368985799464456));
#757=CARTESIAN_POINT('',(-0.00430011387700411,0.004318,0.00360822396821436));
#758=CARTESIAN_POINT('',(0.,0.004318,0.));
#759=CARTESIAN_POINT('',(0.,0.,0.));
#760=CARTESIAN_POINT('',(-0.0057404,0.0003048,0.));
#761=CARTESIAN_POINT('',(0.,0.0003048,0.));
#762=CARTESIAN_POINT('',(0.,0.0003048,0.0057404));
#763=CARTESIAN_POINT('',(0.,0.0003048,0.));
#764=CARTESIAN_POINT('',(0.,0.0003048,0.0058674));
#765=CARTESIAN_POINT('',(-0.0057404,0.004445,0.));
#766=CARTESIAN_POINT('',(0.,0.004445,0.));
#767=CARTESIAN_POINT('',(0.,0.004445,0.0057404));
#768=CARTESIAN_POINT('',(0.,0.004445,0.));
#769=CARTESIAN_POINT('',(0.,0.004445,0.0058674));
#770=CARTESIAN_POINT('',(0.,0.0005588,0.0057404));
#771=CARTESIAN_POINT('',(0.,0.0005588,0.));
#772=CARTESIAN_POINT('',(0.,0.0005588,0.0058674));
#773=CARTESIAN_POINT('',(0.,0.0005588,0.));
#774=CARTESIAN_POINT('',(0.,0.0005588,0.00549001024484277));
#775=CARTESIAN_POINT('',(0.,0.004191,0.0057404));
#776=CARTESIAN_POINT('',(0.,0.004191,0.));
#777=CARTESIAN_POINT('',(0.,0.004191,0.0058674));
#778=CARTESIAN_POINT('',(0.,0.004191,0.));
#779=CARTESIAN_POINT('',(0.,0.004191,-0.00549001024484277));
#780=CARTESIAN_POINT('',(0.,0.001524,0.));
#781=CARTESIAN_POINT('',(0.,0.001524,0.));
#782=CARTESIAN_POINT('',(0.,0.001524,0.0039243));
#783=CARTESIAN_POINT('',(0.,0.001524,0.));
#784=CARTESIAN_POINT('',(0.,0.001524,0.0040005));
#785=CARTESIAN_POINT('',(0.,0.0032258,0.));
#786=CARTESIAN_POINT('',(0.,0.0032258,0.));
#787=CARTESIAN_POINT('',(0.,0.0032258,0.0040005));
#788=CARTESIAN_POINT('',(0.,0.0032258,0.));
#789=CARTESIAN_POINT('',(0.,0.0032258,0.0039243));
#790=CARTESIAN_POINT('',(0.00635,0.0029972,0.));
#791=CARTESIAN_POINT('',(0.,0.0029972,0.));
#792=CARTESIAN_POINT('',(0.,0.0029972,0.006096));
#793=CARTESIAN_POINT('',(0.,0.0029972,0.));
#794=CARTESIAN_POINT('',(0.,0.0029972,0.00635));
#795=CARTESIAN_POINT('',(0.,0.0044958,0.));
#796=CARTESIAN_POINT('',(0.,0.0044958,0.));
#797=CARTESIAN_POINT('',(0.,0.0044958,0.0040005));
#798=CARTESIAN_POINT('',(0.,0.0044958,0.));
#799=CARTESIAN_POINT('',(0.,0.0044958,0.00497478975515723));
#800=CARTESIAN_POINT('',(0.,0.0047498,0.));
#801=CARTESIAN_POINT('',(0.,0.0047498,0.));
#802=CARTESIAN_POINT('',(0.,0.0047498,0.0057404));
#803=CARTESIAN_POINT('',(0.,0.0047498,0.));
#804=CARTESIAN_POINT('',(0.,0.0047498,0.0066802));
#805=CARTESIAN_POINT('',(0.,0.0036322,0.));
#806=CARTESIAN_POINT('',(0.,0.0036322,0.));
#807=CARTESIAN_POINT('',(0.,0.0036322,0.006096));
#808=CARTESIAN_POINT('',(0.,0.0036322,0.));
#809=CARTESIAN_POINT('',(0.,0.0036322,0.0069342));
#810=CARTESIAN_POINT('',(0.,0.,0.));
#811=CARTESIAN_POINT('',(0.,0.,0.));
#812=CARTESIAN_POINT('',(0.,0.,-0.0057404));
#813=CARTESIAN_POINT('',(0.,0.,0.));
#814=CARTESIAN_POINT('',(0.,0.,0.006096));
#815=CARTESIAN_POINT('',(0.,0.0047498,0.));
#816=CARTESIAN_POINT('',(0.,0.0047498,0.));
#817=CARTESIAN_POINT('',(0.,0.0047498,0.0039243));
#818=CARTESIAN_POINT('',(0.,0.0047498,0.));
#819=CARTESIAN_POINT('',(0.,0.0047498,0.003429));
#820=CARTESIAN_POINT('',(0.,0.,0.));
#821=CARTESIAN_POINT('',(0.,0.,0.));
#822=CARTESIAN_POINT('',(0.,0.,-0.0039243));
#823=CARTESIAN_POINT('',(0.,0.,0.));
#824=CARTESIAN_POINT('',(0.,0.,0.003429));
#825=CARTESIAN_POINT('',(0.,0.000254,0.));
#826=CARTESIAN_POINT('',(0.,0.000254,0.));
#827=CARTESIAN_POINT('',(0.,0.000254,0.0040005));
#828=CARTESIAN_POINT('',(0.,0.000254,0.));
#829=CARTESIAN_POINT('',(0.,0.000254,-0.00497478975515723));
#830=CARTESIAN_POINT('',(0.,0.0036322,0.));
#831=CARTESIAN_POINT('',(0.,0.000254000000000013,0.));
#832=CARTESIAN_POINT('',(0.,0.000254000000000013,0.00635));
#833=CARTESIAN_POINT('',(0.,0.0047498,0.));
#834=CARTESIAN_POINT('',(0.,0.0044958,0.));
#835=CARTESIAN_POINT('',(0.,0.0044958,0.0069342));
#836=CARTESIAN_POINT('',(0.,0.,0.));
#837=CARTESIAN_POINT('',(0.,0.0044958,0.));
#838=CARTESIAN_POINT('',(0.,0.0044958,0.003175));
#839=CARTESIAN_POINT('',(0.,0.000254,0.));
#840=CARTESIAN_POINT('',(0.,0.000254,0.003175));
#841=CARTESIAN_POINT('',(0.,0.000254,0.));
#842=CARTESIAN_POINT('',(0.,0.000254,0.));
#843=CARTESIAN_POINT('',(0.,0.000254,0.));
#844=CARTESIAN_POINT('',(0.,0.000254,0.));
#845=CARTESIAN_POINT('',(0.,0.0047498,0.));
#846=CARTESIAN_POINT('',(0.,0.000254000000000013,0.));
#847=CARTESIAN_POINT('',(0.,0.,0.));
#848=CARTESIAN_POINT('',(0.,0.0044958,0.));
#849=CARTESIAN_POINT('',(0.,0.,0.));
#850=CARTESIAN_POINT('',(0.,0.001524,0.));
#851=CARTESIAN_POINT('',(0.,0.001524,0.));
#852=CARTESIAN_POINT('',(0.,0.004191,0.));
#853=CARTESIAN_POINT('',(0.,0.00426539487757861,0.));
#854=CARTESIAN_POINT('',(0.,0.00426539487757861,-0.00531040512242138));
#855=CARTESIAN_POINT('',(0.,0.00442140512242139,0.));
#856=CARTESIAN_POINT('',(0.,0.00442140512242139,-0.00515439487757862));
#857=CARTESIAN_POINT('',(0.,0.0005588,0.));
#858=CARTESIAN_POINT('',(0.,0.000484405122421384,0.));
#859=CARTESIAN_POINT('',(0.,0.000484405122421384,0.00531040512242138));
#860=CARTESIAN_POINT('',(0.,0.000328394877578616,0.));
#861=CARTESIAN_POINT('',(0.,0.000328394877578616,0.00515439487757862));
#862=CARTESIAN_POINT('',(0.,0.0047498,0.));
#863=CARTESIAN_POINT('',(0.,0.0047498,0.));
#864=CARTESIAN_POINT('',(0.,0.0003048,0.));
#865=CARTESIAN_POINT('',(0.,0.004445,0.));
#866=CARTESIAN_POINT('',(0.,0.000508,0.));
#867=CARTESIAN_POINT('',(0.,0.0042418,0.));
#868=CARTESIAN_POINT('',(0.,0.,0.));
#869=CARTESIAN_POINT('',(-0.0057404,0.0004318,0.));
#870=CARTESIAN_POINT('',(-0.0057404,0.0004318,0.));
#871=CARTESIAN_POINT('',(-0.0056134,0.0004318,0.));
#872=CARTESIAN_POINT('',(-0.00439740152128023,0.0004318,0.00368985799464456));
#873=CARTESIAN_POINT('',(-0.00439740152128023,0.0004318,0.00368985799464456));
#874=CARTESIAN_POINT('',(-0.00430011387700411,0.0004318,0.00360822396821436));
#875=CARTESIAN_POINT('',(0.,0.0004318,0.));
#876=MECHANICAL_DESIGN_GEOMETRIC_PRESENTATION_REPRESENTATION('',(#463),
#879);
#877=MECHANICAL_DESIGN_GEOMETRIC_PRESENTATION_REPRESENTATION('',(#464),
#880);
#878=MECHANICAL_DESIGN_GEOMETRIC_PRESENTATION_REPRESENTATION('',(#465),
#881);
#879=(
GEOMETRIC_REPRESENTATION_CONTEXT(3)
GLOBAL_UNCERTAINTY_ASSIGNED_CONTEXT((#882))
GLOBAL_UNIT_ASSIGNED_CONTEXT((#891,#888,#885))
REPRESENTATION_CONTEXT('535198','TOP_LEVEL_ASSEMBLY_PART')
);
#880=(
GEOMETRIC_REPRESENTATION_CONTEXT(3)
GLOBAL_UNCERTAINTY_ASSIGNED_CONTEXT((#883))
GLOBAL_UNIT_ASSIGNED_CONTEXT((#892,#889,#886))
REPRESENTATION_CONTEXT('535198','TOP_LEVEL_ASSEMBLY_PART')
);
#881=(
GEOMETRIC_REPRESENTATION_CONTEXT(3)
GLOBAL_UNCERTAINTY_ASSIGNED_CONTEXT((#884))
GLOBAL_UNIT_ASSIGNED_CONTEXT((#893,#890,#887))
REPRESENTATION_CONTEXT('535198','TOP_LEVEL_ASSEMBLY_PART')
);
#882=UNCERTAINTY_MEASURE_WITH_UNIT(LENGTH_MEASURE(1.E-8),#891,
'DISTANCE_ACCURACY_VALUE','Maximum Tolerance applied to model');
#883=UNCERTAINTY_MEASURE_WITH_UNIT(LENGTH_MEASURE(1.E-8),#892,
'DISTANCE_ACCURACY_VALUE','Maximum Tolerance applied to model');
#884=UNCERTAINTY_MEASURE_WITH_UNIT(LENGTH_MEASURE(1.E-8),#893,
'DISTANCE_ACCURACY_VALUE','Maximum Tolerance applied to model');
#885=(
NAMED_UNIT(*)
SI_UNIT($,.STERADIAN.)
SOLID_ANGLE_UNIT()
);
#886=(
NAMED_UNIT(*)
SI_UNIT($,.STERADIAN.)
SOLID_ANGLE_UNIT()
);
#887=(
NAMED_UNIT(*)
SI_UNIT($,.STERADIAN.)
SOLID_ANGLE_UNIT()
);
#888=(
NAMED_UNIT(*)
PLANE_ANGLE_UNIT()
SI_UNIT($,.RADIAN.)
);
#889=(
NAMED_UNIT(*)
PLANE_ANGLE_UNIT()
SI_UNIT($,.RADIAN.)
);
#890=(
NAMED_UNIT(*)
PLANE_ANGLE_UNIT()
SI_UNIT($,.RADIAN.)
);
#891=(
LENGTH_UNIT()
NAMED_UNIT(*)
SI_UNIT($,.METRE.)
);
#892=(
LENGTH_UNIT()
NAMED_UNIT(*)
SI_UNIT($,.METRE.)
);
#893=(
LENGTH_UNIT()
NAMED_UNIT(*)
SI_UNIT($,.METRE.)
);
#894=PRODUCT_DEFINITION_SHAPE('','',#897);
#895=PRODUCT_DEFINITION_SHAPE('','',#898);
#896=PRODUCT_DEFINITION_SHAPE('','',#899);
#897=PRODUCT_DEFINITION('','',#903,#900);
#898=PRODUCT_DEFINITION('','',#904,#901);
#899=PRODUCT_DEFINITION('','',#905,#902);
#900=PRODUCT_DEFINITION_CONTEXT('',#921,'design');
#901=PRODUCT_DEFINITION_CONTEXT('',#922,'design');
#902=PRODUCT_DEFINITION_CONTEXT('',#923,'design');
#903=PRODUCT_DEFINITION_FORMATION_WITH_SPECIFIED_SOURCE('','',#909,
 .NOT_KNOWN.);
#904=PRODUCT_DEFINITION_FORMATION_WITH_SPECIFIED_SOURCE('','',#910,
 .NOT_KNOWN.);
#905=PRODUCT_DEFINITION_FORMATION_WITH_SPECIFIED_SOURCE('','',#911,
 .NOT_KNOWN.);
#906=PRODUCT_RELATED_PRODUCT_CATEGORY('','',(#909));
#907=PRODUCT_RELATED_PRODUCT_CATEGORY('','',(#910));
#908=PRODUCT_RELATED_PRODUCT_CATEGORY('','',(#911));
#909=PRODUCT('535198','535198','535198',(#915));
#910=PRODUCT('535198','535198','535198',(#916));
#911=PRODUCT('535198','535198','535198',(#917));
#912=PRODUCT_CATEGORY('','');
#913=PRODUCT_CATEGORY('','');
#914=PRODUCT_CATEGORY('','');
#915=PRODUCT_CONTEXT('',#921,'mechanical');
#916=PRODUCT_CONTEXT('',#922,'mechanical');
#917=PRODUCT_CONTEXT('',#923,'mechanical');
#918=APPLICATION_PROTOCOL_DEFINITION('international standard',
'ap242_managed_model_based_3d_engineering',2020,#921);
#919=APPLICATION_PROTOCOL_DEFINITION('international standard',
'ap242_managed_model_based_3d_engineering',2020,#922);
#920=APPLICATION_PROTOCOL_DEFINITION('international standard',
'ap242_managed_model_based_3d_engineering',2020,#923);
#921=APPLICATION_CONTEXT('managed model based 3d engineering');
#922=APPLICATION_CONTEXT('managed model based 3d engineering');
#923=APPLICATION_CONTEXT('managed model based 3d engineering');
ENDSEC;
END-ISO-10303-21;
