ISO-10303-21;
HEADER;
/* Generated by software containing ST-Developer
 * from STEP Tools, Inc. (www.steptools.com) 
 */
/* OPTION: using custom renumber hook */

FILE_DESCRIPTION(
/* description */ ('STEP AP242 Edition 2',
'CAx-IF Rec.Pracs.---Representation and Presentation of Product Manufa
cturing Information (PMI)---4.0---2014-10-13',
'CAx-IF Rec.Pracs.---3D Tessellated Geometry---0.4---2014-09-14','2;1',
'CAx-IF Rec.Pracs.---User Defined Attributes---1.5---2016-08-15'),
/* implementation_level */ '2;1');

FILE_NAME(
/* name */ '5d8062a5-97c5-4149-9cbe-b6440a40dfe7',
/* time_stamp */ '2026-04-15T18:24:20Z',
/* author */ (''),
/* organization */ (''),
/* preprocessor_version */ 'ST-DEVELOPER v20',
/* originating_system */ 'ONSHAPE BY PTC INC, 1.213',
/* authorisation */ '  ');

FILE_SCHEMA (('AP242_MANAGED_MODEL_BASED_3D_ENGINEERING_MIM_LF { 1 0 10303 442 3 1 4 }'));
ENDSEC;

DATA;
#10=SHAPE_REPRESENTATION_RELATIONSHIP('','',#107,#11);
#11=ADVANCED_BREP_SHAPE_REPRESENTATION('',(#105),#185);
#12=CONICAL_SURFACE('',#117,0.00317119,0.785398163397457);
#13=CONICAL_SURFACE('',#118,0.00304419,0.785398163397457);
#14=CYLINDRICAL_SURFACE('',#114,0.00317119);
#15=B_SPLINE_CURVE_WITH_KNOTS('',3,(#160,#161,#162,#163),.UNSPECIFIED.,
 .F.,.F.,(4,4),(0.,0.000255216641458037),.UNSPECIFIED.);
#16=B_SPLINE_CURVE_WITH_KNOTS('',3,(#164,#165,#166,#167),.UNSPECIFIED.,
 .F.,.F.,(4,4),(2.36177502020872E-19,0.000255216641458037),
 .UNSPECIFIED.);
#17=B_SPLINE_CURVE_WITH_KNOTS('',3,(#171,#172,#173,#174),.UNSPECIFIED.,
 .F.,.F.,(4,4),(0.,0.000255216641458037),.UNSPECIFIED.);
#18=B_SPLINE_CURVE_WITH_KNOTS('',3,(#175,#176,#177,#178),.UNSPECIFIED.,
 .F.,.F.,(4,4),(0.,0.000255216641458036),.UNSPECIFIED.);
#19=CIRCLE('',#110,0.00304419);
#20=CIRCLE('',#112,0.00304419);
#21=CIRCLE('',#115,0.00317119);
#22=CIRCLE('',#116,0.00317119);
#23=ORIENTED_EDGE('',*,*,#47,.F.);
#24=ORIENTED_EDGE('',*,*,#48,.T.);
#25=ORIENTED_EDGE('',*,*,#49,.T.);
#26=ORIENTED_EDGE('',*,*,#50,.T.);
#27=ORIENTED_EDGE('',*,*,#51,.T.);
#28=ORIENTED_EDGE('',*,*,#52,.T.);
#29=ORIENTED_EDGE('',*,*,#47,.T.);
#30=ORIENTED_EDGE('',*,*,#53,.T.);
#31=ORIENTED_EDGE('',*,*,#54,.F.);
#32=ORIENTED_EDGE('',*,*,#55,.T.);
#33=ORIENTED_EDGE('',*,*,#49,.F.);
#34=ORIENTED_EDGE('',*,*,#56,.T.);
#35=ORIENTED_EDGE('',*,*,#57,.T.);
#36=ORIENTED_EDGE('',*,*,#54,.T.);
#37=ORIENTED_EDGE('',*,*,#58,.T.);
#38=ORIENTED_EDGE('',*,*,#51,.F.);
#39=ORIENTED_EDGE('',*,*,#48,.F.);
#40=ORIENTED_EDGE('',*,*,#52,.F.);
#41=ORIENTED_EDGE('',*,*,#58,.F.);
#42=ORIENTED_EDGE('',*,*,#53,.F.);
#43=ORIENTED_EDGE('',*,*,#50,.F.);
#44=ORIENTED_EDGE('',*,*,#55,.F.);
#45=ORIENTED_EDGE('',*,*,#57,.F.);
#46=ORIENTED_EDGE('',*,*,#56,.F.);
#47=EDGE_CURVE('',#59,#60,#67,.T.);
#48=EDGE_CURVE('',#59,#60,#19,.T.);
#49=EDGE_CURVE('',#61,#62,#68,.T.);
#50=EDGE_CURVE('',#62,#61,#20,.T.);
#51=EDGE_CURVE('',#63,#64,#69,.T.);
#52=EDGE_CURVE('',#64,#59,#15,.T.);
#53=EDGE_CURVE('',#60,#65,#16,.T.);
#54=EDGE_CURVE('',#66,#65,#70,.T.);
#55=EDGE_CURVE('',#66,#62,#17,.T.);
#56=EDGE_CURVE('',#61,#63,#18,.T.);
#57=EDGE_CURVE('',#63,#66,#21,.T.);
#58=EDGE_CURVE('',#65,#64,#22,.T.);
#59=VERTEX_POINT('',#148);
#60=VERTEX_POINT('',#149);
#61=VERTEX_POINT('',#153);
#62=VERTEX_POINT('',#154);
#63=VERTEX_POINT('',#158);
#64=VERTEX_POINT('',#159);
#65=VERTEX_POINT('',#168);
#66=VERTEX_POINT('',#170);
#67=LINE('',#147,#71);
#68=LINE('',#152,#72);
#69=LINE('',#157,#73);
#70=LINE('',#169,#74);
#71=VECTOR('',#123,1.);
#72=VECTOR('',#128,1.);
#73=VECTOR('',#133,1.);
#74=VECTOR('',#134,1.);
#75=EDGE_LOOP('',(#23,#24));
#76=EDGE_LOOP('',(#25,#26));
#77=EDGE_LOOP('',(#27,#28,#29,#30,#31,#32,#33,#34));
#78=EDGE_LOOP('',(#35,#36,#37,#38));
#79=EDGE_LOOP('',(#39,#40,#41,#42));
#80=EDGE_LOOP('',(#43,#44,#45,#46));
#81=FACE_BOUND('',#75,.T.);
#82=FACE_BOUND('',#76,.T.);
#83=FACE_BOUND('',#77,.T.);
#84=FACE_BOUND('',#78,.T.);
#85=FACE_BOUND('',#79,.T.);
#86=FACE_BOUND('',#80,.T.);
#87=PLANE('',#109);
#88=PLANE('',#111);
#89=PLANE('',#113);
#90=ADVANCED_FACE('',(#81),#87,.F.);
#91=ADVANCED_FACE('',(#82),#88,.T.);
#92=ADVANCED_FACE('',(#83),#89,.F.);
#93=ADVANCED_FACE('',(#84),#14,.T.);
#94=ADVANCED_FACE('',(#85),#12,.T.);
#95=ADVANCED_FACE('',(#86),#13,.T.);
#96=CLOSED_SHELL('',(#90,#91,#92,#93,#94,#95));
#97=STYLED_ITEM('',(#98),#105);
#98=PRESENTATION_STYLE_ASSIGNMENT((#99));
#99=SURFACE_STYLE_USAGE(.BOTH.,#100);
#100=SURFACE_SIDE_STYLE('',(#101));
#101=SURFACE_STYLE_FILL_AREA(#102);
#102=FILL_AREA_STYLE('',(#103));
#103=FILL_AREA_STYLE_COLOUR('',#104);
#104=COLOUR_RGB('',0.8,0.8,0.8);
#105=MANIFOLD_SOLID_BREP('1/4\X2\201D\X0\ x 2\X2\201D\X0\ Stainless St
eel  D-shaft',#96);
#106=SHAPE_DEFINITION_REPRESENTATION(#190,#107);
#107=SHAPE_REPRESENTATION('1/4\X2\FFFD\X0\ x 2\X2\FFFD\X0\ Stainless S
teel  D-shaft',(#108),#185);
#108=AXIS2_PLACEMENT_3D('',#145,#119,#120);
#109=AXIS2_PLACEMENT_3D('',#146,#121,#122);
#110=AXIS2_PLACEMENT_3D('',#150,#124,#125);
#111=AXIS2_PLACEMENT_3D('',#151,#126,#127);
#112=AXIS2_PLACEMENT_3D('',#155,#129,#130);
#113=AXIS2_PLACEMENT_3D('',#156,#131,#132);
#114=AXIS2_PLACEMENT_3D('',#179,#135,#136);
#115=AXIS2_PLACEMENT_3D('',#180,#137,#138);
#116=AXIS2_PLACEMENT_3D('',#181,#139,#140);
#117=AXIS2_PLACEMENT_3D('',#182,#141,#142);
#118=AXIS2_PLACEMENT_3D('',#183,#143,#144);
#119=DIRECTION('',(0.,0.,1.));
#120=DIRECTION('',(1.,0.,0.));
#121=DIRECTION('',(0.,1.,0.));
#122=DIRECTION('',(0.,0.,1.));
#123=DIRECTION('',(0.,0.,1.));
#124=DIRECTION('',(0.,-1.,0.));
#125=DIRECTION('',(0.,0.,1.));
#126=DIRECTION('',(0.,1.,0.));
#127=DIRECTION('',(0.,0.,1.));
#128=DIRECTION('',(0.,0.,1.));
#129=DIRECTION('',(0.,1.,0.));
#130=DIRECTION('',(0.,0.,1.));
#131=DIRECTION('',(1.,0.,0.));
#132=DIRECTION('',(0.,0.,-1.));
#133=DIRECTION('',(0.,-1.,0.));
#134=DIRECTION('',(0.,-1.,0.));
#135=DIRECTION('',(0.,-1.,0.));
#136=DIRECTION('',(0.,0.,-1.));
#137=DIRECTION('',(0.,-1.,0.));
#138=DIRECTION('',(0.,0.,1.));
#139=DIRECTION('',(0.,1.,0.));
#140=DIRECTION('',(0.,0.,1.));
#141=DIRECTION('',(0.,1.,0.));
#142=DIRECTION('',(0.,0.,1.));
#143=DIRECTION('',(0.,-1.,0.));
#144=DIRECTION('',(0.,0.,-1.));
#145=CARTESIAN_POINT('',(0.,0.,0.));
#146=CARTESIAN_POINT('',(0.,0.,0.));
#147=CARTESIAN_POINT('',(-0.00254381,0.,-0.00189353550270387));
#148=CARTESIAN_POINT('',(-0.00254381,0.,-0.00167216130800829));
#149=CARTESIAN_POINT('',(-0.00254381,0.,0.00167216130800829));
#150=CARTESIAN_POINT('',(0.,0.,0.));
#151=CARTESIAN_POINT('',(0.,0.0508,0.));
#152=CARTESIAN_POINT('',(-0.00254381,0.0508,-0.00189353550270387));
#153=CARTESIAN_POINT('',(-0.00254381,0.0508,-0.00167216130800829));
#154=CARTESIAN_POINT('',(-0.00254381,0.0508,0.00167216130800829));
#155=CARTESIAN_POINT('',(0.,0.0508,0.));
#156=CARTESIAN_POINT('',(-0.00254381,0.0508,-0.00189353550270387));
#157=CARTESIAN_POINT('',(-0.00254381,0.0508,-0.00189353550270387));
#158=CARTESIAN_POINT('',(-0.00254381,0.050673,-0.00189353550270387));
#159=CARTESIAN_POINT('',(-0.00254381,0.000127000000000002,-0.00189353550270387));
#160=CARTESIAN_POINT('',(-0.00254381,0.000127000000000002,-0.00189353550270387));
#161=CARTESIAN_POINT('',(-0.00254381,8.338625355595E-5,-0.0018204935785422));
#162=CARTESIAN_POINT('',(-0.00254381,4.09575857320566E-5,-0.00174672509100731));
#163=CARTESIAN_POINT('',(-0.00254381,0.,-0.00167216130800829));
#164=CARTESIAN_POINT('',(-0.00254381,0.,0.00167216130800829));
#165=CARTESIAN_POINT('',(-0.00254381,4.09575857320628E-5,0.0017467250910073));
#166=CARTESIAN_POINT('',(-0.00254381,8.33862535559464E-5,0.00182049357854221));
#167=CARTESIAN_POINT('',(-0.00254381,0.000127000000000002,0.00189353550270387));
#168=CARTESIAN_POINT('',(-0.00254381,0.000127000000000002,0.00189353550270387));
#169=CARTESIAN_POINT('',(-0.00254381,0.0508,0.00189353550270387));
#170=CARTESIAN_POINT('',(-0.00254381,0.050673,0.00189353550270387));
#171=CARTESIAN_POINT('',(-0.00254381,0.050673,0.00189353550270387));
#172=CARTESIAN_POINT('',(-0.00254381,0.0507166137464441,0.0018204935785422));
#173=CARTESIAN_POINT('',(-0.00254381,0.0507590424142679,0.00174672509100731));
#174=CARTESIAN_POINT('',(-0.00254381,0.0508,0.00167216130800829));
#175=CARTESIAN_POINT('',(-0.00254381,0.0508,-0.00167216130800829));
#176=CARTESIAN_POINT('',(-0.00254381,0.0507590424142679,-0.0017467250910073));
#177=CARTESIAN_POINT('',(-0.00254381,0.0507166137464441,-0.00182049357854221));
#178=CARTESIAN_POINT('',(-0.00254381,0.050673,-0.00189353550270387));
#179=CARTESIAN_POINT('',(0.,0.0508,0.));
#180=CARTESIAN_POINT('',(0.,0.050673,0.));
#181=CARTESIAN_POINT('',(0.,0.000127000000000002,0.));
#182=CARTESIAN_POINT('',(0.,0.000127000000000002,0.));
#183=CARTESIAN_POINT('',(0.,0.0508,0.));
#184=MECHANICAL_DESIGN_GEOMETRIC_PRESENTATION_REPRESENTATION('',(#97),#185);
#185=(
GEOMETRIC_REPRESENTATION_CONTEXT(3)
GLOBAL_UNCERTAINTY_ASSIGNED_CONTEXT((#186))
GLOBAL_UNIT_ASSIGNED_CONTEXT((#189,#188,#187))
REPRESENTATION_CONTEXT('1/4\X2\FFFD\X0\ x 2\X2\FFFD\X0\ Stainless Stee
l  D-shaft','TOP_LEVEL_ASSEMBLY_PART')
);
#186=UNCERTAINTY_MEASURE_WITH_UNIT(LENGTH_MEASURE(1.E-6),#189,
'DISTANCE_ACCURACY_VALUE','Maximum Tolerance applied to model');
#187=(
NAMED_UNIT(*)
SI_UNIT($,.STERADIAN.)
SOLID_ANGLE_UNIT()
);
#188=(
NAMED_UNIT(*)
PLANE_ANGLE_UNIT()
SI_UNIT($,.RADIAN.)
);
#189=(
LENGTH_UNIT()
NAMED_UNIT(*)
SI_UNIT($,.METRE.)
);
#190=PRODUCT_DEFINITION_SHAPE('','',#191);
#191=PRODUCT_DEFINITION('','',#193,#192);
#192=PRODUCT_DEFINITION_CONTEXT('',#199,'design');
#193=PRODUCT_DEFINITION_FORMATION_WITH_SPECIFIED_SOURCE('','',#195,
 .NOT_KNOWN.);
#194=PRODUCT_RELATED_PRODUCT_CATEGORY('','',(#195));
#195=PRODUCT('1/4\X2\FFFD\X0\ x 2\X2\FFFD\X0\ Stainless Steel  D-shaft',
'1/4\X2\FFFD\X0\ x 2\X2\FFFD\X0\ Stainless Steel  D-shaft',
'1/4\X2\FFFD\X0\ x 2\X2\FFFD\X0\ Stainless Steel  D-shaft',(#197));
#196=PRODUCT_CATEGORY('','');
#197=PRODUCT_CONTEXT('',#199,'mechanical');
#198=APPLICATION_PROTOCOL_DEFINITION('international standard',
'ap242_managed_model_based_3d_engineering',2020,#199);
#199=APPLICATION_CONTEXT('managed model based 3d engineering');
ENDSEC;
END-ISO-10303-21;
