ISO-10303-21;
HEADER;
/* Generated by software containing ST-Developer
 * from STEP Tools, Inc. (www.steptools.com) 
 */
/* OPTION: using custom renumber hook */

FILE_DESCRIPTION(
/* description */ ('STEP AP242 Edition 2',
'CAx-IF Rec.Pracs.---Representation and Presentation of Product Manufa
cturing Information (PMI)---4.0---2014-10-13',
'CAx-IF Rec.Pracs.---3D Tessellated Geometry---0.4---2014-09-14','2;1',
'CAx-IF Rec.Pracs.---User Defined Attributes---1.5---2016-08-15'),
/* implementation_level */ '2;1');

FILE_NAME(
/* name */ 'Bracket - Bracket Limit Switch',
/* time_stamp */ '2026-04-15T18:35:41Z',
/* author */ (''),
/* organization */ (''),
/* preprocessor_version */ 'ST-DEVELOPER v20',
/* originating_system */ 'ONSHAPE BY PTC INC, 1.213',
/* authorisation */ '  ');

FILE_SCHEMA (('AP242_MANAGED_MODEL_BASED_3D_ENGINEERING_MIM_LF { 1 0 10303 442 3 1 4 }'));
ENDSEC;

DATA;
#10=SHAPE_REPRESENTATION_RELATIONSHIP('','',#321,#11);
#11=ADVANCED_BREP_SHAPE_REPRESENTATION('',(#319),#511);
#12=CIRCLE('',#325,0.001175);
#13=CIRCLE('',#326,0.001175);
#14=CIRCLE('',#328,0.001175);
#15=CIRCLE('',#329,0.001175);
#16=CIRCLE('',#338,0.001175);
#17=CIRCLE('',#339,0.001175);
#18=CIRCLE('',#341,0.001175);
#19=CIRCLE('',#343,0.001175);
#20=CYLINDRICAL_SURFACE('',#324,0.001175);
#21=CYLINDRICAL_SURFACE('',#327,0.001175);
#22=CYLINDRICAL_SURFACE('',#340,0.001175);
#23=CYLINDRICAL_SURFACE('',#342,0.001175);
#24=ORIENTED_EDGE('',*,*,#100,.F.);
#25=ORIENTED_EDGE('',*,*,#101,.T.);
#26=ORIENTED_EDGE('',*,*,#102,.T.);
#27=ORIENTED_EDGE('',*,*,#103,.F.);
#28=ORIENTED_EDGE('',*,*,#104,.T.);
#29=ORIENTED_EDGE('',*,*,#105,.F.);
#30=ORIENTED_EDGE('',*,*,#106,.T.);
#31=ORIENTED_EDGE('',*,*,#107,.F.);
#32=ORIENTED_EDGE('',*,*,#108,.T.);
#33=ORIENTED_EDGE('',*,*,#109,.T.);
#34=ORIENTED_EDGE('',*,*,#110,.F.);
#35=ORIENTED_EDGE('',*,*,#111,.F.);
#36=ORIENTED_EDGE('',*,*,#112,.T.);
#37=ORIENTED_EDGE('',*,*,#113,.T.);
#38=ORIENTED_EDGE('',*,*,#103,.T.);
#39=ORIENTED_EDGE('',*,*,#114,.T.);
#40=ORIENTED_EDGE('',*,*,#115,.F.);
#41=ORIENTED_EDGE('',*,*,#116,.F.);
#42=ORIENTED_EDGE('',*,*,#110,.T.);
#43=ORIENTED_EDGE('',*,*,#117,.F.);
#44=ORIENTED_EDGE('',*,*,#118,.T.);
#45=ORIENTED_EDGE('',*,*,#119,.F.);
#46=ORIENTED_EDGE('',*,*,#120,.F.);
#47=ORIENTED_EDGE('',*,*,#115,.T.);
#48=ORIENTED_EDGE('',*,*,#121,.T.);
#49=ORIENTED_EDGE('',*,*,#122,.F.);
#50=ORIENTED_EDGE('',*,*,#123,.F.);
#51=ORIENTED_EDGE('',*,*,#119,.T.);
#52=ORIENTED_EDGE('',*,*,#124,.T.);
#53=ORIENTED_EDGE('',*,*,#125,.F.);
#54=ORIENTED_EDGE('',*,*,#126,.F.);
#55=ORIENTED_EDGE('',*,*,#122,.T.);
#56=ORIENTED_EDGE('',*,*,#127,.F.);
#57=ORIENTED_EDGE('',*,*,#128,.T.);
#58=ORIENTED_EDGE('',*,*,#108,.F.);
#59=ORIENTED_EDGE('',*,*,#129,.F.);
#60=ORIENTED_EDGE('',*,*,#125,.T.);
#61=ORIENTED_EDGE('',*,*,#130,.T.);
#62=ORIENTED_EDGE('',*,*,#101,.F.);
#63=ORIENTED_EDGE('',*,*,#131,.F.);
#64=ORIENTED_EDGE('',*,*,#106,.F.);
#65=ORIENTED_EDGE('',*,*,#104,.F.);
#66=ORIENTED_EDGE('',*,*,#111,.T.);
#67=ORIENTED_EDGE('',*,*,#116,.T.);
#68=ORIENTED_EDGE('',*,*,#120,.T.);
#69=ORIENTED_EDGE('',*,*,#123,.T.);
#70=ORIENTED_EDGE('',*,*,#126,.T.);
#71=ORIENTED_EDGE('',*,*,#129,.T.);
#72=ORIENTED_EDGE('',*,*,#132,.T.);
#73=ORIENTED_EDGE('',*,*,#133,.T.);
#74=ORIENTED_EDGE('',*,*,#102,.F.);
#75=ORIENTED_EDGE('',*,*,#130,.F.);
#76=ORIENTED_EDGE('',*,*,#124,.F.);
#77=ORIENTED_EDGE('',*,*,#121,.F.);
#78=ORIENTED_EDGE('',*,*,#118,.F.);
#79=ORIENTED_EDGE('',*,*,#114,.F.);
#80=ORIENTED_EDGE('',*,*,#134,.T.);
#81=ORIENTED_EDGE('',*,*,#133,.F.);
#82=ORIENTED_EDGE('',*,*,#135,.T.);
#83=ORIENTED_EDGE('',*,*,#132,.F.);
#84=ORIENTED_EDGE('',*,*,#109,.F.);
#85=ORIENTED_EDGE('',*,*,#128,.F.);
#86=ORIENTED_EDGE('',*,*,#136,.T.);
#87=ORIENTED_EDGE('',*,*,#117,.T.);
#88=ORIENTED_EDGE('',*,*,#107,.T.);
#89=ORIENTED_EDGE('',*,*,#105,.T.);
#90=ORIENTED_EDGE('',*,*,#135,.F.);
#91=ORIENTED_EDGE('',*,*,#100,.T.);
#92=ORIENTED_EDGE('',*,*,#113,.F.);
#93=ORIENTED_EDGE('',*,*,#137,.F.);
#94=ORIENTED_EDGE('',*,*,#131,.T.);
#95=ORIENTED_EDGE('',*,*,#134,.F.);
#96=ORIENTED_EDGE('',*,*,#136,.F.);
#97=ORIENTED_EDGE('',*,*,#127,.T.);
#98=ORIENTED_EDGE('',*,*,#137,.T.);
#99=ORIENTED_EDGE('',*,*,#112,.F.);
#100=EDGE_CURVE('',#138,#139,#166,.T.);
#101=EDGE_CURVE('',#138,#140,#167,.T.);
#102=EDGE_CURVE('',#140,#141,#168,.T.);
#103=EDGE_CURVE('',#139,#141,#169,.T.);
#104=EDGE_CURVE('',#142,#142,#12,.T.);
#105=EDGE_CURVE('',#143,#143,#13,.F.);
#106=EDGE_CURVE('',#144,#144,#14,.T.);
#107=EDGE_CURVE('',#145,#145,#15,.F.);
#108=EDGE_CURVE('',#146,#147,#170,.T.);
#109=EDGE_CURVE('',#147,#148,#171,.T.);
#110=EDGE_CURVE('',#149,#148,#172,.T.);
#111=EDGE_CURVE('',#146,#149,#173,.T.);
#112=EDGE_CURVE('',#150,#151,#174,.T.);
#113=EDGE_CURVE('',#151,#139,#175,.T.);
#114=EDGE_CURVE('',#141,#152,#176,.T.);
#115=EDGE_CURVE('',#153,#152,#177,.T.);
#116=EDGE_CURVE('',#149,#153,#178,.T.);
#117=EDGE_CURVE('',#150,#148,#179,.T.);
#118=EDGE_CURVE('',#152,#154,#180,.T.);
#119=EDGE_CURVE('',#155,#154,#181,.T.);
#120=EDGE_CURVE('',#153,#155,#182,.T.);
#121=EDGE_CURVE('',#154,#156,#183,.T.);
#122=EDGE_CURVE('',#157,#156,#184,.T.);
#123=EDGE_CURVE('',#155,#157,#185,.T.);
#124=EDGE_CURVE('',#156,#158,#186,.T.);
#125=EDGE_CURVE('',#159,#158,#187,.T.);
#126=EDGE_CURVE('',#157,#159,#188,.T.);
#127=EDGE_CURVE('',#160,#161,#189,.T.);
#128=EDGE_CURVE('',#160,#147,#190,.T.);
#129=EDGE_CURVE('',#159,#146,#191,.T.);
#130=EDGE_CURVE('',#158,#140,#192,.T.);
#131=EDGE_CURVE('',#161,#138,#193,.T.);
#132=EDGE_CURVE('',#162,#162,#16,.T.);
#133=EDGE_CURVE('',#163,#163,#17,.T.);
#134=EDGE_CURVE('',#164,#164,#18,.F.);
#135=EDGE_CURVE('',#165,#165,#19,.F.);
#136=EDGE_CURVE('',#160,#150,#194,.T.);
#137=EDGE_CURVE('',#161,#151,#195,.T.);
#138=VERTEX_POINT('',#430);
#139=VERTEX_POINT('',#431);
#140=VERTEX_POINT('',#433);
#141=VERTEX_POINT('',#435);
#142=VERTEX_POINT('',#439);
#143=VERTEX_POINT('',#441);
#144=VERTEX_POINT('',#444);
#145=VERTEX_POINT('',#446);
#146=VERTEX_POINT('',#449);
#147=VERTEX_POINT('',#450);
#148=VERTEX_POINT('',#452);
#149=VERTEX_POINT('',#454);
#150=VERTEX_POINT('',#458);
#151=VERTEX_POINT('',#459);
#152=VERTEX_POINT('',#462);
#153=VERTEX_POINT('',#464);
#154=VERTEX_POINT('',#469);
#155=VERTEX_POINT('',#471);
#156=VERTEX_POINT('',#475);
#157=VERTEX_POINT('',#477);
#158=VERTEX_POINT('',#481);
#159=VERTEX_POINT('',#483);
#160=VERTEX_POINT('',#487);
#161=VERTEX_POINT('',#488);
#162=VERTEX_POINT('',#496);
#163=VERTEX_POINT('',#498);
#164=VERTEX_POINT('',#501);
#165=VERTEX_POINT('',#504);
#166=LINE('',#429,#196);
#167=LINE('',#432,#197);
#168=LINE('',#434,#198);
#169=LINE('',#436,#199);
#170=LINE('',#448,#200);
#171=LINE('',#451,#201);
#172=LINE('',#453,#202);
#173=LINE('',#455,#203);
#174=LINE('',#457,#204);
#175=LINE('',#460,#205);
#176=LINE('',#461,#206);
#177=LINE('',#463,#207);
#178=LINE('',#465,#208);
#179=LINE('',#466,#209);
#180=LINE('',#468,#210);
#181=LINE('',#470,#211);
#182=LINE('',#472,#212);
#183=LINE('',#474,#213);
#184=LINE('',#476,#214);
#185=LINE('',#478,#215);
#186=LINE('',#480,#216);
#187=LINE('',#482,#217);
#188=LINE('',#484,#218);
#189=LINE('',#486,#219);
#190=LINE('',#489,#220);
#191=LINE('',#490,#221);
#192=LINE('',#491,#222);
#193=LINE('',#492,#223);
#194=LINE('',#506,#224);
#195=LINE('',#508,#225);
#196=VECTOR('',#351,1.);
#197=VECTOR('',#352,1.);
#198=VECTOR('',#353,1.);
#199=VECTOR('',#354,1.);
#200=VECTOR('',#369,1.);
#201=VECTOR('',#370,1.);
#202=VECTOR('',#371,1.);
#203=VECTOR('',#372,1.);
#204=VECTOR('',#375,1.);
#205=VECTOR('',#376,1.);
#206=VECTOR('',#377,1.);
#207=VECTOR('',#378,1.);
#208=VECTOR('',#379,1.);
#209=VECTOR('',#380,1.);
#210=VECTOR('',#383,1.);
#211=VECTOR('',#384,1.);
#212=VECTOR('',#385,1.);
#213=VECTOR('',#388,1.);
#214=VECTOR('',#389,1.);
#215=VECTOR('',#390,1.);
#216=VECTOR('',#393,1.);
#217=VECTOR('',#394,1.);
#218=VECTOR('',#395,1.);
#219=VECTOR('',#398,1.);
#220=VECTOR('',#399,1.);
#221=VECTOR('',#400,1.);
#222=VECTOR('',#401,1.);
#223=VECTOR('',#402,1.);
#224=VECTOR('',#421,1.);
#225=VECTOR('',#424,1.);
#226=EDGE_LOOP('',(#24,#25,#26,#27));
#227=EDGE_LOOP('',(#28));
#228=EDGE_LOOP('',(#29));
#229=EDGE_LOOP('',(#30));
#230=EDGE_LOOP('',(#31));
#231=EDGE_LOOP('',(#32,#33,#34,#35));
#232=EDGE_LOOP('',(#36,#37,#38,#39,#40,#41,#42,#43));
#233=EDGE_LOOP('',(#44,#45,#46,#47));
#234=EDGE_LOOP('',(#48,#49,#50,#51));
#235=EDGE_LOOP('',(#52,#53,#54,#55));
#236=EDGE_LOOP('',(#56,#57,#58,#59,#60,#61,#62,#63));
#237=EDGE_LOOP('',(#64));
#238=EDGE_LOOP('',(#65));
#239=EDGE_LOOP('',(#66,#67,#68,#69,#70,#71));
#240=EDGE_LOOP('',(#72));
#241=EDGE_LOOP('',(#73));
#242=EDGE_LOOP('',(#74,#75,#76,#77,#78,#79));
#243=EDGE_LOOP('',(#80));
#244=EDGE_LOOP('',(#81));
#245=EDGE_LOOP('',(#82));
#246=EDGE_LOOP('',(#83));
#247=EDGE_LOOP('',(#84,#85,#86,#87));
#248=EDGE_LOOP('',(#88));
#249=EDGE_LOOP('',(#89));
#250=EDGE_LOOP('',(#90));
#251=EDGE_LOOP('',(#91,#92,#93,#94));
#252=EDGE_LOOP('',(#95));
#253=EDGE_LOOP('',(#96,#97,#98,#99));
#254=FACE_BOUND('',#226,.T.);
#255=FACE_BOUND('',#227,.T.);
#256=FACE_BOUND('',#228,.T.);
#257=FACE_BOUND('',#229,.T.);
#258=FACE_BOUND('',#230,.T.);
#259=FACE_BOUND('',#231,.T.);
#260=FACE_BOUND('',#232,.T.);
#261=FACE_BOUND('',#233,.T.);
#262=FACE_BOUND('',#234,.T.);
#263=FACE_BOUND('',#235,.T.);
#264=FACE_BOUND('',#236,.T.);
#265=FACE_BOUND('',#237,.T.);
#266=FACE_BOUND('',#238,.T.);
#267=FACE_BOUND('',#239,.T.);
#268=FACE_BOUND('',#240,.T.);
#269=FACE_BOUND('',#241,.T.);
#270=FACE_BOUND('',#242,.T.);
#271=FACE_BOUND('',#243,.T.);
#272=FACE_BOUND('',#244,.T.);
#273=FACE_BOUND('',#245,.T.);
#274=FACE_BOUND('',#246,.T.);
#275=FACE_BOUND('',#247,.T.);
#276=FACE_BOUND('',#248,.T.);
#277=FACE_BOUND('',#249,.T.);
#278=FACE_BOUND('',#250,.T.);
#279=FACE_BOUND('',#251,.T.);
#280=FACE_BOUND('',#252,.T.);
#281=FACE_BOUND('',#253,.T.);
#282=PLANE('',#323);
#283=PLANE('',#330);
#284=PLANE('',#331);
#285=PLANE('',#332);
#286=PLANE('',#333);
#287=PLANE('',#334);
#288=PLANE('',#335);
#289=PLANE('',#336);
#290=PLANE('',#337);
#291=PLANE('',#344);
#292=PLANE('',#345);
#293=PLANE('',#346);
#294=ADVANCED_FACE('',(#254),#282,.F.);
#295=ADVANCED_FACE('',(#255,#256),#20,.F.);
#296=ADVANCED_FACE('',(#257,#258),#21,.F.);
#297=ADVANCED_FACE('',(#259),#283,.F.);
#298=ADVANCED_FACE('',(#260),#284,.F.);
#299=ADVANCED_FACE('',(#261),#285,.F.);
#300=ADVANCED_FACE('',(#262),#286,.F.);
#301=ADVANCED_FACE('',(#263),#287,.F.);
#302=ADVANCED_FACE('',(#264),#288,.F.);
#303=ADVANCED_FACE('',(#265,#266,#267),#289,.T.);
#304=ADVANCED_FACE('',(#268,#269,#270),#290,.F.);
#305=ADVANCED_FACE('',(#271,#272),#22,.F.);
#306=ADVANCED_FACE('',(#273,#274),#23,.F.);
#307=ADVANCED_FACE('',(#275,#276,#277),#291,.T.);
#308=ADVANCED_FACE('',(#278,#279,#280),#292,.F.);
#309=ADVANCED_FACE('',(#281),#293,.T.);
#310=CLOSED_SHELL('',(#294,#295,#296,#297,#298,#299,#300,#301,#302,#303,
#304,#305,#306,#307,#308,#309));
#311=STYLED_ITEM('',(#312),#319);
#312=PRESENTATION_STYLE_ASSIGNMENT((#313));
#313=SURFACE_STYLE_USAGE(.BOTH.,#314);
#314=SURFACE_SIDE_STYLE('',(#315));
#315=SURFACE_STYLE_FILL_AREA(#316);
#316=FILL_AREA_STYLE('',(#317));
#317=FILL_AREA_STYLE_COLOUR('',#318);
#318=COLOUR_RGB('',0.498039215686275,0.498039215686275,0.498039215686275);
#319=MANIFOLD_SOLID_BREP('Bracket Limit Switch',#310);
#320=SHAPE_DEFINITION_REPRESENTATION(#516,#321);
#321=SHAPE_REPRESENTATION('Bracket Limit Switch',(#322),#511);
#322=AXIS2_PLACEMENT_3D('',#427,#347,#348);
#323=AXIS2_PLACEMENT_3D('',#428,#349,#350);
#324=AXIS2_PLACEMENT_3D('',#437,#355,#356);
#325=AXIS2_PLACEMENT_3D('',#438,#357,#358);
#326=AXIS2_PLACEMENT_3D('',#440,#359,#360);
#327=AXIS2_PLACEMENT_3D('',#442,#361,#362);
#328=AXIS2_PLACEMENT_3D('',#443,#363,#364);
#329=AXIS2_PLACEMENT_3D('',#445,#365,#366);
#330=AXIS2_PLACEMENT_3D('',#447,#367,#368);
#331=AXIS2_PLACEMENT_3D('',#456,#373,#374);
#332=AXIS2_PLACEMENT_3D('',#467,#381,#382);
#333=AXIS2_PLACEMENT_3D('',#473,#386,#387);
#334=AXIS2_PLACEMENT_3D('',#479,#391,#392);
#335=AXIS2_PLACEMENT_3D('',#485,#396,#397);
#336=AXIS2_PLACEMENT_3D('',#493,#403,#404);
#337=AXIS2_PLACEMENT_3D('',#494,#405,#406);
#338=AXIS2_PLACEMENT_3D('',#495,#407,#408);
#339=AXIS2_PLACEMENT_3D('',#497,#409,#410);
#340=AXIS2_PLACEMENT_3D('',#499,#411,#412);
#341=AXIS2_PLACEMENT_3D('',#500,#413,#414);
#342=AXIS2_PLACEMENT_3D('',#502,#415,#416);
#343=AXIS2_PLACEMENT_3D('',#503,#417,#418);
#344=AXIS2_PLACEMENT_3D('',#505,#419,#420);
#345=AXIS2_PLACEMENT_3D('',#507,#422,#423);
#346=AXIS2_PLACEMENT_3D('',#509,#425,#426);
#347=DIRECTION('',(0.,0.,1.));
#348=DIRECTION('',(1.,0.,0.));
#349=DIRECTION('',(0.,-1.,-5.9818050895752E-16));
#350=DIRECTION('',(0.,5.9818050895752E-16,-1.));
#351=DIRECTION('',(0.,-5.9818050895752E-16,1.));
#352=DIRECTION('',(-1.,0.,0.));
#353=DIRECTION('',(0.,-5.9818050895752E-16,1.));
#354=DIRECTION('',(-1.,0.,0.));
#355=DIRECTION('',(1.,0.,0.));
#356=DIRECTION('',(0.,0.,-1.));
#357=DIRECTION('',(1.,0.,0.));
#358=DIRECTION('',(0.,0.,-1.));
#359=DIRECTION('',(-1.,0.,0.));
#360=DIRECTION('',(0.,0.,1.));
#361=DIRECTION('',(1.,0.,0.));
#362=DIRECTION('',(0.,0.,-1.));
#363=DIRECTION('',(1.,0.,0.));
#364=DIRECTION('',(0.,0.,-1.));
#365=DIRECTION('',(-1.,0.,0.));
#366=DIRECTION('',(0.,0.,1.));
#367=DIRECTION('',(0.,-1.,-5.9818050895752E-16));
#368=DIRECTION('',(0.,5.9818050895752E-16,-1.));
#369=DIRECTION('',(-1.,0.,0.));
#370=DIRECTION('',(0.,-5.9818050895752E-16,1.));
#371=DIRECTION('',(-1.,0.,0.));
#372=DIRECTION('',(0.,-5.9818050895752E-16,1.));
#373=DIRECTION('',(0.,1.11917643611407E-16,-1.));
#374=DIRECTION('',(0.,1.,1.11917643611407E-16));
#375=DIRECTION('',(-1.,0.,0.));
#376=DIRECTION('',(0.,1.,5.9818050895752E-16));
#377=DIRECTION('',(0.,-1.,-1.11917643611407E-16));
#378=DIRECTION('',(-1.,0.,0.));
#379=DIRECTION('',(0.,-1.,-1.11917643611407E-16));
#380=DIRECTION('',(0.,1.,5.9818050895752E-16));
#381=DIRECTION('',(0.,1.,1.4954512723938E-16));
#382=DIRECTION('',(0.,-1.4954512723938E-16,1.));
#383=DIRECTION('',(0.,1.4954512723938E-16,-1.));
#384=DIRECTION('',(-1.,0.,0.));
#385=DIRECTION('',(0.,1.4954512723938E-16,-1.));
#386=DIRECTION('',(0.,0.,1.));
#387=DIRECTION('',(1.,0.,0.));
#388=DIRECTION('',(0.,1.,0.));
#389=DIRECTION('',(-1.,0.,0.));
#390=DIRECTION('',(0.,1.,0.));
#391=DIRECTION('',(0.,-1.,-1.83697019872103E-16));
#392=DIRECTION('',(0.,1.83697019872103E-16,-1.));
#393=DIRECTION('',(0.,-1.83697019872103E-16,1.));
#394=DIRECTION('',(-1.,0.,0.));
#395=DIRECTION('',(0.,-1.83697019872103E-16,1.));
#396=DIRECTION('',(0.,0.,1.));
#397=DIRECTION('',(1.,0.,0.));
#398=DIRECTION('',(-1.,0.,0.));
#399=DIRECTION('',(0.,1.,5.9818050895752E-16));
#400=DIRECTION('',(0.,1.,0.));
#401=DIRECTION('',(0.,1.,0.));
#402=DIRECTION('',(0.,1.,5.9818050895752E-16));
#403=DIRECTION('',(1.,0.,0.));
#404=DIRECTION('',(0.,1.,0.));
#405=DIRECTION('',(1.,0.,0.));
#406=DIRECTION('',(0.,1.,0.));
#407=DIRECTION('',(1.,0.,0.));
#408=DIRECTION('',(0.,0.,-1.));
#409=DIRECTION('',(1.,0.,0.));
#410=DIRECTION('',(0.,0.,-1.));
#411=DIRECTION('',(1.,0.,0.));
#412=DIRECTION('',(0.,0.,-1.));
#413=DIRECTION('',(-1.,0.,0.));
#414=DIRECTION('',(0.,0.,1.));
#415=DIRECTION('',(1.,0.,0.));
#416=DIRECTION('',(0.,0.,-1.));
#417=DIRECTION('',(-1.,0.,0.));
#418=DIRECTION('',(0.,0.,1.));
#419=DIRECTION('',(-1.,0.,0.));
#420=DIRECTION('',(0.,0.,1.));
#421=DIRECTION('',(0.,-5.9818050895752E-16,1.));
#422=DIRECTION('',(-1.,0.,0.));
#423=DIRECTION('',(0.,0.,1.));
#424=DIRECTION('',(0.,-5.9818050895752E-16,1.));
#425=DIRECTION('',(0.,1.,5.9818050895752E-16));
#426=DIRECTION('',(-1.,0.,0.));
#427=CARTESIAN_POINT('',(0.,0.,0.));
#428=CARTESIAN_POINT('',(0.0106,0.0208,0.0029));
#429=CARTESIAN_POINT('',(0.002,0.0208,0.0029));
#430=CARTESIAN_POINT('',(0.002,0.0208,0.));
#431=CARTESIAN_POINT('',(0.002,0.0208,0.0058));
#432=CARTESIAN_POINT('',(0.0106,0.0208,0.));
#433=CARTESIAN_POINT('',(0.,0.0208,0.));
#434=CARTESIAN_POINT('',(0.,0.0208,0.0029));
#435=CARTESIAN_POINT('',(0.,0.0208,0.0058));
#436=CARTESIAN_POINT('',(0.0106,0.0208,0.0058));
#437=CARTESIAN_POINT('',(-0.0144,0.006149,0.0029));
#438=CARTESIAN_POINT('',(0.0106,0.006149,0.0029));
#439=CARTESIAN_POINT('',(0.0106,0.006149,0.001725));
#440=CARTESIAN_POINT('',(0.0086,0.006149,0.0029));
#441=CARTESIAN_POINT('',(0.0086,0.006149,0.004075));
#442=CARTESIAN_POINT('',(-0.0144,0.0156,0.0029));
#443=CARTESIAN_POINT('',(0.0106,0.0156,0.0029));
#444=CARTESIAN_POINT('',(0.0106,0.0156,0.001725));
#445=CARTESIAN_POINT('',(0.0086,0.0156,0.0029));
#446=CARTESIAN_POINT('',(0.0086,0.0156,0.004075));
#447=CARTESIAN_POINT('',(0.0106,0.0208,0.0029));
#448=CARTESIAN_POINT('',(0.0106,0.0208,0.));
#449=CARTESIAN_POINT('',(0.0106,0.0208,0.));
#450=CARTESIAN_POINT('',(0.0086,0.0208,0.));
#451=CARTESIAN_POINT('',(0.0086,0.0208,0.0029));
#452=CARTESIAN_POINT('',(0.0086,0.0208,0.0058));
#453=CARTESIAN_POINT('',(0.0106,0.0208,0.0058));
#454=CARTESIAN_POINT('',(0.0106,0.0208,0.0058));
#455=CARTESIAN_POINT('',(0.0106,0.0208,0.0029));
#456=CARTESIAN_POINT('',(0.0106,0.0053,0.0058));
#457=CARTESIAN_POINT('',(0.0106,0.0008,0.0058));
#458=CARTESIAN_POINT('',(0.0086,0.0008,0.0058));
#459=CARTESIAN_POINT('',(0.002,0.0008,0.0058));
#460=CARTESIAN_POINT('',(0.002,0.0008,0.0058));
#461=CARTESIAN_POINT('',(0.,0.0053,0.0058));
#462=CARTESIAN_POINT('',(0.,-0.0102,0.0058));
#463=CARTESIAN_POINT('',(0.0106,-0.0102,0.0058));
#464=CARTESIAN_POINT('',(0.0106,-0.0102,0.0058));
#465=CARTESIAN_POINT('',(0.0106,0.0053,0.0058));
#466=CARTESIAN_POINT('',(0.0086,0.0008,0.0058));
#467=CARTESIAN_POINT('',(0.0106,-0.0102,-6.07153216591882E-18));
#468=CARTESIAN_POINT('',(0.,-0.0102,-6.07153216591882E-18));
#469=CARTESIAN_POINT('',(0.,-0.0102,-0.0058));
#470=CARTESIAN_POINT('',(0.0106,-0.0102,-0.0058));
#471=CARTESIAN_POINT('',(0.0106,-0.0102,-0.0058));
#472=CARTESIAN_POINT('',(0.0106,-0.0102,-6.07153216591882E-18));
#473=CARTESIAN_POINT('',(0.0106,-0.0051,-0.0058));
#474=CARTESIAN_POINT('',(0.,-0.0051,-0.0058));
#475=CARTESIAN_POINT('',(0.,9.01986732995348E-19,-0.0058));
#476=CARTESIAN_POINT('',(0.0106,9.01986732995348E-19,-0.0058));
#477=CARTESIAN_POINT('',(0.0106,9.01986732995348E-19,-0.0058));
#478=CARTESIAN_POINT('',(0.0106,-0.0051,-0.0058));
#479=CARTESIAN_POINT('',(0.0106,3.69265375366249E-19,-0.0029));
#480=CARTESIAN_POINT('',(0.,3.69265375366249E-19,-0.0029));
#481=CARTESIAN_POINT('',(0.,0.,0.));
#482=CARTESIAN_POINT('',(0.0106,0.,0.));
#483=CARTESIAN_POINT('',(0.0106,0.,0.));
#484=CARTESIAN_POINT('',(0.0106,3.69265375366249E-19,-0.0029));
#485=CARTESIAN_POINT('',(0.0106,0.0104,0.));
#486=CARTESIAN_POINT('',(0.0106,0.0008,-1.19636101791504E-17));
#487=CARTESIAN_POINT('',(0.0086,0.0008,0.));
#488=CARTESIAN_POINT('',(0.002,0.0008,-1.19636101791504E-17));
#489=CARTESIAN_POINT('',(0.0086,0.0008,-1.19636101791504E-17));
#490=CARTESIAN_POINT('',(0.0106,0.0104,0.));
#491=CARTESIAN_POINT('',(0.,0.0104,0.));
#492=CARTESIAN_POINT('',(0.002,0.0008,-1.19636101791504E-17));
#493=CARTESIAN_POINT('',(0.0106,0.0053,-5.20417042793042E-18));
#494=CARTESIAN_POINT('',(0.,0.0053,-5.20417042793042E-18));
#495=CARTESIAN_POINT('',(0.,0.0156,0.0029));
#496=CARTESIAN_POINT('',(0.,0.0156,0.001725));
#497=CARTESIAN_POINT('',(0.,0.006149,0.0029));
#498=CARTESIAN_POINT('',(0.,0.006149,0.001725));
#499=CARTESIAN_POINT('',(-0.0144,0.006149,0.0029));
#500=CARTESIAN_POINT('',(0.002,0.006149,0.0029));
#501=CARTESIAN_POINT('',(0.002,0.006149,0.004075));
#502=CARTESIAN_POINT('',(-0.0144,0.0156,0.0029));
#503=CARTESIAN_POINT('',(0.002,0.0156,0.0029));
#504=CARTESIAN_POINT('',(0.002,0.0156,0.004075));
#505=CARTESIAN_POINT('',(0.0086,0.0008,0.0029));
#506=CARTESIAN_POINT('',(0.0086,0.0008,0.0029));
#507=CARTESIAN_POINT('',(0.002,0.0008,0.0029));
#508=CARTESIAN_POINT('',(0.002,0.0008,0.0029));
#509=CARTESIAN_POINT('',(0.0053,0.0008,0.0029));
#510=MECHANICAL_DESIGN_GEOMETRIC_PRESENTATION_REPRESENTATION('',(#311),
#511);
#511=(
GEOMETRIC_REPRESENTATION_CONTEXT(3)
GLOBAL_UNCERTAINTY_ASSIGNED_CONTEXT((#512))
GLOBAL_UNIT_ASSIGNED_CONTEXT((#515,#514,#513))
REPRESENTATION_CONTEXT('Bracket Limit Switch','TOP_LEVEL_ASSEMBLY_PART')
);
#512=UNCERTAINTY_MEASURE_WITH_UNIT(LENGTH_MEASURE(1.E-8),#515,
'DISTANCE_ACCURACY_VALUE','Maximum Tolerance applied to model');
#513=(
NAMED_UNIT(*)
SI_UNIT($,.STERADIAN.)
SOLID_ANGLE_UNIT()
);
#514=(
NAMED_UNIT(*)
PLANE_ANGLE_UNIT()
SI_UNIT($,.RADIAN.)
);
#515=(
LENGTH_UNIT()
NAMED_UNIT(*)
SI_UNIT($,.METRE.)
);
#516=PRODUCT_DEFINITION_SHAPE('','',#517);
#517=PRODUCT_DEFINITION('','',#519,#518);
#518=PRODUCT_DEFINITION_CONTEXT('',#525,'design');
#519=PRODUCT_DEFINITION_FORMATION_WITH_SPECIFIED_SOURCE('','',#521,
 .NOT_KNOWN.);
#520=PRODUCT_RELATED_PRODUCT_CATEGORY('','',(#521));
#521=PRODUCT('Bracket Limit Switch','Bracket Limit Switch',
'Bracket Limit Switch',(#523));
#522=PRODUCT_CATEGORY('','');
#523=PRODUCT_CONTEXT('',#525,'mechanical');
#524=APPLICATION_PROTOCOL_DEFINITION('international standard',
'ap242_managed_model_based_3d_engineering',2020,#525);
#525=APPLICATION_CONTEXT('managed model based 3d engineering');
ENDSEC;
END-ISO-10303-21;
