ISO-10303-21;
HEADER;
/* Generated by software containing ST-Developer
 * from STEP Tools, Inc. (www.steptools.com) 
 */
/* OPTION: using custom renumber hook */

FILE_DESCRIPTION(
/* description */ ('STEP AP242 Edition 2',
'CAx-IF Rec.Pracs.---Representation and Presentation of Product Manufa
cturing Information (PMI)---4.0---2014-10-13',
'CAx-IF Rec.Pracs.---3D Tessellated Geometry---0.4---2014-09-14','2;1',
'CAx-IF Rec.Pracs.---User Defined Attributes---1.5---2016-08-15'),
/* implementation_level */ '2;1');

FILE_NAME(
/* name */ 'C-Clamp Plates - C-Clamp plate',
/* time_stamp */ '2026-04-15T18:32:22Z',
/* author */ (''),
/* organization */ (''),
/* preprocessor_version */ 'ST-DEVELOPER v20',
/* originating_system */ 'ONSHAPE BY PTC INC, 1.213',
/* authorisation */ '  ');

FILE_SCHEMA (('AP242_MANAGED_MODEL_BASED_3D_ENGINEERING_MIM_LF { 1 0 10303 442 3 1 4 }'));
ENDSEC;

DATA;
#10=SHAPE_REPRESENTATION_RELATIONSHIP('','',#304,#11);
#11=ADVANCED_BREP_SHAPE_REPRESENTATION('',(#302),#513);
#12=CYLINDRICAL_SURFACE('',#316,0.00039);
#13=CYLINDRICAL_SURFACE('',#319,0.00039);
#14=CYLINDRICAL_SURFACE('',#322,0.00039);
#15=CYLINDRICAL_SURFACE('',#325,0.00039);
#16=CYLINDRICAL_SURFACE('',#328,0.00039);
#17=CYLINDRICAL_SURFACE('',#332,0.00039);
#18=CYLINDRICAL_SURFACE('',#335,0.0175);
#19=LINE('',#438,#43);
#20=LINE('',#442,#44);
#21=LINE('',#446,#45);
#22=LINE('',#450,#46);
#23=LINE('',#454,#47);
#24=LINE('',#458,#48);
#25=LINE('',#460,#49);
#26=LINE('',#462,#50);
#27=LINE('',#466,#51);
#28=LINE('',#468,#52);
#29=LINE('',#470,#53);
#30=LINE('',#474,#54);
#31=LINE('',#476,#55);
#32=LINE('',#478,#56);
#33=LINE('',#482,#57);
#34=LINE('',#484,#58);
#35=LINE('',#486,#59);
#36=LINE('',#490,#60);
#37=LINE('',#492,#61);
#38=LINE('',#494,#62);
#39=LINE('',#498,#63);
#40=LINE('',#500,#64);
#41=LINE('',#502,#65);
#42=LINE('',#504,#66);
#43=VECTOR('',#350,1.);
#44=VECTOR('',#353,1.);
#45=VECTOR('',#356,1.);
#46=VECTOR('',#359,1.);
#47=VECTOR('',#362,1.);
#48=VECTOR('',#365,1.);
#49=VECTOR('',#368,1.);
#50=VECTOR('',#369,1.);
#51=VECTOR('',#374,1.);
#52=VECTOR('',#375,1.);
#53=VECTOR('',#378,1.);
#54=VECTOR('',#383,1.);
#55=VECTOR('',#384,1.);
#56=VECTOR('',#387,1.);
#57=VECTOR('',#392,1.);
#58=VECTOR('',#393,1.);
#59=VECTOR('',#396,1.);
#60=VECTOR('',#401,1.);
#61=VECTOR('',#402,1.);
#62=VECTOR('',#405,1.);
#63=VECTOR('',#410,1.);
#64=VECTOR('',#411,1.);
#65=VECTOR('',#414,1.);
#66=VECTOR('',#415,1.);
#67=PLANE('',#309);
#68=PLANE('',#318);
#69=PLANE('',#321);
#70=PLANE('',#324);
#71=PLANE('',#327);
#72=PLANE('',#330);
#73=PLANE('',#331);
#74=PLANE('',#334);
#75=PLANE('',#337);
#76=ORIENTED_EDGE('',*,*,#154,.F.);
#77=ORIENTED_EDGE('',*,*,#155,.T.);
#78=ORIENTED_EDGE('',*,*,#156,.F.);
#79=ORIENTED_EDGE('',*,*,#157,.T.);
#80=ORIENTED_EDGE('',*,*,#158,.F.);
#81=ORIENTED_EDGE('',*,*,#159,.T.);
#82=ORIENTED_EDGE('',*,*,#160,.F.);
#83=ORIENTED_EDGE('',*,*,#161,.T.);
#84=ORIENTED_EDGE('',*,*,#162,.F.);
#85=ORIENTED_EDGE('',*,*,#163,.T.);
#86=ORIENTED_EDGE('',*,*,#164,.F.);
#87=ORIENTED_EDGE('',*,*,#165,.T.);
#88=ORIENTED_EDGE('',*,*,#166,.F.);
#89=ORIENTED_EDGE('',*,*,#167,.T.);
#90=ORIENTED_EDGE('',*,*,#154,.T.);
#91=ORIENTED_EDGE('',*,*,#168,.T.);
#92=ORIENTED_EDGE('',*,*,#156,.T.);
#93=ORIENTED_EDGE('',*,*,#169,.F.);
#94=ORIENTED_EDGE('',*,*,#170,.F.);
#95=ORIENTED_EDGE('',*,*,#171,.T.);
#96=ORIENTED_EDGE('',*,*,#169,.T.);
#97=ORIENTED_EDGE('',*,*,#167,.F.);
#98=ORIENTED_EDGE('',*,*,#172,.F.);
#99=ORIENTED_EDGE('',*,*,#172,.T.);
#100=ORIENTED_EDGE('',*,*,#166,.T.);
#101=ORIENTED_EDGE('',*,*,#173,.F.);
#102=ORIENTED_EDGE('',*,*,#174,.F.);
#103=ORIENTED_EDGE('',*,*,#175,.T.);
#104=ORIENTED_EDGE('',*,*,#173,.T.);
#105=ORIENTED_EDGE('',*,*,#165,.F.);
#106=ORIENTED_EDGE('',*,*,#176,.F.);
#107=ORIENTED_EDGE('',*,*,#176,.T.);
#108=ORIENTED_EDGE('',*,*,#164,.T.);
#109=ORIENTED_EDGE('',*,*,#177,.F.);
#110=ORIENTED_EDGE('',*,*,#178,.F.);
#111=ORIENTED_EDGE('',*,*,#179,.T.);
#112=ORIENTED_EDGE('',*,*,#177,.T.);
#113=ORIENTED_EDGE('',*,*,#163,.F.);
#114=ORIENTED_EDGE('',*,*,#180,.F.);
#115=ORIENTED_EDGE('',*,*,#180,.T.);
#116=ORIENTED_EDGE('',*,*,#162,.T.);
#117=ORIENTED_EDGE('',*,*,#181,.F.);
#118=ORIENTED_EDGE('',*,*,#182,.F.);
#119=ORIENTED_EDGE('',*,*,#183,.T.);
#120=ORIENTED_EDGE('',*,*,#181,.T.);
#121=ORIENTED_EDGE('',*,*,#161,.F.);
#122=ORIENTED_EDGE('',*,*,#184,.F.);
#123=ORIENTED_EDGE('',*,*,#184,.T.);
#124=ORIENTED_EDGE('',*,*,#160,.T.);
#125=ORIENTED_EDGE('',*,*,#185,.F.);
#126=ORIENTED_EDGE('',*,*,#186,.F.);
#127=ORIENTED_EDGE('',*,*,#187,.T.);
#128=ORIENTED_EDGE('',*,*,#188,.T.);
#129=ORIENTED_EDGE('',*,*,#157,.F.);
#130=ORIENTED_EDGE('',*,*,#168,.F.);
#131=ORIENTED_EDGE('',*,*,#189,.T.);
#132=ORIENTED_EDGE('',*,*,#185,.T.);
#133=ORIENTED_EDGE('',*,*,#159,.F.);
#134=ORIENTED_EDGE('',*,*,#190,.F.);
#135=ORIENTED_EDGE('',*,*,#190,.T.);
#136=ORIENTED_EDGE('',*,*,#158,.T.);
#137=ORIENTED_EDGE('',*,*,#188,.F.);
#138=ORIENTED_EDGE('',*,*,#191,.F.);
#139=ORIENTED_EDGE('',*,*,#187,.F.);
#140=ORIENTED_EDGE('',*,*,#170,.T.);
#141=ORIENTED_EDGE('',*,*,#171,.F.);
#142=ORIENTED_EDGE('',*,*,#174,.T.);
#143=ORIENTED_EDGE('',*,*,#175,.F.);
#144=ORIENTED_EDGE('',*,*,#178,.T.);
#145=ORIENTED_EDGE('',*,*,#179,.F.);
#146=ORIENTED_EDGE('',*,*,#182,.T.);
#147=ORIENTED_EDGE('',*,*,#183,.F.);
#148=ORIENTED_EDGE('',*,*,#186,.T.);
#149=ORIENTED_EDGE('',*,*,#189,.F.);
#150=ORIENTED_EDGE('',*,*,#191,.T.);
#151=ORIENTED_EDGE('',*,*,#192,.T.);
#152=ORIENTED_EDGE('',*,*,#155,.F.);
#153=ORIENTED_EDGE('',*,*,#192,.F.);
#154=EDGE_CURVE('',#193,#193,#220,.T.);
#155=EDGE_CURVE('',#194,#194,#221,.F.);
#156=EDGE_CURVE('',#195,#196,#222,.T.);
#157=EDGE_CURVE('',#195,#197,#19,.T.);
#158=EDGE_CURVE('',#198,#197,#223,.T.);
#159=EDGE_CURVE('',#198,#199,#20,.T.);
#160=EDGE_CURVE('',#200,#199,#224,.T.);
#161=EDGE_CURVE('',#200,#201,#21,.T.);
#162=EDGE_CURVE('',#202,#201,#225,.T.);
#163=EDGE_CURVE('',#202,#203,#22,.T.);
#164=EDGE_CURVE('',#204,#203,#226,.T.);
#165=EDGE_CURVE('',#204,#205,#23,.T.);
#166=EDGE_CURVE('',#206,#205,#227,.T.);
#167=EDGE_CURVE('',#206,#196,#24,.T.);
#168=EDGE_CURVE('',#207,#195,#25,.T.);
#169=EDGE_CURVE('',#208,#196,#26,.T.);
#170=EDGE_CURVE('',#207,#208,#228,.F.);
#171=EDGE_CURVE('',#209,#208,#27,.T.);
#172=EDGE_CURVE('',#209,#206,#28,.T.);
#173=EDGE_CURVE('',#210,#205,#29,.T.);
#174=EDGE_CURVE('',#209,#210,#229,.F.);
#175=EDGE_CURVE('',#211,#210,#30,.T.);
#176=EDGE_CURVE('',#211,#204,#31,.T.);
#177=EDGE_CURVE('',#212,#203,#32,.T.);
#178=EDGE_CURVE('',#211,#212,#230,.F.);
#179=EDGE_CURVE('',#213,#212,#33,.T.);
#180=EDGE_CURVE('',#213,#202,#34,.T.);
#181=EDGE_CURVE('',#214,#201,#35,.T.);
#182=EDGE_CURVE('',#213,#214,#231,.F.);
#183=EDGE_CURVE('',#215,#214,#36,.T.);
#184=EDGE_CURVE('',#215,#200,#37,.T.);
#185=EDGE_CURVE('',#216,#199,#38,.T.);
#186=EDGE_CURVE('',#215,#216,#232,.F.);
#187=EDGE_CURVE('',#207,#217,#39,.T.);
#188=EDGE_CURVE('',#217,#197,#40,.T.);
#189=EDGE_CURVE('',#218,#216,#41,.T.);
#190=EDGE_CURVE('',#218,#198,#42,.T.);
#191=EDGE_CURVE('',#218,#217,#233,.F.);
#192=EDGE_CURVE('',#219,#219,#234,.F.);
#193=VERTEX_POINT('',#431);
#194=VERTEX_POINT('',#433);
#195=VERTEX_POINT('',#436);
#196=VERTEX_POINT('',#437);
#197=VERTEX_POINT('',#439);
#198=VERTEX_POINT('',#441);
#199=VERTEX_POINT('',#443);
#200=VERTEX_POINT('',#445);
#201=VERTEX_POINT('',#447);
#202=VERTEX_POINT('',#449);
#203=VERTEX_POINT('',#451);
#204=VERTEX_POINT('',#453);
#205=VERTEX_POINT('',#455);
#206=VERTEX_POINT('',#457);
#207=VERTEX_POINT('',#461);
#208=VERTEX_POINT('',#463);
#209=VERTEX_POINT('',#467);
#210=VERTEX_POINT('',#471);
#211=VERTEX_POINT('',#475);
#212=VERTEX_POINT('',#479);
#213=VERTEX_POINT('',#483);
#214=VERTEX_POINT('',#487);
#215=VERTEX_POINT('',#491);
#216=VERTEX_POINT('',#495);
#217=VERTEX_POINT('',#499);
#218=VERTEX_POINT('',#503);
#219=VERTEX_POINT('',#510);
#220=CIRCLE('',#307,0.0127183888332627);
#221=CIRCLE('',#308,0.0175);
#222=CIRCLE('',#310,0.00039);
#223=CIRCLE('',#311,0.00039);
#224=CIRCLE('',#312,0.00039);
#225=CIRCLE('',#313,0.00039);
#226=CIRCLE('',#314,0.00039);
#227=CIRCLE('',#315,0.00039);
#228=CIRCLE('',#317,0.00039);
#229=CIRCLE('',#320,0.00039);
#230=CIRCLE('',#323,0.00039);
#231=CIRCLE('',#326,0.00039);
#232=CIRCLE('',#329,0.00039);
#233=CIRCLE('',#333,0.00039);
#234=CIRCLE('',#336,0.0175);
#235=EDGE_LOOP('',(#76));
#236=EDGE_LOOP('',(#77));
#237=EDGE_LOOP('',(#78,#79,#80,#81,#82,#83,#84,#85,#86,#87,#88,#89));
#238=EDGE_LOOP('',(#90));
#239=EDGE_LOOP('',(#91,#92,#93,#94));
#240=EDGE_LOOP('',(#95,#96,#97,#98));
#241=EDGE_LOOP('',(#99,#100,#101,#102));
#242=EDGE_LOOP('',(#103,#104,#105,#106));
#243=EDGE_LOOP('',(#107,#108,#109,#110));
#244=EDGE_LOOP('',(#111,#112,#113,#114));
#245=EDGE_LOOP('',(#115,#116,#117,#118));
#246=EDGE_LOOP('',(#119,#120,#121,#122));
#247=EDGE_LOOP('',(#123,#124,#125,#126));
#248=EDGE_LOOP('',(#127,#128,#129,#130));
#249=EDGE_LOOP('',(#131,#132,#133,#134));
#250=EDGE_LOOP('',(#135,#136,#137,#138));
#251=EDGE_LOOP('',(#139,#140,#141,#142,#143,#144,#145,#146,#147,#148,#149,
#150));
#252=EDGE_LOOP('',(#151));
#253=EDGE_LOOP('',(#152));
#254=EDGE_LOOP('',(#153));
#255=FACE_BOUND('',#235,.T.);
#256=FACE_BOUND('',#236,.T.);
#257=FACE_BOUND('',#237,.T.);
#258=FACE_BOUND('',#238,.T.);
#259=FACE_BOUND('',#239,.T.);
#260=FACE_BOUND('',#240,.T.);
#261=FACE_BOUND('',#241,.T.);
#262=FACE_BOUND('',#242,.T.);
#263=FACE_BOUND('',#243,.T.);
#264=FACE_BOUND('',#244,.T.);
#265=FACE_BOUND('',#245,.T.);
#266=FACE_BOUND('',#246,.T.);
#267=FACE_BOUND('',#247,.T.);
#268=FACE_BOUND('',#248,.T.);
#269=FACE_BOUND('',#249,.T.);
#270=FACE_BOUND('',#250,.T.);
#271=FACE_BOUND('',#251,.T.);
#272=FACE_BOUND('',#252,.T.);
#273=FACE_BOUND('',#253,.T.);
#274=FACE_BOUND('',#254,.T.);
#275=CONICAL_SURFACE('',#306,0.0126896449790576,0.469874932313844);
#276=ADVANCED_FACE('',(#255,#256),#275,.T.);
#277=ADVANCED_FACE('',(#257,#258),#67,.T.);
#278=ADVANCED_FACE('',(#259),#12,.F.);
#279=ADVANCED_FACE('',(#260),#68,.T.);
#280=ADVANCED_FACE('',(#261),#13,.F.);
#281=ADVANCED_FACE('',(#262),#69,.T.);
#282=ADVANCED_FACE('',(#263),#14,.F.);
#283=ADVANCED_FACE('',(#264),#70,.T.);
#284=ADVANCED_FACE('',(#265),#15,.F.);
#285=ADVANCED_FACE('',(#266),#71,.T.);
#286=ADVANCED_FACE('',(#267),#16,.F.);
#287=ADVANCED_FACE('',(#268),#72,.T.);
#288=ADVANCED_FACE('',(#269),#73,.T.);
#289=ADVANCED_FACE('',(#270),#17,.F.);
#290=ADVANCED_FACE('',(#271),#74,.F.);
#291=ADVANCED_FACE('',(#272,#273),#18,.T.);
#292=ADVANCED_FACE('',(#274),#75,.T.);
#293=CLOSED_SHELL('',(#276,#277,#278,#279,#280,#281,#282,#283,#284,#285,
#286,#287,#288,#289,#290,#291,#292));
#294=STYLED_ITEM('',(#295),#302);
#295=PRESENTATION_STYLE_ASSIGNMENT((#296));
#296=SURFACE_STYLE_USAGE(.BOTH.,#297);
#297=SURFACE_SIDE_STYLE('',(#298));
#298=SURFACE_STYLE_FILL_AREA(#299);
#299=FILL_AREA_STYLE('',(#300));
#300=FILL_AREA_STYLE_COLOUR('',#301);
#301=COLOUR_RGB('',0.301960784313725,0.301960784313725,0.301960784313725);
#302=MANIFOLD_SOLID_BREP('C-Clamp plate',#293);
#303=SHAPE_DEFINITION_REPRESENTATION(#518,#304);
#304=SHAPE_REPRESENTATION('C-Clamp plate',(#305),#513);
#305=AXIS2_PLACEMENT_3D('',#428,#338,#339);
#306=AXIS2_PLACEMENT_3D('',#429,#340,#341);
#307=AXIS2_PLACEMENT_3D('',#430,#342,#343);
#308=AXIS2_PLACEMENT_3D('',#432,#344,#345);
#309=AXIS2_PLACEMENT_3D('',#434,#346,#347);
#310=AXIS2_PLACEMENT_3D('',#435,#348,#349);
#311=AXIS2_PLACEMENT_3D('',#440,#351,#352);
#312=AXIS2_PLACEMENT_3D('',#444,#354,#355);
#313=AXIS2_PLACEMENT_3D('',#448,#357,#358);
#314=AXIS2_PLACEMENT_3D('',#452,#360,#361);
#315=AXIS2_PLACEMENT_3D('',#456,#363,#364);
#316=AXIS2_PLACEMENT_3D('',#459,#366,#367);
#317=AXIS2_PLACEMENT_3D('',#464,#370,#371);
#318=AXIS2_PLACEMENT_3D('',#465,#372,#373);
#319=AXIS2_PLACEMENT_3D('',#469,#376,#377);
#320=AXIS2_PLACEMENT_3D('',#472,#379,#380);
#321=AXIS2_PLACEMENT_3D('',#473,#381,#382);
#322=AXIS2_PLACEMENT_3D('',#477,#385,#386);
#323=AXIS2_PLACEMENT_3D('',#480,#388,#389);
#324=AXIS2_PLACEMENT_3D('',#481,#390,#391);
#325=AXIS2_PLACEMENT_3D('',#485,#394,#395);
#326=AXIS2_PLACEMENT_3D('',#488,#397,#398);
#327=AXIS2_PLACEMENT_3D('',#489,#399,#400);
#328=AXIS2_PLACEMENT_3D('',#493,#403,#404);
#329=AXIS2_PLACEMENT_3D('',#496,#406,#407);
#330=AXIS2_PLACEMENT_3D('',#497,#408,#409);
#331=AXIS2_PLACEMENT_3D('',#501,#412,#413);
#332=AXIS2_PLACEMENT_3D('',#505,#416,#417);
#333=AXIS2_PLACEMENT_3D('',#506,#418,#419);
#334=AXIS2_PLACEMENT_3D('',#507,#420,#421);
#335=AXIS2_PLACEMENT_3D('',#508,#422,#423);
#336=AXIS2_PLACEMENT_3D('',#509,#424,#425);
#337=AXIS2_PLACEMENT_3D('',#511,#426,#427);
#338=DIRECTION('',(0.,0.,1.));
#339=DIRECTION('',(1.,0.,0.));
#340=DIRECTION('',(1.37583032640507E-7,-0.999999999968939,-7.88051190323734E-6));
#341=DIRECTION('',(3.06752448907842E-8,-7.88051189907227E-6,0.999999999968948));
#342=DIRECTION('',(0.,1.,0.));
#343=DIRECTION('',(0.,0.,1.));
#344=DIRECTION('',(0.,-1.,0.));
#345=DIRECTION('',(0.,0.,-1.));
#346=DIRECTION('',(0.,1.,0.));
#347=DIRECTION('',(-1.,0.,0.));
#348=DIRECTION('',(0.,1.,0.));
#349=DIRECTION('',(0.,0.,1.));
#350=DIRECTION('',(-0.866025403784439,0.,-0.5));
#351=DIRECTION('',(0.,1.,0.));
#352=DIRECTION('',(0.,0.,1.));
#353=DIRECTION('',(0.,0.,-1.));
#354=DIRECTION('',(0.,1.,0.));
#355=DIRECTION('',(0.,0.,1.));
#356=DIRECTION('',(0.866025403784439,0.,-0.5));
#357=DIRECTION('',(0.,1.,0.));
#358=DIRECTION('',(0.,0.,1.));
#359=DIRECTION('',(0.866025403784439,0.,0.5));
#360=DIRECTION('',(0.,1.,0.));
#361=DIRECTION('',(0.,0.,1.));
#362=DIRECTION('',(0.,0.,1.));
#363=DIRECTION('',(0.,1.,0.));
#364=DIRECTION('',(0.,0.,1.));
#365=DIRECTION('',(-0.866025403784438,0.,0.5));
#366=DIRECTION('',(0.,1.,0.));
#367=DIRECTION('',(0.,0.,1.));
#368=DIRECTION('',(0.,1.,0.));
#369=DIRECTION('',(0.,1.,0.));
#370=DIRECTION('',(0.,-1.,0.));
#371=DIRECTION('',(0.,0.,-1.));
#372=DIRECTION('',(-0.5,0.,-0.866025403784438));
#373=DIRECTION('',(-0.866025403784438,0.,0.5));
#374=DIRECTION('',(-0.866025403784438,0.,0.5));
#375=DIRECTION('',(0.,1.,0.));
#376=DIRECTION('',(0.,1.,0.));
#377=DIRECTION('',(0.,0.,1.));
#378=DIRECTION('',(0.,1.,0.));
#379=DIRECTION('',(0.,-1.,0.));
#380=DIRECTION('',(0.,0.,-1.));
#381=DIRECTION('',(-1.,0.,0.));
#382=DIRECTION('',(0.,0.,1.));
#383=DIRECTION('',(0.,0.,1.));
#384=DIRECTION('',(0.,1.,0.));
#385=DIRECTION('',(0.,1.,0.));
#386=DIRECTION('',(0.,0.,1.));
#387=DIRECTION('',(0.,1.,0.));
#388=DIRECTION('',(0.,-1.,0.));
#389=DIRECTION('',(0.,0.,-1.));
#390=DIRECTION('',(-0.5,0.,0.866025403784439));
#391=DIRECTION('',(0.866025403784439,0.,0.5));
#392=DIRECTION('',(0.866025403784439,0.,0.5));
#393=DIRECTION('',(0.,1.,0.));
#394=DIRECTION('',(0.,1.,0.));
#395=DIRECTION('',(0.,0.,1.));
#396=DIRECTION('',(0.,1.,0.));
#397=DIRECTION('',(0.,-1.,0.));
#398=DIRECTION('',(0.,0.,-1.));
#399=DIRECTION('',(0.5,0.,0.866025403784439));
#400=DIRECTION('',(0.866025403784439,0.,-0.5));
#401=DIRECTION('',(0.866025403784439,0.,-0.5));
#402=DIRECTION('',(0.,1.,0.));
#403=DIRECTION('',(0.,1.,0.));
#404=DIRECTION('',(0.,0.,1.));
#405=DIRECTION('',(0.,1.,0.));
#406=DIRECTION('',(0.,-1.,0.));
#407=DIRECTION('',(0.,0.,-1.));
#408=DIRECTION('',(0.5,0.,-0.866025403784439));
#409=DIRECTION('',(-0.866025403784439,0.,-0.5));
#410=DIRECTION('',(-0.866025403784439,0.,-0.5));
#411=DIRECTION('',(0.,1.,0.));
#412=DIRECTION('',(1.,0.,0.));
#413=DIRECTION('',(0.,0.,-1.));
#414=DIRECTION('',(0.,0.,-1.));
#415=DIRECTION('',(0.,1.,0.));
#416=DIRECTION('',(0.,1.,0.));
#417=DIRECTION('',(0.,0.,1.));
#418=DIRECTION('',(0.,-1.,0.));
#419=DIRECTION('',(0.,0.,-1.));
#420=DIRECTION('',(0.,-1.,0.));
#421=DIRECTION('',(1.,0.,0.));
#422=DIRECTION('',(0.,1.,0.));
#423=DIRECTION('',(0.,0.,1.));
#424=DIRECTION('',(0.,-1.,0.));
#425=DIRECTION('',(0.,0.,-1.));
#426=DIRECTION('',(0.,-1.,0.));
#427=DIRECTION('',(1.,0.,0.));
#428=CARTESIAN_POINT('',(0.,0.,0.));
#429=CARTESIAN_POINT('',(-2.52594438859872E-9,0.00447276821564803,1.4447582670329E-7));
#430=CARTESIAN_POINT('',(-1.62957639222861E-9,0.00441616757973514,9.32829927390177E-8));
#431=CARTESIAN_POINT('',(-1.62957639222861E-9,0.00441616757973514,0.0127184821162554));
#432=CARTESIAN_POINT('',(0.,-0.005,1.07156594925393E-18));
#433=CARTESIAN_POINT('',(0.,-0.005,-0.0175));
#434=CARTESIAN_POINT('',(-1.62957639396333E-9,0.00441616757973514,9.32829927365042E-8));
#435=CARTESIAN_POINT('',(1.8702487475375E-18,0.00441616757973514,0.0094223563931747));
#436=CARTESIAN_POINT('',(-0.000195000000000002,0.00441616757973514,0.00976010630065064));
#437=CARTESIAN_POINT('',(0.000195,0.00441616757973514,0.00976010630065063));
#438=CARTESIAN_POINT('',(-0.002235,0.00441616757973514,0.0085823117515038));
#439=CARTESIAN_POINT('',(-0.008355,0.00441616757973514,0.00504892810406329));
#440=CARTESIAN_POINT('',(-0.00816,0.00441616757973514,0.00471117819658736));
#441=CARTESIAN_POINT('',(-0.00855,0.00441616757973514,0.00471117819658736));
#442=CARTESIAN_POINT('',(-0.00855,0.00441616757973514,-0.00235558909829368));
#443=CARTESIAN_POINT('',(-0.00855,0.00441616757973514,-0.00471117819658736));
#444=CARTESIAN_POINT('',(-0.00816,0.00441616757973514,-0.00471117819658736));
#445=CARTESIAN_POINT('',(-0.008355,0.00441616757973514,-0.00504892810406329));
#446=CARTESIAN_POINT('',(-0.002235,0.00441616757973514,-0.0085823117515038));
#447=CARTESIAN_POINT('',(-0.000195,0.00441616757973514,-0.00976010630065063));
#448=CARTESIAN_POINT('',(1.55854062294791E-18,0.00441616757973514,-0.0094223563931747));
#449=CARTESIAN_POINT('',(0.000194999999999996,0.00441616757973514,-0.00976010630065062));
#450=CARTESIAN_POINT('',(0.006315,0.00441616757973514,-0.00622672265321012));
#451=CARTESIAN_POINT('',(0.008355,0.00441616757973514,-0.00504892810406328));
#452=CARTESIAN_POINT('',(0.00816,0.00441616757973514,-0.00471117819658735));
#453=CARTESIAN_POINT('',(0.00855,0.00441616757973514,-0.00471117819658735));
#454=CARTESIAN_POINT('',(0.00855,0.00441616757973514,0.00235558909829368));
#455=CARTESIAN_POINT('',(0.00855,0.00441616757973514,0.00471117819658735));
#456=CARTESIAN_POINT('',(0.00816,0.00441616757973514,0.00471117819658735));
#457=CARTESIAN_POINT('',(0.008355,0.00441616757973514,0.00504892810406327));
#458=CARTESIAN_POINT('',(0.002235,0.00441616757973514,0.00858231175150379));
#459=CARTESIAN_POINT('',(1.8702487475375E-18,-0.005002,0.0094223563931747));
#460=CARTESIAN_POINT('',(-0.000195000000000002,-0.005002,0.00976010630065064));
#461=CARTESIAN_POINT('',(-0.000195000000000002,-0.005,0.00976010630065064));
#462=CARTESIAN_POINT('',(0.000195,-0.005002,0.00976010630065063));
#463=CARTESIAN_POINT('',(0.000195,-0.005,0.00976010630065063));
#464=CARTESIAN_POINT('',(1.8702487475375E-18,-0.005,0.0094223563931747));
#465=CARTESIAN_POINT('',(0.002235,-0.005002,0.00858231175150379));
#466=CARTESIAN_POINT('',(0.002235,-0.005,0.00858231175150379));
#467=CARTESIAN_POINT('',(0.008355,-0.005,0.00504892810406327));
#468=CARTESIAN_POINT('',(0.008355,-0.005002,0.00504892810406327));
#469=CARTESIAN_POINT('',(0.00816,-0.005002,0.00471117819658735));
#470=CARTESIAN_POINT('',(0.00855,-0.005002,0.00471117819658735));
#471=CARTESIAN_POINT('',(0.00855,-0.005,0.00471117819658735));
#472=CARTESIAN_POINT('',(0.00816,-0.005,0.00471117819658735));
#473=CARTESIAN_POINT('',(0.00855,-0.005002,0.00235558909829368));
#474=CARTESIAN_POINT('',(0.00855,-0.005,0.00235558909829368));
#475=CARTESIAN_POINT('',(0.00855,-0.005,-0.00471117819658735));
#476=CARTESIAN_POINT('',(0.00855,-0.005002,-0.00471117819658735));
#477=CARTESIAN_POINT('',(0.00816,-0.005002,-0.00471117819658735));
#478=CARTESIAN_POINT('',(0.008355,-0.005002,-0.00504892810406328));
#479=CARTESIAN_POINT('',(0.008355,-0.005,-0.00504892810406328));
#480=CARTESIAN_POINT('',(0.00816,-0.005,-0.00471117819658735));
#481=CARTESIAN_POINT('',(0.006315,-0.005002,-0.00622672265321012));
#482=CARTESIAN_POINT('',(0.006315,-0.005,-0.00622672265321012));
#483=CARTESIAN_POINT('',(0.000194999999999996,-0.005,-0.00976010630065062));
#484=CARTESIAN_POINT('',(0.000194999999999996,-0.005002,-0.00976010630065062));
#485=CARTESIAN_POINT('',(1.55854062294791E-18,-0.005002,-0.0094223563931747));
#486=CARTESIAN_POINT('',(-0.000195,-0.005002,-0.00976010630065063));
#487=CARTESIAN_POINT('',(-0.000195,-0.005,-0.00976010630065063));
#488=CARTESIAN_POINT('',(1.55854062294791E-18,-0.005,-0.0094223563931747));
#489=CARTESIAN_POINT('',(-0.002235,-0.005002,-0.0085823117515038));
#490=CARTESIAN_POINT('',(-0.002235,-0.005,-0.0085823117515038));
#491=CARTESIAN_POINT('',(-0.008355,-0.005,-0.00504892810406329));
#492=CARTESIAN_POINT('',(-0.008355,-0.005002,-0.00504892810406329));
#493=CARTESIAN_POINT('',(-0.00816,-0.005002,-0.00471117819658736));
#494=CARTESIAN_POINT('',(-0.00855,-0.005002,-0.00471117819658736));
#495=CARTESIAN_POINT('',(-0.00855,-0.005,-0.00471117819658736));
#496=CARTESIAN_POINT('',(-0.00816,-0.005,-0.00471117819658736));
#497=CARTESIAN_POINT('',(-0.002235,-0.005002,0.0085823117515038));
#498=CARTESIAN_POINT('',(-0.002235,-0.005,0.0085823117515038));
#499=CARTESIAN_POINT('',(-0.008355,-0.005,0.00504892810406329));
#500=CARTESIAN_POINT('',(-0.008355,-0.005002,0.00504892810406329));
#501=CARTESIAN_POINT('',(-0.00855,-0.005002,-0.00235558909829368));
#502=CARTESIAN_POINT('',(-0.00855,-0.005,-0.00235558909829368));
#503=CARTESIAN_POINT('',(-0.00855,-0.005,0.00471117819658736));
#504=CARTESIAN_POINT('',(-0.00855,-0.005002,0.00471117819658736));
#505=CARTESIAN_POINT('',(-0.00816,-0.005002,0.00471117819658736));
#506=CARTESIAN_POINT('',(-0.00816,-0.005,0.00471117819658736));
#507=CARTESIAN_POINT('',(0.,-0.005,0.));
#508=CARTESIAN_POINT('',(0.,-0.008,1.07156594925393E-18));
#509=CARTESIAN_POINT('',(0.,-0.008,1.07156594925393E-18));
#510=CARTESIAN_POINT('',(0.,-0.008,-0.0175));
#511=CARTESIAN_POINT('',(0.,-0.008,0.));
#512=MECHANICAL_DESIGN_GEOMETRIC_PRESENTATION_REPRESENTATION('',(#294),
#513);
#513=(
GEOMETRIC_REPRESENTATION_CONTEXT(3)
GLOBAL_UNCERTAINTY_ASSIGNED_CONTEXT((#514))
GLOBAL_UNIT_ASSIGNED_CONTEXT((#517,#516,#515))
REPRESENTATION_CONTEXT('C-Clamp plate','TOP_LEVEL_ASSEMBLY_PART')
);
#514=UNCERTAINTY_MEASURE_WITH_UNIT(LENGTH_MEASURE(1.E-8),#517,
'DISTANCE_ACCURACY_VALUE','Maximum Tolerance applied to model');
#515=(
NAMED_UNIT(*)
SI_UNIT($,.STERADIAN.)
SOLID_ANGLE_UNIT()
);
#516=(
NAMED_UNIT(*)
PLANE_ANGLE_UNIT()
SI_UNIT($,.RADIAN.)
);
#517=(
LENGTH_UNIT()
NAMED_UNIT(*)
SI_UNIT($,.METRE.)
);
#518=PRODUCT_DEFINITION_SHAPE('','',#519);
#519=PRODUCT_DEFINITION('','',#521,#520);
#520=PRODUCT_DEFINITION_CONTEXT('',#527,'design');
#521=PRODUCT_DEFINITION_FORMATION_WITH_SPECIFIED_SOURCE('','',#523,
 .NOT_KNOWN.);
#522=PRODUCT_RELATED_PRODUCT_CATEGORY('','',(#523));
#523=PRODUCT('C-Clamp plate','C-Clamp plate','C-Clamp plate',(#525));
#524=PRODUCT_CATEGORY('','');
#525=PRODUCT_CONTEXT('',#527,'mechanical');
#526=APPLICATION_PROTOCOL_DEFINITION('international standard',
'ap242_managed_model_based_3d_engineering',2020,#527);
#527=APPLICATION_CONTEXT('managed model based 3d engineering');
ENDSEC;
END-ISO-10303-21;
