ISO-10303-21;
HEADER;
/* Generated by software containing ST-Developer
 * from STEP Tools, Inc. (www.steptools.com) 
 */
/* OPTION: using custom renumber hook */

FILE_DESCRIPTION(
/* description */ ('STEP AP242 Edition 2',
'CAx-IF Rec.Pracs.---Representation and Presentation of Product Manufa
cturing Information (PMI)---4.0---2014-10-13',
'CAx-IF Rec.Pracs.---3D Tessellated Geometry---0.4---2014-09-14','2;1',
'CAx-IF Rec.Pracs.---User Defined Attributes---1.5---2016-08-15'),
/* implementation_level */ '2;1');

FILE_NAME(
/* name */ 'Crochet - Crochet',
/* time_stamp */ '2026-04-15T18:42:49Z',
/* author */ (''),
/* organization */ (''),
/* preprocessor_version */ 'ST-DEVELOPER v20',
/* originating_system */ 'ONSHAPE BY PTC INC, 1.213',
/* authorisation */ '  ');

FILE_SCHEMA (('AP242_MANAGED_MODEL_BASED_3D_ENGINEERING_MIM_LF { 1 0 10303 442 3 1 4 }'));
ENDSEC;

DATA;
#10=SHAPE_REPRESENTATION_RELATIONSHIP('','',#388,#11);
#11=ADVANCED_BREP_SHAPE_REPRESENTATION('',(#386),#1138);
#12=B_SPLINE_CURVE_WITH_KNOTS('',3,(#1065,#1066,#1067,#1068,#1069,#1070,
#1071,#1072,#1073,#1074,#1075),.UNSPECIFIED.,.T.,.F.,(1,1,1,1,1,1,1,1,1,
1,1,1,1,1,1),(-0.00383392401494128,-0.00255594934329419,-0.00127797467164709,
2.71700285667203E-18,0.0012779746716471,0.00255594934329419,0.00383392401494129,
0.00511189868658838,0.00638987335823548,0.00766784802988257,0.00894582270152967,
0.0102237973731768,0.0115017720448239,0.012779746716471,0.014057721388118),
 .UNSPECIFIED.);
#13=B_SPLINE_CURVE_WITH_KNOTS('',3,(#1077,#1078,#1079,#1080,#1081,#1082,
#1083,#1084,#1085,#1086,#1087),.UNSPECIFIED.,.T.,.F.,(1,1,1,1,1,1,1,1,1,
1,1,1,1,1,1),(-0.00385333997327859,-0.00256889331551906,-0.00128444665775953,
0.,0.00128444665775953,0.00256889331551906,0.00385333997327859,0.00513778663103812,
0.00642223328879765,0.00770667994655718,0.00899112660431671,0.0102755732620762,
0.0115600199198358,0.0128444665775953,0.0141289132353548),.UNSPECIFIED.);
#14=B_SPLINE_CURVE_WITH_KNOTS('',3,(#1089,#1090,#1091,#1092,#1093,#1094,
#1095,#1096,#1097,#1098,#1099),.UNSPECIFIED.,.T.,.F.,(1,1,1,1,1,1,1,1,1,
1,1,1,1,1,1),(-0.00385206942859432,-0.00256804628572939,-0.00128402314286445,
4.88568976153722E-16,0.00128402314286543,0.00256804628573036,0.0038520694285953,
0.00513609257146024,0.00642011571432518,0.00770413885719012,0.00898816200005505,
0.01027218514292,0.0115562082857849,0.0128402314286499,0.0141242545715148),
 .UNSPECIFIED.);
#15=B_SPLINE_SURFACE_WITH_KNOTS('',3,3,((#597,#598,#599,#600,#601,#602),
(#603,#604,#605,#606,#607,#608),(#609,#610,#611,#612,#613,#614),(#615,#616,
#617,#618,#619,#620),(#621,#622,#623,#624,#625,#626),(#627,#628,#629,#630,
#631,#632),(#633,#634,#635,#636,#637,#638),(#639,#640,#641,#642,#643,#644),
(#645,#646,#647,#648,#649,#650),(#651,#652,#653,#654,#655,#656),(#657,#658,
#659,#660,#661,#662),(#663,#664,#665,#666,#667,#668),(#669,#670,#671,#672,
#673,#674),(#675,#676,#677,#678,#679,#680),(#681,#682,#683,#684,#685,#686),
(#687,#688,#689,#690,#691,#692),(#693,#694,#695,#696,#697,#698),(#699,#700,
#701,#702,#703,#704),(#705,#706,#707,#708,#709,#710),(#711,#712,#713,#714,
#715,#716),(#717,#718,#719,#720,#721,#722),(#723,#724,#725,#726,#727,#728),
(#729,#730,#731,#732,#733,#734),(#735,#736,#737,#738,#739,#740),(#741,#742,
#743,#744,#745,#746),(#747,#748,#749,#750,#751,#752),(#753,#754,#755,#756,
#757,#758),(#759,#760,#761,#762,#763,#764),(#765,#766,#767,#768,#769,#770),
(#771,#772,#773,#774,#775,#776),(#777,#778,#779,#780,#781,#782),(#783,#784,
#785,#786,#787,#788),(#789,#790,#791,#792,#793,#794),(#795,#796,#797,#798,
#799,#800),(#801,#802,#803,#804,#805,#806),(#807,#808,#809,#810,#811,#812),
(#813,#814,#815,#816,#817,#818),(#819,#820,#821,#822,#823,#824),(#825,#826,
#827,#828,#829,#830),(#831,#832,#833,#834,#835,#836),(#837,#838,#839,#840,
#841,#842),(#843,#844,#845,#846,#847,#848),(#849,#850,#851,#852,#853,#854),
(#855,#856,#857,#858,#859,#860),(#861,#862,#863,#864,#865,#866),(#867,#868,
#869,#870,#871,#872),(#873,#874,#875,#876,#877,#878),(#879,#880,#881,#882,
#883,#884),(#885,#886,#887,#888,#889,#890),(#891,#892,#893,#894,#895,#896),
(#897,#898,#899,#900,#901,#902),(#903,#904,#905,#906,#907,#908),(#909,#910,
#911,#912,#913,#914),(#915,#916,#917,#918,#919,#920),(#921,#922,#923,#924,
#925,#926),(#927,#928,#929,#930,#931,#932),(#933,#934,#935,#936,#937,#938),
(#939,#940,#941,#942,#943,#944),(#945,#946,#947,#948,#949,#950),(#951,#952,
#953,#954,#955,#956),(#957,#958,#959,#960,#961,#962),(#963,#964,#965,#966,
#967,#968),(#969,#970,#971,#972,#973,#974),(#975,#976,#977,#978,#979,#980),
(#981,#982,#983,#984,#985,#986),(#987,#988,#989,#990,#991,#992),(#993,#994,
#995,#996,#997,#998),(#999,#1000,#1001,#1002,#1003,#1004),(#1005,#1006,
#1007,#1008,#1009,#1010),(#1011,#1012,#1013,#1014,#1015,#1016),(#1017,#1018,
#1019,#1020,#1021,#1022),(#1023,#1024,#1025,#1026,#1027,#1028),(#1029,#1030,
#1031,#1032,#1033,#1034),(#1035,#1036,#1037,#1038,#1039,#1040),(#1041,#1042,
#1043,#1044,#1045,#1046),(#1047,#1048,#1049,#1050,#1051,#1052),(#1053,#1054,
#1055,#1056,#1057,#1058),(#1059,#1060,#1061,#1062,#1063,#1064)),
 .UNSPECIFIED.,.T.,.F.,.F.,(4,2,2,2,2,2,2,2,2,2,2,2,2,2,2,2,2,2,2,2,2,2,
2,2,2,2,2,2,2,2,2,2,2,2,2,2,2,2,4),(4,2,4),(0.,0.03125,0.046875,0.0625,
0.078125,0.09375,0.125,0.140625,0.15625,0.1875,0.25,0.28125,0.3125,0.328125,
0.34375,0.375,0.40625,0.421875,0.4375,0.453125,0.46875,0.5,0.53125,0.5625,
0.59375,0.625,0.65625,0.671875,0.6875,0.703125,0.71875,0.75,0.78125,0.796875,
0.8125,0.84375,0.875,0.9375,1.),(-0.00600206648245586,0.49999952607861,
1.00600111863968),.UNSPECIFIED.);
#16=PLANE('',#396);
#17=PLANE('',#400);
#18=PLANE('',#404);
#19=PLANE('',#408);
#20=PLANE('',#412);
#21=PLANE('',#417);
#22=PLANE('',#418);
#23=PLANE('',#419);
#24=PLANE('',#420);
#25=PLANE('',#422);
#26=PLANE('',#424);
#27=LINE('',#541,#55);
#28=LINE('',#545,#56);
#29=LINE('',#549,#57);
#30=LINE('',#553,#58);
#31=LINE('',#555,#59);
#32=LINE('',#558,#60);
#33=LINE('',#560,#61);
#34=LINE('',#562,#62);
#35=LINE('',#566,#63);
#36=LINE('',#570,#64);
#37=LINE('',#572,#65);
#38=LINE('',#574,#66);
#39=LINE('',#578,#67);
#40=LINE('',#582,#68);
#41=LINE('',#584,#69);
#42=LINE('',#586,#70);
#43=LINE('',#1102,#71);
#44=LINE('',#1104,#72);
#45=LINE('',#1108,#73);
#46=LINE('',#1109,#74);
#47=LINE('',#1113,#75);
#48=LINE('',#1117,#76);
#49=LINE('',#1119,#77);
#50=LINE('',#1120,#78);
#51=LINE('',#1124,#79);
#52=LINE('',#1126,#80);
#53=LINE('',#1130,#81);
#54=LINE('',#1132,#82);
#55=VECTOR('',#436,1.);
#56=VECTOR('',#439,1.);
#57=VECTOR('',#442,1.);
#58=VECTOR('',#445,1.);
#59=VECTOR('',#448,1.);
#60=VECTOR('',#449,1.);
#61=VECTOR('',#450,1.);
#62=VECTOR('',#451,1.);
#63=VECTOR('',#456,1.);
#64=VECTOR('',#461,1.);
#65=VECTOR('',#462,1.);
#66=VECTOR('',#463,1.);
#67=VECTOR('',#468,1.);
#68=VECTOR('',#473,1.);
#69=VECTOR('',#474,1.);
#70=VECTOR('',#475,1.);
#71=VECTOR('',#492,1.);
#72=VECTOR('',#493,1.);
#73=VECTOR('',#496,1.);
#74=VECTOR('',#497,1.);
#75=VECTOR('',#502,1.);
#76=VECTOR('',#505,1.);
#77=VECTOR('',#508,1.);
#78=VECTOR('',#509,1.);
#79=VECTOR('',#516,1.);
#80=VECTOR('',#517,1.);
#81=VECTOR('',#522,1.);
#82=VECTOR('',#525,1.);
#83=ORIENTED_EDGE('',*,*,#181,.T.);
#84=ORIENTED_EDGE('',*,*,#182,.F.);
#85=ORIENTED_EDGE('',*,*,#183,.T.);
#86=ORIENTED_EDGE('',*,*,#184,.F.);
#87=ORIENTED_EDGE('',*,*,#185,.F.);
#88=ORIENTED_EDGE('',*,*,#186,.F.);
#89=ORIENTED_EDGE('',*,*,#187,.T.);
#90=ORIENTED_EDGE('',*,*,#188,.F.);
#91=ORIENTED_EDGE('',*,*,#189,.F.);
#92=ORIENTED_EDGE('',*,*,#190,.F.);
#93=ORIENTED_EDGE('',*,*,#191,.F.);
#94=ORIENTED_EDGE('',*,*,#192,.T.);
#95=ORIENTED_EDGE('',*,*,#193,.T.);
#96=ORIENTED_EDGE('',*,*,#194,.T.);
#97=ORIENTED_EDGE('',*,*,#195,.F.);
#98=ORIENTED_EDGE('',*,*,#196,.F.);
#99=ORIENTED_EDGE('',*,*,#191,.T.);
#100=ORIENTED_EDGE('',*,*,#197,.F.);
#101=ORIENTED_EDGE('',*,*,#198,.F.);
#102=ORIENTED_EDGE('',*,*,#199,.T.);
#103=ORIENTED_EDGE('',*,*,#195,.T.);
#104=ORIENTED_EDGE('',*,*,#200,.T.);
#105=ORIENTED_EDGE('',*,*,#201,.F.);
#106=ORIENTED_EDGE('',*,*,#202,.F.);
#107=ORIENTED_EDGE('',*,*,#198,.T.);
#108=ORIENTED_EDGE('',*,*,#203,.F.);
#109=ORIENTED_EDGE('',*,*,#204,.F.);
#110=ORIENTED_EDGE('',*,*,#205,.T.);
#111=ORIENTED_EDGE('',*,*,#201,.T.);
#112=ORIENTED_EDGE('',*,*,#206,.T.);
#113=ORIENTED_EDGE('',*,*,#193,.F.);
#114=ORIENTED_EDGE('',*,*,#207,.F.);
#115=ORIENTED_EDGE('',*,*,#204,.T.);
#116=ORIENTED_EDGE('',*,*,#208,.F.);
#117=ORIENTED_EDGE('',*,*,#209,.F.);
#118=ORIENTED_EDGE('',*,*,#210,.F.);
#119=ORIENTED_EDGE('',*,*,#190,.T.);
#120=ORIENTED_EDGE('',*,*,#206,.F.);
#121=ORIENTED_EDGE('',*,*,#203,.T.);
#122=ORIENTED_EDGE('',*,*,#200,.F.);
#123=ORIENTED_EDGE('',*,*,#197,.T.);
#124=ORIENTED_EDGE('',*,*,#194,.F.);
#125=ORIENTED_EDGE('',*,*,#211,.F.);
#126=ORIENTED_EDGE('',*,*,#212,.F.);
#127=ORIENTED_EDGE('',*,*,#213,.F.);
#128=ORIENTED_EDGE('',*,*,#181,.F.);
#129=ORIENTED_EDGE('',*,*,#202,.T.);
#130=ORIENTED_EDGE('',*,*,#205,.F.);
#131=ORIENTED_EDGE('',*,*,#207,.T.);
#132=ORIENTED_EDGE('',*,*,#192,.F.);
#133=ORIENTED_EDGE('',*,*,#196,.T.);
#134=ORIENTED_EDGE('',*,*,#199,.F.);
#135=ORIENTED_EDGE('',*,*,#214,.T.);
#136=ORIENTED_EDGE('',*,*,#184,.T.);
#137=ORIENTED_EDGE('',*,*,#215,.T.);
#138=ORIENTED_EDGE('',*,*,#216,.T.);
#139=ORIENTED_EDGE('',*,*,#217,.F.);
#140=ORIENTED_EDGE('',*,*,#188,.T.);
#141=ORIENTED_EDGE('',*,*,#218,.F.);
#142=ORIENTED_EDGE('',*,*,#219,.T.);
#143=ORIENTED_EDGE('',*,*,#219,.F.);
#144=ORIENTED_EDGE('',*,*,#220,.F.);
#145=ORIENTED_EDGE('',*,*,#221,.T.);
#146=ORIENTED_EDGE('',*,*,#222,.T.);
#147=ORIENTED_EDGE('',*,*,#223,.T.);
#148=ORIENTED_EDGE('',*,*,#186,.T.);
#149=ORIENTED_EDGE('',*,*,#224,.F.);
#150=ORIENTED_EDGE('',*,*,#221,.F.);
#151=ORIENTED_EDGE('',*,*,#218,.T.);
#152=ORIENTED_EDGE('',*,*,#187,.F.);
#153=ORIENTED_EDGE('',*,*,#223,.F.);
#154=ORIENTED_EDGE('',*,*,#220,.T.);
#155=ORIENTED_EDGE('',*,*,#214,.F.);
#156=ORIENTED_EDGE('',*,*,#222,.F.);
#157=ORIENTED_EDGE('',*,*,#224,.T.);
#158=ORIENTED_EDGE('',*,*,#185,.T.);
#159=ORIENTED_EDGE('',*,*,#225,.F.);
#160=ORIENTED_EDGE('',*,*,#182,.T.);
#161=ORIENTED_EDGE('',*,*,#226,.T.);
#162=ORIENTED_EDGE('',*,*,#227,.F.);
#163=ORIENTED_EDGE('',*,*,#215,.F.);
#164=ORIENTED_EDGE('',*,*,#183,.F.);
#165=ORIENTED_EDGE('',*,*,#225,.T.);
#166=ORIENTED_EDGE('',*,*,#228,.T.);
#167=ORIENTED_EDGE('',*,*,#216,.F.);
#168=ORIENTED_EDGE('',*,*,#228,.F.);
#169=ORIENTED_EDGE('',*,*,#227,.T.);
#170=ORIENTED_EDGE('',*,*,#229,.T.);
#171=ORIENTED_EDGE('',*,*,#217,.T.);
#172=ORIENTED_EDGE('',*,*,#229,.F.);
#173=ORIENTED_EDGE('',*,*,#226,.F.);
#174=ORIENTED_EDGE('',*,*,#189,.T.);
#175=ORIENTED_EDGE('',*,*,#213,.T.);
#176=ORIENTED_EDGE('',*,*,#210,.T.);
#177=ORIENTED_EDGE('',*,*,#212,.T.);
#178=ORIENTED_EDGE('',*,*,#209,.T.);
#179=ORIENTED_EDGE('',*,*,#211,.T.);
#180=ORIENTED_EDGE('',*,*,#208,.T.);
#181=EDGE_CURVE('',#230,#230,#265,.T.);
#182=EDGE_CURVE('',#231,#232,#266,.T.);
#183=EDGE_CURVE('',#231,#233,#27,.T.);
#184=EDGE_CURVE('',#234,#233,#267,.T.);
#185=EDGE_CURVE('',#235,#234,#28,.T.);
#186=EDGE_CURVE('',#236,#235,#268,.T.);
#187=EDGE_CURVE('',#236,#237,#29,.T.);
#188=EDGE_CURVE('',#238,#237,#269,.T.);
#189=EDGE_CURVE('',#232,#238,#30,.T.);
#190=EDGE_CURVE('',#239,#240,#31,.T.);
#191=EDGE_CURVE('',#241,#239,#32,.T.);
#192=EDGE_CURVE('',#241,#242,#33,.T.);
#193=EDGE_CURVE('',#242,#240,#34,.T.);
#194=EDGE_CURVE('',#239,#243,#270,.T.);
#195=EDGE_CURVE('',#244,#243,#35,.T.);
#196=EDGE_CURVE('',#241,#244,#271,.T.);
#197=EDGE_CURVE('',#245,#243,#36,.T.);
#198=EDGE_CURVE('',#246,#245,#37,.T.);
#199=EDGE_CURVE('',#246,#244,#38,.T.);
#200=EDGE_CURVE('',#245,#247,#272,.T.);
#201=EDGE_CURVE('',#248,#247,#39,.T.);
#202=EDGE_CURVE('',#246,#248,#273,.T.);
#203=EDGE_CURVE('',#249,#247,#40,.T.);
#204=EDGE_CURVE('',#250,#249,#41,.T.);
#205=EDGE_CURVE('',#250,#248,#42,.T.);
#206=EDGE_CURVE('',#249,#240,#274,.T.);
#207=EDGE_CURVE('',#250,#242,#275,.T.);
#208=EDGE_CURVE('',#251,#251,#276,.T.);
#209=EDGE_CURVE('',#252,#252,#277,.T.);
#210=EDGE_CURVE('',#253,#253,#278,.T.);
#211=EDGE_CURVE('',#254,#254,#12,.T.);
#212=EDGE_CURVE('',#255,#255,#13,.T.);
#213=EDGE_CURVE('',#256,#256,#14,.T.);
#214=EDGE_CURVE('',#257,#234,#43,.T.);
#215=EDGE_CURVE('',#233,#258,#44,.T.);
#216=EDGE_CURVE('',#258,#259,#279,.T.);
#217=EDGE_CURVE('',#238,#259,#45,.T.);
#218=EDGE_CURVE('',#260,#237,#46,.T.);
#219=EDGE_CURVE('',#260,#257,#280,.T.);
#220=EDGE_CURVE('',#261,#260,#47,.T.);
#221=EDGE_CURVE('',#261,#262,#281,.T.);
#222=EDGE_CURVE('',#262,#257,#48,.T.);
#223=EDGE_CURVE('',#261,#236,#49,.T.);
#224=EDGE_CURVE('',#262,#235,#50,.T.);
#225=EDGE_CURVE('',#231,#263,#51,.T.);
#226=EDGE_CURVE('',#232,#264,#52,.T.);
#227=EDGE_CURVE('',#263,#264,#282,.T.);
#228=EDGE_CURVE('',#263,#258,#53,.T.);
#229=EDGE_CURVE('',#264,#259,#54,.T.);
#230=VERTEX_POINT('',#537);
#231=VERTEX_POINT('',#539);
#232=VERTEX_POINT('',#540);
#233=VERTEX_POINT('',#542);
#234=VERTEX_POINT('',#544);
#235=VERTEX_POINT('',#546);
#236=VERTEX_POINT('',#548);
#237=VERTEX_POINT('',#550);
#238=VERTEX_POINT('',#552);
#239=VERTEX_POINT('',#556);
#240=VERTEX_POINT('',#557);
#241=VERTEX_POINT('',#559);
#242=VERTEX_POINT('',#561);
#243=VERTEX_POINT('',#565);
#244=VERTEX_POINT('',#567);
#245=VERTEX_POINT('',#571);
#246=VERTEX_POINT('',#573);
#247=VERTEX_POINT('',#577);
#248=VERTEX_POINT('',#579);
#249=VERTEX_POINT('',#583);
#250=VERTEX_POINT('',#585);
#251=VERTEX_POINT('',#592);
#252=VERTEX_POINT('',#594);
#253=VERTEX_POINT('',#596);
#254=VERTEX_POINT('',#1076);
#255=VERTEX_POINT('',#1088);
#256=VERTEX_POINT('',#1100);
#257=VERTEX_POINT('',#1103);
#258=VERTEX_POINT('',#1105);
#259=VERTEX_POINT('',#1107);
#260=VERTEX_POINT('',#1110);
#261=VERTEX_POINT('',#1114);
#262=VERTEX_POINT('',#1116);
#263=VERTEX_POINT('',#1125);
#264=VERTEX_POINT('',#1127);
#265=CIRCLE('',#391,0.00375);
#266=CIRCLE('',#392,0.00375);
#267=CIRCLE('',#393,0.00375);
#268=CIRCLE('',#394,0.00375);
#269=CIRCLE('',#395,0.00375);
#270=CIRCLE('',#398,0.00375);
#271=CIRCLE('',#399,0.00375);
#272=CIRCLE('',#402,0.00375);
#273=CIRCLE('',#403,0.00375);
#274=CIRCLE('',#406,0.00375);
#275=CIRCLE('',#407,0.00375);
#276=CIRCLE('',#409,0.0016);
#277=CIRCLE('',#410,0.0016);
#278=CIRCLE('',#411,0.0016);
#279=CIRCLE('',#413,0.00725);
#280=CIRCLE('',#414,0.00725);
#281=CIRCLE('',#416,0.00725);
#282=CIRCLE('',#421,0.00725);
#283=EDGE_LOOP('',(#83));
#284=EDGE_LOOP('',(#84,#85,#86,#87,#88,#89,#90,#91));
#285=EDGE_LOOP('',(#92,#93,#94,#95));
#286=EDGE_LOOP('',(#96,#97,#98,#99));
#287=EDGE_LOOP('',(#100,#101,#102,#103));
#288=EDGE_LOOP('',(#104,#105,#106,#107));
#289=EDGE_LOOP('',(#108,#109,#110,#111));
#290=EDGE_LOOP('',(#112,#113,#114,#115));
#291=EDGE_LOOP('',(#116));
#292=EDGE_LOOP('',(#117));
#293=EDGE_LOOP('',(#118));
#294=EDGE_LOOP('',(#119,#120,#121,#122,#123,#124));
#295=EDGE_LOOP('',(#125));
#296=EDGE_LOOP('',(#126));
#297=EDGE_LOOP('',(#127));
#298=EDGE_LOOP('',(#128));
#299=EDGE_LOOP('',(#129,#130,#131,#132,#133,#134));
#300=EDGE_LOOP('',(#135,#136,#137,#138,#139,#140,#141,#142));
#301=EDGE_LOOP('',(#143,#144,#145,#146));
#302=EDGE_LOOP('',(#147,#148,#149,#150));
#303=EDGE_LOOP('',(#151,#152,#153,#154));
#304=EDGE_LOOP('',(#155,#156,#157,#158));
#305=EDGE_LOOP('',(#159,#160,#161,#162));
#306=EDGE_LOOP('',(#163,#164,#165,#166));
#307=EDGE_LOOP('',(#167,#168,#169,#170));
#308=EDGE_LOOP('',(#171,#172,#173,#174));
#309=EDGE_LOOP('',(#175));
#310=EDGE_LOOP('',(#176));
#311=EDGE_LOOP('',(#177));
#312=EDGE_LOOP('',(#178));
#313=EDGE_LOOP('',(#179));
#314=EDGE_LOOP('',(#180));
#315=FACE_BOUND('',#283,.T.);
#316=FACE_BOUND('',#284,.T.);
#317=FACE_BOUND('',#285,.T.);
#318=FACE_BOUND('',#286,.T.);
#319=FACE_BOUND('',#287,.T.);
#320=FACE_BOUND('',#288,.T.);
#321=FACE_BOUND('',#289,.T.);
#322=FACE_BOUND('',#290,.T.);
#323=FACE_BOUND('',#291,.T.);
#324=FACE_BOUND('',#292,.T.);
#325=FACE_BOUND('',#293,.T.);
#326=FACE_BOUND('',#294,.T.);
#327=FACE_BOUND('',#295,.T.);
#328=FACE_BOUND('',#296,.T.);
#329=FACE_BOUND('',#297,.T.);
#330=FACE_BOUND('',#298,.T.);
#331=FACE_BOUND('',#299,.T.);
#332=FACE_BOUND('',#300,.T.);
#333=FACE_BOUND('',#301,.T.);
#334=FACE_BOUND('',#302,.T.);
#335=FACE_BOUND('',#303,.T.);
#336=FACE_BOUND('',#304,.T.);
#337=FACE_BOUND('',#305,.T.);
#338=FACE_BOUND('',#306,.T.);
#339=FACE_BOUND('',#307,.T.);
#340=FACE_BOUND('',#308,.T.);
#341=FACE_BOUND('',#309,.T.);
#342=FACE_BOUND('',#310,.T.);
#343=FACE_BOUND('',#311,.T.);
#344=FACE_BOUND('',#312,.T.);
#345=FACE_BOUND('',#313,.T.);
#346=FACE_BOUND('',#314,.T.);
#347=CYLINDRICAL_SURFACE('',#390,0.00375);
#348=CYLINDRICAL_SURFACE('',#397,0.00375);
#349=CYLINDRICAL_SURFACE('',#401,0.00375);
#350=CYLINDRICAL_SURFACE('',#405,0.00375);
#351=CYLINDRICAL_SURFACE('',#415,0.00725);
#352=CYLINDRICAL_SURFACE('',#423,0.00725);
#353=CYLINDRICAL_SURFACE('',#425,0.0016);
#354=CYLINDRICAL_SURFACE('',#426,0.0016);
#355=CYLINDRICAL_SURFACE('',#427,0.0016);
#356=ADVANCED_FACE('',(#315,#316),#347,.T.);
#357=ADVANCED_FACE('',(#317),#16,.T.);
#358=ADVANCED_FACE('',(#318),#348,.T.);
#359=ADVANCED_FACE('',(#319),#17,.T.);
#360=ADVANCED_FACE('',(#320),#349,.T.);
#361=ADVANCED_FACE('',(#321),#18,.T.);
#362=ADVANCED_FACE('',(#322),#350,.T.);
#363=ADVANCED_FACE('',(#323,#324,#325,#326),#19,.F.);
#364=ADVANCED_FACE('',(#327,#328,#329,#330,#331),#15,.T.);
#365=ADVANCED_FACE('',(#332),#20,.T.);
#366=ADVANCED_FACE('',(#333),#351,.T.);
#367=ADVANCED_FACE('',(#334),#21,.F.);
#368=ADVANCED_FACE('',(#335),#22,.F.);
#369=ADVANCED_FACE('',(#336),#23,.T.);
#370=ADVANCED_FACE('',(#337),#24,.F.);
#371=ADVANCED_FACE('',(#338),#25,.T.);
#372=ADVANCED_FACE('',(#339),#352,.T.);
#373=ADVANCED_FACE('',(#340),#26,.F.);
#374=ADVANCED_FACE('',(#341,#342),#353,.F.);
#375=ADVANCED_FACE('',(#343,#344),#354,.F.);
#376=ADVANCED_FACE('',(#345,#346),#355,.F.);
#377=CLOSED_SHELL('',(#356,#357,#358,#359,#360,#361,#362,#363,#364,#365,
#366,#367,#368,#369,#370,#371,#372,#373,#374,#375,#376));
#378=STYLED_ITEM('',(#379),#386);
#379=PRESENTATION_STYLE_ASSIGNMENT((#380));
#380=SURFACE_STYLE_USAGE(.BOTH.,#381);
#381=SURFACE_SIDE_STYLE('',(#382));
#382=SURFACE_STYLE_FILL_AREA(#383);
#383=FILL_AREA_STYLE('',(#384));
#384=FILL_AREA_STYLE_COLOUR('',#385);
#385=COLOUR_RGB('',0.301960784313725,0.301960784313725,0.301960784313725);
#386=MANIFOLD_SOLID_BREP('Crochet',#377);
#387=SHAPE_DEFINITION_REPRESENTATION(#1143,#388);
#388=SHAPE_REPRESENTATION('Crochet',(#389),#1138);
#389=AXIS2_PLACEMENT_3D('',#534,#428,#429);
#390=AXIS2_PLACEMENT_3D('',#535,#430,#431);
#391=AXIS2_PLACEMENT_3D('',#536,#432,#433);
#392=AXIS2_PLACEMENT_3D('',#538,#434,#435);
#393=AXIS2_PLACEMENT_3D('',#543,#437,#438);
#394=AXIS2_PLACEMENT_3D('',#547,#440,#441);
#395=AXIS2_PLACEMENT_3D('',#551,#443,#444);
#396=AXIS2_PLACEMENT_3D('',#554,#446,#447);
#397=AXIS2_PLACEMENT_3D('',#563,#452,#453);
#398=AXIS2_PLACEMENT_3D('',#564,#454,#455);
#399=AXIS2_PLACEMENT_3D('',#568,#457,#458);
#400=AXIS2_PLACEMENT_3D('',#569,#459,#460);
#401=AXIS2_PLACEMENT_3D('',#575,#464,#465);
#402=AXIS2_PLACEMENT_3D('',#576,#466,#467);
#403=AXIS2_PLACEMENT_3D('',#580,#469,#470);
#404=AXIS2_PLACEMENT_3D('',#581,#471,#472);
#405=AXIS2_PLACEMENT_3D('',#587,#476,#477);
#406=AXIS2_PLACEMENT_3D('',#588,#478,#479);
#407=AXIS2_PLACEMENT_3D('',#589,#480,#481);
#408=AXIS2_PLACEMENT_3D('',#590,#482,#483);
#409=AXIS2_PLACEMENT_3D('',#591,#484,#485);
#410=AXIS2_PLACEMENT_3D('',#593,#486,#487);
#411=AXIS2_PLACEMENT_3D('',#595,#488,#489);
#412=AXIS2_PLACEMENT_3D('',#1101,#490,#491);
#413=AXIS2_PLACEMENT_3D('',#1106,#494,#495);
#414=AXIS2_PLACEMENT_3D('',#1111,#498,#499);
#415=AXIS2_PLACEMENT_3D('',#1112,#500,#501);
#416=AXIS2_PLACEMENT_3D('',#1115,#503,#504);
#417=AXIS2_PLACEMENT_3D('',#1118,#506,#507);
#418=AXIS2_PLACEMENT_3D('',#1121,#510,#511);
#419=AXIS2_PLACEMENT_3D('',#1122,#512,#513);
#420=AXIS2_PLACEMENT_3D('',#1123,#514,#515);
#421=AXIS2_PLACEMENT_3D('',#1128,#518,#519);
#422=AXIS2_PLACEMENT_3D('',#1129,#520,#521);
#423=AXIS2_PLACEMENT_3D('',#1131,#523,#524);
#424=AXIS2_PLACEMENT_3D('',#1133,#526,#527);
#425=AXIS2_PLACEMENT_3D('',#1134,#528,#529);
#426=AXIS2_PLACEMENT_3D('',#1135,#530,#531);
#427=AXIS2_PLACEMENT_3D('',#1136,#532,#533);
#428=DIRECTION('',(0.,0.,1.));
#429=DIRECTION('',(1.,0.,0.));
#430=DIRECTION('',(0.,0.,-1.));
#431=DIRECTION('',(-1.,0.,0.));
#432=DIRECTION('',(0.,0.,1.));
#433=DIRECTION('',(1.,0.,0.));
#434=DIRECTION('',(0.,0.,1.));
#435=DIRECTION('',(1.,0.,0.));
#436=DIRECTION('',(0.,0.,1.));
#437=DIRECTION('',(0.,0.,1.));
#438=DIRECTION('',(1.,0.,0.));
#439=DIRECTION('',(0.,0.,1.));
#440=DIRECTION('',(0.,0.,1.));
#441=DIRECTION('',(1.,0.,0.));
#442=DIRECTION('',(0.,0.,1.));
#443=DIRECTION('',(0.,0.,1.));
#444=DIRECTION('',(1.,0.,0.));
#445=DIRECTION('',(0.,0.,1.));
#446=DIRECTION('',(0.,1.,0.));
#447=DIRECTION('',(0.,0.,1.));
#448=DIRECTION('',(1.,0.,0.));
#449=DIRECTION('',(0.,0.,-1.));
#450=DIRECTION('',(1.,0.,0.));
#451=DIRECTION('',(0.,0.,-1.));
#452=DIRECTION('',(0.,0.,-1.));
#453=DIRECTION('',(-1.,0.,0.));
#454=DIRECTION('',(0.,0.,1.));
#455=DIRECTION('',(1.,0.,0.));
#456=DIRECTION('',(0.,0.,-1.));
#457=DIRECTION('',(0.,0.,1.));
#458=DIRECTION('',(1.,0.,0.));
#459=DIRECTION('',(-0.866025403784439,-0.5,0.));
#460=DIRECTION('',(0.5,-0.866025403784439,0.));
#461=DIRECTION('',(-0.5,0.866025403784439,0.));
#462=DIRECTION('',(0.,0.,-1.));
#463=DIRECTION('',(-0.5,0.866025403784439,0.));
#464=DIRECTION('',(0.,0.,-1.));
#465=DIRECTION('',(-1.,0.,0.));
#466=DIRECTION('',(0.,0.,1.));
#467=DIRECTION('',(1.,0.,0.));
#468=DIRECTION('',(0.,0.,-1.));
#469=DIRECTION('',(0.,0.,1.));
#470=DIRECTION('',(1.,0.,0.));
#471=DIRECTION('',(0.866025403784439,-0.5,0.));
#472=DIRECTION('',(0.5,0.866025403784439,0.));
#473=DIRECTION('',(-0.5,-0.866025403784439,0.));
#474=DIRECTION('',(0.,0.,-1.));
#475=DIRECTION('',(-0.5,-0.866025403784439,0.));
#476=DIRECTION('',(0.,0.,-1.));
#477=DIRECTION('',(-1.,0.,0.));
#478=DIRECTION('',(0.,0.,1.));
#479=DIRECTION('',(1.,0.,0.));
#480=DIRECTION('',(0.,0.,1.));
#481=DIRECTION('',(1.,0.,0.));
#482=DIRECTION('',(0.,0.,1.));
#483=DIRECTION('',(1.,0.,0.));
#484=DIRECTION('',(0.,0.,-1.));
#485=DIRECTION('',(-1.,0.,0.));
#486=DIRECTION('',(0.,0.,-1.));
#487=DIRECTION('',(-1.,0.,0.));
#488=DIRECTION('',(0.,0.,-1.));
#489=DIRECTION('',(-1.,0.,0.));
#490=DIRECTION('',(0.,0.,1.));
#491=DIRECTION('',(1.,0.,0.));
#492=DIRECTION('',(0.,-1.,0.));
#493=DIRECTION('',(0.,1.,0.));
#494=DIRECTION('',(0.,0.,1.));
#495=DIRECTION('',(1.,0.,0.));
#496=DIRECTION('',(0.,-1.,0.));
#497=DIRECTION('',(0.,1.,0.));
#498=DIRECTION('',(0.,0.,1.));
#499=DIRECTION('',(1.,0.,0.));
#500=DIRECTION('',(0.,0.,1.));
#501=DIRECTION('',(1.,0.,0.));
#502=DIRECTION('',(0.,0.,1.));
#503=DIRECTION('',(0.,0.,1.));
#504=DIRECTION('',(1.,0.,0.));
#505=DIRECTION('',(0.,0.,1.));
#506=DIRECTION('',(0.,0.,1.));
#507=DIRECTION('',(1.,0.,0.));
#508=DIRECTION('',(0.,1.,0.));
#509=DIRECTION('',(0.,-1.,0.));
#510=DIRECTION('',(1.,0.,0.));
#511=DIRECTION('',(0.,0.,-1.));
#512=DIRECTION('',(-1.,0.,0.));
#513=DIRECTION('',(0.,0.,1.));
#514=DIRECTION('',(0.,0.,1.));
#515=DIRECTION('',(1.,0.,0.));
#516=DIRECTION('',(0.,1.,0.));
#517=DIRECTION('',(0.,-1.,0.));
#518=DIRECTION('',(0.,0.,1.));
#519=DIRECTION('',(1.,0.,0.));
#520=DIRECTION('',(1.,0.,0.));
#521=DIRECTION('',(0.,0.,-1.));
#522=DIRECTION('',(0.,0.,1.));
#523=DIRECTION('',(0.,0.,1.));
#524=DIRECTION('',(1.,0.,0.));
#525=DIRECTION('',(0.,0.,1.));
#526=DIRECTION('',(-1.,0.,0.));
#527=DIRECTION('',(0.,0.,1.));
#528=DIRECTION('',(0.,0.,-1.));
#529=DIRECTION('',(-1.,0.,0.));
#530=DIRECTION('',(0.,0.,-1.));
#531=DIRECTION('',(-1.,0.,0.));
#532=DIRECTION('',(0.,0.,-1.));
#533=DIRECTION('',(-1.,0.,0.));
#534=CARTESIAN_POINT('',(0.,0.,0.));
#535=CARTESIAN_POINT('',(-4.33680868994202E-19,0.0202072594216369,0.0135));
#536=CARTESIAN_POINT('',(-4.33680868994202E-19,0.0202072594216369,0.006));
#537=CARTESIAN_POINT('',(0.00375,0.0202072594216369,0.006));
#538=CARTESIAN_POINT('',(-4.33680868994202E-19,0.0202072594216369,0.011));
#539=CARTESIAN_POINT('',(-0.00075,0.0238814940358117,0.011));
#540=CARTESIAN_POINT('',(-0.00075,0.0165330248074621,0.011));
#541=CARTESIAN_POINT('',(-0.00075,0.0238814940358117,0.011));
#542=CARTESIAN_POINT('',(-0.00075,0.0238814940358117,0.0135));
#543=CARTESIAN_POINT('',(-4.33680868994202E-19,0.0202072594216369,0.0135));
#544=CARTESIAN_POINT('',(0.00075,0.0238814940358117,0.0135));
#545=CARTESIAN_POINT('',(0.00075,0.0238814940358117,0.011));
#546=CARTESIAN_POINT('',(0.00075,0.0238814940358117,0.011));
#547=CARTESIAN_POINT('',(-4.33680868994202E-19,0.0202072594216369,0.011));
#548=CARTESIAN_POINT('',(0.00075,0.0165330248074621,0.011));
#549=CARTESIAN_POINT('',(0.00075,0.0165330248074621,0.011));
#550=CARTESIAN_POINT('',(0.00075,0.0165330248074621,0.0135));
#551=CARTESIAN_POINT('',(-4.33680868994202E-19,0.0202072594216369,0.0135));
#552=CARTESIAN_POINT('',(-0.00075,0.0165330248074621,0.0135));
#553=CARTESIAN_POINT('',(-0.00075,0.0165330248074621,0.011));
#554=CARTESIAN_POINT('',(0.,0.0303108891324553,0.001));
#555=CARTESIAN_POINT('',(0.,0.0303108891324553,0.));
#556=CARTESIAN_POINT('',(-0.0110048094716167,0.0303108891324553,0.));
#557=CARTESIAN_POINT('',(0.0110048094716167,0.0303108891324553,0.));
#558=CARTESIAN_POINT('',(-0.0110048094716167,0.0303108891324553,0.001));
#559=CARTESIAN_POINT('',(-0.0110048094716167,0.0303108891324553,0.001));
#560=CARTESIAN_POINT('',(0.,0.0303108891324553,0.001));
#561=CARTESIAN_POINT('',(0.0110048094716167,0.0303108891324553,0.001));
#562=CARTESIAN_POINT('',(0.0110048094716167,0.0303108891324553,0.001));
#563=CARTESIAN_POINT('',(-0.0110048094716167,0.0265608891324553,0.001));
#564=CARTESIAN_POINT('',(-0.0110048094716167,0.0265608891324553,0.));
#565=CARTESIAN_POINT('',(-0.0142524047358083,0.0246858891324554,0.));
#566=CARTESIAN_POINT('',(-0.0142524047358083,0.0246858891324554,0.001));
#567=CARTESIAN_POINT('',(-0.0142524047358083,0.0246858891324554,0.001));
#568=CARTESIAN_POINT('',(-0.0110048094716167,0.0265608891324553,0.001));
#569=CARTESIAN_POINT('',(-0.00875,0.0151554445662277,0.001));
#570=CARTESIAN_POINT('',(-0.00875,0.0151554445662277,0.));
#571=CARTESIAN_POINT('',(-0.00324759526419164,0.005625,0.));
#572=CARTESIAN_POINT('',(-0.00324759526419164,0.005625,0.001));
#573=CARTESIAN_POINT('',(-0.00324759526419164,0.005625,0.001));
#574=CARTESIAN_POINT('',(-0.00875,0.0151554445662277,0.001));
#575=CARTESIAN_POINT('',(-1.95156391047391E-18,0.0075,0.001));
#576=CARTESIAN_POINT('',(-1.95156391047391E-18,0.0075,0.));
#577=CARTESIAN_POINT('',(0.00324759526419164,0.005625,0.));
#578=CARTESIAN_POINT('',(0.00324759526419164,0.005625,0.001));
#579=CARTESIAN_POINT('',(0.00324759526419164,0.005625,0.001));
#580=CARTESIAN_POINT('',(-1.95156391047391E-18,0.0075,0.001));
#581=CARTESIAN_POINT('',(0.00875,0.0151554445662277,0.001));
#582=CARTESIAN_POINT('',(0.00875,0.0151554445662277,0.));
#583=CARTESIAN_POINT('',(0.0142524047358084,0.0246858891324554,0.));
#584=CARTESIAN_POINT('',(0.0142524047358084,0.0246858891324554,0.001));
#585=CARTESIAN_POINT('',(0.0142524047358084,0.0246858891324554,0.001));
#586=CARTESIAN_POINT('',(0.00875,0.0151554445662277,0.001));
#587=CARTESIAN_POINT('',(0.0110048094716167,0.0265608891324553,0.001));
#588=CARTESIAN_POINT('',(0.0110048094716167,0.0265608891324553,0.));
#589=CARTESIAN_POINT('',(0.0110048094716167,0.0265608891324553,0.001));
#590=CARTESIAN_POINT('',(0.,0.0170304445662277,0.));
#591=CARTESIAN_POINT('',(0.,0.0075,0.));
#592=CARTESIAN_POINT('',(-0.0016,0.0075,0.));
#593=CARTESIAN_POINT('',(-0.0110048094716167,0.0265608891324553,0.));
#594=CARTESIAN_POINT('',(-0.0126048094716167,0.0265608891324553,0.));
#595=CARTESIAN_POINT('',(0.0110048094716167,0.0265608891324553,0.));
#596=CARTESIAN_POINT('',(0.0094048094716167,0.0265608891324553,0.));
#597=CARTESIAN_POINT('',(-0.00326219474742192,0.00555944581773071,0.001));
#598=CARTESIAN_POINT('',(-0.00285192706230151,0.00740161804981438,0.001));
#599=CARTESIAN_POINT('',(-0.0024416593771811,0.00924379028189806,0.00161374494765376));
#600=CARTESIAN_POINT('',(-0.00162112400694028,0.0129281347460654,0.00351124972073229));
#601=CARTESIAN_POINT('',(-0.00121085632181986,0.0147703069781491,0.00478000440839491));
#602=CARTESIAN_POINT('',(-0.000800588636699453,0.0166124792102327,0.00604500838979757));
#603=CARTESIAN_POINT('',(-0.00283122048265929,0.00482366021244069,0.001));
#604=CARTESIAN_POINT('',(-0.0026473880616542,0.00675780109952914,0.001));
#605=CARTESIAN_POINT('',(-0.00232040892253293,0.0087081850397706,0.00161374494765375));
#606=CARTESIAN_POINT('',(-0.00151017981679346,0.0126266851839806,0.00351124972073229));
#607=CARTESIAN_POINT('',(-0.00103042957140919,0.014594404269812,0.0047800044083949));
#608=CARTESIAN_POINT('',(-0.000551554121481544,0.0165620240914111,0.00604500838979756));
#609=CARTESIAN_POINT('',(-0.00224568408073082,0.00436675612696893,0.001));
#610=CARTESIAN_POINT('',(-0.00244745547908331,0.00638487936664825,0.001));
#611=CARTESIAN_POINT('',(-0.00225844316110739,0.00840895649184258,0.00161374494765375));
#612=CARTESIAN_POINT('',(-0.00145380661587366,0.0124636104973671,0.00351124972073229));
#613=CARTESIAN_POINT('',(-0.000847736460744897,0.0144940418141814,0.00478000440839491));
#614=CARTESIAN_POINT('',(-0.000244054455509216,0.0165244367457258,0.00604500838979757));
#615=CARTESIAN_POINT('',(-0.00140865222736035,0.00394223151294937,0.001));
#616=CARTESIAN_POINT('',(-0.00181164179695939,0.00603288684340538,0.001));
#617=CARTESIAN_POINT('',(-0.00171863086853365,0.00812953569668924,0.00161374494765375));
#618=CARTESIAN_POINT('',(-0.000991133738722484,0.0123293764297703,0.00351124972073229));
#619=CARTESIAN_POINT('',(-0.000368774000994998,0.0144324217769793,0.00478000440839491));
#620=CARTESIAN_POINT('',(0.000250554588077026,0.0165354304966874,0.00604500838979757));
#621=CARTESIAN_POINT('',(-0.00113225456927167,0.00384353940685419,0.001));
#622=CARTESIAN_POINT('',(-0.00153209941084688,0.00594888207966072,0.001));
#623=CARTESIAN_POINT('',(-0.00145118271042031,0.00806328805814707,0.00161374494765375));
#624=CARTESIAN_POINT('',(-0.000764510144645763,0.0123019942711465,0.00351124972073229));
#625=CARTESIAN_POINT('',(-0.000170508173478207,0.0144260729215133,0.00478000440839491));
#626=CARTESIAN_POINT('',(0.000420555777047353,0.0165500961843817,0.00604500838979757));
#627=CARTESIAN_POINT('',(-0.00059170727634214,0.00371225878541419,0.001));
#628=CARTESIAN_POINT('',(-0.000792211306968518,0.00582505418978121,0.001));
#629=CARTESIAN_POINT('',(-0.00068190464902195,0.00796410570775188,0.00161374494765375));
#630=CARTESIAN_POINT('',(-0.00012198461246215,0.0122708720945105,0.00351124972073229));
#631=CARTESIAN_POINT('',(0.000320029913862653,0.0144379450409441,0.00478000440839491));
#632=CARTESIAN_POINT('',(0.000760145019915655,0.0166048575315238,0.00604500838979757));
#633=CARTESIAN_POINT('',(-0.000326626885829733,0.00367950564104702,0.001));
#634=CARTESIAN_POINT('',(-0.000349190233900491,0.00578651417026792,0.001));
#635=CARTESIAN_POINT('',(-0.000202408867861838,0.00793286551444013,0.00161374494765375));
#636=CARTESIAN_POINT('',(0.000276024596526894,0.0122685180819673,0.00351124972073229));
#637=CARTESIAN_POINT('',(0.000603536472176614,0.0144568574328694,0.00478000440839491));
#638=CARTESIAN_POINT('',(0.000930013451683028,0.0166449563527212,0.00604500838979757));
#639=CARTESIAN_POINT('',(0.000202530142216676,0.0036720101787155,0.001));
#640=CARTESIAN_POINT('',(0.000544825124310751,0.00576135174584353,0.001));
#641=CARTESIAN_POINT('',(0.00076622469159311,0.00791658350972251,0.00161374494765375));
#642=CARTESIAN_POINT('',(0.00107704436646891,0.0122989782399957,0.00351124972073229));
#643=CARTESIAN_POINT('',(0.00116942018451014,0.0145245302905149,0.00478000440839491));
#644=CARTESIAN_POINT('',(0.00126253481627337,0.0167496796741374,0.00604500838979757));
#645=CARTESIAN_POINT('',(0.000466871823281646,0.00369719205166214,0.001));
#646=CARTESIAN_POINT('',(0.000996084452984929,0.00577465353184338,0.001));
#647=CARTESIAN_POINT('',(0.00125558905365394,0.00793147642210794,0.00161374494765375));
#648=CARTESIAN_POINT('',(0.00148016260578934,0.0123317596986849,0.00351124972073229));
#649=CARTESIAN_POINT('',(0.00145182551154683,0.0145732798182857,0.00478000440839491));
#650=CARTESIAN_POINT('',(0.00142513665179769,0.0168143149459714,0.00604500838979757));
#651=CARTESIAN_POINT('',(0.00100493816782165,0.00381074739491453,0.001));
#652=CARTESIAN_POINT('',(0.00176939946868813,0.00587128875945363,0.001));
#653=CARTESIAN_POINT('',(0.0020648967571629,0.00802783909124477,0.00161374494765375));
#654=CARTESIAN_POINT('',(0.00214393133078724,0.0124457511047277,0.00351124972073229));
#655=CARTESIAN_POINT('',(0.00193893407832202,0.0147047655120581,0.00478000440839491));
#656=CARTESIAN_POINT('',(0.0017368027496639,0.0169631931912438,0.00604500838979757));
#657=CARTESIAN_POINT('',(0.00127962204288055,0.0038990393543912,0.001));
#658=CARTESIAN_POINT('',(0.00207488534277056,0.0059563588871291,0.001));
#659=CARTESIAN_POINT('',(0.00236345201717521,0.00811154093683288,0.00161374494765375));
#660=CARTESIAN_POINT('',(0.00238743331334541,0.0125287398747088,0.00351124972073229));
#661=CARTESIAN_POINT('',(0.00213523590294367,0.0147883641720262,0.00478000440839491));
#662=CARTESIAN_POINT('',(0.00188613500716478,0.0170473904138217,0.00604500838979757));
#663=CARTESIAN_POINT('',(0.00211529001773719,0.00428591906310559,0.001));
#664=CARTESIAN_POINT('',(0.00274983936950764,0.00634496657472631,0.001));
#665=CARTESIAN_POINT('',(0.00294426163594883,0.00848638017728517,0.00161374494765375));
#666=CARTESIAN_POINT('',(0.00285262694630086,0.0128591250372256,0.00351124972073229));
#667=CARTESIAN_POINT('',(0.00257733043324831,0.0150884425679831,0.0047800044083949));
#668=CARTESIAN_POINT('',(0.00230472361633162,0.017317256744678,0.00604500838979757));
#669=CARTESIAN_POINT('',(0.00270324784456461,0.00470792422756486,0.001));
#670=CARTESIAN_POINT('',(0.00294514405614677,0.00677792311667511,0.001));
#671=CARTESIAN_POINT('',(0.00299086088094972,0.00889569515547371,0.00161374494765375));
#672=CARTESIAN_POINT('',(0.00286812884437512,0.0131833923647121,0.00351124972073229));
#673=CARTESIAN_POINT('',(0.00270447627294828,0.0153521495537369,0.00478000440839491));
#674=CARTESIAN_POINT('',(0.00254202258919763,0.0175206147924129,0.00604500838979757));
#675=CARTESIAN_POINT('',(0.00338576337353141,0.00575211110851281,0.001));
#676=CARTESIAN_POINT('',(0.00322326423468158,0.00777543179338348,0.001));
#677=CARTESIAN_POINT('',(0.00310969532485381,0.00978726998218464,0.00161374494765375));
#678=CARTESIAN_POINT('',(0.00293597380058755,0.0137984111149269,0.00351124972073229));
#679=CARTESIAN_POINT('',(0.00287462491589049,0.0157979947885685,0.00478000440839491));
#680=CARTESIAN_POINT('',(0.00281297700972369,0.0177976486338182,0.00604500838979757));
#681=CARTESIAN_POINT('',(0.00359968371138561,0.00614775931628094,0.001));
#682=CARTESIAN_POINT('',(0.0033395814008764,0.00814421028552234,0.001));
#683=CARTESIAN_POINT('',(0.00318316927074342,0.0101115759806688,0.00161374494765375));
#684=CARTESIAN_POINT('',(0.00298354180956547,0.0140145554739528,0.00351124972073229));
#685=CARTESIAN_POINT('',(0.00293779141009006,0.0159508803631491,0.00478000440839491));
#686=CARTESIAN_POINT('',(0.00289140734118876,0.0178873829977102,0.00604500838979757));
#687=CARTESIAN_POINT('',(0.00407621501865506,0.00696733873428268,0.001));
#688=CARTESIAN_POINT('',(0.00367892104209898,0.00888907177920345,0.001));
#689=CARTESIAN_POINT('',(0.00344476602972279,0.0107584069685094,0.00161374494765375));
#690=CARTESIAN_POINT('',(0.00315455202606603,0.0144398755030009,0.00351124972073229));
#691=CARTESIAN_POINT('',(0.00309450453330573,0.0162532898966823,0.00478000440839491));
#692=CARTESIAN_POINT('',(0.00303346006886113,0.0180670245031261,0.00604500838979757));
#693=CARTESIAN_POINT('',(0.00432664116884213,0.00740028385776126,0.001));
#694=CARTESIAN_POINT('',(0.00388872378136577,0.00927429626699808,0.001));
#695=CARTESIAN_POINT('',(0.00362077069917085,0.0110888817621008,0.00161374494765376));
#696=CARTESIAN_POINT('',(0.00327041166419351,0.0146531774050433,0.00351124972073229));
#697=CARTESIAN_POINT('',(0.0031838503406416,0.016404340451252,0.00478000440839491));
#698=CARTESIAN_POINT('',(0.0030962503345128,0.0181558666660695,0.00604500838979757));
#699=CARTESIAN_POINT('',(0.00510874371477946,0.00875653698917045,0.001));
#700=CARTESIAN_POINT('',(0.00459849567386372,0.01045997541834,0.001));
#701=CARTESIAN_POINT('',(0.00423635388613972,0.0120954376533029,0.00161374494765375));
#702=CARTESIAN_POINT('',(0.00367375537793138,0.0152921536729158,0.00351124972073229));
#703=CARTESIAN_POINT('',(0.00346967768306496,0.0168550693729307,0.0047800044083949));
#704=CARTESIAN_POINT('',(0.00326469488412704,0.0184184004877496,0.00604500838979757));
#705=CARTESIAN_POINT('',(0.00567124420590584,0.00973726275807453,0.001));
#706=CARTESIAN_POINT('',(0.00517882850179245,0.0112904357698454,0.001));
#707=CARTESIAN_POINT('',(0.00476352817864295,0.0127866240850707,0.00161374494765375));
#708=CARTESIAN_POINT('',(0.0040171130767599,0.0157167914954915,0.00351124972073229));
#709=CARTESIAN_POINT('',(0.0036841129433373,0.0171521637805215,0.00478000440839491));
#710=CARTESIAN_POINT('',(0.00335064154388925,0.0185878843093274,0.00604500838979757));
#711=CARTESIAN_POINT('',(0.00743678290654255,0.0128127232490041,0.001));
#712=CARTESIAN_POINT('',(0.00692100103421784,0.0138348352969613,0.001));
#713=CARTESIAN_POINT('',(0.00631002679637095,0.0148737885408259,0.00161374494765375));
#714=CARTESIAN_POINT('',(0.00498415844093909,0.0169700802745118,0.00351124972073229));
#715=CARTESIAN_POINT('',(0.00427159163303547,0.0180270070225084,0.00478000440839491));
#716=CARTESIAN_POINT('',(0.00355960656287588,0.0190838308509142,0.00604500838979757));
#717=CARTESIAN_POINT('',(0.00872108463214943,0.0150416513338693,0.001));
#718=CARTESIAN_POINT('',(0.00799657745251223,0.015577125720083,0.001));
#719=CARTESIAN_POINT('',(0.00718266831307764,0.0162516310164772,0.00161374494765375));
#720=CARTESIAN_POINT('',(0.0054572514415111,0.0177524192795292,0.00351124972073229));
#721=CARTESIAN_POINT('',(0.00454792945237887,0.0185753031502459,0.0047800044083949));
#722=CARTESIAN_POINT('',(0.00363915381477516,0.0193973373779518,0.00604500838979757));
#723=CARTESIAN_POINT('',(0.0105816779206349,0.0182545207691584,0.001));
#724=CARTESIAN_POINT('',(0.00943954220761954,0.0183412682812241,0.001));
#725=CARTESIAN_POINT('',(0.00829382363044603,0.0185648171528862,0.00161374494765376));
#726=CARTESIAN_POINT('',(0.00599847512448596,0.0191612586041775,0.0035112497207323));
#727=CARTESIAN_POINT('',(0.00484893279132115,0.0195308065970128,0.00478000440839491));
#728=CARTESIAN_POINT('',(0.00369941235368652,0.0198995185720239,0.00604500838979757));
#729=CARTESIAN_POINT('',(0.0111908695009244,0.0193030606380037,0.001));
#730=CARTESIAN_POINT('',(0.00989293356781546,0.0193057305916985,0.001));
#731=CARTESIAN_POINT('',(0.00863216149405135,0.0194000352244623,0.00161374494765376));
#732=CARTESIAN_POINT('',(0.0061511884970827,0.0196886805041854,0.00351124972073229));
#733=CARTESIAN_POINT('',(0.00493007897360149,0.0198807808215283,0.00478000440839491));
#734=CARTESIAN_POINT('',(0.00370874233506145,0.0200723211427918,0.00604500838979757));
#735=CARTESIAN_POINT('',(0.0123482605784792,0.0212939814800942,0.001));
#736=CARTESIAN_POINT('',(0.0107696837704086,0.021196662645424,0.001));
#737=CARTESIAN_POINT('',(0.00929104750894865,0.0210667367180123,0.00161374494765375));
#738=CARTESIAN_POINT('',(0.00644287837397136,0.0207712882569093,0.00351124972073229));
#739=CARTESIAN_POINT('',(0.00507090210491058,0.0206065629174279,0.0047800044083949));
#740=CARTESIAN_POINT('',(0.00369831508111328,0.0204420368457814,0.00604500838979757));
#741=CARTESIAN_POINT('',(0.0128963763035613,0.0222369135081265,0.001));
#742=CARTESIAN_POINT('',(0.0111953129663875,0.0221081979657764,0.001));
#743=CARTESIAN_POINT('',(0.00961451542219727,0.0218790889236114,0.00161374494765375));
#744=CARTESIAN_POINT('',(0.00658421244610891,0.0213112729700613,0.00351124972073229));
#745=CARTESIAN_POINT('',(0.00513176669706645,0.0209750205282419,0.00478000440839491));
#746=CARTESIAN_POINT('',(0.00367858598203472,0.0206393816092379,0.00604500838979757));
#747=CARTESIAN_POINT('',(0.0136429580668642,0.0235297302714399,0.001));
#748=CARTESIAN_POINT('',(0.0118467158376165,0.0232446125044669,0.001));
#749=CARTESIAN_POINT('',(0.010141512092137,0.0228553424022861,0.00161374494765375));
#750=CARTESIAN_POINT('',(0.00683048975914532,0.0219631008723,0.00351124972073229));
#751=CARTESIAN_POINT('',(0.0052224454180921,0.0214626758119132,0.00478000440839491));
#752=CARTESIAN_POINT('',(0.00361384472441673,0.0209628872452639,0.00604500838979757));
#753=CARTESIAN_POINT('',(0.0138792200172451,0.0239404056460886,0.001));
#754=CARTESIAN_POINT('',(0.0120660099742364,0.023584935943724,0.001));
#755=CARTESIAN_POINT('',(0.0103241327992134,0.0231403757558697,0.00161374494765375));
#756=CARTESIAN_POINT('',(0.00691825132291951,0.0221539968186462,0.00351124972073229));
#757=CARTESIAN_POINT('',(0.00525250304067537,0.0216143561971999,0.00478000440839491));
#758=CARTESIAN_POINT('',(0.00358631883038731,0.0210752600238064,0.00604500838979757));
#759=CARTESIAN_POINT('',(0.0143215929592706,0.0247140978542717,0.001));
#760=CARTESIAN_POINT('',(0.0125142642624358,0.0241586212779467,0.001));
#761=CARTESIAN_POINT('',(0.0107116138922733,0.0235944430237019,0.00161374494765375));
#762=CARTESIAN_POINT('',(0.00711142040127963,0.0224565870420354,0.00351124972073229));
#763=CARTESIAN_POINT('',(0.00531376290242142,0.0218831220575069,0.00478000440839491));
#764=CARTESIAN_POINT('',(0.00351607681346368,0.0213097102505044,0.00604500838979757));
#765=CARTESIAN_POINT('',(0.0145234534344339,0.0250803160509997,0.001));
#766=CARTESIAN_POINT('',(0.0127430956642315,0.0243866492927648,0.001));
#767=CARTESIAN_POINT('',(0.0109179762485784,0.0237555467935319,0.00161374494765375));
#768=CARTESIAN_POINT('',(0.00721887189337671,0.0225616421281416,0.00351124972073229));
#769=CARTESIAN_POINT('',(0.0053459813085091,0.0219973103602678,0.00478000440839491));
#770=CARTESIAN_POINT('',(0.00347336427014387,0.0214325962509039,0.00604500838979757));
#771=CARTESIAN_POINT('',(0.0148655257881829,0.0261733744922026,0.001));
#772=CARTESIAN_POINT('',(0.0131917950678076,0.0250443046803503,0.001));
#773=CARTESIAN_POINT('',(0.0113340566705213,0.0242109969765132,0.00161374494765375));
#774=CARTESIAN_POINT('',(0.0074177018375617,0.0228672600111116,0.00351124972073229));
#775=CARTESIAN_POINT('',(0.00536358411190137,0.0223495998123434,0.00478000440839491));
#776=CARTESIAN_POINT('',(0.00331059089039918,0.021830132157898,0.00604500838979757));
#777=CARTESIAN_POINT('',(0.0148484344811389,0.0268382268457955,0.001));
#778=CARTESIAN_POINT('',(0.0132718306204938,0.0254081821410299,0.001));
#779=CARTESIAN_POINT('',(0.0114235587124066,0.0244484530443146,0.00161374494765375));
#780=CARTESIAN_POINT('',(0.0074304395284073,0.0230424303681071,0.00351124972073229));
#781=CARTESIAN_POINT('',(0.00529223412627838,0.0225846382817556,0.00478000440839491));
#782=CARTESIAN_POINT('',(0.00315568893666946,0.0221239720117516,0.00604500838979757));
#783=CARTESIAN_POINT('',(0.0146085343667656,0.0279644335304912,0.001));
#784=CARTESIAN_POINT('',(0.0129155177939808,0.0266498946825851,0.001));
#785=CARTESIAN_POINT('',(0.0110157338069182,0.0256510566719099,0.00161374494765375));
#786=CARTESIAN_POINT('',(0.00699044137781511,0.0239980258630015,0.00351124972073229));
#787=CARTESIAN_POINT('',(0.00486998808701926,0.023336114655725,0.00478000440839491));
#788=CARTESIAN_POINT('',(0.00275079838924856,0.0226722741435947,0.00604500838979757));
#789=CARTESIAN_POINT('',(0.0143836126958962,0.0284368959862537,0.001));
#790=CARTESIAN_POINT('',(0.012467538704478,0.0275588232717323,0.001));
#791=CARTESIAN_POINT('',(0.0105045043402949,0.0266511294691186,0.00161374494765375));
#792=CARTESIAN_POINT('',(0.00652716977497386,0.0248034050278917,0.00351124972073229));
#793=CARTESIAN_POINT('',(0.00451401768408177,0.023864098580181,0.0047800044083949));
#794=CARTESIAN_POINT('',(0.00250115257651195,0.0229249731522912,0.00604500838979757));
#795=CARTESIAN_POINT('',(0.0138905691189258,0.0290753486706017,0.001));
#796=CARTESIAN_POINT('',(0.0117670990603108,0.0286166258551671,0.001));
#797=CARTESIAN_POINT('',(0.00975745453941487,0.0277827392847239,0.00161374494765376));
#798=CARTESIAN_POINT('',(0.00586242689322995,0.0257054062795695,0.00351124972073229));
#799=CARTESIAN_POINT('',(0.0039742609053188,0.0244711320325054,0.00478000440839491));
#800=CARTESIAN_POINT('',(0.00208539930898188,0.0232391504789287,0.00604500838979757));
#801=CARTESIAN_POINT('',(0.0136984124673565,0.0292763289932468,0.001));
#802=CARTESIAN_POINT('',(0.0115293213546766,0.0289129971360618,0.001));
#803=CARTESIAN_POINT('',(0.00951308515450877,0.0280918998077397,0.00161374494765375));
#804=CARTESIAN_POINT('',(0.00564748185169475,0.0259499704040086,0.00351124972073229));
#805=CARTESIAN_POINT('',(0.00379437767711236,0.0246403300035508,0.0047800044083949));
#806=CARTESIAN_POINT('',(0.00194033937854343,0.0233334870905913,0.00604500838979757));
#807=CARTESIAN_POINT('',(0.0132444174822595,0.0296515393849831,0.001));
#808=CARTESIAN_POINT('',(0.0110787170423449,0.0292894453090472,0.001));
#809=CARTESIAN_POINT('',(0.00908284271699905,0.0284433215053082,0.00161374494765375));
#810=CARTESIAN_POINT('',(0.00527649033527899,0.0262226669102838,0.00351124972073229));
#811=CARTESIAN_POINT('',(0.00346186028668966,0.0248599699153896,0.00478000440839491));
#812=CARTESIAN_POINT('',(0.00164619240003184,0.0235002309136113,0.00604500838979757));
#813=CARTESIAN_POINT('',(0.0129825241674206,0.0298254341319091,0.001));
#814=CARTESIAN_POINT('',(0.010858726372187,0.029385095685682,0.001));
#815=CARTESIAN_POINT('',(0.00888791353525564,0.0285054601855689,0.00161374494765375));
#816=CARTESIAN_POINT('',(0.0051132989276829,0.0262666160939636,0.00351124972073229));
#817=CARTESIAN_POINT('',(0.00330575690568199,0.0249181476524918,0.0047800044083949));
#818=CARTESIAN_POINT('',(0.00149727996496123,0.0235723638346838,0.00604500838979757));
#819=CARTESIAN_POINT('',(0.0123759873921652,0.0301175312616722,0.001));
#820=CARTESIAN_POINT('',(0.0103765687511228,0.0294579185452458,0.001));
#821=CARTESIAN_POINT('',(0.00847783626981406,0.0284982472704514,0.00161374494765375));
#822=CARTESIAN_POINT('',(0.00479028866825224,0.0262513359171145,0.00351124972073229));
#823=CARTESIAN_POINT('',(0.00299901192333997,0.0249714318175032,0.0047800044083949));
#824=CARTESIAN_POINT('',(0.00120711986711468,0.0236933614299534,0.00604500838979757));
#825=CARTESIAN_POINT('',(0.0120307562344377,0.030235903014795,0.001));
#826=CARTESIAN_POINT('',(0.0101138141029055,0.0294352603984607,0.001));
#827=CARTESIAN_POINT('',(0.00826217668096365,0.0284290478475197,0.00161374494765375));
#828=CARTESIAN_POINT('',(0.00463019387326116,0.0261922055587665,0.00351124972073229));
#829=CARTESIAN_POINT('',(0.00284825188590291,0.0249666016956279,0.00478000440839491));
#830=CARTESIAN_POINT('',(0.0010659108096658,0.0237422541075,0.00604500838979757));
#831=CARTESIAN_POINT('',(0.0112545221120369,0.0303638142861023,0.001));
#832=CARTESIAN_POINT('',(0.0095032661125869,0.02931326733255,0.001));
#833=CARTESIAN_POINT('',(0.00775872044796115,0.0282333909894103,0.00161374494765375));
#834=CARTESIAN_POINT('',(0.00427695467663767,0.0260416199094079,0.00351124972073229));
#835=CARTESIAN_POINT('',(0.00253957051238012,0.0249304422318593,0.00478000440839491));
#836=CARTESIAN_POINT('',(0.000802145340054099,0.0238194437915095,0.00604500838979757));
#837=CARTESIAN_POINT('',(0.0108232751372069,0.0303518758058796,0.001));
#838=CARTESIAN_POINT('',(0.00915199281835195,0.0292000879404241,0.001));
#839=CARTESIAN_POINT('',(0.00746685237551779,0.0280977588156517,0.00161374494765376));
#840=CARTESIAN_POINT('',(0.00408144281257142,0.0259470938286507,0.00351124972073229));
#841=CARTESIAN_POINT('',(0.0023815125026771,0.024897548774851,0.00478000440839491));
#842=CARTESIAN_POINT('',(0.000681666882282145,0.0238477014697513,0.00604500838979757));
#843=CARTESIAN_POINT('',(0.00945495227848778,0.0303584413627911,0.001));
#844=CARTESIAN_POINT('',(0.00799520705910235,0.0290221513616682,0.001));
#845=CARTESIAN_POINT('',(0.00649109235597642,0.0278769465399328,0.00161374494765375));
#846=CARTESIAN_POINT('',(0.00343442554207044,0.0257951413234324,0.00351124972073229));
#847=CARTESIAN_POINT('',(0.00188295819820946,0.0248538691843996,0.0047800044083949));
#848=CARTESIAN_POINT('',(0.000331762004279821,0.0239114292893124,0.00604500838979757));
#849=CARTESIAN_POINT('',(0.00843230867575559,0.030358132859052,0.001));
#850=CARTESIAN_POINT('',(0.00708731146730822,0.0290305122822439,0.001));
#851=CARTESIAN_POINT('',(0.0057127171853233,0.0278893784737315,0.00161374494765375));
#852=CARTESIAN_POINT('',(0.00293121800163356,0.0258106952768203,0.00351124972073229));
#853=CARTESIAN_POINT('',(0.00152503670371153,0.0248685865683654,0.00478000440839491));
#854=CARTESIAN_POINT('',(0.000119036278853179,0.0239253382055771,0.00604500838979757));
#855=CARTESIAN_POINT('',(0.00623690068459932,0.0303541436698846,0.001));
#856=CARTESIAN_POINT('',(0.00514355526783367,0.0291386253763843,0.001));
#857=CARTESIAN_POINT('',(0.00405620751198502,0.0280275720447289,0.00161374494765375));
#858=CARTESIAN_POINT('',(0.00188805954428228,0.0259195079962036,0.00351124972073229));
#859=CARTESIAN_POINT('',(0.000807112698669898,0.0249199432686656,0.00478000440839491));
#860=CARTESIAN_POINT('',(-0.000273870799731943,0.0239197401368721,0.00604500838979757));
#861=CARTESIAN_POINT('',(0.00506412454230881,0.0303504744327832,0.001));
#862=CARTESIAN_POINT('',(0.0041080132078072,0.029238067282877,0.001));
#863=CARTESIAN_POINT('',(0.00317845805754321,0.0281529253296603,0.00161374494765375));
#864=CARTESIAN_POINT('',(0.00134833868981891,0.0260124063728162,0.00351124972073229));
#865=CARTESIAN_POINT('',(0.000447125213730166,0.0249563627762758,0.00478000440839491));
#866=CARTESIAN_POINT('',(-0.000454250551998339,0.0239001525571923,0.00604500838979757));
#867=CARTESIAN_POINT('',(0.00263923606068602,0.0303457152959654,0.001));
#868=CARTESIAN_POINT('',(0.00205309081492964,0.0293670471294604,0.001));
#869=CARTESIAN_POINT('',(0.00147683944653023,0.0283112812133733,0.00161374494765375));
#870=CARTESIAN_POINT('',(0.000335137686673652,0.0261155830846614,0.00351124972073229));
#871=CARTESIAN_POINT('',(-0.000230554595153961,0.0249775357956651,0.00478000440839491));
#872=CARTESIAN_POINT('',(-0.000796307340253622,0.0238399596649456,0.00604500838979757));
#873=CARTESIAN_POINT('',(0.00138729305755285,0.03034446046191,0.001));
#874=CARTESIAN_POINT('',(0.00102912121351226,0.029401055041009,0.001));
#875=CARTESIAN_POINT('',(0.000647072068556925,0.0283500076811808,0.00161374494765375));
#876=CARTESIAN_POINT('',(-0.000143092662984009,0.0261304020951148,0.00351124972073229));
#877=CARTESIAN_POINT('',(-0.000550624485595693,0.0249644755518403,0.00478000440839491));
#878=CARTESIAN_POINT('',(-0.000958010389707594,0.0237992068279022,0.00604500838979757));
#879=CARTESIAN_POINT('',(-0.00111888715701934,0.0303443869100231,0.001));
#880=CARTESIAN_POINT('',(-0.00102811457913906,0.0294030484090217,0.001));
#881=CARTESIAN_POINT('',(-0.001022453553978,0.0283401459467672,0.00161374494765375));
#882=CARTESIAN_POINT('',(-0.00110404633221793,0.0260816317218367,0.00351124972073229));
#883=CARTESIAN_POINT('',(-0.00118921928659753,0.0248889920145601,0.00478000440839491));
#884=CARTESIAN_POINT('',(-0.00127387210890143,0.0236970952066136,0.00604500838979757));
#885=CARTESIAN_POINT('',(-0.00237312436845856,0.0303455681921914,0.001));
#886=CARTESIAN_POINT('',(-0.00206138077037316,0.0293710338654858,0.001));
#887=CARTESIAN_POINT('',(-0.0018622229608603,0.0282915550704787,0.00161374494765376));
#888=CARTESIAN_POINT('',(-0.00158681532447062,0.0260180313966695,0.00351124972073229));
#889=CARTESIAN_POINT('',(-0.00150781294496742,0.0248265522517446,0.00478000440839491));
#890=CARTESIAN_POINT('',(-0.00142812253336946,0.0236357144414257,0.00604500838979757));
#891=CARTESIAN_POINT('',(-0.00480718968330562,0.0303505535202684,0.001));
#892=CARTESIAN_POINT('',(-0.00415348952251771,0.0292359238917313,0.001));
#893=CARTESIAN_POINT('',(-0.00360357472485312,0.0280997225923358,0.00161374494765376));
#894=CARTESIAN_POINT('',(-0.00261704583799139,0.0258037705688713,0.00351124972073229));
#895=CARTESIAN_POINT('',(-0.0021778943532893,0.0246445472396008,0.00478000440839491));
#896=CARTESIAN_POINT('',(-0.00173810861748234,0.0234854557387082,0.00604500838979757));
#897=CARTESIAN_POINT('',(-0.00598664150234732,0.0303546584235241,0.001));
#898=CARTESIAN_POINT('',(-0.00522252996209742,0.0291246747697948,0.001));
#899=CARTESIAN_POINT('',(-0.00451824822467651,0.027946023861425,0.00161374494765376));
#900=CARTESIAN_POINT('',(-0.00317499992380521,0.0256447611261301,0.00351124972073229));
#901=CARTESIAN_POINT('',(-0.00253457061196534,0.0245208942910476,0.00478000440839491));
#902=CARTESIAN_POINT('',(-0.00189377566939097,0.0233967137522839,0.00604500838979757));
#903=CARTESIAN_POINT('',(-0.00820079253244027,0.0303605926639344,0.001));
#904=CARTESIAN_POINT('',(-0.00723010629342741,0.0289638478284775,0.001));
#905=CARTESIAN_POINT('',(-0.00623956588036624,0.0277124997489429,0.00161374494765376));
#906=CARTESIAN_POINT('',(-0.00423681059150644,0.0253685307452174,0.00351124972073229));
#907=CARTESIAN_POINT('',(-0.00322508112030118,0.0242723550897636,0.00478000440839491));
#908=CARTESIAN_POINT('',(-0.00221347298154057,0.0231752908884657,0.00604500838979757));
#909=CARTESIAN_POINT('',(-0.00923555007481575,0.0303623753624058,0.001));
#910=CARTESIAN_POINT('',(-0.00816706131757312,0.0289155339883531,0.001));
#911=CARTESIAN_POINT('',(-0.00704420760383132,0.0276342913367934,0.00161374494765375));
#912=CARTESIAN_POINT('',(-0.00473915088178637,0.0252525873309119,0.00351124972073229));
#913=CARTESIAN_POINT('',(-0.003558277014627,0.0241480773377318,0.00478000440839491));
#914=CARTESIAN_POINT('',(-0.00237773538153888,0.0230425553408399,0.00604500838979757));
#915=CARTESIAN_POINT('',(-0.0106272922856285,0.0303589270251947,0.001));
#916=CARTESIAN_POINT('',(-0.00933240513376869,0.0290089891718206,0.001));
#917=CARTESIAN_POINT('',(-0.00800962103135707,0.0277239729563685,0.00161374494765375));
#918=CARTESIAN_POINT('',(-0.00533359820204265,0.0252248143688473,0.00351124972073229));
#919=CARTESIAN_POINT('',(-0.0039810415134813,0.0240090847607048,0.00478000440839491));
#920=CARTESIAN_POINT('',(-0.00262865530822489,0.0227929584047035,0.00604500838979757));
#921=CARTESIAN_POINT('',(-0.0110674758722099,0.0303777648772353,0.001));
#922=CARTESIAN_POINT('',(-0.0096811747254929,0.0290927215070188,0.001));
#923=CARTESIAN_POINT('',(-0.00829026390466778,0.0278119385933767,0.00161374494765375));
#924=CARTESIAN_POINT('',(-0.00550340996051811,0.0252550238337739,0.00351124972073229));
#925=CARTESIAN_POINT('',(-0.00410757953676901,0.0239787878260797,0.00478000440839491));
#926=CARTESIAN_POINT('',(-0.0027117772835712,0.0227025257819656,0.00604500838979757));
#927=CARTESIAN_POINT('',(-0.0118682942376408,0.0302838250127272,0.001));
#928=CARTESIAN_POINT('',(-0.0102712737203155,0.0291866808191979,0.001));
#929=CARTESIAN_POINT('',(-0.00874708138372074,0.0279426859479649,0.00161374494765375));
#930=CARTESIAN_POINT('',(-0.0057782019916694,0.0252943818285767,0.00351124972073229));
#931=CARTESIAN_POINT('',(-0.00433173439709966,0.0238936628578776,0.00478000440839491));
#932=CARTESIAN_POINT('',(-0.00288482173635967,0.0224938413182015,0.00604500838979757));
#933=CARTESIAN_POINT('',(-0.0122268631717206,0.0301776720437721,0.001));
#934=CARTESIAN_POINT('',(-0.0105158681328565,0.0291956953674336,0.001));
#935=CARTESIAN_POINT('',(-0.00892811835129952,0.027981363433884,0.00161374494765375));
#936=CARTESIAN_POINT('',(-0.00588716353079594,0.0252990413006681,0.00351124972073229));
#937=CARTESIAN_POINT('',(-0.00443094533129871,0.0238367318363912,0.00478000440839491));
#938=CARTESIAN_POINT('',(-0.00297397395776745,0.0223758423370705,0.00604500838979757));
#939=CARTESIAN_POINT('',(-0.0128583022034843,0.0299040431060138,0.001));
#940=CARTESIAN_POINT('',(-0.0109594413369372,0.029109389149538,0.001));
#941=CARTESIAN_POINT('',(-0.00926504629406946,0.0279473071552677,0.00161374494765375));
#942=CARTESIAN_POINT('',(-0.00609946805616175,0.0252220282528308,0.00351124972073229));
#943=CARTESIAN_POINT('',(-0.00462328598029405,0.0236678144056993,0.00478000440839491));
#944=CARTESIAN_POINT('',(-0.00314585437683716,0.0221158459776898,0.00604500838979757));
#945=CARTESIAN_POINT('',(-0.0131318370857587,0.0297363877288374,0.001));
#946=CARTESIAN_POINT('',(-0.0111590849130675,0.0290138889750333,0.001));
#947=CARTESIAN_POINT('',(-0.00942151535609286,0.0278744154650613,0.00161374494765375));
#948=CARTESIAN_POINT('',(-0.00620312108725476,0.025140264224935,0.00351124972073229));
#949=CARTESIAN_POINT('',(-0.00471654651535323,0.0235557808983088,0.0047800044083949));
#950=CARTESIAN_POINT('',(-0.00322853469999679,0.0219738457797521,0.00604500838979757));
#951=CARTESIAN_POINT('',(-0.0136063030576426,0.029370521770515,0.001));
#952=CARTESIAN_POINT('',(-0.0115831643759222,0.0286638729353229,0.001));
#953=CARTESIAN_POINT('',(-0.00979231907214863,0.0275364887840159,0.00161374494765376));
#954=CARTESIAN_POINT('',(-0.00646421917818243,0.0248224109221488,0.00351124972073229));
#955=CARTESIAN_POINT('',(-0.00492128536545494,0.0232460035551323,0.00478000440839491));
#956=CARTESIAN_POINT('',(-0.00337693196592655,0.0216721673776465,0.00604500838979757));
#957=CARTESIAN_POINT('',(-0.0138072003511522,0.0291725882024124,0.001));
#958=CARTESIAN_POINT('',(-0.0118179619789533,0.0283945279136393,0.001));
#959=CARTESIAN_POINT('',(-0.0100197993842614,0.0272525462898119,0.00161374494765375));
#960=CARTESIAN_POINT('',(-0.00663206835797558,0.0245712963357545,0.00351124972073229));
#961=CARTESIAN_POINT('',(-0.0050378284119757,0.0230409253329696,0.00478000440839491));
#962=CARTESIAN_POINT('',(-0.00344242076737796,0.0215127783192126,0.00604500838979757));
#963=CARTESIAN_POINT('',(-0.0143227114056565,0.0285440485991586,0.001));
#964=CARTESIAN_POINT('',(-0.0125538812305955,0.0273956137935446,0.001));
#965=CARTESIAN_POINT('',(-0.0107721419629552,0.0261699840556679,0.00161374494765375));
#966=CARTESIAN_POINT('',(-0.00719457079176837,0.0236344521907043,0.00351124972073229));
#967=CARTESIAN_POINT('',(-0.00539905449605413,0.0223264373632156,0.00478000440839491));
#968=CARTESIAN_POINT('',(-0.00360361709013691,0.0210188942879048,0.00604500838979757));
#969=CARTESIAN_POINT('',(-0.0145578569285286,0.0280790445804645,0.001));
#970=CARTESIAN_POINT('',(-0.0130688060489978,0.0265124685067656,0.001));
#971=CARTESIAN_POINT('',(-0.0113411636536223,0.0251877703210384,0.00161374494765375));
#972=CARTESIAN_POINT('',(-0.00762541257970749,0.0228024279090743,0.00351124972073229));
#973=CARTESIAN_POINT('',(-0.00564313710367003,0.0217358701334964,0.00478000440839491));
#974=CARTESIAN_POINT('',(-0.00366231970349204,0.0206678341984451,0.00604500838979757));
#975=CARTESIAN_POINT('',(-0.0148294058179388,0.0269776233337055,0.001));
#976=CARTESIAN_POINT('',(-0.013485735844557,0.0252029323313145,0.001));
#977=CARTESIAN_POINT('',(-0.0117671645757906,0.023872762245956,0.00161374494765375));
#978=CARTESIAN_POINT('',(-0.00792074869667925,0.0216976979688013,0.00351124972073229));
#979=CARTESIAN_POINT('',(-0.00580206985723952,0.0208419359114143,0.00478000440839491));
#980=CARTESIAN_POINT('',(-0.003685682107349,0.019983457306392,0.00604500838979757));
#981=CARTESIAN_POINT('',(-0.0148693739374102,0.0263288390614901,0.001));
#982=CARTESIAN_POINT('',(-0.0133665420879011,0.0247983563947918,0.001));
#983=CARTESIAN_POINT('',(-0.0115959437072897,0.0235726036096948,0.00161374494765375));
#984=CARTESIAN_POINT('',(-0.00776243079699987,0.0214537664470454,0.00351124972073229));
#985=CARTESIAN_POINT('',(-0.00570606275491793,0.0205532318837583,0.00478000440839491));
#986=CARTESIAN_POINT('',(-0.00365133108248472,0.0196508350611094,0.00604500838979757));
#987=CARTESIAN_POINT('',(-0.0145828773080531,0.0252480337515885,0.001));
#988=CARTESIAN_POINT('',(-0.0128618442859801,0.0241219925071835,0.001));
#989=CARTESIAN_POINT('',(-0.0110564878386351,0.0230851799080908,0.00161374494765375));
#990=CARTESIAN_POINT('',(-0.0073537205006572,0.0211089640981393,0.00351124972073229));
#991=CARTESIAN_POINT('',(-0.00545837119051909,0.0201673793815583,0.00478000440839491));
#992=CARTESIAN_POINT('',(-0.00356353719606747,0.0192252493726049,0.00604500838979757));
#993=CARTESIAN_POINT('',(-0.0144080979858614,0.0248804153046471,0.001));
#994=CARTESIAN_POINT('',(-0.0126192131669467,0.0238935929728267,0.001));
#995=CARTESIAN_POINT('',(-0.0108126466686212,0.0229235216852293,0.00161374494765375));
#996=CARTESIAN_POINT('',(-0.0071802108845267,0.0210016659389371,0.00351124972073229));
#997=CARTESIAN_POINT('',(-0.00535477388913561,0.0200494719424902,0.00478000440839491));
#998=CARTESIAN_POINT('',(-0.00352944494968195,0.0190971755773857,0.00604500838979757));
#999=CARTESIAN_POINT('',(-0.0139761016963668,0.0241201313760682,0.001));
#1000=CARTESIAN_POINT('',(-0.0121160673727646,0.0233485406296341,0.001));
#1001=CARTESIAN_POINT('',(-0.0103337835906274,0.022500601420039,0.00161374494765376));
#1002=CARTESIAN_POINT('',(-0.00685409496464076,0.0207213746875008,0.00351124972073229));
#1003=CARTESIAN_POINT('',(-0.00515478923738656,0.0197919537692638,0.00478000440839491));
#1004=CARTESIAN_POINT('',(-0.00345500836252633,0.0188629994302791,0.00604500838979757));
#1005=CARTESIAN_POINT('',(-0.0137444404905569,0.0237154529192926,0.001));
#1006=CARTESIAN_POINT('',(-0.011876317700245,0.0230262260905051,0.001));
#1007=CARTESIAN_POINT('',(-0.0101149836502679,0.022236537608328,0.00161374494765375));
#1008=CARTESIAN_POINT('',(-0.00670889499439093,0.0205474883726601,0.00351124972073229));
#1009=CARTESIAN_POINT('',(-0.00506152956494578,0.0196505837549871,0.00478000440839491));
#1010=CARTESIAN_POINT('',(-0.003413511530215,0.0187542930766283,0.00604500838979757));
#1011=CARTESIAN_POINT('',(-0.0130100732846861,0.0224387317599039,0.001));
#1012=CARTESIAN_POINT('',(-0.0111797742417634,0.021948776535394,0.001));
#1013=CARTESIAN_POINT('',(-0.00950181318553551,0.0213311906677977,0.00161374494765375));
#1014=CARTESIAN_POINT('',(-0.00631219585151466,0.0199566867392333,0.00351124972073229));
#1015=CARTESIAN_POINT('',(-0.00479681513984165,0.0192028890548801,0.00478000440839491));
#1016=CARTESIAN_POINT('',(-0.00328050346320915,0.0184498713444458,0.00604500838979757));
#1017=CARTESIAN_POINT('',(-0.0124679836961839,0.0215040032682288,0.001));
#1018=CARTESIAN_POINT('',(-0.0107456860148786,0.0210831355816876,0.001));
#1019=CARTESIAN_POINT('',(-0.00915071579380551,0.0205767451838863,0.00161374494765375));
#1020=CARTESIAN_POINT('',(-0.00609977656548672,0.019470600704964,0.00351124972073229));
#1021=CARTESIAN_POINT('',(-0.00464069459398938,0.0188729375250704,0.00478000440839491));
#1022=CARTESIAN_POINT('',(-0.00318083450137842,0.0182757969899166,0.00604500838979757));
#1023=CARTESIAN_POINT('',(-0.011319344788652,0.0195256438521599,0.001));
#1024=CARTESIAN_POINT('',(-0.00986998244058314,0.0192644200530019,0.001));
#1025=CARTESIAN_POINT('',(-0.00846295820888542,0.0190041493178591,0.00161374494765375));
#1026=CARTESIAN_POINT('',(-0.00569512954407881,0.0184846482912824,0.00351124972073229));
#1027=CARTESIAN_POINT('',(-0.00433329000791749,0.0182253946988716,0.00478000440839491));
#1028=CARTESIAN_POINT('',(-0.00297119173587782,0.0179661352821143,0.00604500838979757));
#1029=CARTESIAN_POINT('',(-0.0107128932854637,0.0184816276512931,0.001));
#1030=CARTESIAN_POINT('',(-0.00942571613508611,0.0183217870564652,0.001));
#1031=CARTESIAN_POINT('',(-0.00812288272101527,0.018199376032043,0.00161374494765375));
#1032=CARTESIAN_POINT('',(-0.00550012421717854,0.0179954152059856,0.00351124972073229));
#1033=CARTESIAN_POINT('',(-0.00418058189943294,0.0179129503078392,0.0047800044083949));
#1034=CARTESIAN_POINT('',(-0.00286113525994337,0.0178302566708257,0.00604500838979757));
#1035=CARTESIAN_POINT('',(-0.00885691284217046,0.0152766914828553,0.001));
#1036=CARTESIAN_POINT('',(-0.00800068250793677,0.0155902310628367,0.001));
#1037=CARTESIAN_POINT('',(-0.00699807870657387,0.0159400671424943,0.00161374494765376));
#1038=CARTESIAN_POINT('',(-0.00483307768956025,0.0166793635706316,0.0035112497207323));
#1039=CARTESIAN_POINT('',(-0.00367425908428732,0.0170679365244696,0.00478000440839491));
#1040=CARTESIAN_POINT('',(-0.00251633499371721,0.0174562876638404,0.00604500838979757));
#1041=CARTESIAN_POINT('',(-0.00757048520134541,0.0130453371579554,0.001));
#1042=CARTESIAN_POINT('',(-0.00693507287599007,0.0138311653797271,0.001));
#1043=CARTESIAN_POINT('',(-0.00611849932912589,0.0145548825706986,0.00161374494765375));
#1044=CARTESIAN_POINT('',(-0.00428758162376138,0.0159345114010536,0.00351124972073229));
#1045=CARTESIAN_POINT('',(-0.00327766658373492,0.016591941561408,0.0047800044083949));
#1046=CARTESIAN_POINT('',(-0.00226885865266336,0.0172497512934931,0.00604500838979757));
#1047=CARTESIAN_POINT('',(-0.0052055404922319,0.00892306301374164,0.001));
#1048=CARTESIAN_POINT('',(-0.00452620597161922,0.0103654154161505,0.001));
#1049=CARTESIAN_POINT('',(-0.00391167560259578,0.0117230054966936,0.00161374494765376));
#1050=CARTESIAN_POINT('',(-0.00275336045010865,0.0143456520785762,0.0035112497207323));
#1051=CARTESIAN_POINT('',(-0.00220799130293513,0.0156127808907698,0.00478000440839491));
#1052=CARTESIAN_POINT('',(-0.00166222612588313,0.0168804277008262,0.00604500838979757));
#1053=CARTESIAN_POINT('',(-0.00412414327694718,0.00703101702831076,0.001));
#1054=CARTESIAN_POINT('',(-0.00326100506359613,0.00868925195038487,0.001));
#1055=CARTESIAN_POINT('',(-0.00268416028647743,0.010315000766153,0.00161374494765376));
#1056=CARTESIAN_POINT('',(-0.00184301238723391,0.013531033870235,0.0035112497207323));
#1057=CARTESIAN_POINT('',(-0.00157170982264121,0.0151221123948231,0.00478000440839492));
#1058=CARTESIAN_POINT('',(-0.00129865766713527,0.016713389447876,0.00604500838979758));
#1059=CARTESIAN_POINT('',(-0.00326219474742192,0.00555944581773071,0.001));
#1060=CARTESIAN_POINT('',(-0.00285192706230151,0.00740161804981438,0.001));
#1061=CARTESIAN_POINT('',(-0.0024416593771811,0.00924379028189806,0.00161374494765376));
#1062=CARTESIAN_POINT('',(-0.00162112400694028,0.0129281347460654,0.00351124972073229));
#1063=CARTESIAN_POINT('',(-0.00121085632181986,0.0147703069781491,0.00478000440839491));
#1064=CARTESIAN_POINT('',(-0.000800588636699453,0.0166124792102327,0.00604500838979757));
#1065=CARTESIAN_POINT('',(-0.00128154443800131,0.00871600873426314,0.00195824664177442));
#1066=CARTESIAN_POINT('',(-0.00176398878237409,0.00750951295996302,0.00150288484665504));
#1067=CARTESIAN_POINT('',(-0.00126250043250234,0.00624593942588478,0.00124621399116588));
#1068=CARTESIAN_POINT('',(2.73509581562212E-5,0.00571691906219722,0.00118245184927592));
#1069=CARTESIAN_POINT('',(0.00130101575463726,0.0062875239802825,0.00126765353297663));
#1070=CARTESIAN_POINT('',(0.00176144277223973,0.00755575501546921,0.00156672329095385));
#1071=CARTESIAN_POINT('',(0.00124964607037473,0.00875113386607137,0.00200484972847248));
#1072=CARTESIAN_POINT('',(-2.72724690825203E-5,0.00928295551193607,0.00222753130407572));
#1073=CARTESIAN_POINT('',(-0.00128154443800131,0.00871600873426314,0.00195824664177442));
#1074=CARTESIAN_POINT('',(-0.00176398878237409,0.00750951295996302,0.00150288484665504));
#1075=CARTESIAN_POINT('',(-0.00126250043250234,0.00624593942588478,0.00124621399116588));
#1076=CARTESIAN_POINT('',(-0.00159999999999998,0.0075,0.00153600000326008));
#1077=CARTESIAN_POINT('',(-0.0122417184973573,0.0278456834451077,0.00118870142784738));
#1078=CARTESIAN_POINT('',(-0.0127869390769381,0.026556079120424,0.00121626511026836));
#1079=CARTESIAN_POINT('',(-0.0122393820245904,0.0252953348679283,0.00142981217830088));
#1080=CARTESIAN_POINT('',(-0.0110317777046043,0.0247990982594976,0.00184659756520165));
#1081=CARTESIAN_POINT('',(-0.00977298459765397,0.0252742442495342,0.00219900245616212));
#1082=CARTESIAN_POINT('',(-0.00923079043962945,0.0265690386608048,0.00210489971131836));
#1083=CARTESIAN_POINT('',(-0.00973278353124303,0.0277774832280643,0.00165953151252381));
#1084=CARTESIAN_POINT('',(-0.0109414101323901,0.0283344564211798,0.00131296833074067));
#1085=CARTESIAN_POINT('',(-0.0122417184973573,0.0278456834451077,0.00118870142784738));
#1086=CARTESIAN_POINT('',(-0.0127869390769381,0.026556079120424,0.00121626511026836));
#1087=CARTESIAN_POINT('',(-0.0122393820245904,0.0252953348679283,0.00142981217830088));
#1088=CARTESIAN_POINT('',(-0.0126048094716167,0.0265608891324553,0.00124726234120362));
#1089=CARTESIAN_POINT('',(0.00974331997215201,0.0277888984408113,0.0017060727107383));
#1090=CARTESIAN_POINT('',(0.00922855766166529,0.0265748640102704,0.00212281075960755));
#1091=CARTESIAN_POINT('',(0.00977130621088414,0.0252769803128372,0.00219008918346795));
#1092=CARTESIAN_POINT('',(0.0110226733821682,0.024799834253,0.00180511827033666));
#1093=CARTESIAN_POINT('',(0.0122341140588497,0.0252892530717386,0.00139276771604001));
#1094=CARTESIAN_POINT('',(0.0127869505913615,0.0265499964326973,0.00120885795800411));
#1095=CARTESIAN_POINT('',(0.0122468739856449,0.0278403852799152,0.00119218051148441));
#1096=CARTESIAN_POINT('',(0.0109501397720322,0.0283332744594721,0.00133801444483417));
#1097=CARTESIAN_POINT('',(0.00974331997215201,0.0277888984408113,0.0017060727107383));
#1098=CARTESIAN_POINT('',(0.00922855766166529,0.0265748640102704,0.00212281075960755));
#1099=CARTESIAN_POINT('',(0.00977130621088414,0.0252769803128372,0.00219008918346795));
#1100=CARTESIAN_POINT('',(0.0094048094716167,0.0265608891324544,0.00206456748877096));
#1101=CARTESIAN_POINT('',(0.,0.0202072594216369,0.0135));
#1102=CARTESIAN_POINT('',(0.00075,0.0256499280041883,0.0135));
#1103=CARTESIAN_POINT('',(0.00075,0.0274183619725649,0.0135));
#1104=CARTESIAN_POINT('',(-0.00075,0.0256499280041883,0.0135));
#1105=CARTESIAN_POINT('',(-0.00075,0.0274183619725649,0.0135));
#1106=CARTESIAN_POINT('',(-4.87890977618477E-19,0.0202072594216369,0.0135));
#1107=CARTESIAN_POINT('',(-0.00075,0.0129961568707089,0.0135));
#1108=CARTESIAN_POINT('',(-0.00075,0.0147645908390855,0.0135));
#1109=CARTESIAN_POINT('',(0.00075,0.0147645908390855,0.0135));
#1110=CARTESIAN_POINT('',(0.00075,0.0129961568707089,0.0135));
#1111=CARTESIAN_POINT('',(9.75781955236954E-19,0.0202072594216367,0.0135));
#1112=CARTESIAN_POINT('',(9.75781955236954E-19,0.0202072594216367,0.011));
#1113=CARTESIAN_POINT('',(0.00075,0.0129961568707089,0.011));
#1114=CARTESIAN_POINT('',(0.00075,0.0129961568707089,0.011));
#1115=CARTESIAN_POINT('',(9.75781955236954E-19,0.0202072594216367,0.011));
#1116=CARTESIAN_POINT('',(0.00075,0.0274183619725649,0.011));
#1117=CARTESIAN_POINT('',(0.00075,0.0274183619725649,0.011));
#1118=CARTESIAN_POINT('',(0.,0.0202072594216369,0.011));
#1119=CARTESIAN_POINT('',(0.00075,0.0147645908390855,0.011));
#1120=CARTESIAN_POINT('',(0.00075,0.0256499280041883,0.011));
#1121=CARTESIAN_POINT('',(0.00075,0.0147645908390855,0.011));
#1122=CARTESIAN_POINT('',(0.00075,0.0256499280041883,0.011));
#1123=CARTESIAN_POINT('',(0.,0.0202072594216369,0.011));
#1124=CARTESIAN_POINT('',(-0.00075,0.0256499280041883,0.011));
#1125=CARTESIAN_POINT('',(-0.00075,0.0274183619725649,0.011));
#1126=CARTESIAN_POINT('',(-0.00075,0.0147645908390855,0.011));
#1127=CARTESIAN_POINT('',(-0.00075,0.0129961568707089,0.011));
#1128=CARTESIAN_POINT('',(-4.87890977618477E-19,0.0202072594216369,0.011));
#1129=CARTESIAN_POINT('',(-0.00075,0.0256499280041883,0.011));
#1130=CARTESIAN_POINT('',(-0.00075,0.0274183619725649,0.011));
#1131=CARTESIAN_POINT('',(-4.87890977618477E-19,0.0202072594216369,0.011));
#1132=CARTESIAN_POINT('',(-0.00075,0.0129961568707089,0.011));
#1133=CARTESIAN_POINT('',(-0.00075,0.0147645908390855,0.011));
#1134=CARTESIAN_POINT('',(0.0110048094716167,0.0265608891324553,0.01));
#1135=CARTESIAN_POINT('',(-0.0110048094716167,0.0265608891324553,0.01));
#1136=CARTESIAN_POINT('',(0.,0.0075,0.01));
#1137=MECHANICAL_DESIGN_GEOMETRIC_PRESENTATION_REPRESENTATION('',(#378),
#1138);
#1138=(
GEOMETRIC_REPRESENTATION_CONTEXT(3)
GLOBAL_UNCERTAINTY_ASSIGNED_CONTEXT((#1139))
GLOBAL_UNIT_ASSIGNED_CONTEXT((#1142,#1141,#1140))
REPRESENTATION_CONTEXT('Crochet','TOP_LEVEL_ASSEMBLY_PART')
);
#1139=UNCERTAINTY_MEASURE_WITH_UNIT(LENGTH_MEASURE(2.E-5),#1142,
'DISTANCE_ACCURACY_VALUE','Maximum Tolerance applied to model');
#1140=(
NAMED_UNIT(*)
SI_UNIT($,.STERADIAN.)
SOLID_ANGLE_UNIT()
);
#1141=(
NAMED_UNIT(*)
PLANE_ANGLE_UNIT()
SI_UNIT($,.RADIAN.)
);
#1142=(
LENGTH_UNIT()
NAMED_UNIT(*)
SI_UNIT($,.METRE.)
);
#1143=PRODUCT_DEFINITION_SHAPE('','',#1144);
#1144=PRODUCT_DEFINITION('','',#1146,#1145);
#1145=PRODUCT_DEFINITION_CONTEXT('',#1152,'design');
#1146=PRODUCT_DEFINITION_FORMATION_WITH_SPECIFIED_SOURCE('','',#1148,
 .NOT_KNOWN.);
#1147=PRODUCT_RELATED_PRODUCT_CATEGORY('','',(#1148));
#1148=PRODUCT('Crochet','Crochet','Crochet',(#1150));
#1149=PRODUCT_CATEGORY('','');
#1150=PRODUCT_CONTEXT('',#1152,'mechanical');
#1151=APPLICATION_PROTOCOL_DEFINITION('international standard',
'ap242_managed_model_based_3d_engineering',2020,#1152);
#1152=APPLICATION_CONTEXT('managed model based 3d engineering');
ENDSEC;
END-ISO-10303-21;
