ISO-10303-21;
HEADER;
/* Generated by software containing ST-Developer
 * from STEP Tools, Inc. (www.steptools.com) 
 */
/* OPTION: using custom renumber hook */

FILE_DESCRIPTION(
/* description */ ('STEP AP242 Edition 2',
'CAx-IF Rec.Pracs.---Representation and Presentation of Product Manufa
cturing Information (PMI)---4.0---2014-10-13',
'CAx-IF Rec.Pracs.---3D Tessellated Geometry---0.4---2014-09-14','2;1',
'CAx-IF Rec.Pracs.---User Defined Attributes---1.5---2016-08-15'),
/* implementation_level */ '2;1');

FILE_NAME(
/* name */ 'Holder crayon - Holder Crayon',
/* time_stamp */ '2026-04-15T18:35:00Z',
/* author */ (''),
/* organization */ (''),
/* preprocessor_version */ 'ST-DEVELOPER v20',
/* originating_system */ 'ONSHAPE BY PTC INC, 1.213',
/* authorisation */ '  ');

FILE_SCHEMA (('AP242_MANAGED_MODEL_BASED_3D_ENGINEERING_MIM_LF { 1 0 10303 442 3 1 4 }'));
ENDSEC;

DATA;
#10=SHAPE_REPRESENTATION_RELATIONSHIP('','',#495,#11);
#11=ADVANCED_BREP_SHAPE_REPRESENTATION('',(#493),#779);
#12=CIRCLE('',#499,0.0015);
#13=CIRCLE('',#500,0.0015);
#14=CYLINDRICAL_SURFACE('',#498,0.0015);
#15=ORIENTED_EDGE('',*,*,#139,.T.);
#16=ORIENTED_EDGE('',*,*,#140,.T.);
#17=ORIENTED_EDGE('',*,*,#141,.F.);
#18=ORIENTED_EDGE('',*,*,#142,.F.);
#19=ORIENTED_EDGE('',*,*,#143,.F.);
#20=ORIENTED_EDGE('',*,*,#144,.T.);
#21=ORIENTED_EDGE('',*,*,#145,.T.);
#22=ORIENTED_EDGE('',*,*,#146,.F.);
#23=ORIENTED_EDGE('',*,*,#147,.T.);
#24=ORIENTED_EDGE('',*,*,#148,.F.);
#25=ORIENTED_EDGE('',*,*,#149,.F.);
#26=ORIENTED_EDGE('',*,*,#150,.F.);
#27=ORIENTED_EDGE('',*,*,#151,.T.);
#28=ORIENTED_EDGE('',*,*,#152,.T.);
#29=ORIENTED_EDGE('',*,*,#153,.F.);
#30=ORIENTED_EDGE('',*,*,#154,.T.);
#31=ORIENTED_EDGE('',*,*,#155,.T.);
#32=ORIENTED_EDGE('',*,*,#156,.F.);
#33=ORIENTED_EDGE('',*,*,#149,.T.);
#34=ORIENTED_EDGE('',*,*,#157,.T.);
#35=ORIENTED_EDGE('',*,*,#158,.F.);
#36=ORIENTED_EDGE('',*,*,#159,.F.);
#37=ORIENTED_EDGE('',*,*,#139,.F.);
#38=ORIENTED_EDGE('',*,*,#160,.T.);
#39=ORIENTED_EDGE('',*,*,#161,.T.);
#40=ORIENTED_EDGE('',*,*,#162,.F.);
#41=ORIENTED_EDGE('',*,*,#159,.T.);
#42=ORIENTED_EDGE('',*,*,#163,.F.);
#43=ORIENTED_EDGE('',*,*,#164,.F.);
#44=ORIENTED_EDGE('',*,*,#150,.T.);
#45=ORIENTED_EDGE('',*,*,#165,.F.);
#46=ORIENTED_EDGE('',*,*,#166,.T.);
#47=ORIENTED_EDGE('',*,*,#167,.T.);
#48=ORIENTED_EDGE('',*,*,#168,.F.);
#49=ORIENTED_EDGE('',*,*,#158,.T.);
#50=ORIENTED_EDGE('',*,*,#169,.F.);
#51=ORIENTED_EDGE('',*,*,#170,.F.);
#52=ORIENTED_EDGE('',*,*,#163,.T.);
#53=ORIENTED_EDGE('',*,*,#147,.F.);
#54=ORIENTED_EDGE('',*,*,#157,.F.);
#55=ORIENTED_EDGE('',*,*,#152,.F.);
#56=ORIENTED_EDGE('',*,*,#171,.T.);
#57=ORIENTED_EDGE('',*,*,#169,.T.);
#58=ORIENTED_EDGE('',*,*,#151,.F.);
#59=ORIENTED_EDGE('',*,*,#164,.T.);
#60=ORIENTED_EDGE('',*,*,#170,.T.);
#61=ORIENTED_EDGE('',*,*,#171,.F.);
#62=ORIENTED_EDGE('',*,*,#142,.T.);
#63=ORIENTED_EDGE('',*,*,#172,.T.);
#64=ORIENTED_EDGE('',*,*,#173,.F.);
#65=ORIENTED_EDGE('',*,*,#160,.F.);
#66=ORIENTED_EDGE('',*,*,#173,.T.);
#67=ORIENTED_EDGE('',*,*,#174,.T.);
#68=ORIENTED_EDGE('',*,*,#175,.F.);
#69=ORIENTED_EDGE('',*,*,#161,.F.);
#70=ORIENTED_EDGE('',*,*,#162,.T.);
#71=ORIENTED_EDGE('',*,*,#175,.T.);
#72=ORIENTED_EDGE('',*,*,#176,.F.);
#73=ORIENTED_EDGE('',*,*,#140,.F.);
#74=ORIENTED_EDGE('',*,*,#141,.T.);
#75=ORIENTED_EDGE('',*,*,#176,.T.);
#76=ORIENTED_EDGE('',*,*,#174,.F.);
#77=ORIENTED_EDGE('',*,*,#172,.F.);
#78=ORIENTED_EDGE('',*,*,#154,.F.);
#79=ORIENTED_EDGE('',*,*,#177,.F.);
#80=ORIENTED_EDGE('',*,*,#178,.T.);
#81=ORIENTED_EDGE('',*,*,#179,.T.);
#82=ORIENTED_EDGE('',*,*,#153,.T.);
#83=ORIENTED_EDGE('',*,*,#180,.F.);
#84=ORIENTED_EDGE('',*,*,#181,.F.);
#85=ORIENTED_EDGE('',*,*,#177,.T.);
#86=ORIENTED_EDGE('',*,*,#156,.T.);
#87=ORIENTED_EDGE('',*,*,#182,.F.);
#88=ORIENTED_EDGE('',*,*,#183,.F.);
#89=ORIENTED_EDGE('',*,*,#180,.T.);
#90=ORIENTED_EDGE('',*,*,#155,.F.);
#91=ORIENTED_EDGE('',*,*,#179,.F.);
#92=ORIENTED_EDGE('',*,*,#184,.T.);
#93=ORIENTED_EDGE('',*,*,#182,.T.);
#94=ORIENTED_EDGE('',*,*,#178,.F.);
#95=ORIENTED_EDGE('',*,*,#181,.T.);
#96=ORIENTED_EDGE('',*,*,#183,.T.);
#97=ORIENTED_EDGE('',*,*,#184,.F.);
#98=ORIENTED_EDGE('',*,*,#166,.F.);
#99=ORIENTED_EDGE('',*,*,#185,.F.);
#100=ORIENTED_EDGE('',*,*,#186,.T.);
#101=ORIENTED_EDGE('',*,*,#187,.T.);
#102=ORIENTED_EDGE('',*,*,#165,.T.);
#103=ORIENTED_EDGE('',*,*,#188,.F.);
#104=ORIENTED_EDGE('',*,*,#189,.F.);
#105=ORIENTED_EDGE('',*,*,#185,.T.);
#106=ORIENTED_EDGE('',*,*,#168,.T.);
#107=ORIENTED_EDGE('',*,*,#190,.F.);
#108=ORIENTED_EDGE('',*,*,#191,.F.);
#109=ORIENTED_EDGE('',*,*,#188,.T.);
#110=ORIENTED_EDGE('',*,*,#167,.F.);
#111=ORIENTED_EDGE('',*,*,#187,.F.);
#112=ORIENTED_EDGE('',*,*,#192,.T.);
#113=ORIENTED_EDGE('',*,*,#190,.T.);
#114=ORIENTED_EDGE('',*,*,#186,.F.);
#115=ORIENTED_EDGE('',*,*,#189,.T.);
#116=ORIENTED_EDGE('',*,*,#191,.T.);
#117=ORIENTED_EDGE('',*,*,#192,.F.);
#118=ORIENTED_EDGE('',*,*,#193,.F.);
#119=ORIENTED_EDGE('',*,*,#194,.T.);
#120=ORIENTED_EDGE('',*,*,#195,.T.);
#121=ORIENTED_EDGE('',*,*,#196,.F.);
#122=ORIENTED_EDGE('',*,*,#148,.T.);
#123=ORIENTED_EDGE('',*,*,#144,.F.);
#124=ORIENTED_EDGE('',*,*,#197,.F.);
#125=ORIENTED_EDGE('',*,*,#193,.T.);
#126=ORIENTED_EDGE('',*,*,#198,.T.);
#127=ORIENTED_EDGE('',*,*,#143,.T.);
#128=ORIENTED_EDGE('',*,*,#199,.F.);
#129=ORIENTED_EDGE('',*,*,#194,.F.);
#130=ORIENTED_EDGE('',*,*,#197,.T.);
#131=ORIENTED_EDGE('',*,*,#146,.T.);
#132=ORIENTED_EDGE('',*,*,#200,.F.);
#133=ORIENTED_EDGE('',*,*,#195,.F.);
#134=ORIENTED_EDGE('',*,*,#199,.T.);
#135=ORIENTED_EDGE('',*,*,#145,.F.);
#136=ORIENTED_EDGE('',*,*,#198,.F.);
#137=ORIENTED_EDGE('',*,*,#196,.T.);
#138=ORIENTED_EDGE('',*,*,#200,.T.);
#139=EDGE_CURVE('',#201,#202,#243,.T.);
#140=EDGE_CURVE('',#202,#203,#244,.T.);
#141=EDGE_CURVE('',#204,#203,#245,.T.);
#142=EDGE_CURVE('',#201,#204,#246,.T.);
#143=EDGE_CURVE('',#205,#206,#247,.T.);
#144=EDGE_CURVE('',#205,#207,#248,.T.);
#145=EDGE_CURVE('',#207,#208,#249,.T.);
#146=EDGE_CURVE('',#206,#208,#250,.T.);
#147=EDGE_CURVE('',#209,#209,#12,.T.);
#148=EDGE_CURVE('',#210,#210,#13,.F.);
#149=EDGE_CURVE('',#211,#212,#251,.T.);
#150=EDGE_CURVE('',#213,#211,#252,.T.);
#151=EDGE_CURVE('',#213,#214,#253,.T.);
#152=EDGE_CURVE('',#214,#212,#254,.T.);
#153=EDGE_CURVE('',#215,#216,#255,.T.);
#154=EDGE_CURVE('',#215,#217,#256,.T.);
#155=EDGE_CURVE('',#217,#218,#257,.T.);
#156=EDGE_CURVE('',#216,#218,#258,.T.);
#157=EDGE_CURVE('',#212,#219,#259,.T.);
#158=EDGE_CURVE('',#220,#219,#260,.T.);
#159=EDGE_CURVE('',#211,#220,#261,.T.);
#160=EDGE_CURVE('',#201,#221,#262,.T.);
#161=EDGE_CURVE('',#221,#222,#263,.T.);
#162=EDGE_CURVE('',#202,#222,#264,.T.);
#163=EDGE_CURVE('',#223,#220,#265,.T.);
#164=EDGE_CURVE('',#213,#223,#266,.T.);
#165=EDGE_CURVE('',#224,#225,#267,.T.);
#166=EDGE_CURVE('',#224,#226,#268,.T.);
#167=EDGE_CURVE('',#226,#227,#269,.T.);
#168=EDGE_CURVE('',#225,#227,#270,.T.);
#169=EDGE_CURVE('',#228,#219,#271,.T.);
#170=EDGE_CURVE('',#223,#228,#272,.T.);
#171=EDGE_CURVE('',#214,#228,#273,.T.);
#172=EDGE_CURVE('',#204,#229,#274,.T.);
#173=EDGE_CURVE('',#221,#229,#275,.T.);
#174=EDGE_CURVE('',#229,#230,#276,.T.);
#175=EDGE_CURVE('',#222,#230,#277,.T.);
#176=EDGE_CURVE('',#203,#230,#278,.T.);
#177=EDGE_CURVE('',#231,#215,#279,.T.);
#178=EDGE_CURVE('',#231,#232,#280,.T.);
#179=EDGE_CURVE('',#232,#217,#281,.T.);
#180=EDGE_CURVE('',#233,#216,#282,.T.);
#181=EDGE_CURVE('',#231,#233,#283,.T.);
#182=EDGE_CURVE('',#234,#218,#284,.T.);
#183=EDGE_CURVE('',#233,#234,#285,.T.);
#184=EDGE_CURVE('',#232,#234,#286,.T.);
#185=EDGE_CURVE('',#235,#224,#287,.T.);
#186=EDGE_CURVE('',#235,#236,#288,.T.);
#187=EDGE_CURVE('',#236,#226,#289,.T.);
#188=EDGE_CURVE('',#237,#225,#290,.T.);
#189=EDGE_CURVE('',#235,#237,#291,.T.);
#190=EDGE_CURVE('',#238,#227,#292,.T.);
#191=EDGE_CURVE('',#237,#238,#293,.T.);
#192=EDGE_CURVE('',#236,#238,#294,.T.);
#193=EDGE_CURVE('',#239,#240,#295,.T.);
#194=EDGE_CURVE('',#239,#241,#296,.T.);
#195=EDGE_CURVE('',#241,#242,#297,.T.);
#196=EDGE_CURVE('',#240,#242,#298,.T.);
#197=EDGE_CURVE('',#239,#205,#299,.T.);
#198=EDGE_CURVE('',#240,#207,#300,.T.);
#199=EDGE_CURVE('',#241,#206,#301,.T.);
#200=EDGE_CURVE('',#242,#208,#302,.T.);
#201=VERTEX_POINT('',#649);
#202=VERTEX_POINT('',#650);
#203=VERTEX_POINT('',#652);
#204=VERTEX_POINT('',#654);
#205=VERTEX_POINT('',#657);
#206=VERTEX_POINT('',#658);
#207=VERTEX_POINT('',#660);
#208=VERTEX_POINT('',#662);
#209=VERTEX_POINT('',#666);
#210=VERTEX_POINT('',#668);
#211=VERTEX_POINT('',#671);
#212=VERTEX_POINT('',#672);
#213=VERTEX_POINT('',#674);
#214=VERTEX_POINT('',#676);
#215=VERTEX_POINT('',#679);
#216=VERTEX_POINT('',#680);
#217=VERTEX_POINT('',#682);
#218=VERTEX_POINT('',#684);
#219=VERTEX_POINT('',#688);
#220=VERTEX_POINT('',#690);
#221=VERTEX_POINT('',#693);
#222=VERTEX_POINT('',#695);
#223=VERTEX_POINT('',#699);
#224=VERTEX_POINT('',#703);
#225=VERTEX_POINT('',#704);
#226=VERTEX_POINT('',#706);
#227=VERTEX_POINT('',#708);
#228=VERTEX_POINT('',#711);
#229=VERTEX_POINT('',#718);
#230=VERTEX_POINT('',#722);
#231=VERTEX_POINT('',#729);
#232=VERTEX_POINT('',#731);
#233=VERTEX_POINT('',#735);
#234=VERTEX_POINT('',#739);
#235=VERTEX_POINT('',#746);
#236=VERTEX_POINT('',#748);
#237=VERTEX_POINT('',#752);
#238=VERTEX_POINT('',#756);
#239=VERTEX_POINT('',#763);
#240=VERTEX_POINT('',#764);
#241=VERTEX_POINT('',#766);
#242=VERTEX_POINT('',#768);
#243=LINE('',#648,#303);
#244=LINE('',#651,#304);
#245=LINE('',#653,#305);
#246=LINE('',#655,#306);
#247=LINE('',#656,#307);
#248=LINE('',#659,#308);
#249=LINE('',#661,#309);
#250=LINE('',#663,#310);
#251=LINE('',#670,#311);
#252=LINE('',#673,#312);
#253=LINE('',#675,#313);
#254=LINE('',#677,#314);
#255=LINE('',#678,#315);
#256=LINE('',#681,#316);
#257=LINE('',#683,#317);
#258=LINE('',#685,#318);
#259=LINE('',#687,#319);
#260=LINE('',#689,#320);
#261=LINE('',#691,#321);
#262=LINE('',#692,#322);
#263=LINE('',#694,#323);
#264=LINE('',#696,#324);
#265=LINE('',#698,#325);
#266=LINE('',#700,#326);
#267=LINE('',#702,#327);
#268=LINE('',#705,#328);
#269=LINE('',#707,#329);
#270=LINE('',#709,#330);
#271=LINE('',#710,#331);
#272=LINE('',#712,#332);
#273=LINE('',#714,#333);
#274=LINE('',#717,#334);
#275=LINE('',#719,#335);
#276=LINE('',#721,#336);
#277=LINE('',#723,#337);
#278=LINE('',#725,#338);
#279=LINE('',#728,#339);
#280=LINE('',#730,#340);
#281=LINE('',#732,#341);
#282=LINE('',#734,#342);
#283=LINE('',#736,#343);
#284=LINE('',#738,#344);
#285=LINE('',#740,#345);
#286=LINE('',#742,#346);
#287=LINE('',#745,#347);
#288=LINE('',#747,#348);
#289=LINE('',#749,#349);
#290=LINE('',#751,#350);
#291=LINE('',#753,#351);
#292=LINE('',#755,#352);
#293=LINE('',#757,#353);
#294=LINE('',#759,#354);
#295=LINE('',#762,#355);
#296=LINE('',#765,#356);
#297=LINE('',#767,#357);
#298=LINE('',#769,#358);
#299=LINE('',#771,#359);
#300=LINE('',#772,#360);
#301=LINE('',#774,#361);
#302=LINE('',#776,#362);
#303=VECTOR('',#530,1.);
#304=VECTOR('',#531,1.);
#305=VECTOR('',#532,1.);
#306=VECTOR('',#533,1.);
#307=VECTOR('',#534,1.);
#308=VECTOR('',#535,1.);
#309=VECTOR('',#536,1.);
#310=VECTOR('',#537,1.);
#311=VECTOR('',#546,1.);
#312=VECTOR('',#547,1.);
#313=VECTOR('',#548,1.);
#314=VECTOR('',#549,1.);
#315=VECTOR('',#550,1.);
#316=VECTOR('',#551,1.);
#317=VECTOR('',#552,1.);
#318=VECTOR('',#553,1.);
#319=VECTOR('',#556,1.);
#320=VECTOR('',#557,1.);
#321=VECTOR('',#558,1.);
#322=VECTOR('',#559,1.);
#323=VECTOR('',#560,1.);
#324=VECTOR('',#561,1.);
#325=VECTOR('',#564,1.);
#326=VECTOR('',#565,1.);
#327=VECTOR('',#568,1.);
#328=VECTOR('',#569,1.);
#329=VECTOR('',#570,1.);
#330=VECTOR('',#571,1.);
#331=VECTOR('',#572,1.);
#332=VECTOR('',#573,1.);
#333=VECTOR('',#576,1.);
#334=VECTOR('',#581,1.);
#335=VECTOR('',#582,1.);
#336=VECTOR('',#585,1.);
#337=VECTOR('',#586,1.);
#338=VECTOR('',#589,1.);
#339=VECTOR('',#594,1.);
#340=VECTOR('',#595,1.);
#341=VECTOR('',#596,1.);
#342=VECTOR('',#599,1.);
#343=VECTOR('',#600,1.);
#344=VECTOR('',#603,1.);
#345=VECTOR('',#604,1.);
#346=VECTOR('',#607,1.);
#347=VECTOR('',#612,1.);
#348=VECTOR('',#613,1.);
#349=VECTOR('',#614,1.);
#350=VECTOR('',#617,1.);
#351=VECTOR('',#618,1.);
#352=VECTOR('',#621,1.);
#353=VECTOR('',#622,1.);
#354=VECTOR('',#625,1.);
#355=VECTOR('',#630,1.);
#356=VECTOR('',#631,1.);
#357=VECTOR('',#632,1.);
#358=VECTOR('',#633,1.);
#359=VECTOR('',#636,1.);
#360=VECTOR('',#637,1.);
#361=VECTOR('',#640,1.);
#362=VECTOR('',#643,1.);
#363=EDGE_LOOP('',(#15,#16,#17,#18));
#364=EDGE_LOOP('',(#19,#20,#21,#22));
#365=EDGE_LOOP('',(#23));
#366=EDGE_LOOP('',(#24));
#367=EDGE_LOOP('',(#25,#26,#27,#28));
#368=EDGE_LOOP('',(#29,#30,#31,#32));
#369=EDGE_LOOP('',(#33,#34,#35,#36));
#370=EDGE_LOOP('',(#37,#38,#39,#40));
#371=EDGE_LOOP('',(#41,#42,#43,#44));
#372=EDGE_LOOP('',(#45,#46,#47,#48));
#373=EDGE_LOOP('',(#49,#50,#51,#52));
#374=EDGE_LOOP('',(#53));
#375=EDGE_LOOP('',(#54,#55,#56,#57));
#376=EDGE_LOOP('',(#58,#59,#60,#61));
#377=EDGE_LOOP('',(#62,#63,#64,#65));
#378=EDGE_LOOP('',(#66,#67,#68,#69));
#379=EDGE_LOOP('',(#70,#71,#72,#73));
#380=EDGE_LOOP('',(#74,#75,#76,#77));
#381=EDGE_LOOP('',(#78,#79,#80,#81));
#382=EDGE_LOOP('',(#82,#83,#84,#85));
#383=EDGE_LOOP('',(#86,#87,#88,#89));
#384=EDGE_LOOP('',(#90,#91,#92,#93));
#385=EDGE_LOOP('',(#94,#95,#96,#97));
#386=EDGE_LOOP('',(#98,#99,#100,#101));
#387=EDGE_LOOP('',(#102,#103,#104,#105));
#388=EDGE_LOOP('',(#106,#107,#108,#109));
#389=EDGE_LOOP('',(#110,#111,#112,#113));
#390=EDGE_LOOP('',(#114,#115,#116,#117));
#391=EDGE_LOOP('',(#118,#119,#120,#121));
#392=EDGE_LOOP('',(#122));
#393=EDGE_LOOP('',(#123,#124,#125,#126));
#394=EDGE_LOOP('',(#127,#128,#129,#130));
#395=EDGE_LOOP('',(#131,#132,#133,#134));
#396=EDGE_LOOP('',(#135,#136,#137,#138));
#397=FACE_BOUND('',#363,.T.);
#398=FACE_BOUND('',#364,.T.);
#399=FACE_BOUND('',#365,.T.);
#400=FACE_BOUND('',#366,.T.);
#401=FACE_BOUND('',#367,.T.);
#402=FACE_BOUND('',#368,.T.);
#403=FACE_BOUND('',#369,.T.);
#404=FACE_BOUND('',#370,.T.);
#405=FACE_BOUND('',#371,.T.);
#406=FACE_BOUND('',#372,.T.);
#407=FACE_BOUND('',#373,.T.);
#408=FACE_BOUND('',#374,.T.);
#409=FACE_BOUND('',#375,.T.);
#410=FACE_BOUND('',#376,.T.);
#411=FACE_BOUND('',#377,.T.);
#412=FACE_BOUND('',#378,.T.);
#413=FACE_BOUND('',#379,.T.);
#414=FACE_BOUND('',#380,.T.);
#415=FACE_BOUND('',#381,.T.);
#416=FACE_BOUND('',#382,.T.);
#417=FACE_BOUND('',#383,.T.);
#418=FACE_BOUND('',#384,.T.);
#419=FACE_BOUND('',#385,.T.);
#420=FACE_BOUND('',#386,.T.);
#421=FACE_BOUND('',#387,.T.);
#422=FACE_BOUND('',#388,.T.);
#423=FACE_BOUND('',#389,.T.);
#424=FACE_BOUND('',#390,.T.);
#425=FACE_BOUND('',#391,.T.);
#426=FACE_BOUND('',#392,.T.);
#427=FACE_BOUND('',#393,.T.);
#428=FACE_BOUND('',#394,.T.);
#429=FACE_BOUND('',#395,.T.);
#430=FACE_BOUND('',#396,.T.);
#431=PLANE('',#497);
#432=PLANE('',#501);
#433=PLANE('',#502);
#434=PLANE('',#503);
#435=PLANE('',#504);
#436=PLANE('',#505);
#437=PLANE('',#506);
#438=PLANE('',#507);
#439=PLANE('',#508);
#440=PLANE('',#509);
#441=PLANE('',#510);
#442=PLANE('',#511);
#443=PLANE('',#512);
#444=PLANE('',#513);
#445=PLANE('',#514);
#446=PLANE('',#515);
#447=PLANE('',#516);
#448=PLANE('',#517);
#449=PLANE('',#518);
#450=PLANE('',#519);
#451=PLANE('',#520);
#452=PLANE('',#521);
#453=PLANE('',#522);
#454=PLANE('',#523);
#455=PLANE('',#524);
#456=PLANE('',#525);
#457=ADVANCED_FACE('',(#397,#398),#431,.T.);
#458=ADVANCED_FACE('',(#399,#400),#14,.F.);
#459=ADVANCED_FACE('',(#401,#402),#432,.T.);
#460=ADVANCED_FACE('',(#403,#404),#433,.F.);
#461=ADVANCED_FACE('',(#405),#434,.F.);
#462=ADVANCED_FACE('',(#406,#407),#435,.F.);
#463=ADVANCED_FACE('',(#408,#409),#436,.T.);
#464=ADVANCED_FACE('',(#410),#437,.T.);
#465=ADVANCED_FACE('',(#411),#438,.F.);
#466=ADVANCED_FACE('',(#412),#439,.F.);
#467=ADVANCED_FACE('',(#413),#440,.T.);
#468=ADVANCED_FACE('',(#414),#441,.F.);
#469=ADVANCED_FACE('',(#415),#442,.T.);
#470=ADVANCED_FACE('',(#416),#443,.F.);
#471=ADVANCED_FACE('',(#417),#444,.F.);
#472=ADVANCED_FACE('',(#418),#445,.T.);
#473=ADVANCED_FACE('',(#419),#446,.T.);
#474=ADVANCED_FACE('',(#420),#447,.T.);
#475=ADVANCED_FACE('',(#421),#448,.F.);
#476=ADVANCED_FACE('',(#422),#449,.F.);
#477=ADVANCED_FACE('',(#423),#450,.T.);
#478=ADVANCED_FACE('',(#424),#451,.T.);
#479=ADVANCED_FACE('',(#425,#426),#452,.T.);
#480=ADVANCED_FACE('',(#427),#453,.T.);
#481=ADVANCED_FACE('',(#428),#454,.F.);
#482=ADVANCED_FACE('',(#429),#455,.F.);
#483=ADVANCED_FACE('',(#430),#456,.T.);
#484=CLOSED_SHELL('',(#457,#458,#459,#460,#461,#462,#463,#464,#465,#466,
#467,#468,#469,#470,#471,#472,#473,#474,#475,#476,#477,#478,#479,#480,#481,
#482,#483));
#485=STYLED_ITEM('',(#486),#493);
#486=PRESENTATION_STYLE_ASSIGNMENT((#487));
#487=SURFACE_STYLE_USAGE(.BOTH.,#488);
#488=SURFACE_SIDE_STYLE('',(#489));
#489=SURFACE_STYLE_FILL_AREA(#490);
#490=FILL_AREA_STYLE('',(#491));
#491=FILL_AREA_STYLE_COLOUR('',#492);
#492=COLOUR_RGB('',0.498039215686275,0.498039215686275,0.498039215686275);
#493=MANIFOLD_SOLID_BREP('Holder Crayon',#484);
#494=SHAPE_DEFINITION_REPRESENTATION(#784,#495);
#495=SHAPE_REPRESENTATION('Holder Crayon',(#496),#779);
#496=AXIS2_PLACEMENT_3D('',#646,#526,#527);
#497=AXIS2_PLACEMENT_3D('',#647,#528,#529);
#498=AXIS2_PLACEMENT_3D('',#664,#538,#539);
#499=AXIS2_PLACEMENT_3D('',#665,#540,#541);
#500=AXIS2_PLACEMENT_3D('',#667,#542,#543);
#501=AXIS2_PLACEMENT_3D('',#669,#544,#545);
#502=AXIS2_PLACEMENT_3D('',#686,#554,#555);
#503=AXIS2_PLACEMENT_3D('',#697,#562,#563);
#504=AXIS2_PLACEMENT_3D('',#701,#566,#567);
#505=AXIS2_PLACEMENT_3D('',#713,#574,#575);
#506=AXIS2_PLACEMENT_3D('',#715,#577,#578);
#507=AXIS2_PLACEMENT_3D('',#716,#579,#580);
#508=AXIS2_PLACEMENT_3D('',#720,#583,#584);
#509=AXIS2_PLACEMENT_3D('',#724,#587,#588);
#510=AXIS2_PLACEMENT_3D('',#726,#590,#591);
#511=AXIS2_PLACEMENT_3D('',#727,#592,#593);
#512=AXIS2_PLACEMENT_3D('',#733,#597,#598);
#513=AXIS2_PLACEMENT_3D('',#737,#601,#602);
#514=AXIS2_PLACEMENT_3D('',#741,#605,#606);
#515=AXIS2_PLACEMENT_3D('',#743,#608,#609);
#516=AXIS2_PLACEMENT_3D('',#744,#610,#611);
#517=AXIS2_PLACEMENT_3D('',#750,#615,#616);
#518=AXIS2_PLACEMENT_3D('',#754,#619,#620);
#519=AXIS2_PLACEMENT_3D('',#758,#623,#624);
#520=AXIS2_PLACEMENT_3D('',#760,#626,#627);
#521=AXIS2_PLACEMENT_3D('',#761,#628,#629);
#522=AXIS2_PLACEMENT_3D('',#770,#634,#635);
#523=AXIS2_PLACEMENT_3D('',#773,#638,#639);
#524=AXIS2_PLACEMENT_3D('',#775,#641,#642);
#525=AXIS2_PLACEMENT_3D('',#777,#644,#645);
#526=DIRECTION('',(0.,0.,1.));
#527=DIRECTION('',(1.,0.,0.));
#528=DIRECTION('',(-1.66800334228539E-16,1.,0.));
#529=DIRECTION('',(-1.,-1.66800334228539E-16,0.));
#530=DIRECTION('',(-1.,-1.66800334228539E-16,0.));
#531=DIRECTION('',(0.,0.,1.));
#532=DIRECTION('',(-1.,-1.66800334228539E-16,0.));
#533=DIRECTION('',(0.,0.,1.));
#534=DIRECTION('',(1.,1.66800334228539E-16,0.));
#535=DIRECTION('',(-6.99485272571293E-17,-1.16674377252832E-32,-1.));
#536=DIRECTION('',(1.,1.66800334228539E-16,0.));
#537=DIRECTION('',(-6.99485272571293E-17,-1.16674377252832E-32,-1.));
#538=DIRECTION('',(0.,-1.,0.));
#539=DIRECTION('',(0.,0.,-1.));
#540=DIRECTION('',(0.,-1.,0.));
#541=DIRECTION('',(0.,0.,-1.));
#542=DIRECTION('',(-1.66800334228539E-16,1.,0.));
#543=DIRECTION('',(-1.,-1.66800334228539E-16,0.));
#544=DIRECTION('',(1.,-3.46944695195362E-16,0.));
#545=DIRECTION('',(3.46944695195362E-16,1.,0.));
#546=DIRECTION('',(-3.46944695195362E-16,-1.,0.));
#547=DIRECTION('',(0.,0.,-1.));
#548=DIRECTION('',(-3.46944695195362E-16,-1.,0.));
#549=DIRECTION('',(0.,0.,-1.));
#550=DIRECTION('',(-3.46944695195362E-16,-1.,0.));
#551=DIRECTION('',(2.14947538436075E-32,6.19544098563146E-17,-1.));
#552=DIRECTION('',(-3.46944695195362E-16,-1.,0.));
#553=DIRECTION('',(2.14947538436075E-32,6.19544098563146E-17,-1.));
#554=DIRECTION('',(0.,0.,1.));
#555=DIRECTION('',(1.,0.,0.));
#556=DIRECTION('',(-1.,0.,0.));
#557=DIRECTION('',(-3.46944695195362E-16,-1.,0.));
#558=DIRECTION('',(-1.,0.,0.));
#559=DIRECTION('',(0.,1.,0.));
#560=DIRECTION('',(-1.,-1.66800334228539E-16,0.));
#561=DIRECTION('',(0.,1.,0.));
#562=DIRECTION('',(0.,-1.,0.));
#563=DIRECTION('',(0.,0.,-1.));
#564=DIRECTION('',(0.,0.,-1.));
#565=DIRECTION('',(-1.,0.,0.));
#566=DIRECTION('',(1.,-3.46944695195362E-16,0.));
#567=DIRECTION('',(3.46944695195362E-16,1.,0.));
#568=DIRECTION('',(3.46944695195362E-16,1.,0.));
#569=DIRECTION('',(-2.14947538436075E-32,-6.19544098563145E-17,-1.));
#570=DIRECTION('',(3.46944695195362E-16,1.,0.));
#571=DIRECTION('',(-2.14947538436075E-32,-6.19544098563145E-17,-1.));
#572=DIRECTION('',(0.,0.,-1.));
#573=DIRECTION('',(-3.46944695195362E-16,-1.,0.));
#574=DIRECTION('',(0.,-1.,0.));
#575=DIRECTION('',(0.,0.,-1.));
#576=DIRECTION('',(-1.,0.,0.));
#577=DIRECTION('',(0.,0.,1.));
#578=DIRECTION('',(1.,0.,0.));
#579=DIRECTION('',(1.,0.,0.));
#580=DIRECTION('',(0.,0.,-1.));
#581=DIRECTION('',(0.,1.,0.));
#582=DIRECTION('',(0.,0.,1.));
#583=DIRECTION('',(-1.66800334228539E-16,1.,0.));
#584=DIRECTION('',(-1.,-1.66800334228539E-16,0.));
#585=DIRECTION('',(-1.,-1.66800334228539E-16,0.));
#586=DIRECTION('',(0.,0.,1.));
#587=DIRECTION('',(1.,0.,0.));
#588=DIRECTION('',(0.,0.,-1.));
#589=DIRECTION('',(0.,1.,0.));
#590=DIRECTION('',(0.,0.,1.));
#591=DIRECTION('',(1.,0.,0.));
#592=DIRECTION('',(3.46944695195362E-16,1.,6.19544098563146E-17));
#593=DIRECTION('',(-1.,3.46944695195362E-16,0.));
#594=DIRECTION('',(-1.,3.46944695195362E-16,0.));
#595=DIRECTION('',(2.14947538436075E-32,6.19544098563146E-17,-1.));
#596=DIRECTION('',(-1.,3.46944695195362E-16,0.));
#597=DIRECTION('',(0.,0.,-1.));
#598=DIRECTION('',(-1.,0.,0.));
#599=DIRECTION('',(-1.,3.46944695195362E-16,0.));
#600=DIRECTION('',(-3.46944695195362E-16,-1.,0.));
#601=DIRECTION('',(3.46944695195362E-16,1.,6.19544098563146E-17));
#602=DIRECTION('',(-1.,3.46944695195362E-16,0.));
#603=DIRECTION('',(-1.,3.46944695195362E-16,0.));
#604=DIRECTION('',(2.14947538436075E-32,6.19544098563146E-17,-1.));
#605=DIRECTION('',(0.,0.,-1.));
#606=DIRECTION('',(-1.,0.,0.));
#607=DIRECTION('',(-3.46944695195362E-16,-1.,0.));
#608=DIRECTION('',(1.,-3.46944695195362E-16,0.));
#609=DIRECTION('',(3.46944695195362E-16,1.,0.));
#610=DIRECTION('',(-3.46944695195362E-16,-1.,6.19544098563145E-17));
#611=DIRECTION('',(1.,-3.46944695195362E-16,0.));
#612=DIRECTION('',(1.,-3.46944695195362E-16,0.));
#613=DIRECTION('',(-2.14947538436075E-32,-6.19544098563145E-17,-1.));
#614=DIRECTION('',(1.,-3.46944695195362E-16,0.));
#615=DIRECTION('',(0.,0.,-1.));
#616=DIRECTION('',(-1.,0.,0.));
#617=DIRECTION('',(1.,-3.46944695195362E-16,0.));
#618=DIRECTION('',(3.46944695195362E-16,1.,0.));
#619=DIRECTION('',(-3.46944695195362E-16,-1.,6.19544098563145E-17));
#620=DIRECTION('',(1.,-3.46944695195362E-16,0.));
#621=DIRECTION('',(1.,-3.46944695195362E-16,0.));
#622=DIRECTION('',(-2.14947538436075E-32,-6.19544098563145E-17,-1.));
#623=DIRECTION('',(0.,0.,-1.));
#624=DIRECTION('',(-1.,0.,0.));
#625=DIRECTION('',(3.46944695195362E-16,1.,0.));
#626=DIRECTION('',(-1.,3.46944695195362E-16,0.));
#627=DIRECTION('',(-3.46944695195362E-16,-1.,0.));
#628=DIRECTION('',(-1.66800334228539E-16,1.,0.));
#629=DIRECTION('',(-1.,-1.66800334228539E-16,0.));
#630=DIRECTION('',(-6.99485272571293E-17,-1.16674377252832E-32,-1.));
#631=DIRECTION('',(1.,1.66800334228539E-16,0.));
#632=DIRECTION('',(-6.99485272571293E-17,-1.16674377252832E-32,-1.));
#633=DIRECTION('',(1.,1.66800334228539E-16,0.));
#634=DIRECTION('',(1.,1.66800334228539E-16,-6.99485272571293E-17));
#635=DIRECTION('',(-1.66800334228539E-16,1.,0.));
#636=DIRECTION('',(-1.66800334228539E-16,1.,0.));
#637=DIRECTION('',(-1.66800334228539E-16,1.,0.));
#638=DIRECTION('',(0.,0.,1.));
#639=DIRECTION('',(1.,0.,0.));
#640=DIRECTION('',(-1.66800334228539E-16,1.,0.));
#641=DIRECTION('',(1.,1.66800334228539E-16,-6.99485272571293E-17));
#642=DIRECTION('',(-1.66800334228539E-16,1.,0.));
#643=DIRECTION('',(-1.66800334228539E-16,1.,0.));
#644=DIRECTION('',(0.,0.,1.));
#645=DIRECTION('',(1.,0.,0.));
#646=CARTESIAN_POINT('',(0.,0.,0.));
#647=CARTESIAN_POINT('',(0.,-0.0052,-0.01));
#648=CARTESIAN_POINT('',(8.67361737988404E-19,-0.0052,0.));
#649=CARTESIAN_POINT('',(0.0052,-0.0052,0.));
#650=CARTESIAN_POINT('',(-0.0052,-0.0052,0.));
#651=CARTESIAN_POINT('',(-0.0052,-0.0052,-0.01));
#652=CARTESIAN_POINT('',(-0.0052,-0.0052,0.015));
#653=CARTESIAN_POINT('',(0.,-0.0052,0.015));
#654=CARTESIAN_POINT('',(0.0052,-0.0052,0.015));
#655=CARTESIAN_POINT('',(0.0052,-0.0052,-0.01));
#656=CARTESIAN_POINT('',(-1.3010426069826E-18,-0.0052,0.0131));
#657=CARTESIAN_POINT('',(-0.00285,-0.0052,0.0131));
#658=CARTESIAN_POINT('',(0.00285,-0.0052,0.0131));
#659=CARTESIAN_POINT('',(-0.00285,-0.0052,0.01));
#660=CARTESIAN_POINT('',(-0.00285,-0.0052,0.0069));
#661=CARTESIAN_POINT('',(-1.3010426069826E-18,-0.0052,0.0069));
#662=CARTESIAN_POINT('',(0.00285,-0.0052,0.0069));
#663=CARTESIAN_POINT('',(0.00285,-0.0052,0.01));
#664=CARTESIAN_POINT('',(-6.50521303491303E-19,-0.005198,0.01));
#665=CARTESIAN_POINT('',(-6.50521303491303E-19,-0.01,0.01));
#666=CARTESIAN_POINT('',(-6.50521303491303E-19,-0.01,0.0085));
#667=CARTESIAN_POINT('',(-6.50521303491303E-19,-0.0078,0.01));
#668=CARTESIAN_POINT('',(-0.0015,-0.0078,0.01));
#669=CARTESIAN_POINT('',(0.01,-1.7347234759768E-18,0.02));
#670=CARTESIAN_POINT('',(0.01,-1.7347234759768E-18,0.));
#671=CARTESIAN_POINT('',(0.01,0.01,0.));
#672=CARTESIAN_POINT('',(0.01,-0.01,0.));
#673=CARTESIAN_POINT('',(0.01,0.01,0.02));
#674=CARTESIAN_POINT('',(0.01,0.01,0.02));
#675=CARTESIAN_POINT('',(0.01,-1.7347234759768E-18,0.02));
#676=CARTESIAN_POINT('',(0.01,-0.01,0.02));
#677=CARTESIAN_POINT('',(0.01,-0.01,0.02));
#678=CARTESIAN_POINT('',(0.01,-2.81892564846231E-18,0.0165));
#679=CARTESIAN_POINT('',(0.01,0.0016,0.0165));
#680=CARTESIAN_POINT('',(0.01,-0.0016,0.0165));
#681=CARTESIAN_POINT('',(0.01,0.0016,0.013));
#682=CARTESIAN_POINT('',(0.01,0.0016,0.0095));
#683=CARTESIAN_POINT('',(0.01,-2.38524477946811E-18,0.0095));
#684=CARTESIAN_POINT('',(0.01,-0.0016,0.0095));
#685=CARTESIAN_POINT('',(0.01,-0.0016,0.013));
#686=CARTESIAN_POINT('',(0.,0.,0.));
#687=CARTESIAN_POINT('',(-3.46944695195361E-18,-0.01,0.));
#688=CARTESIAN_POINT('',(-0.01,-0.01,0.));
#689=CARTESIAN_POINT('',(-0.01,0.,0.));
#690=CARTESIAN_POINT('',(-0.01,0.01,0.));
#691=CARTESIAN_POINT('',(1.7347234759768E-18,0.01,0.));
#692=CARTESIAN_POINT('',(0.0052,0.,0.));
#693=CARTESIAN_POINT('',(0.0052,0.0052,0.));
#694=CARTESIAN_POINT('',(-8.67361737988404E-19,0.0052,0.));
#695=CARTESIAN_POINT('',(-0.0052,0.0052,0.));
#696=CARTESIAN_POINT('',(-0.0052,0.,0.));
#697=CARTESIAN_POINT('',(1.7347234759768E-18,0.01,0.02));
#698=CARTESIAN_POINT('',(-0.01,0.01,0.02));
#699=CARTESIAN_POINT('',(-0.01,0.01,0.02));
#700=CARTESIAN_POINT('',(1.7347234759768E-18,0.01,0.02));
#701=CARTESIAN_POINT('',(-0.01,0.,0.02));
#702=CARTESIAN_POINT('',(-0.01,3.03576608295941E-18,0.0165));
#703=CARTESIAN_POINT('',(-0.01,-0.0016,0.0165));
#704=CARTESIAN_POINT('',(-0.01,0.0016,0.0165));
#705=CARTESIAN_POINT('',(-0.01,-0.0016,0.013));
#706=CARTESIAN_POINT('',(-0.01,-0.0016,0.0095));
#707=CARTESIAN_POINT('',(-0.01,2.60208521396521E-18,0.0095));
#708=CARTESIAN_POINT('',(-0.01,0.0016,0.0095));
#709=CARTESIAN_POINT('',(-0.01,0.0016,0.013));
#710=CARTESIAN_POINT('',(-0.01,-0.01,0.02));
#711=CARTESIAN_POINT('',(-0.01,-0.01,0.02));
#712=CARTESIAN_POINT('',(-0.01,0.,0.02));
#713=CARTESIAN_POINT('',(-3.46944695195361E-18,-0.01,0.02));
#714=CARTESIAN_POINT('',(-3.46944695195361E-18,-0.01,0.02));
#715=CARTESIAN_POINT('',(0.,0.,0.02));
#716=CARTESIAN_POINT('',(0.0052,8.67361737988404E-19,-0.01));
#717=CARTESIAN_POINT('',(0.0052,8.67361737988404E-19,0.015));
#718=CARTESIAN_POINT('',(0.0052,0.0052,0.015));
#719=CARTESIAN_POINT('',(0.0052,0.0052,-0.01));
#720=CARTESIAN_POINT('',(0.,0.0052,-0.01));
#721=CARTESIAN_POINT('',(0.,0.0052,0.015));
#722=CARTESIAN_POINT('',(-0.0052,0.0052,0.015));
#723=CARTESIAN_POINT('',(-0.0052,0.0052,-0.01));
#724=CARTESIAN_POINT('',(-0.0052,-8.67361737988404E-19,-0.01));
#725=CARTESIAN_POINT('',(-0.0052,-8.67361737988404E-19,0.015));
#726=CARTESIAN_POINT('',(0.,0.,0.015));
#727=CARTESIAN_POINT('',(0.014,0.0016,0.013));
#728=CARTESIAN_POINT('',(0.014,0.0016,0.0165));
#729=CARTESIAN_POINT('',(0.014,0.0016,0.0165));
#730=CARTESIAN_POINT('',(0.014,0.0016,0.013));
#731=CARTESIAN_POINT('',(0.014,0.0016,0.0095));
#732=CARTESIAN_POINT('',(0.014,0.0016,0.0095));
#733=CARTESIAN_POINT('',(0.014,-4.20670442924375E-18,0.0165));
#734=CARTESIAN_POINT('',(0.014,-0.0016,0.0165));
#735=CARTESIAN_POINT('',(0.014,-0.0016,0.0165));
#736=CARTESIAN_POINT('',(0.014,-4.20670442924375E-18,0.0165));
#737=CARTESIAN_POINT('',(0.014,-0.0016,0.013));
#738=CARTESIAN_POINT('',(0.014,-0.0016,0.0095));
#739=CARTESIAN_POINT('',(0.014,-0.0016,0.0095));
#740=CARTESIAN_POINT('',(0.014,-0.0016,0.013));
#741=CARTESIAN_POINT('',(0.014,-3.77302356024956E-18,0.0095));
#742=CARTESIAN_POINT('',(0.014,-3.77302356024956E-18,0.0095));
#743=CARTESIAN_POINT('',(0.014,-1.38777878078144E-18,0.01));
#744=CARTESIAN_POINT('',(-0.014,-0.0016,0.013));
#745=CARTESIAN_POINT('',(-0.014,-0.0016,0.0165));
#746=CARTESIAN_POINT('',(-0.014,-0.0016,0.0165));
#747=CARTESIAN_POINT('',(-0.014,-0.0016,0.013));
#748=CARTESIAN_POINT('',(-0.014,-0.0016,0.0095));
#749=CARTESIAN_POINT('',(-0.014,-0.0016,0.0095));
#750=CARTESIAN_POINT('',(-0.014,4.42354486374086E-18,0.0165));
#751=CARTESIAN_POINT('',(-0.014,0.0016,0.0165));
#752=CARTESIAN_POINT('',(-0.014,0.0016,0.0165));
#753=CARTESIAN_POINT('',(-0.014,4.42354486374086E-18,0.0165));
#754=CARTESIAN_POINT('',(-0.014,0.0016,0.013));
#755=CARTESIAN_POINT('',(-0.014,0.0016,0.0095));
#756=CARTESIAN_POINT('',(-0.014,0.0016,0.0095));
#757=CARTESIAN_POINT('',(-0.014,0.0016,0.013));
#758=CARTESIAN_POINT('',(-0.014,3.98986399474665E-18,0.0095));
#759=CARTESIAN_POINT('',(-0.014,3.98986399474665E-18,0.0095));
#760=CARTESIAN_POINT('',(-0.014,1.38777878078144E-18,0.01));
#761=CARTESIAN_POINT('',(1.3010426069826E-18,-0.0078,0.0075));
#762=CARTESIAN_POINT('',(-0.00285,-0.0078,0.01));
#763=CARTESIAN_POINT('',(-0.00285,-0.0078,0.0131));
#764=CARTESIAN_POINT('',(-0.00285,-0.0078,0.0069));
#765=CARTESIAN_POINT('',(-8.67361737988404E-19,-0.0078,0.0131));
#766=CARTESIAN_POINT('',(0.00285,-0.0078,0.0131));
#767=CARTESIAN_POINT('',(0.00285,-0.0078,0.01));
#768=CARTESIAN_POINT('',(0.00285,-0.0078,0.0069));
#769=CARTESIAN_POINT('',(-8.67361737988404E-19,-0.0078,0.0069));
#770=CARTESIAN_POINT('',(-0.00285,-0.0078,0.01));
#771=CARTESIAN_POINT('',(-0.00285,-0.0078,0.0131));
#772=CARTESIAN_POINT('',(-0.00285,-0.0078,0.0069));
#773=CARTESIAN_POINT('',(-8.67361737988404E-19,-0.0078,0.0131));
#774=CARTESIAN_POINT('',(0.00285,-0.0078,0.0131));
#775=CARTESIAN_POINT('',(0.00285,-0.0078,0.01));
#776=CARTESIAN_POINT('',(0.00285,-0.0078,0.0069));
#777=CARTESIAN_POINT('',(-8.67361737988404E-19,-0.0078,0.0069));
#778=MECHANICAL_DESIGN_GEOMETRIC_PRESENTATION_REPRESENTATION('',(#485),
#779);
#779=(
GEOMETRIC_REPRESENTATION_CONTEXT(3)
GLOBAL_UNCERTAINTY_ASSIGNED_CONTEXT((#780))
GLOBAL_UNIT_ASSIGNED_CONTEXT((#783,#782,#781))
REPRESENTATION_CONTEXT('Holder Crayon','TOP_LEVEL_ASSEMBLY_PART')
);
#780=UNCERTAINTY_MEASURE_WITH_UNIT(LENGTH_MEASURE(1.E-8),#783,
'DISTANCE_ACCURACY_VALUE','Maximum Tolerance applied to model');
#781=(
NAMED_UNIT(*)
SI_UNIT($,.STERADIAN.)
SOLID_ANGLE_UNIT()
);
#782=(
NAMED_UNIT(*)
PLANE_ANGLE_UNIT()
SI_UNIT($,.RADIAN.)
);
#783=(
LENGTH_UNIT()
NAMED_UNIT(*)
SI_UNIT($,.METRE.)
);
#784=PRODUCT_DEFINITION_SHAPE('','',#785);
#785=PRODUCT_DEFINITION('','',#787,#786);
#786=PRODUCT_DEFINITION_CONTEXT('',#793,'design');
#787=PRODUCT_DEFINITION_FORMATION_WITH_SPECIFIED_SOURCE('','',#789,
 .NOT_KNOWN.);
#788=PRODUCT_RELATED_PRODUCT_CATEGORY('','',(#789));
#789=PRODUCT('Holder Crayon','Holder Crayon','Holder Crayon',(#791));
#790=PRODUCT_CATEGORY('','');
#791=PRODUCT_CONTEXT('',#793,'mechanical');
#792=APPLICATION_PROTOCOL_DEFINITION('international standard',
'ap242_managed_model_based_3d_engineering',2020,#793);
#793=APPLICATION_CONTEXT('managed model based 3d engineering');
ENDSEC;
END-ISO-10303-21;
