ISO-10303-21;
HEADER;
/* Generated by software containing ST-Developer
 * from STEP Tools, Inc. (www.steptools.com) 
 */
/* OPTION: using custom renumber hook */

FILE_DESCRIPTION(
/* description */ ('STEP AP242 Edition 2',
'CAx-IF Rec.Pracs.---Representation and Presentation of Product Manufa
cturing Information (PMI)---4.0---2014-10-13',
'CAx-IF Rec.Pracs.---3D Tessellated Geometry---0.4---2014-09-14','2;1',
'CAx-IF Rec.Pracs.---User Defined Attributes---1.5---2016-08-15'),
/* implementation_level */ '2;1');

FILE_NAME(
/* name */ 'Passe-fil L15 - Passe-fil L15',
/* time_stamp */ '2026-04-15T18:40:39Z',
/* author */ (''),
/* organization */ (''),
/* preprocessor_version */ 'ST-DEVELOPER v20',
/* originating_system */ 'ONSHAPE BY PTC INC, 1.213',
/* authorisation */ '  ');

FILE_SCHEMA (('AP242_MANAGED_MODEL_BASED_3D_ENGINEERING_MIM_LF { 1 0 10303 442 3 1 4 }'));
ENDSEC;

DATA;
#10=SHAPE_REPRESENTATION_RELATIONSHIP('','',#319,#11);
#11=ADVANCED_BREP_SHAPE_REPRESENTATION('',(#317),#513);
#12=PLANE('',#324);
#13=PLANE('',#327);
#14=PLANE('',#328);
#15=PLANE('',#329);
#16=PLANE('',#330);
#17=PLANE('',#333);
#18=PLANE('',#334);
#19=PLANE('',#335);
#20=PLANE('',#336);
#21=PLANE('',#337);
#22=PLANE('',#338);
#23=PLANE('',#340);
#24=PLANE('',#342);
#25=CIRCLE('',#322,0.0075);
#26=CIRCLE('',#323,0.0075);
#27=CIRCLE('',#325,0.005);
#28=CIRCLE('',#326,0.0075);
#29=CIRCLE('',#332,0.0075);
#30=CIRCLE('',#339,0.005);
#31=ORIENTED_EDGE('',*,*,#115,.F.);
#32=ORIENTED_EDGE('',*,*,#116,.T.);
#33=ORIENTED_EDGE('',*,*,#117,.F.);
#34=ORIENTED_EDGE('',*,*,#118,.F.);
#35=ORIENTED_EDGE('',*,*,#119,.F.);
#36=ORIENTED_EDGE('',*,*,#120,.T.);
#37=ORIENTED_EDGE('',*,*,#118,.T.);
#38=ORIENTED_EDGE('',*,*,#121,.F.);
#39=ORIENTED_EDGE('',*,*,#122,.F.);
#40=ORIENTED_EDGE('',*,*,#123,.F.);
#41=ORIENTED_EDGE('',*,*,#124,.F.);
#42=ORIENTED_EDGE('',*,*,#125,.T.);
#43=ORIENTED_EDGE('',*,*,#126,.T.);
#44=ORIENTED_EDGE('',*,*,#127,.T.);
#45=ORIENTED_EDGE('',*,*,#128,.T.);
#46=ORIENTED_EDGE('',*,*,#129,.T.);
#47=ORIENTED_EDGE('',*,*,#130,.T.);
#48=ORIENTED_EDGE('',*,*,#131,.T.);
#49=ORIENTED_EDGE('',*,*,#132,.T.);
#50=ORIENTED_EDGE('',*,*,#133,.F.);
#51=ORIENTED_EDGE('',*,*,#126,.F.);
#52=ORIENTED_EDGE('',*,*,#134,.T.);
#53=ORIENTED_EDGE('',*,*,#135,.T.);
#54=ORIENTED_EDGE('',*,*,#136,.F.);
#55=ORIENTED_EDGE('',*,*,#127,.F.);
#56=ORIENTED_EDGE('',*,*,#133,.T.);
#57=ORIENTED_EDGE('',*,*,#137,.T.);
#58=ORIENTED_EDGE('',*,*,#138,.F.);
#59=ORIENTED_EDGE('',*,*,#128,.F.);
#60=ORIENTED_EDGE('',*,*,#136,.T.);
#61=ORIENTED_EDGE('',*,*,#139,.T.);
#62=ORIENTED_EDGE('',*,*,#140,.F.);
#63=ORIENTED_EDGE('',*,*,#129,.F.);
#64=ORIENTED_EDGE('',*,*,#138,.T.);
#65=ORIENTED_EDGE('',*,*,#141,.T.);
#66=ORIENTED_EDGE('',*,*,#142,.T.);
#67=ORIENTED_EDGE('',*,*,#130,.F.);
#68=ORIENTED_EDGE('',*,*,#140,.T.);
#69=ORIENTED_EDGE('',*,*,#143,.F.);
#70=ORIENTED_EDGE('',*,*,#144,.F.);
#71=ORIENTED_EDGE('',*,*,#121,.T.);
#72=ORIENTED_EDGE('',*,*,#117,.T.);
#73=ORIENTED_EDGE('',*,*,#145,.F.);
#74=ORIENTED_EDGE('',*,*,#146,.F.);
#75=ORIENTED_EDGE('',*,*,#122,.T.);
#76=ORIENTED_EDGE('',*,*,#144,.T.);
#77=ORIENTED_EDGE('',*,*,#147,.F.);
#78=ORIENTED_EDGE('',*,*,#148,.F.);
#79=ORIENTED_EDGE('',*,*,#123,.T.);
#80=ORIENTED_EDGE('',*,*,#146,.T.);
#81=ORIENTED_EDGE('',*,*,#149,.F.);
#82=ORIENTED_EDGE('',*,*,#150,.F.);
#83=ORIENTED_EDGE('',*,*,#124,.T.);
#84=ORIENTED_EDGE('',*,*,#148,.T.);
#85=ORIENTED_EDGE('',*,*,#151,.T.);
#86=ORIENTED_EDGE('',*,*,#134,.F.);
#87=ORIENTED_EDGE('',*,*,#125,.F.);
#88=ORIENTED_EDGE('',*,*,#150,.T.);
#89=ORIENTED_EDGE('',*,*,#152,.F.);
#90=ORIENTED_EDGE('',*,*,#153,.T.);
#91=ORIENTED_EDGE('',*,*,#141,.F.);
#92=ORIENTED_EDGE('',*,*,#139,.F.);
#93=ORIENTED_EDGE('',*,*,#137,.F.);
#94=ORIENTED_EDGE('',*,*,#135,.F.);
#95=ORIENTED_EDGE('',*,*,#132,.F.);
#96=ORIENTED_EDGE('',*,*,#151,.F.);
#97=ORIENTED_EDGE('',*,*,#149,.T.);
#98=ORIENTED_EDGE('',*,*,#147,.T.);
#99=ORIENTED_EDGE('',*,*,#145,.T.);
#100=ORIENTED_EDGE('',*,*,#143,.T.);
#101=ORIENTED_EDGE('',*,*,#116,.F.);
#102=ORIENTED_EDGE('',*,*,#154,.T.);
#103=ORIENTED_EDGE('',*,*,#155,.T.);
#104=ORIENTED_EDGE('',*,*,#131,.F.);
#105=ORIENTED_EDGE('',*,*,#142,.F.);
#106=ORIENTED_EDGE('',*,*,#153,.F.);
#107=ORIENTED_EDGE('',*,*,#152,.T.);
#108=ORIENTED_EDGE('',*,*,#156,.T.);
#109=ORIENTED_EDGE('',*,*,#119,.T.);
#110=ORIENTED_EDGE('',*,*,#155,.F.);
#111=ORIENTED_EDGE('',*,*,#115,.T.);
#112=ORIENTED_EDGE('',*,*,#120,.F.);
#113=ORIENTED_EDGE('',*,*,#156,.F.);
#114=ORIENTED_EDGE('',*,*,#154,.F.);
#115=EDGE_CURVE('',#157,#158,#185,.T.);
#116=EDGE_CURVE('',#157,#159,#25,.T.);
#117=EDGE_CURVE('',#160,#159,#186,.T.);
#118=EDGE_CURVE('',#158,#160,#26,.T.);
#119=EDGE_CURVE('',#161,#162,#27,.T.);
#120=EDGE_CURVE('',#161,#158,#187,.T.);
#121=EDGE_CURVE('',#163,#160,#188,.T.);
#122=EDGE_CURVE('',#164,#163,#189,.T.);
#123=EDGE_CURVE('',#165,#164,#190,.T.);
#124=EDGE_CURVE('',#166,#165,#191,.T.);
#125=EDGE_CURVE('',#166,#167,#192,.T.);
#126=EDGE_CURVE('',#167,#168,#193,.T.);
#127=EDGE_CURVE('',#168,#169,#194,.T.);
#128=EDGE_CURVE('',#169,#170,#195,.T.);
#129=EDGE_CURVE('',#170,#171,#196,.T.);
#130=EDGE_CURVE('',#171,#172,#28,.T.);
#131=EDGE_CURVE('',#172,#162,#197,.T.);
#132=EDGE_CURVE('',#173,#174,#198,.T.);
#133=EDGE_CURVE('',#168,#174,#199,.T.);
#134=EDGE_CURVE('',#167,#173,#200,.T.);
#135=EDGE_CURVE('',#174,#175,#201,.T.);
#136=EDGE_CURVE('',#169,#175,#202,.T.);
#137=EDGE_CURVE('',#175,#176,#203,.T.);
#138=EDGE_CURVE('',#170,#176,#204,.T.);
#139=EDGE_CURVE('',#176,#177,#205,.T.);
#140=EDGE_CURVE('',#171,#177,#206,.T.);
#141=EDGE_CURVE('',#177,#178,#29,.T.);
#142=EDGE_CURVE('',#178,#172,#207,.T.);
#143=EDGE_CURVE('',#179,#159,#208,.T.);
#144=EDGE_CURVE('',#163,#179,#209,.T.);
#145=EDGE_CURVE('',#180,#179,#210,.T.);
#146=EDGE_CURVE('',#164,#180,#211,.T.);
#147=EDGE_CURVE('',#181,#180,#212,.T.);
#148=EDGE_CURVE('',#165,#181,#213,.T.);
#149=EDGE_CURVE('',#182,#181,#214,.T.);
#150=EDGE_CURVE('',#166,#182,#215,.T.);
#151=EDGE_CURVE('',#182,#173,#216,.T.);
#152=EDGE_CURVE('',#183,#184,#30,.F.);
#153=EDGE_CURVE('',#183,#178,#217,.T.);
#154=EDGE_CURVE('',#157,#184,#218,.T.);
#155=EDGE_CURVE('',#183,#162,#219,.T.);
#156=EDGE_CURVE('',#184,#161,#220,.T.);
#157=VERTEX_POINT('',#428);
#158=VERTEX_POINT('',#429);
#159=VERTEX_POINT('',#431);
#160=VERTEX_POINT('',#433);
#161=VERTEX_POINT('',#437);
#162=VERTEX_POINT('',#438);
#163=VERTEX_POINT('',#441);
#164=VERTEX_POINT('',#443);
#165=VERTEX_POINT('',#445);
#166=VERTEX_POINT('',#447);
#167=VERTEX_POINT('',#449);
#168=VERTEX_POINT('',#451);
#169=VERTEX_POINT('',#453);
#170=VERTEX_POINT('',#455);
#171=VERTEX_POINT('',#457);
#172=VERTEX_POINT('',#459);
#173=VERTEX_POINT('',#463);
#174=VERTEX_POINT('',#464);
#175=VERTEX_POINT('',#469);
#176=VERTEX_POINT('',#473);
#177=VERTEX_POINT('',#477);
#178=VERTEX_POINT('',#481);
#179=VERTEX_POINT('',#485);
#180=VERTEX_POINT('',#489);
#181=VERTEX_POINT('',#493);
#182=VERTEX_POINT('',#497);
#183=VERTEX_POINT('',#503);
#184=VERTEX_POINT('',#504);
#185=LINE('',#427,#221);
#186=LINE('',#432,#222);
#187=LINE('',#439,#223);
#188=LINE('',#440,#224);
#189=LINE('',#442,#225);
#190=LINE('',#444,#226);
#191=LINE('',#446,#227);
#192=LINE('',#448,#228);
#193=LINE('',#450,#229);
#194=LINE('',#452,#230);
#195=LINE('',#454,#231);
#196=LINE('',#456,#232);
#197=LINE('',#460,#233);
#198=LINE('',#462,#234);
#199=LINE('',#465,#235);
#200=LINE('',#466,#236);
#201=LINE('',#468,#237);
#202=LINE('',#470,#238);
#203=LINE('',#472,#239);
#204=LINE('',#474,#240);
#205=LINE('',#476,#241);
#206=LINE('',#478,#242);
#207=LINE('',#482,#243);
#208=LINE('',#484,#244);
#209=LINE('',#486,#245);
#210=LINE('',#488,#246);
#211=LINE('',#490,#247);
#212=LINE('',#492,#248);
#213=LINE('',#494,#249);
#214=LINE('',#496,#250);
#215=LINE('',#498,#251);
#216=LINE('',#500,#252);
#217=LINE('',#505,#253);
#218=LINE('',#506,#254);
#219=LINE('',#508,#255);
#220=LINE('',#510,#256);
#221=VECTOR('',#347,1.);
#222=VECTOR('',#350,1.);
#223=VECTOR('',#357,1.);
#224=VECTOR('',#358,1.);
#225=VECTOR('',#359,1.);
#226=VECTOR('',#360,1.);
#227=VECTOR('',#361,1.);
#228=VECTOR('',#362,1.);
#229=VECTOR('',#363,1.);
#230=VECTOR('',#364,1.);
#231=VECTOR('',#365,1.);
#232=VECTOR('',#366,1.);
#233=VECTOR('',#369,1.);
#234=VECTOR('',#372,1.);
#235=VECTOR('',#373,1.);
#236=VECTOR('',#374,1.);
#237=VECTOR('',#377,1.);
#238=VECTOR('',#378,1.);
#239=VECTOR('',#381,1.);
#240=VECTOR('',#382,1.);
#241=VECTOR('',#385,1.);
#242=VECTOR('',#386,1.);
#243=VECTOR('',#391,1.);
#244=VECTOR('',#394,1.);
#245=VECTOR('',#395,1.);
#246=VECTOR('',#398,1.);
#247=VECTOR('',#399,1.);
#248=VECTOR('',#402,1.);
#249=VECTOR('',#403,1.);
#250=VECTOR('',#406,1.);
#251=VECTOR('',#407,1.);
#252=VECTOR('',#410,1.);
#253=VECTOR('',#415,1.);
#254=VECTOR('',#416,1.);
#255=VECTOR('',#419,1.);
#256=VECTOR('',#422,1.);
#257=EDGE_LOOP('',(#31,#32,#33,#34));
#258=EDGE_LOOP('',(#35,#36,#37,#38,#39,#40,#41,#42,#43,#44,#45,#46,#47,
#48));
#259=EDGE_LOOP('',(#49,#50,#51,#52));
#260=EDGE_LOOP('',(#53,#54,#55,#56));
#261=EDGE_LOOP('',(#57,#58,#59,#60));
#262=EDGE_LOOP('',(#61,#62,#63,#64));
#263=EDGE_LOOP('',(#65,#66,#67,#68));
#264=EDGE_LOOP('',(#69,#70,#71,#72));
#265=EDGE_LOOP('',(#73,#74,#75,#76));
#266=EDGE_LOOP('',(#77,#78,#79,#80));
#267=EDGE_LOOP('',(#81,#82,#83,#84));
#268=EDGE_LOOP('',(#85,#86,#87,#88));
#269=EDGE_LOOP('',(#89,#90,#91,#92,#93,#94,#95,#96,#97,#98,#99,#100,#101,
#102));
#270=EDGE_LOOP('',(#103,#104,#105,#106));
#271=EDGE_LOOP('',(#107,#108,#109,#110));
#272=EDGE_LOOP('',(#111,#112,#113,#114));
#273=FACE_BOUND('',#257,.T.);
#274=FACE_BOUND('',#258,.T.);
#275=FACE_BOUND('',#259,.T.);
#276=FACE_BOUND('',#260,.T.);
#277=FACE_BOUND('',#261,.T.);
#278=FACE_BOUND('',#262,.T.);
#279=FACE_BOUND('',#263,.T.);
#280=FACE_BOUND('',#264,.T.);
#281=FACE_BOUND('',#265,.T.);
#282=FACE_BOUND('',#266,.T.);
#283=FACE_BOUND('',#267,.T.);
#284=FACE_BOUND('',#268,.T.);
#285=FACE_BOUND('',#269,.T.);
#286=FACE_BOUND('',#270,.T.);
#287=FACE_BOUND('',#271,.T.);
#288=FACE_BOUND('',#272,.T.);
#289=CYLINDRICAL_SURFACE('',#321,0.0075);
#290=CYLINDRICAL_SURFACE('',#331,0.0075);
#291=CYLINDRICAL_SURFACE('',#341,0.005);
#292=ADVANCED_FACE('',(#273),#289,.T.);
#293=ADVANCED_FACE('',(#274),#12,.T.);
#294=ADVANCED_FACE('',(#275),#13,.F.);
#295=ADVANCED_FACE('',(#276),#14,.F.);
#296=ADVANCED_FACE('',(#277),#15,.F.);
#297=ADVANCED_FACE('',(#278),#16,.F.);
#298=ADVANCED_FACE('',(#279),#290,.T.);
#299=ADVANCED_FACE('',(#280),#17,.T.);
#300=ADVANCED_FACE('',(#281),#18,.T.);
#301=ADVANCED_FACE('',(#282),#19,.T.);
#302=ADVANCED_FACE('',(#283),#20,.T.);
#303=ADVANCED_FACE('',(#284),#21,.F.);
#304=ADVANCED_FACE('',(#285),#22,.F.);
#305=ADVANCED_FACE('',(#286),#23,.T.);
#306=ADVANCED_FACE('',(#287),#291,.F.);
#307=ADVANCED_FACE('',(#288),#24,.T.);
#308=CLOSED_SHELL('',(#292,#293,#294,#295,#296,#297,#298,#299,#300,#301,
#302,#303,#304,#305,#306,#307));
#309=STYLED_ITEM('',(#310),#317);
#310=PRESENTATION_STYLE_ASSIGNMENT((#311));
#311=SURFACE_STYLE_USAGE(.BOTH.,#312);
#312=SURFACE_SIDE_STYLE('',(#313));
#313=SURFACE_STYLE_FILL_AREA(#314);
#314=FILL_AREA_STYLE('',(#315));
#315=FILL_AREA_STYLE_COLOUR('',#316);
#316=COLOUR_RGB('',0.192156862745098,0.192156862745098,0.196078431372549);
#317=MANIFOLD_SOLID_BREP('Passe-fil L15',#308);
#318=SHAPE_DEFINITION_REPRESENTATION(#518,#319);
#319=SHAPE_REPRESENTATION('Passe-fil L15',(#320),#513);
#320=AXIS2_PLACEMENT_3D('',#425,#343,#344);
#321=AXIS2_PLACEMENT_3D('',#426,#345,#346);
#322=AXIS2_PLACEMENT_3D('',#430,#348,#349);
#323=AXIS2_PLACEMENT_3D('',#434,#351,#352);
#324=AXIS2_PLACEMENT_3D('',#435,#353,#354);
#325=AXIS2_PLACEMENT_3D('',#436,#355,#356);
#326=AXIS2_PLACEMENT_3D('',#458,#367,#368);
#327=AXIS2_PLACEMENT_3D('',#461,#370,#371);
#328=AXIS2_PLACEMENT_3D('',#467,#375,#376);
#329=AXIS2_PLACEMENT_3D('',#471,#379,#380);
#330=AXIS2_PLACEMENT_3D('',#475,#383,#384);
#331=AXIS2_PLACEMENT_3D('',#479,#387,#388);
#332=AXIS2_PLACEMENT_3D('',#480,#389,#390);
#333=AXIS2_PLACEMENT_3D('',#483,#392,#393);
#334=AXIS2_PLACEMENT_3D('',#487,#396,#397);
#335=AXIS2_PLACEMENT_3D('',#491,#400,#401);
#336=AXIS2_PLACEMENT_3D('',#495,#404,#405);
#337=AXIS2_PLACEMENT_3D('',#499,#408,#409);
#338=AXIS2_PLACEMENT_3D('',#501,#411,#412);
#339=AXIS2_PLACEMENT_3D('',#502,#413,#414);
#340=AXIS2_PLACEMENT_3D('',#507,#417,#418);
#341=AXIS2_PLACEMENT_3D('',#509,#420,#421);
#342=AXIS2_PLACEMENT_3D('',#511,#423,#424);
#343=DIRECTION('',(0.,0.,1.));
#344=DIRECTION('',(1.,0.,0.));
#345=DIRECTION('',(0.,1.,0.));
#346=DIRECTION('',(0.,0.,1.));
#347=DIRECTION('',(0.,-1.,0.));
#348=DIRECTION('',(0.,-1.,0.));
#349=DIRECTION('',(0.,0.,-1.));
#350=DIRECTION('',(0.,1.,0.));
#351=DIRECTION('',(0.,-1.,0.));
#352=DIRECTION('',(0.,0.,-1.));
#353=DIRECTION('',(0.,-1.,0.));
#354=DIRECTION('',(1.,0.,0.));
#355=DIRECTION('',(0.,-1.,0.));
#356=DIRECTION('',(0.,0.,-1.));
#357=DIRECTION('',(0.,0.,1.));
#358=DIRECTION('',(0.,0.,1.));
#359=DIRECTION('',(0.707106781186548,0.,0.707106781186547));
#360=DIRECTION('',(-1.,0.,0.));
#361=DIRECTION('',(0.,0.,1.));
#362=DIRECTION('',(1.,0.,0.));
#363=DIRECTION('',(0.,0.,1.));
#364=DIRECTION('',(1.,0.,0.));
#365=DIRECTION('',(-0.707106781186548,0.,0.707106781186547));
#366=DIRECTION('',(0.,0.,1.));
#367=DIRECTION('',(0.,-1.,0.));
#368=DIRECTION('',(0.,0.,-1.));
#369=DIRECTION('',(0.,0.,-1.));
#370=DIRECTION('',(-1.,0.,0.));
#371=DIRECTION('',(0.,0.,1.));
#372=DIRECTION('',(0.,0.,1.));
#373=DIRECTION('',(0.,1.,0.));
#374=DIRECTION('',(0.,1.,0.));
#375=DIRECTION('',(0.,0.,1.));
#376=DIRECTION('',(1.,0.,0.));
#377=DIRECTION('',(1.,0.,0.));
#378=DIRECTION('',(0.,1.,0.));
#379=DIRECTION('',(-0.707106781186547,0.,-0.707106781186548));
#380=DIRECTION('',(-0.707106781186548,0.,0.707106781186547));
#381=DIRECTION('',(-0.707106781186548,0.,0.707106781186547));
#382=DIRECTION('',(0.,1.,0.));
#383=DIRECTION('',(-1.,0.,0.));
#384=DIRECTION('',(0.,0.,1.));
#385=DIRECTION('',(0.,0.,1.));
#386=DIRECTION('',(0.,1.,0.));
#387=DIRECTION('',(0.,1.,0.));
#388=DIRECTION('',(0.,0.,1.));
#389=DIRECTION('',(0.,-1.,0.));
#390=DIRECTION('',(0.,0.,-1.));
#391=DIRECTION('',(0.,-1.,0.));
#392=DIRECTION('',(-1.,0.,0.));
#393=DIRECTION('',(0.,0.,1.));
#394=DIRECTION('',(0.,0.,1.));
#395=DIRECTION('',(0.,1.,0.));
#396=DIRECTION('',(-0.707106781186547,0.,0.707106781186548));
#397=DIRECTION('',(0.707106781186548,0.,0.707106781186547));
#398=DIRECTION('',(0.707106781186548,0.,0.707106781186547));
#399=DIRECTION('',(0.,1.,0.));
#400=DIRECTION('',(0.,0.,-1.));
#401=DIRECTION('',(-1.,0.,0.));
#402=DIRECTION('',(-1.,0.,0.));
#403=DIRECTION('',(0.,1.,0.));
#404=DIRECTION('',(-1.,0.,0.));
#405=DIRECTION('',(0.,0.,1.));
#406=DIRECTION('',(0.,0.,1.));
#407=DIRECTION('',(0.,1.,0.));
#408=DIRECTION('',(0.,0.,1.));
#409=DIRECTION('',(1.,0.,0.));
#410=DIRECTION('',(1.,0.,0.));
#411=DIRECTION('',(0.,-1.,0.));
#412=DIRECTION('',(1.,0.,0.));
#413=DIRECTION('',(0.,-1.,0.));
#414=DIRECTION('',(0.,0.,-1.));
#415=DIRECTION('',(0.,0.,1.));
#416=DIRECTION('',(0.,0.,-1.));
#417=DIRECTION('',(-1.,0.,0.));
#418=DIRECTION('',(0.,0.,1.));
#419=DIRECTION('',(0.,-1.,0.));
#420=DIRECTION('',(0.,-1.,0.));
#421=DIRECTION('',(0.,0.,-1.));
#422=DIRECTION('',(0.,-1.,0.));
#423=DIRECTION('',(1.,0.,0.));
#424=DIRECTION('',(0.,0.,-1.));
#425=CARTESIAN_POINT('',(0.,0.,0.));
#426=CARTESIAN_POINT('',(1.35356484286393E-18,-0.015,0.0225));
#427=CARTESIAN_POINT('',(-0.00125,2.00000000000027E-6,0.0298950997288745));
#428=CARTESIAN_POINT('',(-0.00125,8.470329472543E-22,0.0298950997288745));
#429=CARTESIAN_POINT('',(-0.00125,-0.015,0.0298950997288745));
#430=CARTESIAN_POINT('',(1.35356484286393E-18,0.,0.0225));
#431=CARTESIAN_POINT('',(-0.0049,0.,0.0168219721733687));
#432=CARTESIAN_POINT('',(-0.0049,-0.015,0.0168219721733687));
#433=CARTESIAN_POINT('',(-0.0049,-0.015,0.0168219721733687));
#434=CARTESIAN_POINT('',(1.35356484286393E-18,-0.015,0.0225));
#435=CARTESIAN_POINT('',(0.,-0.015,0.015));
#436=CARTESIAN_POINT('',(-6.49474601924997E-18,-0.015,0.0225));
#437=CARTESIAN_POINT('',(-0.00125,-0.015,0.0273412291827593));
#438=CARTESIAN_POINT('',(0.00125,-0.015,0.0273412291827593));
#439=CARTESIAN_POINT('',(-0.00125,-0.015,0.0286181644558169));
#440=CARTESIAN_POINT('',(-0.0049,-0.015,0.0146609860866843));
#441=CARTESIAN_POINT('',(-0.0049,-0.015,0.0125));
#442=CARTESIAN_POINT('',(-0.0074,-0.015,0.01));
#443=CARTESIAN_POINT('',(-0.0099,-0.015,0.0075));
#444=CARTESIAN_POINT('',(-0.00865,-0.015,0.0075));
#445=CARTESIAN_POINT('',(-0.0074,-0.015,0.0075));
#446=CARTESIAN_POINT('',(-0.0074,-0.015,0.00375));
#447=CARTESIAN_POINT('',(-0.0074,-0.015,0.));
#448=CARTESIAN_POINT('',(0.,-0.015,0.));
#449=CARTESIAN_POINT('',(0.0074,-0.015,0.));
#450=CARTESIAN_POINT('',(0.0074,-0.015,0.00375));
#451=CARTESIAN_POINT('',(0.0074,-0.015,0.0075));
#452=CARTESIAN_POINT('',(0.00865,-0.015,0.0075));
#453=CARTESIAN_POINT('',(0.0099,-0.015,0.0075));
#454=CARTESIAN_POINT('',(0.0074,-0.015,0.01));
#455=CARTESIAN_POINT('',(0.0049,-0.015,0.0125));
#456=CARTESIAN_POINT('',(0.0049,-0.015,0.0146609860866843));
#457=CARTESIAN_POINT('',(0.0049,-0.015,0.0168219721733687));
#458=CARTESIAN_POINT('',(1.35356484286393E-18,-0.015,0.0225));
#459=CARTESIAN_POINT('',(0.00125,-0.015,0.0298950997288745));
#460=CARTESIAN_POINT('',(0.00125,-0.015,0.0286181644558169));
#461=CARTESIAN_POINT('',(0.0074,-0.015,0.00375));
#462=CARTESIAN_POINT('',(0.0074,0.,0.00375));
#463=CARTESIAN_POINT('',(0.0074,0.,0.));
#464=CARTESIAN_POINT('',(0.0074,0.,0.0075));
#465=CARTESIAN_POINT('',(0.0074,-0.015,0.0075));
#466=CARTESIAN_POINT('',(0.0074,-0.015,0.));
#467=CARTESIAN_POINT('',(0.00865,-0.015,0.0075));
#468=CARTESIAN_POINT('',(0.00865,0.,0.0075));
#469=CARTESIAN_POINT('',(0.0099,0.,0.0075));
#470=CARTESIAN_POINT('',(0.0099,-0.015,0.0075));
#471=CARTESIAN_POINT('',(0.0074,-0.015,0.01));
#472=CARTESIAN_POINT('',(0.0074,0.,0.01));
#473=CARTESIAN_POINT('',(0.0049,0.,0.0125));
#474=CARTESIAN_POINT('',(0.0049,-0.015,0.0125));
#475=CARTESIAN_POINT('',(0.0049,-0.015,0.0146609860866843));
#476=CARTESIAN_POINT('',(0.0049,0.,0.0146609860866843));
#477=CARTESIAN_POINT('',(0.0049,0.,0.0168219721733687));
#478=CARTESIAN_POINT('',(0.0049,-0.015,0.0168219721733687));
#479=CARTESIAN_POINT('',(1.35356484286393E-18,-0.015,0.0225));
#480=CARTESIAN_POINT('',(1.35356484286393E-18,0.,0.0225));
#481=CARTESIAN_POINT('',(0.00125,8.470329472543E-22,0.0298950997288745));
#482=CARTESIAN_POINT('',(0.00125,2.00000000000027E-6,0.0298950997288745));
#483=CARTESIAN_POINT('',(-0.0049,-0.015,0.0146609860866843));
#484=CARTESIAN_POINT('',(-0.0049,0.,0.0146609860866843));
#485=CARTESIAN_POINT('',(-0.0049,0.,0.0125));
#486=CARTESIAN_POINT('',(-0.0049,-0.015,0.0125));
#487=CARTESIAN_POINT('',(-0.0074,-0.015,0.01));
#488=CARTESIAN_POINT('',(-0.0074,0.,0.01));
#489=CARTESIAN_POINT('',(-0.0099,0.,0.0075));
#490=CARTESIAN_POINT('',(-0.0099,-0.015,0.0075));
#491=CARTESIAN_POINT('',(-0.00865,-0.015,0.0075));
#492=CARTESIAN_POINT('',(-0.00865,0.,0.0075));
#493=CARTESIAN_POINT('',(-0.0074,0.,0.0075));
#494=CARTESIAN_POINT('',(-0.0074,-0.015,0.0075));
#495=CARTESIAN_POINT('',(-0.0074,-0.015,0.00375));
#496=CARTESIAN_POINT('',(-0.0074,0.,0.00375));
#497=CARTESIAN_POINT('',(-0.0074,0.,0.));
#498=CARTESIAN_POINT('',(-0.0074,-0.015,0.));
#499=CARTESIAN_POINT('',(0.,-0.015,0.));
#500=CARTESIAN_POINT('',(0.,0.,0.));
#501=CARTESIAN_POINT('',(0.,0.,0.015));
#502=CARTESIAN_POINT('',(-6.49474601924997E-18,0.,0.0225));
#503=CARTESIAN_POINT('',(0.00125,0.,0.0273412291827593));
#504=CARTESIAN_POINT('',(-0.00125,8.470329472543E-22,0.0273412291827593));
#505=CARTESIAN_POINT('',(0.00125,0.,0.0286181644558169));
#506=CARTESIAN_POINT('',(-0.00125,0.,0.0286181644558169));
#507=CARTESIAN_POINT('',(0.00125,2.00000000000027E-6,0.0286181644558169));
#508=CARTESIAN_POINT('',(0.00125,2.00000000000027E-6,0.0273412291827593));
#509=CARTESIAN_POINT('',(-6.49474601924997E-18,2.00000000000027E-6,0.0225));
#510=CARTESIAN_POINT('',(-0.00125,2.00000000000027E-6,0.0273412291827593));
#511=CARTESIAN_POINT('',(-0.00125,2.00000000000027E-6,0.0286181644558169));
#512=MECHANICAL_DESIGN_GEOMETRIC_PRESENTATION_REPRESENTATION('',(#309),
#513);
#513=(
GEOMETRIC_REPRESENTATION_CONTEXT(3)
GLOBAL_UNCERTAINTY_ASSIGNED_CONTEXT((#514))
GLOBAL_UNIT_ASSIGNED_CONTEXT((#517,#516,#515))
REPRESENTATION_CONTEXT('Passe-fil L15','TOP_LEVEL_ASSEMBLY_PART')
);
#514=UNCERTAINTY_MEASURE_WITH_UNIT(LENGTH_MEASURE(1.E-8),#517,
'DISTANCE_ACCURACY_VALUE','Maximum Tolerance applied to model');
#515=(
NAMED_UNIT(*)
SI_UNIT($,.STERADIAN.)
SOLID_ANGLE_UNIT()
);
#516=(
NAMED_UNIT(*)
PLANE_ANGLE_UNIT()
SI_UNIT($,.RADIAN.)
);
#517=(
LENGTH_UNIT()
NAMED_UNIT(*)
SI_UNIT($,.METRE.)
);
#518=PRODUCT_DEFINITION_SHAPE('','',#519);
#519=PRODUCT_DEFINITION('','',#521,#520);
#520=PRODUCT_DEFINITION_CONTEXT('',#527,'design');
#521=PRODUCT_DEFINITION_FORMATION_WITH_SPECIFIED_SOURCE('','',#523,
 .NOT_KNOWN.);
#522=PRODUCT_RELATED_PRODUCT_CATEGORY('','',(#523));
#523=PRODUCT('Passe-fil L15','Passe-fil L15','Passe-fil L15',(#525));
#524=PRODUCT_CATEGORY('','');
#525=PRODUCT_CONTEXT('',#527,'mechanical');
#526=APPLICATION_PROTOCOL_DEFINITION('international standard',
'ap242_managed_model_based_3d_engineering',2020,#527);
#527=APPLICATION_CONTEXT('managed model based 3d engineering');
ENDSEC;
END-ISO-10303-21;
