ISO-10303-21;
HEADER;
/* Generated by software containing ST-Developer
 * from STEP Tools, Inc. (www.steptools.com) 
 */
/* OPTION: using custom renumber hook */

FILE_DESCRIPTION(
/* description */ ('STEP AP242 Edition 2',
'CAx-IF Rec.Pracs.---Representation and Presentation of Product Manufa
cturing Information (PMI)---4.0---2014-10-13',
'CAx-IF Rec.Pracs.---3D Tessellated Geometry---0.4---2014-09-14','2;1',
'CAx-IF Rec.Pracs.---User Defined Attributes---1.5---2016-08-15'),
/* implementation_level */ '2;1');

FILE_NAME(
/* name */ 'Plaque - Plaque',
/* time_stamp */ '2026-04-15T18:39:51Z',
/* author */ (''),
/* organization */ (''),
/* preprocessor_version */ 'ST-DEVELOPER v20',
/* originating_system */ 'ONSHAPE BY PTC INC, 1.213',
/* authorisation */ '  ');

FILE_SCHEMA (('AP242_MANAGED_MODEL_BASED_3D_ENGINEERING_MIM_LF { 1 0 10303 442 3 1 4 }'));
ENDSEC;

DATA;
#10=SHAPE_REPRESENTATION_RELATIONSHIP('','',#576,#11);
#11=ADVANCED_BREP_SHAPE_REPRESENTATION('',(#574),#1068);
#12=TOROIDAL_SURFACE('',#623,0.065,0.0025);
#13=TOROIDAL_SURFACE('',#627,0.0175,0.0025);
#14=TOROIDAL_SURFACE('',#629,0.065,0.0025);
#15=TOROIDAL_SURFACE('',#635,0.0175,0.0025);
#16=SPHERICAL_SURFACE('',#616,0.0025);
#17=SPHERICAL_SURFACE('',#625,0.0025);
#18=SPHERICAL_SURFACE('',#637,0.0025);
#19=SPHERICAL_SURFACE('',#643,0.0025);
#20=PLANE('',#593);
#21=PLANE('',#600);
#22=PLANE('',#604);
#23=PLANE('',#605);
#24=PLANE('',#608);
#25=PLANE('',#611);
#26=PLANE('',#646);
#27=PLANE('',#651);
#28=PLANE('',#654);
#29=LINE('',#886,#56);
#30=LINE('',#891,#57);
#31=LINE('',#895,#58);
#32=LINE('',#925,#59);
#33=LINE('',#933,#60);
#34=LINE('',#941,#61);
#35=LINE('',#944,#62);
#36=LINE('',#946,#63);
#37=LINE('',#948,#64);
#38=LINE('',#959,#65);
#39=LINE('',#972,#66);
#40=LINE('',#978,#67);
#41=LINE('',#983,#68);
#42=LINE('',#984,#69);
#43=LINE('',#988,#70);
#44=LINE('',#991,#71);
#45=LINE('',#992,#72);
#46=LINE('',#996,#73);
#47=LINE('',#1000,#74);
#48=LINE('',#1002,#75);
#49=LINE('',#1003,#76);
#50=LINE('',#1005,#77);
#51=LINE('',#1007,#78);
#52=LINE('',#1013,#79);
#53=LINE('',#1015,#80);
#54=LINE('',#1018,#81);
#55=LINE('',#1019,#82);
#56=VECTOR('',#674,1.);
#57=VECTOR('',#677,1.);
#58=VECTOR('',#682,1.);
#59=VECTOR('',#687,1.);
#60=VECTOR('',#690,1.);
#61=VECTOR('',#695,1.);
#62=VECTOR('',#696,1.);
#63=VECTOR('',#697,1.);
#64=VECTOR('',#698,1.);
#65=VECTOR('',#703,1.);
#66=VECTOR('',#710,1.);
#67=VECTOR('',#717,1.);
#68=VECTOR('',#720,1.);
#69=VECTOR('',#721,1.);
#70=VECTOR('',#726,1.);
#71=VECTOR('',#727,1.);
#72=VECTOR('',#728,1.);
#73=VECTOR('',#733,1.);
#74=VECTOR('',#736,1.);
#75=VECTOR('',#737,1.);
#76=VECTOR('',#738,1.);
#77=VECTOR('',#741,1.);
#78=VECTOR('',#742,1.);
#79=VECTOR('',#747,1.);
#80=VECTOR('',#750,1.);
#81=VECTOR('',#751,1.);
#82=VECTOR('',#752,1.);
#83=CIRCLE('',#579,0.002375);
#84=CIRCLE('',#581,0.002375);
#85=CIRCLE('',#583,0.002375);
#86=CIRCLE('',#584,0.002375);
#87=CIRCLE('',#586,0.02);
#88=CIRCLE('',#587,0.02);
#89=CIRCLE('',#589,0.0675);
#90=CIRCLE('',#590,0.0675);
#91=CIRCLE('',#591,0.0675);
#92=CIRCLE('',#592,0.0675);
#93=CIRCLE('',#595,0.0625);
#94=CIRCLE('',#596,0.0625);
#95=CIRCLE('',#598,0.015);
#96=CIRCLE('',#599,0.015);
#97=CIRCLE('',#601,0.0075);
#98=CIRCLE('',#602,0.0025);
#99=CIRCLE('',#603,0.0025);
#100=CIRCLE('',#606,0.0075);
#101=CIRCLE('',#607,0.005);
#102=CIRCLE('',#609,0.0175);
#103=CIRCLE('',#610,0.065);
#104=CIRCLE('',#612,0.065);
#105=CIRCLE('',#613,0.0175);
#106=CIRCLE('',#615,0.0025);
#107=CIRCLE('',#617,0.0025);
#108=CIRCLE('',#618,0.0025);
#109=CIRCLE('',#620,0.0025);
#110=CIRCLE('',#622,0.0025);
#111=CIRCLE('',#624,0.0025);
#112=CIRCLE('',#626,0.0025);
#113=CIRCLE('',#628,0.0025);
#114=CIRCLE('',#630,0.0025);
#115=CIRCLE('',#632,0.0025);
#116=CIRCLE('',#634,0.0025);
#117=CIRCLE('',#636,0.0025);
#118=CIRCLE('',#638,0.0025);
#119=CIRCLE('',#640,0.0025);
#120=CIRCLE('',#642,0.0025);
#121=CIRCLE('',#644,0.0025);
#122=CIRCLE('',#647,0.005);
#123=CIRCLE('',#650,0.005);
#124=CIRCLE('',#653,0.005);
#125=ORIENTED_EDGE('',*,*,#279,.T.);
#126=ORIENTED_EDGE('',*,*,#280,.F.);
#127=ORIENTED_EDGE('',*,*,#281,.T.);
#128=ORIENTED_EDGE('',*,*,#282,.F.);
#129=ORIENTED_EDGE('',*,*,#283,.T.);
#130=ORIENTED_EDGE('',*,*,#284,.F.);
#131=ORIENTED_EDGE('',*,*,#285,.T.);
#132=ORIENTED_EDGE('',*,*,#286,.T.);
#133=ORIENTED_EDGE('',*,*,#287,.F.);
#134=ORIENTED_EDGE('',*,*,#288,.T.);
#135=ORIENTED_EDGE('',*,*,#289,.F.);
#136=ORIENTED_EDGE('',*,*,#290,.T.);
#137=ORIENTED_EDGE('',*,*,#291,.T.);
#138=ORIENTED_EDGE('',*,*,#287,.T.);
#139=ORIENTED_EDGE('',*,*,#292,.T.);
#140=ORIENTED_EDGE('',*,*,#293,.T.);
#141=ORIENTED_EDGE('',*,*,#294,.F.);
#142=ORIENTED_EDGE('',*,*,#295,.T.);
#143=ORIENTED_EDGE('',*,*,#296,.T.);
#144=ORIENTED_EDGE('',*,*,#297,.T.);
#145=ORIENTED_EDGE('',*,*,#298,.T.);
#146=ORIENTED_EDGE('',*,*,#299,.T.);
#147=ORIENTED_EDGE('',*,*,#300,.T.);
#148=ORIENTED_EDGE('',*,*,#301,.T.);
#149=ORIENTED_EDGE('',*,*,#302,.F.);
#150=ORIENTED_EDGE('',*,*,#303,.T.);
#151=ORIENTED_EDGE('',*,*,#281,.F.);
#152=ORIENTED_EDGE('',*,*,#279,.F.);
#153=ORIENTED_EDGE('',*,*,#302,.T.);
#154=ORIENTED_EDGE('',*,*,#304,.T.);
#155=ORIENTED_EDGE('',*,*,#305,.F.);
#156=ORIENTED_EDGE('',*,*,#306,.F.);
#157=ORIENTED_EDGE('',*,*,#307,.T.);
#158=ORIENTED_EDGE('',*,*,#308,.T.);
#159=ORIENTED_EDGE('',*,*,#309,.F.);
#160=ORIENTED_EDGE('',*,*,#310,.F.);
#161=ORIENTED_EDGE('',*,*,#311,.T.);
#162=ORIENTED_EDGE('',*,*,#306,.T.);
#163=ORIENTED_EDGE('',*,*,#312,.T.);
#164=ORIENTED_EDGE('',*,*,#283,.F.);
#165=ORIENTED_EDGE('',*,*,#313,.F.);
#166=ORIENTED_EDGE('',*,*,#314,.T.);
#167=ORIENTED_EDGE('',*,*,#315,.T.);
#168=ORIENTED_EDGE('',*,*,#310,.T.);
#169=ORIENTED_EDGE('',*,*,#316,.F.);
#170=ORIENTED_EDGE('',*,*,#317,.T.);
#171=ORIENTED_EDGE('',*,*,#318,.T.);
#172=ORIENTED_EDGE('',*,*,#319,.T.);
#173=ORIENTED_EDGE('',*,*,#313,.T.);
#174=ORIENTED_EDGE('',*,*,#320,.T.);
#175=ORIENTED_EDGE('',*,*,#321,.F.);
#176=ORIENTED_EDGE('',*,*,#322,.T.);
#177=ORIENTED_EDGE('',*,*,#323,.F.);
#178=ORIENTED_EDGE('',*,*,#324,.T.);
#179=ORIENTED_EDGE('',*,*,#325,.T.);
#180=ORIENTED_EDGE('',*,*,#285,.F.);
#181=ORIENTED_EDGE('',*,*,#326,.T.);
#182=ORIENTED_EDGE('',*,*,#315,.F.);
#183=ORIENTED_EDGE('',*,*,#327,.T.);
#184=ORIENTED_EDGE('',*,*,#328,.T.);
#185=ORIENTED_EDGE('',*,*,#329,.T.);
#186=ORIENTED_EDGE('',*,*,#330,.T.);
#187=ORIENTED_EDGE('',*,*,#331,.T.);
#188=ORIENTED_EDGE('',*,*,#307,.F.);
#189=ORIENTED_EDGE('',*,*,#311,.F.);
#190=ORIENTED_EDGE('',*,*,#332,.T.);
#191=ORIENTED_EDGE('',*,*,#333,.T.);
#192=ORIENTED_EDGE('',*,*,#316,.T.);
#193=ORIENTED_EDGE('',*,*,#309,.T.);
#194=ORIENTED_EDGE('',*,*,#305,.T.);
#195=ORIENTED_EDGE('',*,*,#334,.T.);
#196=ORIENTED_EDGE('',*,*,#335,.T.);
#197=ORIENTED_EDGE('',*,*,#336,.T.);
#198=ORIENTED_EDGE('',*,*,#337,.F.);
#199=ORIENTED_EDGE('',*,*,#334,.F.);
#200=ORIENTED_EDGE('',*,*,#304,.F.);
#201=ORIENTED_EDGE('',*,*,#301,.F.);
#202=ORIENTED_EDGE('',*,*,#338,.F.);
#203=ORIENTED_EDGE('',*,*,#337,.T.);
#204=ORIENTED_EDGE('',*,*,#339,.F.);
#205=ORIENTED_EDGE('',*,*,#308,.F.);
#206=ORIENTED_EDGE('',*,*,#331,.F.);
#207=ORIENTED_EDGE('',*,*,#340,.F.);
#208=ORIENTED_EDGE('',*,*,#303,.F.);
#209=ORIENTED_EDGE('',*,*,#339,.T.);
#210=ORIENTED_EDGE('',*,*,#300,.F.);
#211=ORIENTED_EDGE('',*,*,#341,.F.);
#212=ORIENTED_EDGE('',*,*,#297,.F.);
#213=ORIENTED_EDGE('',*,*,#338,.T.);
#214=ORIENTED_EDGE('',*,*,#296,.F.);
#215=ORIENTED_EDGE('',*,*,#292,.F.);
#216=ORIENTED_EDGE('',*,*,#342,.F.);
#217=ORIENTED_EDGE('',*,*,#335,.F.);
#218=ORIENTED_EDGE('',*,*,#341,.T.);
#219=ORIENTED_EDGE('',*,*,#340,.T.);
#220=ORIENTED_EDGE('',*,*,#343,.F.);
#221=ORIENTED_EDGE('',*,*,#342,.T.);
#222=ORIENTED_EDGE('',*,*,#286,.F.);
#223=ORIENTED_EDGE('',*,*,#344,.F.);
#224=ORIENTED_EDGE('',*,*,#336,.F.);
#225=ORIENTED_EDGE('',*,*,#343,.T.);
#226=ORIENTED_EDGE('',*,*,#330,.F.);
#227=ORIENTED_EDGE('',*,*,#345,.F.);
#228=ORIENTED_EDGE('',*,*,#291,.F.);
#229=ORIENTED_EDGE('',*,*,#298,.F.);
#230=ORIENTED_EDGE('',*,*,#344,.T.);
#231=ORIENTED_EDGE('',*,*,#325,.F.);
#232=ORIENTED_EDGE('',*,*,#346,.F.);
#233=ORIENTED_EDGE('',*,*,#332,.F.);
#234=ORIENTED_EDGE('',*,*,#317,.F.);
#235=ORIENTED_EDGE('',*,*,#333,.F.);
#236=ORIENTED_EDGE('',*,*,#347,.F.);
#237=ORIENTED_EDGE('',*,*,#320,.F.);
#238=ORIENTED_EDGE('',*,*,#345,.T.);
#239=ORIENTED_EDGE('',*,*,#329,.F.);
#240=ORIENTED_EDGE('',*,*,#348,.F.);
#241=ORIENTED_EDGE('',*,*,#288,.F.);
#242=ORIENTED_EDGE('',*,*,#347,.T.);
#243=ORIENTED_EDGE('',*,*,#346,.T.);
#244=ORIENTED_EDGE('',*,*,#349,.F.);
#245=ORIENTED_EDGE('',*,*,#348,.T.);
#246=ORIENTED_EDGE('',*,*,#328,.F.);
#247=ORIENTED_EDGE('',*,*,#350,.F.);
#248=ORIENTED_EDGE('',*,*,#326,.F.);
#249=ORIENTED_EDGE('',*,*,#349,.T.);
#250=ORIENTED_EDGE('',*,*,#324,.F.);
#251=ORIENTED_EDGE('',*,*,#322,.F.);
#252=ORIENTED_EDGE('',*,*,#351,.F.);
#253=ORIENTED_EDGE('',*,*,#318,.F.);
#254=ORIENTED_EDGE('',*,*,#351,.T.);
#255=ORIENTED_EDGE('',*,*,#350,.T.);
#256=ORIENTED_EDGE('',*,*,#352,.F.);
#257=ORIENTED_EDGE('',*,*,#314,.F.);
#258=ORIENTED_EDGE('',*,*,#319,.F.);
#259=ORIENTED_EDGE('',*,*,#352,.T.);
#260=ORIENTED_EDGE('',*,*,#327,.F.);
#261=ORIENTED_EDGE('',*,*,#353,.T.);
#262=ORIENTED_EDGE('',*,*,#284,.T.);
#263=ORIENTED_EDGE('',*,*,#353,.F.);
#264=ORIENTED_EDGE('',*,*,#323,.T.);
#265=ORIENTED_EDGE('',*,*,#354,.F.);
#266=ORIENTED_EDGE('',*,*,#299,.F.);
#267=ORIENTED_EDGE('',*,*,#290,.F.);
#268=ORIENTED_EDGE('',*,*,#282,.T.);
#269=ORIENTED_EDGE('',*,*,#289,.T.);
#270=ORIENTED_EDGE('',*,*,#354,.T.);
#271=ORIENTED_EDGE('',*,*,#355,.F.);
#272=ORIENTED_EDGE('',*,*,#293,.F.);
#273=ORIENTED_EDGE('',*,*,#295,.F.);
#274=ORIENTED_EDGE('',*,*,#280,.T.);
#275=ORIENTED_EDGE('',*,*,#294,.T.);
#276=ORIENTED_EDGE('',*,*,#355,.T.);
#277=ORIENTED_EDGE('',*,*,#321,.T.);
#278=ORIENTED_EDGE('',*,*,#312,.F.);
#279=EDGE_CURVE('',#356,#356,#404,.T.);
#280=EDGE_CURVE('',#357,#357,#83,.F.);
#281=EDGE_CURVE('',#358,#358,#405,.T.);
#282=EDGE_CURVE('',#359,#359,#84,.F.);
#283=EDGE_CURVE('',#360,#360,#85,.T.);
#284=EDGE_CURVE('',#361,#361,#86,.F.);
#285=EDGE_CURVE('',#362,#363,#29,.T.);
#286=EDGE_CURVE('',#363,#364,#87,.T.);
#287=EDGE_CURVE('',#365,#364,#30,.T.);
#288=EDGE_CURVE('',#365,#362,#88,.F.);
#289=EDGE_CURVE('',#366,#367,#31,.F.);
#290=EDGE_CURVE('',#366,#368,#406,.T.);
#291=EDGE_CURVE('',#368,#365,#89,.F.);
#292=EDGE_CURVE('',#364,#369,#90,.T.);
#293=EDGE_CURVE('',#369,#370,#407,.T.);
#294=EDGE_CURVE('',#371,#370,#32,.F.);
#295=EDGE_CURVE('',#371,#369,#408,.T.);
#296=EDGE_CURVE('',#369,#372,#91,.T.);
#297=EDGE_CURVE('',#372,#373,#33,.F.);
#298=EDGE_CURVE('',#373,#368,#92,.F.);
#299=EDGE_CURVE('',#368,#367,#409,.T.);
#300=EDGE_CURVE('',#374,#375,#34,.F.);
#301=EDGE_CURVE('',#375,#376,#35,.F.);
#302=EDGE_CURVE('',#377,#376,#36,.T.);
#303=EDGE_CURVE('',#377,#374,#37,.T.);
#304=EDGE_CURVE('',#376,#378,#410,.T.);
#305=EDGE_CURVE('',#379,#378,#93,.T.);
#306=EDGE_CURVE('',#380,#379,#38,.T.);
#307=EDGE_CURVE('',#380,#381,#94,.T.);
#308=EDGE_CURVE('',#381,#377,#411,.T.);
#309=EDGE_CURVE('',#382,#379,#95,.T.);
#310=EDGE_CURVE('',#383,#382,#39,.T.);
#311=EDGE_CURVE('',#383,#380,#96,.T.);
#312=EDGE_CURVE('',#384,#384,#97,.F.);
#313=EDGE_CURVE('',#385,#386,#40,.T.);
#314=EDGE_CURVE('',#385,#387,#98,.T.);
#315=EDGE_CURVE('',#387,#383,#41,.T.);
#316=EDGE_CURVE('',#388,#382,#42,.T.);
#317=EDGE_CURVE('',#388,#386,#99,.T.);
#318=EDGE_CURVE('',#389,#390,#43,.F.);
#319=EDGE_CURVE('',#390,#385,#44,.F.);
#320=EDGE_CURVE('',#386,#389,#45,.T.);
#321=EDGE_CURVE('',#391,#391,#100,.T.);
#322=EDGE_CURVE('',#392,#393,#46,.T.);
#323=EDGE_CURVE('',#393,#393,#101,.T.);
#324=EDGE_CURVE('',#393,#394,#47,.T.);
#325=EDGE_CURVE('',#394,#363,#48,.T.);
#326=EDGE_CURVE('',#362,#392,#49,.F.);
#327=EDGE_CURVE('',#387,#395,#50,.T.);
#328=EDGE_CURVE('',#395,#396,#51,.T.);
#329=EDGE_CURVE('',#396,#397,#102,.T.);
#330=EDGE_CURVE('',#397,#398,#103,.T.);
#331=EDGE_CURVE('',#398,#381,#52,.F.);
#332=EDGE_CURVE('',#399,#400,#53,.F.);
#333=EDGE_CURVE('',#400,#388,#54,.F.);
#334=EDGE_CURVE('',#378,#401,#55,.T.);
#335=EDGE_CURVE('',#401,#402,#104,.F.);
#336=EDGE_CURVE('',#402,#399,#105,.F.);
#337=EDGE_CURVE('',#401,#375,#106,.T.);
#338=EDGE_CURVE('',#401,#372,#107,.F.);
#339=EDGE_CURVE('',#372,#375,#108,.F.);
#340=EDGE_CURVE('',#374,#398,#109,.T.);
#341=EDGE_CURVE('',#373,#374,#110,.T.);
#342=EDGE_CURVE('',#402,#364,#111,.T.);
#343=EDGE_CURVE('',#373,#398,#112,.F.);
#344=EDGE_CURVE('',#399,#363,#113,.T.);
#345=EDGE_CURVE('',#365,#397,#114,.T.);
#346=EDGE_CURVE('',#400,#394,#115,.T.);
#347=EDGE_CURVE('',#389,#400,#116,.T.);
#348=EDGE_CURVE('',#362,#396,#117,.T.);
#349=EDGE_CURVE('',#389,#394,#118,.F.);
#350=EDGE_CURVE('',#392,#395,#119,.T.);
#351=EDGE_CURVE('',#390,#392,#120,.T.);
#352=EDGE_CURVE('',#390,#395,#121,.F.);
#353=EDGE_CURVE('',#403,#403,#122,.T.);
#354=EDGE_CURVE('',#367,#366,#123,.T.);
#355=EDGE_CURVE('',#370,#371,#124,.T.);
#356=VERTEX_POINT('',#858);
#357=VERTEX_POINT('',#860);
#358=VERTEX_POINT('',#877);
#359=VERTEX_POINT('',#879);
#360=VERTEX_POINT('',#882);
#361=VERTEX_POINT('',#884);
#362=VERTEX_POINT('',#887);
#363=VERTEX_POINT('',#888);
#364=VERTEX_POINT('',#890);
#365=VERTEX_POINT('',#892);
#366=VERTEX_POINT('',#896);
#367=VERTEX_POINT('',#897);
#368=VERTEX_POINT('',#909);
#369=VERTEX_POINT('',#912);
#370=VERTEX_POINT('',#924);
#371=VERTEX_POINT('',#926);
#372=VERTEX_POINT('',#932);
#373=VERTEX_POINT('',#934);
#374=VERTEX_POINT('',#942);
#375=VERTEX_POINT('',#943);
#376=VERTEX_POINT('',#945);
#377=VERTEX_POINT('',#947);
#378=VERTEX_POINT('',#956);
#379=VERTEX_POINT('',#958);
#380=VERTEX_POINT('',#960);
#381=VERTEX_POINT('',#962);
#382=VERTEX_POINT('',#971);
#383=VERTEX_POINT('',#973);
#384=VERTEX_POINT('',#977);
#385=VERTEX_POINT('',#979);
#386=VERTEX_POINT('',#980);
#387=VERTEX_POINT('',#982);
#388=VERTEX_POINT('',#985);
#389=VERTEX_POINT('',#989);
#390=VERTEX_POINT('',#990);
#391=VERTEX_POINT('',#995);
#392=VERTEX_POINT('',#997);
#393=VERTEX_POINT('',#998);
#394=VERTEX_POINT('',#1001);
#395=VERTEX_POINT('',#1006);
#396=VERTEX_POINT('',#1008);
#397=VERTEX_POINT('',#1010);
#398=VERTEX_POINT('',#1012);
#399=VERTEX_POINT('',#1016);
#400=VERTEX_POINT('',#1017);
#401=VERTEX_POINT('',#1020);
#402=VERTEX_POINT('',#1022);
#403=VERTEX_POINT('',#1058);
#404=B_SPLINE_CURVE_WITH_KNOTS('',3,(#843,#844,#845,#846,#847,#848,#849,
#850,#851,#852,#853,#854,#855,#856,#857),.UNSPECIFIED.,.T.,.F.,(1,1,1,1,
1,1,1,1,1,1,1,1,1,1,1,1,1,1,1),(-0.00408054053102616,-0.00306040539826962,
-0.00204027026551308,0.,0.00204027026551308,0.00306040539826962,0.00408054053102617,
0.00510067566378271,0.00612081079653925,0.00816108106205233,0.0102013513275654,
0.011221486460322,0.0122416215930785,0.013261756725835,0.0142818918585916,
0.0163221621241047,0.0183624323896177,0.0193825675223743,0.0204027026551308),
 .UNSPECIFIED.);
#405=B_SPLINE_CURVE_WITH_KNOTS('',3,(#862,#863,#864,#865,#866,#867,#868,
#869,#870,#871,#872,#873,#874,#875,#876),.UNSPECIFIED.,.T.,.F.,(1,1,1,1,
1,1,1,1,1,1,1,1,1,1,1,1,1,1,1),(-0.00408054053102608,-0.00306040539826956,
-0.00204027026551304,0.,0.00204027026551304,0.00306040539826956,0.00408054053102608,
0.0051006756637826,0.00612081079653912,0.00816108106205216,0.0102013513275652,
0.0112214864603217,0.0122416215930782,0.0132617567258348,0.0142818918585913,
0.0163221621241043,0.0183624323896174,0.0193825675223739,0.0204027026551304),
 .UNSPECIFIED.);
#406=B_SPLINE_CURVE_WITH_KNOTS('',3,(#898,#899,#900,#901,#902,#903,#904,
#905,#906,#907,#908),.UNSPECIFIED.,.F.,.F.,(4,1,1,1,1,1,1,1,4),(0.,0.00249741059209382,
0.00499482118418764,0.00749223177628145,0.00998964236837527,0.0124870529604691,
0.0149844635525629,0.0174818741446567,0.0199792847367505),.UNSPECIFIED.);
#407=B_SPLINE_CURVE_WITH_KNOTS('',3,(#913,#914,#915,#916,#917,#918,#919,
#920,#921,#922,#923),.UNSPECIFIED.,.F.,.F.,(4,1,1,1,1,1,1,1,4),(0.00329237477771104,
0.00578853139922372,0.0082846880207364,0.0107808446422491,0.0132770012637618,
0.0157731578852744,0.0182693145067871,0.0207654711282998,0.0232616277498125),
 .UNSPECIFIED.);
#408=B_SPLINE_CURVE_WITH_KNOTS('',3,(#927,#928,#929,#930),.UNSPECIFIED.,
 .F.,.F.,(4,4),(0.,0.00329237477771104),.UNSPECIFIED.);
#409=B_SPLINE_CURVE_WITH_KNOTS('',3,(#936,#937,#938,#939),.UNSPECIFIED.,
 .F.,.F.,(4,4),(0.0199792847367505,0.0232616277498123),.UNSPECIFIED.);
#410=B_SPLINE_CURVE_WITH_KNOTS('',3,(#950,#951,#952,#953,#954,#955),
 .UNSPECIFIED.,.F.,.F.,(4,1,1,4),(0.,0.00114362218566599,0.00228724437133198,
0.00457448874266397),.UNSPECIFIED.);
#411=B_SPLINE_CURVE_WITH_KNOTS('',3,(#963,#964,#965,#966,#967,#968),
 .UNSPECIFIED.,.F.,.F.,(4,1,1,4),(0.,0.00228346974776121,0.00342520462164182,
0.00456693949552242),.UNSPECIFIED.);
#412=EDGE_LOOP('',(#125));
#413=EDGE_LOOP('',(#126));
#414=EDGE_LOOP('',(#127));
#415=EDGE_LOOP('',(#128));
#416=EDGE_LOOP('',(#129));
#417=EDGE_LOOP('',(#130));
#418=EDGE_LOOP('',(#131,#132,#133,#134));
#419=EDGE_LOOP('',(#135,#136,#137,#138,#139,#140,#141,#142,#143,#144,#145,
#146));
#420=EDGE_LOOP('',(#147,#148,#149,#150));
#421=EDGE_LOOP('',(#151));
#422=EDGE_LOOP('',(#152));
#423=EDGE_LOOP('',(#153,#154,#155,#156,#157,#158));
#424=EDGE_LOOP('',(#159,#160,#161,#162));
#425=EDGE_LOOP('',(#163));
#426=EDGE_LOOP('',(#164));
#427=EDGE_LOOP('',(#165,#166,#167,#168,#169,#170));
#428=EDGE_LOOP('',(#171,#172,#173,#174));
#429=EDGE_LOOP('',(#175));
#430=EDGE_LOOP('',(#176,#177,#178,#179,#180,#181));
#431=EDGE_LOOP('',(#182,#183,#184,#185,#186,#187,#188,#189));
#432=EDGE_LOOP('',(#190,#191,#192,#193,#194,#195,#196,#197));
#433=EDGE_LOOP('',(#198,#199,#200,#201));
#434=EDGE_LOOP('',(#202,#203,#204));
#435=EDGE_LOOP('',(#205,#206,#207,#208));
#436=EDGE_LOOP('',(#209,#210,#211,#212));
#437=EDGE_LOOP('',(#213,#214,#215,#216,#217));
#438=EDGE_LOOP('',(#218,#219,#220));
#439=EDGE_LOOP('',(#221,#222,#223,#224));
#440=EDGE_LOOP('',(#225,#226,#227,#228,#229));
#441=EDGE_LOOP('',(#230,#231,#232,#233));
#442=EDGE_LOOP('',(#234,#235,#236,#237));
#443=EDGE_LOOP('',(#238,#239,#240,#241));
#444=EDGE_LOOP('',(#242,#243,#244));
#445=EDGE_LOOP('',(#245,#246,#247,#248));
#446=EDGE_LOOP('',(#249,#250,#251,#252,#253));
#447=EDGE_LOOP('',(#254,#255,#256));
#448=EDGE_LOOP('',(#257,#258,#259,#260));
#449=EDGE_LOOP('',(#261));
#450=EDGE_LOOP('',(#262));
#451=EDGE_LOOP('',(#263));
#452=EDGE_LOOP('',(#264));
#453=EDGE_LOOP('',(#265,#266,#267));
#454=EDGE_LOOP('',(#268));
#455=EDGE_LOOP('',(#269,#270));
#456=EDGE_LOOP('',(#271,#272,#273));
#457=EDGE_LOOP('',(#274));
#458=EDGE_LOOP('',(#275,#276));
#459=EDGE_LOOP('',(#277));
#460=EDGE_LOOP('',(#278));
#461=FACE_BOUND('',#412,.T.);
#462=FACE_BOUND('',#413,.T.);
#463=FACE_BOUND('',#414,.T.);
#464=FACE_BOUND('',#415,.T.);
#465=FACE_BOUND('',#416,.T.);
#466=FACE_BOUND('',#417,.T.);
#467=FACE_BOUND('',#418,.T.);
#468=FACE_BOUND('',#419,.T.);
#469=FACE_BOUND('',#420,.T.);
#470=FACE_BOUND('',#421,.T.);
#471=FACE_BOUND('',#422,.T.);
#472=FACE_BOUND('',#423,.T.);
#473=FACE_BOUND('',#424,.T.);
#474=FACE_BOUND('',#425,.T.);
#475=FACE_BOUND('',#426,.T.);
#476=FACE_BOUND('',#427,.T.);
#477=FACE_BOUND('',#428,.T.);
#478=FACE_BOUND('',#429,.T.);
#479=FACE_BOUND('',#430,.T.);
#480=FACE_BOUND('',#431,.T.);
#481=FACE_BOUND('',#432,.T.);
#482=FACE_BOUND('',#433,.T.);
#483=FACE_BOUND('',#434,.T.);
#484=FACE_BOUND('',#435,.T.);
#485=FACE_BOUND('',#436,.T.);
#486=FACE_BOUND('',#437,.T.);
#487=FACE_BOUND('',#438,.T.);
#488=FACE_BOUND('',#439,.T.);
#489=FACE_BOUND('',#440,.T.);
#490=FACE_BOUND('',#441,.T.);
#491=FACE_BOUND('',#442,.T.);
#492=FACE_BOUND('',#443,.T.);
#493=FACE_BOUND('',#444,.T.);
#494=FACE_BOUND('',#445,.T.);
#495=FACE_BOUND('',#446,.T.);
#496=FACE_BOUND('',#447,.T.);
#497=FACE_BOUND('',#448,.T.);
#498=FACE_BOUND('',#449,.T.);
#499=FACE_BOUND('',#450,.T.);
#500=FACE_BOUND('',#451,.T.);
#501=FACE_BOUND('',#452,.T.);
#502=FACE_BOUND('',#453,.T.);
#503=FACE_BOUND('',#454,.T.);
#504=FACE_BOUND('',#455,.T.);
#505=FACE_BOUND('',#456,.T.);
#506=FACE_BOUND('',#457,.T.);
#507=FACE_BOUND('',#458,.T.);
#508=FACE_BOUND('',#459,.T.);
#509=FACE_BOUND('',#460,.T.);
#510=CYLINDRICAL_SURFACE('',#578,0.002375);
#511=CYLINDRICAL_SURFACE('',#580,0.002375);
#512=CYLINDRICAL_SURFACE('',#582,0.002375);
#513=CYLINDRICAL_SURFACE('',#585,0.02);
#514=CYLINDRICAL_SURFACE('',#588,0.0675);
#515=CYLINDRICAL_SURFACE('',#594,0.0625);
#516=CYLINDRICAL_SURFACE('',#597,0.015);
#517=CYLINDRICAL_SURFACE('',#614,0.0025);
#518=CYLINDRICAL_SURFACE('',#619,0.0025);
#519=CYLINDRICAL_SURFACE('',#621,0.0025);
#520=CYLINDRICAL_SURFACE('',#631,0.0025);
#521=CYLINDRICAL_SURFACE('',#633,0.0025);
#522=CYLINDRICAL_SURFACE('',#639,0.0025);
#523=CYLINDRICAL_SURFACE('',#641,0.0025);
#524=CYLINDRICAL_SURFACE('',#645,0.0025);
#525=CYLINDRICAL_SURFACE('',#648,0.005);
#526=CYLINDRICAL_SURFACE('',#649,0.005);
#527=CYLINDRICAL_SURFACE('',#652,0.005);
#528=CYLINDRICAL_SURFACE('',#655,0.0075);
#529=ADVANCED_FACE('',(#461,#462),#510,.F.);
#530=ADVANCED_FACE('',(#463,#464),#511,.F.);
#531=ADVANCED_FACE('',(#465,#466),#512,.F.);
#532=ADVANCED_FACE('',(#467),#513,.T.);
#533=ADVANCED_FACE('',(#468),#514,.T.);
#534=ADVANCED_FACE('',(#469),#20,.T.);
#535=ADVANCED_FACE('',(#470,#471,#472),#515,.F.);
#536=ADVANCED_FACE('',(#473),#516,.F.);
#537=ADVANCED_FACE('',(#474,#475,#476),#21,.T.);
#538=ADVANCED_FACE('',(#477),#22,.F.);
#539=ADVANCED_FACE('',(#478,#479),#23,.F.);
#540=ADVANCED_FACE('',(#480),#24,.T.);
#541=ADVANCED_FACE('',(#481),#25,.F.);
#542=ADVANCED_FACE('',(#482),#517,.T.);
#543=ADVANCED_FACE('',(#483),#16,.T.);
#544=ADVANCED_FACE('',(#484),#518,.T.);
#545=ADVANCED_FACE('',(#485),#519,.T.);
#546=ADVANCED_FACE('',(#486),#12,.T.);
#547=ADVANCED_FACE('',(#487),#17,.T.);
#548=ADVANCED_FACE('',(#488),#13,.T.);
#549=ADVANCED_FACE('',(#489),#14,.T.);
#550=ADVANCED_FACE('',(#490),#520,.T.);
#551=ADVANCED_FACE('',(#491),#521,.T.);
#552=ADVANCED_FACE('',(#492),#15,.T.);
#553=ADVANCED_FACE('',(#493),#18,.T.);
#554=ADVANCED_FACE('',(#494),#522,.T.);
#555=ADVANCED_FACE('',(#495),#523,.T.);
#556=ADVANCED_FACE('',(#496),#19,.T.);
#557=ADVANCED_FACE('',(#497),#524,.T.);
#558=ADVANCED_FACE('',(#498,#499),#26,.T.);
#559=ADVANCED_FACE('',(#500,#501),#525,.F.);
#560=ADVANCED_FACE('',(#502),#526,.F.);
#561=ADVANCED_FACE('',(#503,#504),#27,.T.);
#562=ADVANCED_FACE('',(#505),#527,.F.);
#563=ADVANCED_FACE('',(#506,#507),#28,.T.);
#564=ADVANCED_FACE('',(#508,#509),#528,.F.);
#565=CLOSED_SHELL('',(#529,#530,#531,#532,#533,#534,#535,#536,#537,#538,
#539,#540,#541,#542,#543,#544,#545,#546,#547,#548,#549,#550,#551,#552,#553,
#554,#555,#556,#557,#558,#559,#560,#561,#562,#563,#564));
#566=STYLED_ITEM('',(#567),#574);
#567=PRESENTATION_STYLE_ASSIGNMENT((#568));
#568=SURFACE_STYLE_USAGE(.BOTH.,#569);
#569=SURFACE_SIDE_STYLE('',(#570));
#570=SURFACE_STYLE_FILL_AREA(#571);
#571=FILL_AREA_STYLE('',(#572));
#572=FILL_AREA_STYLE_COLOUR('',#573);
#573=COLOUR_RGB('',0.301960784313725,0.301960784313725,0.301960784313725);
#574=MANIFOLD_SOLID_BREP('Plaque',#565);
#575=SHAPE_DEFINITION_REPRESENTATION(#1073,#576);
#576=SHAPE_REPRESENTATION('Plaque',(#577),#1068);
#577=AXIS2_PLACEMENT_3D('',#841,#656,#657);
#578=AXIS2_PLACEMENT_3D('',#842,#658,#659);
#579=AXIS2_PLACEMENT_3D('',#859,#660,#661);
#580=AXIS2_PLACEMENT_3D('',#861,#662,#663);
#581=AXIS2_PLACEMENT_3D('',#878,#664,#665);
#582=AXIS2_PLACEMENT_3D('',#880,#666,#667);
#583=AXIS2_PLACEMENT_3D('',#881,#668,#669);
#584=AXIS2_PLACEMENT_3D('',#883,#670,#671);
#585=AXIS2_PLACEMENT_3D('',#885,#672,#673);
#586=AXIS2_PLACEMENT_3D('',#889,#675,#676);
#587=AXIS2_PLACEMENT_3D('',#893,#678,#679);
#588=AXIS2_PLACEMENT_3D('',#894,#680,#681);
#589=AXIS2_PLACEMENT_3D('',#910,#683,#684);
#590=AXIS2_PLACEMENT_3D('',#911,#685,#686);
#591=AXIS2_PLACEMENT_3D('',#931,#688,#689);
#592=AXIS2_PLACEMENT_3D('',#935,#691,#692);
#593=AXIS2_PLACEMENT_3D('',#940,#693,#694);
#594=AXIS2_PLACEMENT_3D('',#949,#699,#700);
#595=AXIS2_PLACEMENT_3D('',#957,#701,#702);
#596=AXIS2_PLACEMENT_3D('',#961,#704,#705);
#597=AXIS2_PLACEMENT_3D('',#969,#706,#707);
#598=AXIS2_PLACEMENT_3D('',#970,#708,#709);
#599=AXIS2_PLACEMENT_3D('',#974,#711,#712);
#600=AXIS2_PLACEMENT_3D('',#975,#713,#714);
#601=AXIS2_PLACEMENT_3D('',#976,#715,#716);
#602=AXIS2_PLACEMENT_3D('',#981,#718,#719);
#603=AXIS2_PLACEMENT_3D('',#986,#722,#723);
#604=AXIS2_PLACEMENT_3D('',#987,#724,#725);
#605=AXIS2_PLACEMENT_3D('',#993,#729,#730);
#606=AXIS2_PLACEMENT_3D('',#994,#731,#732);
#607=AXIS2_PLACEMENT_3D('',#999,#734,#735);
#608=AXIS2_PLACEMENT_3D('',#1004,#739,#740);
#609=AXIS2_PLACEMENT_3D('',#1009,#743,#744);
#610=AXIS2_PLACEMENT_3D('',#1011,#745,#746);
#611=AXIS2_PLACEMENT_3D('',#1014,#748,#749);
#612=AXIS2_PLACEMENT_3D('',#1021,#753,#754);
#613=AXIS2_PLACEMENT_3D('',#1023,#755,#756);
#614=AXIS2_PLACEMENT_3D('',#1024,#757,#758);
#615=AXIS2_PLACEMENT_3D('',#1025,#759,#760);
#616=AXIS2_PLACEMENT_3D('',#1026,#761,#762);
#617=AXIS2_PLACEMENT_3D('',#1027,#763,#764);
#618=AXIS2_PLACEMENT_3D('',#1028,#765,#766);
#619=AXIS2_PLACEMENT_3D('',#1029,#767,#768);
#620=AXIS2_PLACEMENT_3D('',#1030,#769,#770);
#621=AXIS2_PLACEMENT_3D('',#1031,#771,#772);
#622=AXIS2_PLACEMENT_3D('',#1032,#773,#774);
#623=AXIS2_PLACEMENT_3D('',#1033,#775,#776);
#624=AXIS2_PLACEMENT_3D('',#1034,#777,#778);
#625=AXIS2_PLACEMENT_3D('',#1035,#779,#780);
#626=AXIS2_PLACEMENT_3D('',#1036,#781,#782);
#627=AXIS2_PLACEMENT_3D('',#1037,#783,#784);
#628=AXIS2_PLACEMENT_3D('',#1038,#785,#786);
#629=AXIS2_PLACEMENT_3D('',#1039,#787,#788);
#630=AXIS2_PLACEMENT_3D('',#1040,#789,#790);
#631=AXIS2_PLACEMENT_3D('',#1041,#791,#792);
#632=AXIS2_PLACEMENT_3D('',#1042,#793,#794);
#633=AXIS2_PLACEMENT_3D('',#1043,#795,#796);
#634=AXIS2_PLACEMENT_3D('',#1044,#797,#798);
#635=AXIS2_PLACEMENT_3D('',#1045,#799,#800);
#636=AXIS2_PLACEMENT_3D('',#1046,#801,#802);
#637=AXIS2_PLACEMENT_3D('',#1047,#803,#804);
#638=AXIS2_PLACEMENT_3D('',#1048,#805,#806);
#639=AXIS2_PLACEMENT_3D('',#1049,#807,#808);
#640=AXIS2_PLACEMENT_3D('',#1050,#809,#810);
#641=AXIS2_PLACEMENT_3D('',#1051,#811,#812);
#642=AXIS2_PLACEMENT_3D('',#1052,#813,#814);
#643=AXIS2_PLACEMENT_3D('',#1053,#815,#816);
#644=AXIS2_PLACEMENT_3D('',#1054,#817,#818);
#645=AXIS2_PLACEMENT_3D('',#1055,#819,#820);
#646=AXIS2_PLACEMENT_3D('',#1056,#821,#822);
#647=AXIS2_PLACEMENT_3D('',#1057,#823,#824);
#648=AXIS2_PLACEMENT_3D('',#1059,#825,#826);
#649=AXIS2_PLACEMENT_3D('',#1060,#827,#828);
#650=AXIS2_PLACEMENT_3D('',#1061,#829,#830);
#651=AXIS2_PLACEMENT_3D('',#1062,#831,#832);
#652=AXIS2_PLACEMENT_3D('',#1063,#833,#834);
#653=AXIS2_PLACEMENT_3D('',#1064,#835,#836);
#654=AXIS2_PLACEMENT_3D('',#1065,#837,#838);
#655=AXIS2_PLACEMENT_3D('',#1066,#839,#840);
#656=DIRECTION('',(0.,0.,1.));
#657=DIRECTION('',(1.,0.,0.));
#658=DIRECTION('',(1.,0.,0.));
#659=DIRECTION('',(0.,0.,-1.));
#660=DIRECTION('',(1.,0.,0.));
#661=DIRECTION('',(0.,0.,-1.));
#662=DIRECTION('',(1.,0.,0.));
#663=DIRECTION('',(0.,0.,-1.));
#664=DIRECTION('',(1.,0.,0.));
#665=DIRECTION('',(0.,0.,-1.));
#666=DIRECTION('',(1.,0.,0.));
#667=DIRECTION('',(0.,0.,-1.));
#668=DIRECTION('',(-1.,0.,0.));
#669=DIRECTION('',(0.,0.,1.));
#670=DIRECTION('',(1.,0.,0.));
#671=DIRECTION('',(0.,0.,-1.));
#672=DIRECTION('',(0.,0.,-1.));
#673=DIRECTION('',(-1.,0.,0.));
#674=DIRECTION('',(0.,0.,-1.));
#675=DIRECTION('',(0.,0.,1.));
#676=DIRECTION('',(1.,0.,0.));
#677=DIRECTION('',(0.,0.,-1.));
#678=DIRECTION('',(0.,0.,1.));
#679=DIRECTION('',(1.,0.,0.));
#680=DIRECTION('',(0.,0.,-1.));
#681=DIRECTION('',(-1.,0.,0.));
#682=DIRECTION('',(0.,0.,-1.));
#683=DIRECTION('',(0.,0.,1.));
#684=DIRECTION('',(1.,0.,0.));
#685=DIRECTION('',(0.,0.,1.));
#686=DIRECTION('',(1.,0.,0.));
#687=DIRECTION('',(0.,0.,-1.));
#688=DIRECTION('',(0.,0.,1.));
#689=DIRECTION('',(1.,0.,0.));
#690=DIRECTION('',(0.,0.,-1.));
#691=DIRECTION('',(0.,0.,1.));
#692=DIRECTION('',(1.,0.,0.));
#693=DIRECTION('',(0.,1.,0.));
#694=DIRECTION('',(0.,0.,1.));
#695=DIRECTION('',(0.,0.,1.));
#696=DIRECTION('',(1.,0.,0.));
#697=DIRECTION('',(0.,0.,-1.));
#698=DIRECTION('',(1.,0.,0.));
#699=DIRECTION('',(0.,0.,-1.));
#700=DIRECTION('',(-1.,0.,0.));
#701=DIRECTION('',(0.,0.,1.));
#702=DIRECTION('',(1.,0.,0.));
#703=DIRECTION('',(0.,0.,-1.));
#704=DIRECTION('',(0.,0.,1.));
#705=DIRECTION('',(1.,0.,0.));
#706=DIRECTION('',(0.,0.,-1.));
#707=DIRECTION('',(-1.,0.,0.));
#708=DIRECTION('',(0.,0.,1.));
#709=DIRECTION('',(1.,0.,0.));
#710=DIRECTION('',(0.,0.,-1.));
#711=DIRECTION('',(0.,0.,1.));
#712=DIRECTION('',(1.,0.,0.));
#713=DIRECTION('',(-1.,0.,0.));
#714=DIRECTION('',(0.,0.,1.));
#715=DIRECTION('',(-1.,0.,0.));
#716=DIRECTION('',(0.,0.,1.));
#717=DIRECTION('',(0.,0.,-1.));
#718=DIRECTION('',(-1.,0.,0.));
#719=DIRECTION('',(0.,0.,1.));
#720=DIRECTION('',(0.,1.,0.));
#721=DIRECTION('',(0.,1.,0.));
#722=DIRECTION('',(-1.,0.,0.));
#723=DIRECTION('',(0.,0.,1.));
#724=DIRECTION('',(0.,1.,0.));
#725=DIRECTION('',(0.,0.,1.));
#726=DIRECTION('',(0.,0.,-1.));
#727=DIRECTION('',(1.,0.,0.));
#728=DIRECTION('',(1.,0.,0.));
#729=DIRECTION('',(-1.,0.,0.));
#730=DIRECTION('',(0.,0.,1.));
#731=DIRECTION('',(1.,0.,0.));
#732=DIRECTION('',(0.,0.,-1.));
#733=DIRECTION('',(0.,0.,-1.));
#734=DIRECTION('',(1.,0.,0.));
#735=DIRECTION('',(0.,0.,-1.));
#736=DIRECTION('',(0.,0.,-1.));
#737=DIRECTION('',(0.,1.,0.));
#738=DIRECTION('',(0.,1.,0.));
#739=DIRECTION('',(0.,0.,1.));
#740=DIRECTION('',(1.,0.,0.));
#741=DIRECTION('',(1.,0.,0.));
#742=DIRECTION('',(0.,1.,0.));
#743=DIRECTION('',(0.,0.,1.));
#744=DIRECTION('',(1.,0.,0.));
#745=DIRECTION('',(0.,0.,1.));
#746=DIRECTION('',(1.,0.,0.));
#747=DIRECTION('',(1.,0.,0.));
#748=DIRECTION('',(0.,0.,1.));
#749=DIRECTION('',(1.,0.,0.));
#750=DIRECTION('',(0.,1.,0.));
#751=DIRECTION('',(1.,0.,0.));
#752=DIRECTION('',(1.,0.,0.));
#753=DIRECTION('',(0.,0.,1.));
#754=DIRECTION('',(1.,0.,0.));
#755=DIRECTION('',(0.,0.,1.));
#756=DIRECTION('',(1.,0.,0.));
#757=DIRECTION('',(-1.,0.,0.));
#758=DIRECTION('',(0.,0.,1.));
#759=DIRECTION('',(1.,6.93889390390722E-16,0.));
#760=DIRECTION('',(-6.93889390390722E-16,1.,0.));
#761=DIRECTION('',(-2.77555756156289E-15,0.,-1.));
#762=DIRECTION('',(-1.,0.,2.77555756156289E-15));
#763=DIRECTION('',(-0.615384650843353,0.788226954313543,1.2810266406885E-15));
#764=DIRECTION('',(-0.788226954313543,-0.615384650843353,0.));
#765=DIRECTION('',(1.10039593703539E-15,0.,-1.));
#766=DIRECTION('',(-1.,0.,-1.10039593703539E-15));
#767=DIRECTION('',(1.,0.,0.));
#768=DIRECTION('',(0.,0.,-1.));
#769=DIRECTION('',(1.,0.,-6.93889390390722E-16));
#770=DIRECTION('',(-6.93889390390722E-16,0.,-1.));
#771=DIRECTION('',(0.,0.,-1.));
#772=DIRECTION('',(-1.,0.,0.));
#773=DIRECTION('',(0.,0.,1.));
#774=DIRECTION('',(1.,0.,0.));
#775=DIRECTION('',(0.,0.,1.));
#776=DIRECTION('',(1.,0.,0.));
#777=DIRECTION('',(0.320145438210979,-0.947368406900241,0.));
#778=DIRECTION('',(0.947368406900241,0.320145438210979,0.));
#779=DIRECTION('',(-2.77555756156289E-15,0.,1.));
#780=DIRECTION('',(1.,0.,2.77555756156289E-15));
#781=DIRECTION('',(-0.615384650843352,0.788226954313544,0.));
#782=DIRECTION('',(-0.788226954313544,-0.615384650843352,0.));
#783=DIRECTION('',(0.,0.,1.));
#784=DIRECTION('',(1.,0.,0.));
#785=DIRECTION('',(0.,-1.,0.));
#786=DIRECTION('',(0.,0.,-1.));
#787=DIRECTION('',(0.,0.,1.));
#788=DIRECTION('',(1.,0.,0.));
#789=DIRECTION('',(0.320145438210979,-0.947368406900241,-3.62062785891068E-15));
#790=DIRECTION('',(0.947368406900241,0.320145438210979,0.));
#791=DIRECTION('',(0.,1.,0.));
#792=DIRECTION('',(0.,0.,1.));
#793=DIRECTION('',(8.67361737988404E-16,-1.,0.));
#794=DIRECTION('',(1.,8.67361737988404E-16,0.));
#795=DIRECTION('',(1.,0.,0.));
#796=DIRECTION('',(0.,0.,-1.));
#797=DIRECTION('',(1.,0.,0.));
#798=DIRECTION('',(0.,0.,-1.));
#799=DIRECTION('',(0.,0.,1.));
#800=DIRECTION('',(1.,0.,0.));
#801=DIRECTION('',(0.,-1.,0.));
#802=DIRECTION('',(0.,0.,-1.));
#803=DIRECTION('',(0.,0.,-1.));
#804=DIRECTION('',(-1.,0.,0.));
#805=DIRECTION('',(0.,0.,-1.));
#806=DIRECTION('',(-1.,0.,0.));
#807=DIRECTION('',(0.,-1.,0.));
#808=DIRECTION('',(0.,0.,-1.));
#809=DIRECTION('',(0.,-1.,0.));
#810=DIRECTION('',(0.,0.,-1.));
#811=DIRECTION('',(0.,0.,-1.));
#812=DIRECTION('',(-1.,0.,0.));
#813=DIRECTION('',(0.,0.,1.));
#814=DIRECTION('',(1.,0.,0.));
#815=DIRECTION('',(1.,8.67361737988404E-16,0.));
#816=DIRECTION('',(-8.67361737988404E-16,1.,0.));
#817=DIRECTION('',(1.,1.7347234759768E-16,0.));
#818=DIRECTION('',(-1.7347234759768E-16,1.,0.));
#819=DIRECTION('',(-1.,0.,0.));
#820=DIRECTION('',(0.,0.,1.));
#821=DIRECTION('',(1.,0.,0.));
#822=DIRECTION('',(0.,1.,0.));
#823=DIRECTION('',(1.,0.,0.));
#824=DIRECTION('',(0.,0.,-1.));
#825=DIRECTION('',(1.,0.,0.));
#826=DIRECTION('',(0.,0.,-1.));
#827=DIRECTION('',(1.,0.,0.));
#828=DIRECTION('',(0.,0.,-1.));
#829=DIRECTION('',(1.,0.,0.));
#830=DIRECTION('',(0.,0.,-1.));
#831=DIRECTION('',(1.,0.,0.));
#832=DIRECTION('',(0.,1.,0.));
#833=DIRECTION('',(1.,0.,0.));
#834=DIRECTION('',(0.,0.,-1.));
#835=DIRECTION('',(1.,0.,0.));
#836=DIRECTION('',(0.,0.,-1.));
#837=DIRECTION('',(1.,0.,0.));
#838=DIRECTION('',(0.,1.,0.));
#839=DIRECTION('',(1.,0.,0.));
#840=DIRECTION('',(0.,0.,-1.));
#841=CARTESIAN_POINT('',(0.,0.,0.));
#842=CARTESIAN_POINT('',(-0.02,0.0885,0.0075));
#843=CARTESIAN_POINT('',(-0.00920478477875152,0.0899232958770076,0.00543029521984627));
#844=CARTESIAN_POINT('',(-0.00820701801092278,0.0885052140519962,0.00492059858777853));
#845=CARTESIAN_POINT('',(-0.00727022590162379,0.0870610619670038,0.00543290901681813));
#846=CARTESIAN_POINT('',(-0.00678080467605371,0.0862725278368657,0.00648623633795844));
#847=CARTESIAN_POINT('',(-0.00664380276260431,0.0860477140620498,0.00751860003206793));
#848=CARTESIAN_POINT('',(-0.00678967317826585,0.0862870101417854,0.00854536027811653));
#849=CARTESIAN_POINT('',(-0.00729216259934002,0.0870958887764784,0.00959355013713958));
#850=CARTESIAN_POINT('',(-0.00824182483197082,0.0885566460096577,0.0100778270785046));
#851=CARTESIAN_POINT('',(-0.00922909961629139,0.0899568784540262,0.00954588012231693));
#852=CARTESIAN_POINT('',(-0.00979548711345688,0.0907268387963775,0.0085115227456865));
#853=CARTESIAN_POINT('',(-0.00996514724215349,0.0909533088652987,0.00748052845478768));
#854=CARTESIAN_POINT('',(-0.00978254291072774,0.0907094574462402,0.00645083758506044));
#855=CARTESIAN_POINT('',(-0.00920478477875152,0.0899232958770076,0.00543029521984627));
#856=CARTESIAN_POINT('',(-0.00820701801092278,0.0885052140519962,0.00492059858777853));
#857=CARTESIAN_POINT('',(-0.00727022590162379,0.0870610619670038,0.00543290901681813));
#858=CARTESIAN_POINT('',(-0.00821921294262873,0.0885,0.005125));
#859=CARTESIAN_POINT('',(-0.004,0.0885,0.0075));
#860=CARTESIAN_POINT('',(-0.004,0.0885,0.005125));
#861=CARTESIAN_POINT('',(-0.02,0.0885,0.0705));
#862=CARTESIAN_POINT('',(-0.00920478477875151,0.0899232958770076,0.0684302952198463));
#863=CARTESIAN_POINT('',(-0.00820701801092278,0.0885052140519962,0.0679205985877786));
#864=CARTESIAN_POINT('',(-0.0072702259016238,0.0870610619670037,0.0684329090168181));
#865=CARTESIAN_POINT('',(-0.00678080467605372,0.0862725278368657,0.0694862363379584));
#866=CARTESIAN_POINT('',(-0.00664380276260431,0.0860477140620497,0.0705186000320679));
#867=CARTESIAN_POINT('',(-0.00678967317826583,0.0862870101417854,0.0715453602781165));
#868=CARTESIAN_POINT('',(-0.00729216259934002,0.0870958887764785,0.0725935501371396));
#869=CARTESIAN_POINT('',(-0.00824182483197082,0.0885566460096577,0.0730778270785046));
#870=CARTESIAN_POINT('',(-0.00922909961629141,0.0899568784540262,0.0725458801223169));
#871=CARTESIAN_POINT('',(-0.00979548711345686,0.0907268387963775,0.0715115227456865));
#872=CARTESIAN_POINT('',(-0.0099651472421535,0.0909533088652987,0.0704805284547877));
#873=CARTESIAN_POINT('',(-0.00978254291072774,0.0907094574462402,0.0694508375850604));
#874=CARTESIAN_POINT('',(-0.00920478477875151,0.0899232958770076,0.0684302952198463));
#875=CARTESIAN_POINT('',(-0.00820701801092278,0.0885052140519962,0.0679205985877786));
#876=CARTESIAN_POINT('',(-0.0072702259016238,0.0870610619670037,0.0684329090168181));
#877=CARTESIAN_POINT('',(-0.00821921294262873,0.0885,0.068125));
#878=CARTESIAN_POINT('',(-0.004,0.0885,0.0705));
#879=CARTESIAN_POINT('',(-0.004,0.0885,0.068125));
#880=CARTESIAN_POINT('',(-0.02,0.0075,0.039));
#881=CARTESIAN_POINT('',(0.,0.0075,0.039));
#882=CARTESIAN_POINT('',(0.,0.0075,0.041375));
#883=CARTESIAN_POINT('',(0.0025,0.0075,0.039));
#884=CARTESIAN_POINT('',(0.0025,0.0075,0.036625));
#885=CARTESIAN_POINT('',(-0.015,0.0687069060102037,0.078));
#886=CARTESIAN_POINT('',(0.005,0.0687069060102037,0.078));
#887=CARTESIAN_POINT('',(0.005,0.0687069060102037,0.0755));
#888=CARTESIAN_POINT('',(0.005,0.0687069060102037,0.0025));
#889=CARTESIAN_POINT('',(-0.015,0.0687069060102037,0.0025));
#890=CARTESIAN_POINT('',(0.00394736813800485,0.0751098147744233,0.0025));
#891=CARTESIAN_POINT('',(0.00394736813800485,0.0751098147744233,0.078));
#892=CARTESIAN_POINT('',(0.00394736813800485,0.0751098147744233,0.0755));
#893=CARTESIAN_POINT('',(-0.015,0.0687069060102037,0.0755));
#894=CARTESIAN_POINT('',(-0.0599999993277615,0.0534999976951821,0.078));
#895=CARTESIAN_POINT('',(-0.004,0.0911862030665208,0.078));
#896=CARTESIAN_POINT('',(-0.004,0.0911862030665208,0.0662828548655027));
#897=CARTESIAN_POINT('',(-0.004,0.0911862030665208,0.0747171451344973));
#898=CARTESIAN_POINT('',(-0.004,0.0911862030665208,0.0662828548655027));
#899=CARTESIAN_POINT('',(-0.00358142925259135,0.0905642258379158,0.0658866728310933));
#900=CARTESIAN_POINT('',(-0.00270238509099417,0.0892125728052841,0.0653987059886044));
#901=CARTESIAN_POINT('',(-0.00138619944970321,0.0870078427922311,0.0655557568900481));
#902=CARTESIAN_POINT('',(-0.000280084632456942,0.0849820871312212,0.0666899853971367));
#903=CARTESIAN_POINT('',(0.00042744024220732,0.08358326776051,0.0687629091494101));
#904=CARTESIAN_POINT('',(0.000538377326994654,0.0833552192207827,0.0713875886242207));
#905=CARTESIAN_POINT('',(9.01813394622232E-6,0.0844217771902147,0.0737239876500787));
#906=CARTESIAN_POINT('',(-0.00099990445869325,0.0863206083648625,0.075190475548669));
#907=CARTESIAN_POINT('',(-0.0018479737361155,0.087782586082648,0.0755));
#908=CARTESIAN_POINT('',(-0.00228301882234392,0.0884999999999999,0.0755));
#909=CARTESIAN_POINT('',(-0.00228301882234368,0.0885,0.0755));
#910=CARTESIAN_POINT('',(-0.0599999993277615,0.0534999976951821,0.0755));
#911=CARTESIAN_POINT('',(-0.0599999993277615,0.0534999976951821,0.0025));
#912=CARTESIAN_POINT('',(-0.00228301882234368,0.0885,0.00249999999999995));
#913=CARTESIAN_POINT('',(-0.00228301882234393,0.0884999999999998,0.0025));
#914=CARTESIAN_POINT('',(-0.00184939486572663,0.0877849296056382,0.00250000000000002));
#915=CARTESIAN_POINT('',(-0.00100470462545482,0.086328786296683,0.00280930274932364));
#916=CARTESIAN_POINT('',(-3.49201007415519E-6,0.0844460249082497,0.00425030425114696));
#917=CARTESIAN_POINT('',(0.000534339816160671,0.0833636080743266,0.00657108435233491));
#918=CARTESIAN_POINT('',(0.000435767932005365,0.0835663197207165,0.0091938561933068));
#919=CARTESIAN_POINT('',(-0.000270189712793773,0.0849634290689416,0.0112973226461441));
#920=CARTESIAN_POINT('',(-0.00137928604462392,0.0869958539536907,0.0124410236177271));
#921=CARTESIAN_POINT('',(-0.00269683160116742,0.0892038830859092,0.0126037252082923));
#922=CARTESIAN_POINT('',(-0.0035809570801953,0.090563524211058,0.012113774085519));
#923=CARTESIAN_POINT('',(-0.004,0.0911862030665209,0.0117171451344973));
#924=CARTESIAN_POINT('',(-0.004,0.0911862030665208,0.0117171451344973));
#925=CARTESIAN_POINT('',(-0.004,0.0911862030665208,0.078));
#926=CARTESIAN_POINT('',(-0.004,0.0911862030665208,0.00328285486550272));
#927=CARTESIAN_POINT('',(-0.004,0.0911862030665208,0.00328285486550272));
#928=CARTESIAN_POINT('',(-0.00344819174875825,0.0903662409240311,0.00276056199880263));
#929=CARTESIAN_POINT('',(-0.00285495912667985,0.0894431618634799,0.00249999999999997));
#930=CARTESIAN_POINT('',(-0.00228301882234393,0.0884999999999998,0.0025));
#931=CARTESIAN_POINT('',(-0.0599999993277615,0.0534999976951821,0.0025));
#932=CARTESIAN_POINT('',(-0.00679467991159722,0.0950384616271084,0.0025));
#933=CARTESIAN_POINT('',(-0.00679467991159722,0.0950384616271084,0.078));
#934=CARTESIAN_POINT('',(-0.00679467991159722,0.0950384616271084,0.0755));
#935=CARTESIAN_POINT('',(-0.0599999993277615,0.0534999976951821,0.0755));
#936=CARTESIAN_POINT('',(-0.00228301882234392,0.0884999999999998,0.0755));
#937=CARTESIAN_POINT('',(-0.00285479792973991,0.089442896040622,0.0755));
#938=CARTESIAN_POINT('',(-0.00344897584224485,0.0903674060515436,0.0752386958476794));
#939=CARTESIAN_POINT('',(-0.004,0.0911862030665208,0.0747171451344973));
#940=CARTESIAN_POINT('',(-0.0108669016514986,0.096,0.078));
#941=CARTESIAN_POINT('',(-0.00876524729738109,0.096,0.));
#942=CARTESIAN_POINT('',(-0.00876524729738109,0.096,0.0755));
#943=CARTESIAN_POINT('',(-0.00876524729738109,0.096,0.0025));
#944=CARTESIAN_POINT('',(-0.0141742445157512,0.096,0.0025));
#945=CARTESIAN_POINT('',(-0.0141742445157512,0.096,0.0025));
#946=CARTESIAN_POINT('',(-0.0141742445157512,0.096,0.078));
#947=CARTESIAN_POINT('',(-0.0141742445157512,0.096,0.0755));
#948=CARTESIAN_POINT('',(-0.0108669016514986,0.096,0.0755));
#949=CARTESIAN_POINT('',(-0.0599999993277614,0.0534999976951821,0.078));
#950=CARTESIAN_POINT('',(-0.0141742445157512,0.096,0.0025));
#951=CARTESIAN_POINT('',(-0.0141742445157512,0.096,0.00211222346075787));
#952=CARTESIAN_POINT('',(-0.0140000365779649,0.0958129539113663,0.00136204718188905));
#953=CARTESIAN_POINT('',(-0.0132230814109056,0.0949598132100141,0.000298459833120146));
#954=CARTESIAN_POINT('',(-0.0124692148632392,0.0940914630070243,8.52846709499728E-20));
#955=CARTESIAN_POINT('',(-0.0119765694667596,0.0935,8.52846709499728E-20));
#956=CARTESIAN_POINT('',(-0.0119765694667596,0.0935,0.));
#957=CARTESIAN_POINT('',(-0.0599999993277614,0.0534999976951821,0.));
#958=CARTESIAN_POINT('',(-0.000789473896496355,0.0735090875833684,0.));
#959=CARTESIAN_POINT('',(-0.000789473896496355,0.0735090875833684,0.078));
#960=CARTESIAN_POINT('',(-0.000789473896496355,0.0735090875833684,0.078));
#961=CARTESIAN_POINT('',(-0.0599999993277614,0.0534999976951821,0.078));
#962=CARTESIAN_POINT('',(-0.0119765694667596,0.0935,0.078));
#963=CARTESIAN_POINT('',(-0.0119765694667596,0.0935,0.078));
#964=CARTESIAN_POINT('',(-0.0124692444559128,0.0940914985355643,0.078));
#965=CARTESIAN_POINT('',(-0.0132203326233415,0.0949567158902284,0.0777032872320455));
#966=CARTESIAN_POINT('',(-0.01399953103241,0.0958124231349453,0.0766400147112892));
#967=CARTESIAN_POINT('',(-0.0141742445157512,0.096,0.0758877236268668));
#968=CARTESIAN_POINT('',(-0.0141742445157512,0.096,0.0755));
#969=CARTESIAN_POINT('',(-0.015,0.0687069060102037,0.078));
#970=CARTESIAN_POINT('',(-0.015,0.0687069060102037,0.));
#971=CARTESIAN_POINT('',(0.,0.0687069060102037,0.));
#972=CARTESIAN_POINT('',(0.,0.0687069060102037,0.078));
#973=CARTESIAN_POINT('',(0.,0.0687069060102037,0.078));
#974=CARTESIAN_POINT('',(-0.015,0.0687069060102037,0.078));
#975=CARTESIAN_POINT('',(0.,0.0343534530051018,0.078));
#976=CARTESIAN_POINT('',(0.,0.0375,0.03));
#977=CARTESIAN_POINT('',(0.,0.0375,0.0375));
#978=CARTESIAN_POINT('',(0.,0.,0.078));
#979=CARTESIAN_POINT('',(0.,0.,0.0755));
#980=CARTESIAN_POINT('',(0.,0.,0.0025));
#981=CARTESIAN_POINT('',(0.,0.0025,0.0755));
#982=CARTESIAN_POINT('',(0.,0.0025,0.078));
#983=CARTESIAN_POINT('',(0.,0.0343534530051018,0.078));
#984=CARTESIAN_POINT('',(0.,0.0343534530051018,0.));
#985=CARTESIAN_POINT('',(0.,0.0025,0.));
#986=CARTESIAN_POINT('',(0.,0.0025,0.0025));
#987=CARTESIAN_POINT('',(0.0025,0.,0.078));
#988=CARTESIAN_POINT('',(0.0025,0.,0.078));
#989=CARTESIAN_POINT('',(0.0025,0.,0.0025));
#990=CARTESIAN_POINT('',(0.0025,0.,0.0755));
#991=CARTESIAN_POINT('',(0.,0.,0.0755));
#992=CARTESIAN_POINT('',(0.0025,0.,0.0025));
#993=CARTESIAN_POINT('',(0.005,0.0343534530051018,0.078));
#994=CARTESIAN_POINT('',(0.005,0.0375,0.03));
#995=CARTESIAN_POINT('',(0.005,0.0375,0.0225));
#996=CARTESIAN_POINT('',(0.005,0.0025,0.078));
#997=CARTESIAN_POINT('',(0.005,0.0025,0.0755));
#998=CARTESIAN_POINT('',(0.005,0.0025,0.039));
#999=CARTESIAN_POINT('',(0.005,0.0075,0.039));
#1000=CARTESIAN_POINT('',(0.005,0.0025,0.078));
#1001=CARTESIAN_POINT('',(0.005,0.0025,0.0025));
#1002=CARTESIAN_POINT('',(0.005,0.0343534530051018,0.0025));
#1003=CARTESIAN_POINT('',(0.005,0.,0.0755));
#1004=CARTESIAN_POINT('',(-0.007189905,0.0505,0.078));
#1005=CARTESIAN_POINT('',(0.005,0.0025,0.078));
#1006=CARTESIAN_POINT('',(0.0025,0.0025,0.078));
#1007=CARTESIAN_POINT('',(0.0025,0.0687069060102037,0.078));
#1008=CARTESIAN_POINT('',(0.0025,0.0687069060102037,0.078));
#1009=CARTESIAN_POINT('',(-0.015,0.0687069060102037,0.078));
#1010=CARTESIAN_POINT('',(0.00157894712075425,0.0743094511788959,0.078));
#1011=CARTESIAN_POINT('',(-0.0599999993277615,0.0534999976951821,0.078));
#1012=CARTESIAN_POINT('',(-0.00876524729738109,0.0935,0.078));
#1013=CARTESIAN_POINT('',(-0.007189905,0.0935,0.078));
#1014=CARTESIAN_POINT('',(-0.007189905,0.0505,0.));
#1015=CARTESIAN_POINT('',(0.0025,0.0505,0.));
#1016=CARTESIAN_POINT('',(0.0025,0.0687069060102037,0.));
#1017=CARTESIAN_POINT('',(0.0025,0.0025,0.));
#1018=CARTESIAN_POINT('',(-0.007189905,0.0025,0.));
#1019=CARTESIAN_POINT('',(-0.00755955878717792,0.0935,0.));
#1020=CARTESIAN_POINT('',(-0.00876524729738109,0.0935,0.));
#1021=CARTESIAN_POINT('',(-0.0599999993277615,0.0534999976951821,0.));
#1022=CARTESIAN_POINT('',(0.00157894712075425,0.0743094511788959,0.));
#1023=CARTESIAN_POINT('',(-0.015,0.0687069060102037,0.));
#1024=CARTESIAN_POINT('',(-0.007189905,0.0935,0.0025));
#1025=CARTESIAN_POINT('',(-0.00876524729738109,0.0935,0.0025));
#1026=CARTESIAN_POINT('',(-0.00876524729738108,0.0935,0.0025));
#1027=CARTESIAN_POINT('',(-0.00876524729738108,0.0935,0.0025));
#1028=CARTESIAN_POINT('',(-0.00876524729738109,0.0935,0.0025));
#1029=CARTESIAN_POINT('',(-0.0108669016514986,0.0935,0.0755));
#1030=CARTESIAN_POINT('',(-0.00876524729738109,0.0935,0.0755));
#1031=CARTESIAN_POINT('',(-0.00876524729738109,0.0935,0.078));
#1032=CARTESIAN_POINT('',(-0.00876524729738108,0.0935,0.0755));
#1033=CARTESIAN_POINT('',(-0.0599999993277615,0.0534999976951821,0.0025));
#1034=CARTESIAN_POINT('',(0.0015789471207542,0.0743094511788958,0.0025));
#1035=CARTESIAN_POINT('',(-0.00876524729738108,0.0935,0.0755));
#1036=CARTESIAN_POINT('',(-0.00876524729738109,0.0935,0.0755));
#1037=CARTESIAN_POINT('',(-0.015,0.0687069060102037,0.0025));
#1038=CARTESIAN_POINT('',(0.00250000000000005,0.0687069060102037,0.0025));
#1039=CARTESIAN_POINT('',(-0.0599999993277615,0.0534999976951821,0.0755));
#1040=CARTESIAN_POINT('',(0.0015789471207542,0.0743094511788958,0.0755));
#1041=CARTESIAN_POINT('',(0.0025,0.0343534530051018,0.0025));
#1042=CARTESIAN_POINT('',(0.0025,0.0025,0.0025));
#1043=CARTESIAN_POINT('',(0.0025,0.0025,0.0025));
#1044=CARTESIAN_POINT('',(0.0025,0.0025,0.0025));
#1045=CARTESIAN_POINT('',(-0.015,0.0687069060102037,0.0755));
#1046=CARTESIAN_POINT('',(0.00250000000000005,0.0687069060102037,0.0755));
#1047=CARTESIAN_POINT('',(0.0025,0.0025,0.0025));
#1048=CARTESIAN_POINT('',(0.0025,0.0025,0.0025));
#1049=CARTESIAN_POINT('',(0.0025,0.0505,0.0755));
#1050=CARTESIAN_POINT('',(0.0025,0.0025,0.0755));
#1051=CARTESIAN_POINT('',(0.0025,0.0025,0.078));
#1052=CARTESIAN_POINT('',(0.0025,0.0025,0.0755));
#1053=CARTESIAN_POINT('',(0.0025,0.0025,0.0755));
#1054=CARTESIAN_POINT('',(0.0025,0.0025,0.0755));
#1055=CARTESIAN_POINT('',(-0.007189905,0.0025,0.0755));
#1056=CARTESIAN_POINT('',(0.0025,0.0356034530051018,0.039));
#1057=CARTESIAN_POINT('',(0.0025,0.0075,0.039));
#1058=CARTESIAN_POINT('',(0.0025,0.0075,0.034));
#1059=CARTESIAN_POINT('',(0.0025,0.0075,0.039));
#1060=CARTESIAN_POINT('',(-0.004,0.0885,0.0705));
#1061=CARTESIAN_POINT('',(-0.004,0.0885,0.0705));
#1062=CARTESIAN_POINT('',(-0.004,0.048,0.039));
#1063=CARTESIAN_POINT('',(-0.004,0.0885,0.0075));
#1064=CARTESIAN_POINT('',(-0.004,0.0885,0.0075));
#1065=CARTESIAN_POINT('',(-0.004,0.048,0.039));
#1066=CARTESIAN_POINT('',(-2.00000000000027E-6,0.0375,0.03));
#1067=MECHANICAL_DESIGN_GEOMETRIC_PRESENTATION_REPRESENTATION('',(#566),
#1068);
#1068=(
GEOMETRIC_REPRESENTATION_CONTEXT(3)
GLOBAL_UNCERTAINTY_ASSIGNED_CONTEXT((#1069))
GLOBAL_UNIT_ASSIGNED_CONTEXT((#1072,#1071,#1070))
REPRESENTATION_CONTEXT('Plaque','TOP_LEVEL_ASSEMBLY_PART')
);
#1069=UNCERTAINTY_MEASURE_WITH_UNIT(LENGTH_MEASURE(2.E-5),#1072,
'DISTANCE_ACCURACY_VALUE','Maximum Tolerance applied to model');
#1070=(
NAMED_UNIT(*)
SI_UNIT($,.STERADIAN.)
SOLID_ANGLE_UNIT()
);
#1071=(
NAMED_UNIT(*)
PLANE_ANGLE_UNIT()
SI_UNIT($,.RADIAN.)
);
#1072=(
LENGTH_UNIT()
NAMED_UNIT(*)
SI_UNIT($,.METRE.)
);
#1073=PRODUCT_DEFINITION_SHAPE('','',#1074);
#1074=PRODUCT_DEFINITION('','',#1076,#1075);
#1075=PRODUCT_DEFINITION_CONTEXT('',#1082,'design');
#1076=PRODUCT_DEFINITION_FORMATION_WITH_SPECIFIED_SOURCE('','',#1078,
 .NOT_KNOWN.);
#1077=PRODUCT_RELATED_PRODUCT_CATEGORY('','',(#1078));
#1078=PRODUCT('Plaque','Plaque','Plaque',(#1080));
#1079=PRODUCT_CATEGORY('','');
#1080=PRODUCT_CONTEXT('',#1082,'mechanical');
#1081=APPLICATION_PROTOCOL_DEFINITION('international standard',
'ap242_managed_model_based_3d_engineering',2020,#1082);
#1082=APPLICATION_CONTEXT('managed model based 3d engineering');
ENDSEC;
END-ISO-10303-21;
