ISO-10303-21;
HEADER;
/* Generated by software containing ST-Developer
 * from STEP Tools, Inc. (www.steptools.com) 
 */
/* OPTION: using custom renumber hook */

FILE_DESCRIPTION(
/* description */ ('STEP AP242 Edition 2',
'CAx-IF Rec.Pracs.---Representation and Presentation of Product Manufa
cturing Information (PMI)---4.0---2014-10-13',
'CAx-IF Rec.Pracs.---3D Tessellated Geometry---0.4---2014-09-14','2;1',
'CAx-IF Rec.Pracs.---User Defined Attributes---1.5---2016-08-15'),
/* implementation_level */ '2;1');

FILE_NAME(
/* name */ 'Poulie charge-tension - Poulie charge-tension',
/* time_stamp */ '2026-04-15T18:42:28Z',
/* author */ (''),
/* organization */ (''),
/* preprocessor_version */ 'ST-DEVELOPER v20',
/* originating_system */ 'ONSHAPE BY PTC INC, 1.213',
/* authorisation */ '  ');

FILE_SCHEMA (('AP242_MANAGED_MODEL_BASED_3D_ENGINEERING_MIM_LF { 1 0 10303 442 3 1 4 }'));
ENDSEC;

DATA;
#10=SHAPE_REPRESENTATION_RELATIONSHIP('','',#135,#11);
#11=ADVANCED_BREP_SHAPE_REPRESENTATION('',(#133),#227);
#12=PLANE('',#143);
#13=PLANE('',#147);
#14=PLANE('',#148);
#15=PLANE('',#152);
#16=PLANE('',#153);
#17=LINE('',#204,#21);
#18=LINE('',#208,#22);
#19=LINE('',#210,#23);
#20=LINE('',#211,#24);
#21=VECTOR('',#166,1.);
#22=VECTOR('',#169,1.);
#23=VECTOR('',#172,1.);
#24=VECTOR('',#173,1.);
#25=ORIENTED_EDGE('',*,*,#49,.F.);
#26=ORIENTED_EDGE('',*,*,#50,.T.);
#27=ORIENTED_EDGE('',*,*,#51,.F.);
#28=ORIENTED_EDGE('',*,*,#52,.F.);
#29=ORIENTED_EDGE('',*,*,#53,.T.);
#30=ORIENTED_EDGE('',*,*,#54,.T.);
#31=ORIENTED_EDGE('',*,*,#55,.T.);
#32=ORIENTED_EDGE('',*,*,#54,.F.);
#33=ORIENTED_EDGE('',*,*,#56,.F.);
#34=ORIENTED_EDGE('',*,*,#52,.T.);
#35=ORIENTED_EDGE('',*,*,#57,.F.);
#36=ORIENTED_EDGE('',*,*,#58,.T.);
#37=ORIENTED_EDGE('',*,*,#53,.F.);
#38=ORIENTED_EDGE('',*,*,#56,.T.);
#39=ORIENTED_EDGE('',*,*,#49,.T.);
#40=ORIENTED_EDGE('',*,*,#51,.T.);
#41=ORIENTED_EDGE('',*,*,#55,.F.);
#42=ORIENTED_EDGE('',*,*,#58,.F.);
#43=ORIENTED_EDGE('',*,*,#59,.T.);
#44=ORIENTED_EDGE('',*,*,#60,.F.);
#45=ORIENTED_EDGE('',*,*,#59,.F.);
#46=ORIENTED_EDGE('',*,*,#50,.F.);
#47=ORIENTED_EDGE('',*,*,#60,.T.);
#48=ORIENTED_EDGE('',*,*,#57,.T.);
#49=EDGE_CURVE('',#61,#61,#71,.T.);
#50=EDGE_CURVE('',#62,#62,#72,.T.);
#51=EDGE_CURVE('',#63,#64,#73,.T.);
#52=EDGE_CURVE('',#65,#63,#17,.T.);
#53=EDGE_CURVE('',#65,#66,#74,.T.);
#54=EDGE_CURVE('',#66,#64,#18,.T.);
#55=EDGE_CURVE('',#63,#64,#19,.T.);
#56=EDGE_CURVE('',#65,#66,#20,.T.);
#57=EDGE_CURVE('',#67,#67,#75,.T.);
#58=EDGE_CURVE('',#68,#68,#76,.T.);
#59=EDGE_CURVE('',#69,#69,#77,.T.);
#60=EDGE_CURVE('',#70,#70,#78,.T.);
#61=VERTEX_POINT('',#197);
#62=VERTEX_POINT('',#199);
#63=VERTEX_POINT('',#202);
#64=VERTEX_POINT('',#203);
#65=VERTEX_POINT('',#205);
#66=VERTEX_POINT('',#207);
#67=VERTEX_POINT('',#214);
#68=VERTEX_POINT('',#216);
#69=VERTEX_POINT('',#221);
#70=VERTEX_POINT('',#223);
#71=CIRCLE('',#138,0.0225);
#72=CIRCLE('',#139,0.0225);
#73=CIRCLE('',#141,0.003275);
#74=CIRCLE('',#142,0.003275);
#75=CIRCLE('',#145,0.0225);
#76=CIRCLE('',#146,0.0225);
#77=CIRCLE('',#150,0.02);
#78=CIRCLE('',#151,0.02);
#79=EDGE_LOOP('',(#25));
#80=EDGE_LOOP('',(#26));
#81=EDGE_LOOP('',(#27,#28,#29,#30));
#82=EDGE_LOOP('',(#31,#32,#33,#34));
#83=EDGE_LOOP('',(#35));
#84=EDGE_LOOP('',(#36));
#85=EDGE_LOOP('',(#37,#38));
#86=EDGE_LOOP('',(#39));
#87=EDGE_LOOP('',(#40,#41));
#88=EDGE_LOOP('',(#42));
#89=EDGE_LOOP('',(#43));
#90=EDGE_LOOP('',(#44));
#91=EDGE_LOOP('',(#45));
#92=EDGE_LOOP('',(#46));
#93=EDGE_LOOP('',(#47));
#94=EDGE_LOOP('',(#48));
#95=FACE_BOUND('',#79,.T.);
#96=FACE_BOUND('',#80,.T.);
#97=FACE_BOUND('',#81,.T.);
#98=FACE_BOUND('',#82,.T.);
#99=FACE_BOUND('',#83,.T.);
#100=FACE_BOUND('',#84,.T.);
#101=FACE_BOUND('',#85,.T.);
#102=FACE_BOUND('',#86,.T.);
#103=FACE_BOUND('',#87,.T.);
#104=FACE_BOUND('',#88,.T.);
#105=FACE_BOUND('',#89,.T.);
#106=FACE_BOUND('',#90,.T.);
#107=FACE_BOUND('',#91,.T.);
#108=FACE_BOUND('',#92,.T.);
#109=FACE_BOUND('',#93,.T.);
#110=FACE_BOUND('',#94,.T.);
#111=CYLINDRICAL_SURFACE('',#137,0.0225);
#112=CYLINDRICAL_SURFACE('',#140,0.003275);
#113=CYLINDRICAL_SURFACE('',#144,0.0225);
#114=CYLINDRICAL_SURFACE('',#149,0.02);
#115=ADVANCED_FACE('',(#95,#96),#111,.T.);
#116=ADVANCED_FACE('',(#97),#112,.F.);
#117=ADVANCED_FACE('',(#98),#12,.F.);
#118=ADVANCED_FACE('',(#99,#100),#113,.T.);
#119=ADVANCED_FACE('',(#101,#102),#13,.T.);
#120=ADVANCED_FACE('',(#103,#104),#14,.F.);
#121=ADVANCED_FACE('',(#105,#106),#114,.T.);
#122=ADVANCED_FACE('',(#107,#108),#15,.T.);
#123=ADVANCED_FACE('',(#109,#110),#16,.F.);
#124=CLOSED_SHELL('',(#115,#116,#117,#118,#119,#120,#121,#122,#123));
#125=STYLED_ITEM('',(#126),#133);
#126=PRESENTATION_STYLE_ASSIGNMENT((#127));
#127=SURFACE_STYLE_USAGE(.BOTH.,#128);
#128=SURFACE_SIDE_STYLE('',(#129));
#129=SURFACE_STYLE_FILL_AREA(#130);
#130=FILL_AREA_STYLE('',(#131));
#131=FILL_AREA_STYLE_COLOUR('',#132);
#132=COLOUR_RGB('',0.301960784313725,0.301960784313725,0.301960784313725);
#133=MANIFOLD_SOLID_BREP('Poulie charge-tension',#124);
#134=SHAPE_DEFINITION_REPRESENTATION(#232,#135);
#135=SHAPE_REPRESENTATION('Poulie charge-tension',(#136),#227);
#136=AXIS2_PLACEMENT_3D('',#194,#154,#155);
#137=AXIS2_PLACEMENT_3D('',#195,#156,#157);
#138=AXIS2_PLACEMENT_3D('',#196,#158,#159);
#139=AXIS2_PLACEMENT_3D('',#198,#160,#161);
#140=AXIS2_PLACEMENT_3D('',#200,#162,#163);
#141=AXIS2_PLACEMENT_3D('',#201,#164,#165);
#142=AXIS2_PLACEMENT_3D('',#206,#167,#168);
#143=AXIS2_PLACEMENT_3D('',#209,#170,#171);
#144=AXIS2_PLACEMENT_3D('',#212,#174,#175);
#145=AXIS2_PLACEMENT_3D('',#213,#176,#177);
#146=AXIS2_PLACEMENT_3D('',#215,#178,#179);
#147=AXIS2_PLACEMENT_3D('',#217,#180,#181);
#148=AXIS2_PLACEMENT_3D('',#218,#182,#183);
#149=AXIS2_PLACEMENT_3D('',#219,#184,#185);
#150=AXIS2_PLACEMENT_3D('',#220,#186,#187);
#151=AXIS2_PLACEMENT_3D('',#222,#188,#189);
#152=AXIS2_PLACEMENT_3D('',#224,#190,#191);
#153=AXIS2_PLACEMENT_3D('',#225,#192,#193);
#154=DIRECTION('',(0.,0.,1.));
#155=DIRECTION('',(1.,0.,0.));
#156=DIRECTION('',(0.,0.,-1.));
#157=DIRECTION('',(-1.,0.,0.));
#158=DIRECTION('',(0.,0.,1.));
#159=DIRECTION('',(1.,0.,0.));
#160=DIRECTION('',(0.,0.,1.));
#161=DIRECTION('',(1.,0.,0.));
#162=DIRECTION('',(0.,0.,-1.));
#163=DIRECTION('',(-1.,0.,0.));
#164=DIRECTION('',(0.,0.,1.));
#165=DIRECTION('',(1.,0.,0.));
#166=DIRECTION('',(0.,0.,-1.));
#167=DIRECTION('',(0.,0.,1.));
#168=DIRECTION('',(1.,0.,0.));
#169=DIRECTION('',(0.,0.,-1.));
#170=DIRECTION('',(0.,1.,0.));
#171=DIRECTION('',(0.,0.,1.));
#172=DIRECTION('',(1.,0.,0.));
#173=DIRECTION('',(1.,0.,0.));
#174=DIRECTION('',(0.,0.,-1.));
#175=DIRECTION('',(-1.,0.,0.));
#176=DIRECTION('',(0.,0.,1.));
#177=DIRECTION('',(1.,0.,0.));
#178=DIRECTION('',(0.,0.,1.));
#179=DIRECTION('',(1.,0.,0.));
#180=DIRECTION('',(0.,0.,1.));
#181=DIRECTION('',(1.,0.,0.));
#182=DIRECTION('',(0.,0.,1.));
#183=DIRECTION('',(1.,0.,0.));
#184=DIRECTION('',(0.,0.,-1.));
#185=DIRECTION('',(-1.,0.,0.));
#186=DIRECTION('',(0.,0.,-1.));
#187=DIRECTION('',(-1.,0.,0.));
#188=DIRECTION('',(0.,0.,-1.));
#189=DIRECTION('',(-1.,0.,0.));
#190=DIRECTION('',(0.,0.,-1.));
#191=DIRECTION('',(1.,0.,0.));
#192=DIRECTION('',(0.,0.,-1.));
#193=DIRECTION('',(1.,0.,0.));
#194=CARTESIAN_POINT('',(0.,0.,0.));
#195=CARTESIAN_POINT('',(0.,1.37772764904077E-18,0.01));
#196=CARTESIAN_POINT('',(0.,1.37772764904077E-18,0.01));
#197=CARTESIAN_POINT('',(0.0225,1.37772764904077E-18,0.01));
#198=CARTESIAN_POINT('',(0.,1.37772764904077E-18,0.008));
#199=CARTESIAN_POINT('',(0.0225,1.37772764904077E-18,0.008));
#200=CARTESIAN_POINT('',(4.45155883394571E-19,-8.67361737988404E-19,0.01));
#201=CARTESIAN_POINT('',(4.45155883394571E-19,-8.67361737988404E-19,0.));
#202=CARTESIAN_POINT('',(-0.00192633411043361,0.0026485584560247,0.));
#203=CARTESIAN_POINT('',(0.00192633411043361,0.0026485584560247,0.));
#204=CARTESIAN_POINT('',(-0.00192633411043361,0.0026485584560247,0.01));
#205=CARTESIAN_POINT('',(-0.00192633411043361,0.0026485584560247,0.01));
#206=CARTESIAN_POINT('',(4.45155883394571E-19,-8.67361737988404E-19,0.01));
#207=CARTESIAN_POINT('',(0.00192633411043361,0.0026485584560247,0.01));
#208=CARTESIAN_POINT('',(0.00192633411043361,0.0026485584560247,0.01));
#209=CARTESIAN_POINT('',(0.,0.0026485584560247,0.01));
#210=CARTESIAN_POINT('',(0.,0.0026485584560247,0.));
#211=CARTESIAN_POINT('',(0.,0.0026485584560247,0.01));
#212=CARTESIAN_POINT('',(0.,1.37772764904077E-18,0.01));
#213=CARTESIAN_POINT('',(0.,1.37772764904077E-18,0.002));
#214=CARTESIAN_POINT('',(0.0225,1.37772764904077E-18,0.002));
#215=CARTESIAN_POINT('',(0.,1.37772764904077E-18,0.));
#216=CARTESIAN_POINT('',(0.0225,1.37772764904077E-18,0.));
#217=CARTESIAN_POINT('',(0.,0.,0.01));
#218=CARTESIAN_POINT('',(0.,0.,0.));
#219=CARTESIAN_POINT('',(0.,-1.22464679914735E-18,0.008));
#220=CARTESIAN_POINT('',(0.,-1.22464679914735E-18,0.008));
#221=CARTESIAN_POINT('',(-0.02,-1.22464679914735E-18,0.008));
#222=CARTESIAN_POINT('',(0.,-1.22464679914735E-18,0.002));
#223=CARTESIAN_POINT('',(-0.02,-1.22464679914735E-18,0.002));
#224=CARTESIAN_POINT('',(0.,0.,0.008));
#225=CARTESIAN_POINT('',(0.,0.,0.002));
#226=MECHANICAL_DESIGN_GEOMETRIC_PRESENTATION_REPRESENTATION('',(#125),
#227);
#227=(
GEOMETRIC_REPRESENTATION_CONTEXT(3)
GLOBAL_UNCERTAINTY_ASSIGNED_CONTEXT((#228))
GLOBAL_UNIT_ASSIGNED_CONTEXT((#231,#230,#229))
REPRESENTATION_CONTEXT('Poulie charge-tension',
'TOP_LEVEL_ASSEMBLY_PART')
);
#228=UNCERTAINTY_MEASURE_WITH_UNIT(LENGTH_MEASURE(1.E-8),#231,
'DISTANCE_ACCURACY_VALUE','Maximum Tolerance applied to model');
#229=(
NAMED_UNIT(*)
SI_UNIT($,.STERADIAN.)
SOLID_ANGLE_UNIT()
);
#230=(
NAMED_UNIT(*)
PLANE_ANGLE_UNIT()
SI_UNIT($,.RADIAN.)
);
#231=(
LENGTH_UNIT()
NAMED_UNIT(*)
SI_UNIT($,.METRE.)
);
#232=PRODUCT_DEFINITION_SHAPE('','',#233);
#233=PRODUCT_DEFINITION('','',#235,#234);
#234=PRODUCT_DEFINITION_CONTEXT('',#241,'design');
#235=PRODUCT_DEFINITION_FORMATION_WITH_SPECIFIED_SOURCE('','',#237,
 .NOT_KNOWN.);
#236=PRODUCT_RELATED_PRODUCT_CATEGORY('','',(#237));
#237=PRODUCT('Poulie charge-tension','Poulie charge-tension',
'Poulie charge-tension',(#239));
#238=PRODUCT_CATEGORY('','');
#239=PRODUCT_CONTEXT('',#241,'mechanical');
#240=APPLICATION_PROTOCOL_DEFINITION('international standard',
'ap242_managed_model_based_3d_engineering',2020,#241);
#241=APPLICATION_CONTEXT('managed model based 3d engineering');
ENDSEC;
END-ISO-10303-21;
