ISO-10303-21;
HEADER;
/* Generated by software containing ST-Developer
 * from STEP Tools, Inc. (www.steptools.com) 
 */
/* OPTION: using custom renumber hook */

FILE_DESCRIPTION(
/* description */ ('STEP AP242 Edition 2',
'CAx-IF Rec.Pracs.---Representation and Presentation of Product Manufa
cturing Information (PMI)---4.0---2014-10-13',
'CAx-IF Rec.Pracs.---3D Tessellated Geometry---0.4---2014-09-14','2;1',
'CAx-IF Rec.Pracs.---User Defined Attributes---1.5---2016-08-15'),
/* implementation_level */ '2;1');

FILE_NAME(
/* name */ 'Support Bouton Pressoir - Slider Crayon',
/* time_stamp */ '2026-04-15T18:35:10Z',
/* author */ (''),
/* organization */ (''),
/* preprocessor_version */ 'ST-DEVELOPER v20',
/* originating_system */ 'ONSHAPE BY PTC INC, 1.213',
/* authorisation */ '  ');

FILE_SCHEMA (('AP242_MANAGED_MODEL_BASED_3D_ENGINEERING_MIM_LF { 1 0 10303 442 3 1 4 }'));
ENDSEC;

DATA;
#10=SHAPE_REPRESENTATION_RELATIONSHIP('','',#451,#11);
#11=ADVANCED_BREP_SHAPE_REPRESENTATION('',(#449),#705);
#12=ORIENTED_EDGE('',*,*,#132,.F.);
#13=ORIENTED_EDGE('',*,*,#133,.T.);
#14=ORIENTED_EDGE('',*,*,#134,.F.);
#15=ORIENTED_EDGE('',*,*,#135,.F.);
#16=ORIENTED_EDGE('',*,*,#136,.F.);
#17=ORIENTED_EDGE('',*,*,#137,.F.);
#18=ORIENTED_EDGE('',*,*,#138,.T.);
#19=ORIENTED_EDGE('',*,*,#139,.F.);
#20=ORIENTED_EDGE('',*,*,#140,.T.);
#21=ORIENTED_EDGE('',*,*,#141,.T.);
#22=ORIENTED_EDGE('',*,*,#142,.T.);
#23=ORIENTED_EDGE('',*,*,#143,.T.);
#24=ORIENTED_EDGE('',*,*,#144,.F.);
#25=ORIENTED_EDGE('',*,*,#132,.T.);
#26=ORIENTED_EDGE('',*,*,#145,.F.);
#27=ORIENTED_EDGE('',*,*,#146,.F.);
#28=ORIENTED_EDGE('',*,*,#147,.F.);
#29=ORIENTED_EDGE('',*,*,#148,.F.);
#30=ORIENTED_EDGE('',*,*,#149,.F.);
#31=ORIENTED_EDGE('',*,*,#150,.T.);
#32=ORIENTED_EDGE('',*,*,#151,.F.);
#33=ORIENTED_EDGE('',*,*,#152,.F.);
#34=ORIENTED_EDGE('',*,*,#153,.F.);
#35=ORIENTED_EDGE('',*,*,#154,.T.);
#36=ORIENTED_EDGE('',*,*,#142,.F.);
#37=ORIENTED_EDGE('',*,*,#155,.T.);
#38=ORIENTED_EDGE('',*,*,#149,.T.);
#39=ORIENTED_EDGE('',*,*,#156,.T.);
#40=ORIENTED_EDGE('',*,*,#157,.F.);
#41=ORIENTED_EDGE('',*,*,#154,.F.);
#42=ORIENTED_EDGE('',*,*,#158,.T.);
#43=ORIENTED_EDGE('',*,*,#137,.T.);
#44=ORIENTED_EDGE('',*,*,#159,.F.);
#45=ORIENTED_EDGE('',*,*,#160,.F.);
#46=ORIENTED_EDGE('',*,*,#161,.T.);
#47=ORIENTED_EDGE('',*,*,#162,.F.);
#48=ORIENTED_EDGE('',*,*,#163,.F.);
#49=ORIENTED_EDGE('',*,*,#164,.T.);
#50=ORIENTED_EDGE('',*,*,#146,.T.);
#51=ORIENTED_EDGE('',*,*,#165,.F.);
#52=ORIENTED_EDGE('',*,*,#166,.T.);
#53=ORIENTED_EDGE('',*,*,#167,.T.);
#54=ORIENTED_EDGE('',*,*,#168,.T.);
#55=ORIENTED_EDGE('',*,*,#169,.F.);
#56=ORIENTED_EDGE('',*,*,#170,.T.);
#57=ORIENTED_EDGE('',*,*,#160,.T.);
#58=ORIENTED_EDGE('',*,*,#171,.T.);
#59=ORIENTED_EDGE('',*,*,#172,.F.);
#60=ORIENTED_EDGE('',*,*,#173,.F.);
#61=ORIENTED_EDGE('',*,*,#174,.T.);
#62=ORIENTED_EDGE('',*,*,#165,.T.);
#63=ORIENTED_EDGE('',*,*,#145,.T.);
#64=ORIENTED_EDGE('',*,*,#143,.F.);
#65=ORIENTED_EDGE('',*,*,#156,.F.);
#66=ORIENTED_EDGE('',*,*,#148,.T.);
#67=ORIENTED_EDGE('',*,*,#175,.F.);
#68=ORIENTED_EDGE('',*,*,#176,.F.);
#69=ORIENTED_EDGE('',*,*,#138,.F.);
#70=ORIENTED_EDGE('',*,*,#158,.F.);
#71=ORIENTED_EDGE('',*,*,#153,.T.);
#72=ORIENTED_EDGE('',*,*,#136,.T.);
#73=ORIENTED_EDGE('',*,*,#177,.T.);
#74=ORIENTED_EDGE('',*,*,#171,.F.);
#75=ORIENTED_EDGE('',*,*,#159,.T.);
#76=ORIENTED_EDGE('',*,*,#178,.F.);
#77=ORIENTED_EDGE('',*,*,#150,.F.);
#78=ORIENTED_EDGE('',*,*,#155,.F.);
#79=ORIENTED_EDGE('',*,*,#141,.F.);
#80=ORIENTED_EDGE('',*,*,#179,.T.);
#81=ORIENTED_EDGE('',*,*,#167,.F.);
#82=ORIENTED_EDGE('',*,*,#180,.T.);
#83=ORIENTED_EDGE('',*,*,#181,.F.);
#84=ORIENTED_EDGE('',*,*,#152,.T.);
#85=ORIENTED_EDGE('',*,*,#182,.T.);
#86=ORIENTED_EDGE('',*,*,#183,.T.);
#87=ORIENTED_EDGE('',*,*,#184,.F.);
#88=ORIENTED_EDGE('',*,*,#169,.T.);
#89=ORIENTED_EDGE('',*,*,#185,.F.);
#90=ORIENTED_EDGE('',*,*,#139,.T.);
#91=ORIENTED_EDGE('',*,*,#176,.T.);
#92=ORIENTED_EDGE('',*,*,#185,.T.);
#93=ORIENTED_EDGE('',*,*,#168,.F.);
#94=ORIENTED_EDGE('',*,*,#179,.F.);
#95=ORIENTED_EDGE('',*,*,#140,.F.);
#96=ORIENTED_EDGE('',*,*,#184,.T.);
#97=ORIENTED_EDGE('',*,*,#186,.T.);
#98=ORIENTED_EDGE('',*,*,#161,.F.);
#99=ORIENTED_EDGE('',*,*,#170,.F.);
#100=ORIENTED_EDGE('',*,*,#187,.T.);
#101=ORIENTED_EDGE('',*,*,#162,.T.);
#102=ORIENTED_EDGE('',*,*,#186,.F.);
#103=ORIENTED_EDGE('',*,*,#183,.F.);
#104=ORIENTED_EDGE('',*,*,#151,.T.);
#105=ORIENTED_EDGE('',*,*,#157,.T.);
#106=ORIENTED_EDGE('',*,*,#187,.F.);
#107=ORIENTED_EDGE('',*,*,#182,.F.);
#108=ORIENTED_EDGE('',*,*,#166,.F.);
#109=ORIENTED_EDGE('',*,*,#174,.F.);
#110=ORIENTED_EDGE('',*,*,#188,.T.);
#111=ORIENTED_EDGE('',*,*,#180,.F.);
#112=ORIENTED_EDGE('',*,*,#181,.T.);
#113=ORIENTED_EDGE('',*,*,#188,.F.);
#114=ORIENTED_EDGE('',*,*,#173,.T.);
#115=ORIENTED_EDGE('',*,*,#189,.T.);
#116=ORIENTED_EDGE('',*,*,#178,.T.);
#117=ORIENTED_EDGE('',*,*,#189,.F.);
#118=ORIENTED_EDGE('',*,*,#175,.T.);
#119=ORIENTED_EDGE('',*,*,#147,.T.);
#120=ORIENTED_EDGE('',*,*,#144,.T.);
#121=ORIENTED_EDGE('',*,*,#164,.F.);
#122=ORIENTED_EDGE('',*,*,#190,.F.);
#123=ORIENTED_EDGE('',*,*,#133,.F.);
#124=ORIENTED_EDGE('',*,*,#134,.T.);
#125=ORIENTED_EDGE('',*,*,#190,.T.);
#126=ORIENTED_EDGE('',*,*,#163,.T.);
#127=ORIENTED_EDGE('',*,*,#191,.F.);
#128=ORIENTED_EDGE('',*,*,#135,.T.);
#129=ORIENTED_EDGE('',*,*,#191,.T.);
#130=ORIENTED_EDGE('',*,*,#172,.T.);
#131=ORIENTED_EDGE('',*,*,#177,.F.);
#132=EDGE_CURVE('',#192,#193,#232,.T.);
#133=EDGE_CURVE('',#192,#194,#233,.T.);
#134=EDGE_CURVE('',#195,#194,#234,.T.);
#135=EDGE_CURVE('',#196,#195,#235,.T.);
#136=EDGE_CURVE('',#197,#196,#236,.T.);
#137=EDGE_CURVE('',#198,#197,#237,.T.);
#138=EDGE_CURVE('',#198,#199,#238,.T.);
#139=EDGE_CURVE('',#200,#199,#239,.T.);
#140=EDGE_CURVE('',#200,#201,#240,.T.);
#141=EDGE_CURVE('',#201,#202,#241,.T.);
#142=EDGE_CURVE('',#202,#203,#242,.T.);
#143=EDGE_CURVE('',#203,#193,#243,.T.);
#144=EDGE_CURVE('',#192,#204,#244,.T.);
#145=EDGE_CURVE('',#205,#193,#245,.T.);
#146=EDGE_CURVE('',#204,#205,#246,.T.);
#147=EDGE_CURVE('',#206,#207,#247,.T.);
#148=EDGE_CURVE('',#208,#206,#248,.T.);
#149=EDGE_CURVE('',#209,#208,#249,.T.);
#150=EDGE_CURVE('',#209,#207,#250,.T.);
#151=EDGE_CURVE('',#210,#211,#251,.T.);
#152=EDGE_CURVE('',#212,#210,#252,.T.);
#153=EDGE_CURVE('',#213,#212,#253,.T.);
#154=EDGE_CURVE('',#213,#211,#254,.T.);
#155=EDGE_CURVE('',#202,#209,#255,.T.);
#156=EDGE_CURVE('',#208,#203,#256,.T.);
#157=EDGE_CURVE('',#211,#214,#257,.T.);
#158=EDGE_CURVE('',#213,#198,#258,.T.);
#159=EDGE_CURVE('',#215,#197,#259,.T.);
#160=EDGE_CURVE('',#216,#215,#260,.T.);
#161=EDGE_CURVE('',#216,#217,#261,.T.);
#162=EDGE_CURVE('',#214,#217,#262,.T.);
#163=EDGE_CURVE('',#218,#219,#263,.T.);
#164=EDGE_CURVE('',#218,#204,#264,.T.);
#165=EDGE_CURVE('',#220,#205,#265,.T.);
#166=EDGE_CURVE('',#220,#221,#266,.T.);
#167=EDGE_CURVE('',#221,#222,#267,.T.);
#168=EDGE_CURVE('',#222,#223,#268,.T.);
#169=EDGE_CURVE('',#224,#223,#269,.T.);
#170=EDGE_CURVE('',#224,#216,#270,.T.);
#171=EDGE_CURVE('',#215,#225,#271,.T.);
#172=EDGE_CURVE('',#219,#225,#272,.T.);
#173=EDGE_CURVE('',#226,#227,#273,.T.);
#174=EDGE_CURVE('',#226,#220,#274,.T.);
#175=EDGE_CURVE('',#227,#206,#275,.T.);
#176=EDGE_CURVE('',#199,#212,#276,.T.);
#177=EDGE_CURVE('',#196,#225,#277,.T.);
#178=EDGE_CURVE('',#207,#228,#278,.T.);
#179=EDGE_CURVE('',#201,#222,#279,.T.);
#180=EDGE_CURVE('',#221,#229,#280,.T.);
#181=EDGE_CURVE('',#228,#229,#281,.T.);
#182=EDGE_CURVE('',#210,#230,#282,.T.);
#183=EDGE_CURVE('',#230,#231,#283,.T.);
#184=EDGE_CURVE('',#224,#231,#284,.T.);
#185=EDGE_CURVE('',#200,#223,#285,.T.);
#186=EDGE_CURVE('',#231,#217,#286,.T.);
#187=EDGE_CURVE('',#230,#214,#287,.T.);
#188=EDGE_CURVE('',#226,#229,#288,.T.);
#189=EDGE_CURVE('',#227,#228,#289,.T.);
#190=EDGE_CURVE('',#194,#218,#290,.T.);
#191=EDGE_CURVE('',#195,#219,#291,.T.);
#192=VERTEX_POINT('',#584);
#193=VERTEX_POINT('',#585);
#194=VERTEX_POINT('',#587);
#195=VERTEX_POINT('',#589);
#196=VERTEX_POINT('',#591);
#197=VERTEX_POINT('',#593);
#198=VERTEX_POINT('',#595);
#199=VERTEX_POINT('',#597);
#200=VERTEX_POINT('',#599);
#201=VERTEX_POINT('',#601);
#202=VERTEX_POINT('',#603);
#203=VERTEX_POINT('',#605);
#204=VERTEX_POINT('',#609);
#205=VERTEX_POINT('',#611);
#206=VERTEX_POINT('',#615);
#207=VERTEX_POINT('',#616);
#208=VERTEX_POINT('',#618);
#209=VERTEX_POINT('',#620);
#210=VERTEX_POINT('',#624);
#211=VERTEX_POINT('',#625);
#212=VERTEX_POINT('',#627);
#213=VERTEX_POINT('',#629);
#214=VERTEX_POINT('',#636);
#215=VERTEX_POINT('',#639);
#216=VERTEX_POINT('',#641);
#217=VERTEX_POINT('',#643);
#218=VERTEX_POINT('',#647);
#219=VERTEX_POINT('',#648);
#220=VERTEX_POINT('',#651);
#221=VERTEX_POINT('',#653);
#222=VERTEX_POINT('',#655);
#223=VERTEX_POINT('',#657);
#224=VERTEX_POINT('',#659);
#225=VERTEX_POINT('',#662);
#226=VERTEX_POINT('',#666);
#227=VERTEX_POINT('',#667);
#228=VERTEX_POINT('',#676);
#229=VERTEX_POINT('',#679);
#230=VERTEX_POINT('',#683);
#231=VERTEX_POINT('',#685);
#232=LINE('',#583,#292);
#233=LINE('',#586,#293);
#234=LINE('',#588,#294);
#235=LINE('',#590,#295);
#236=LINE('',#592,#296);
#237=LINE('',#594,#297);
#238=LINE('',#596,#298);
#239=LINE('',#598,#299);
#240=LINE('',#600,#300);
#241=LINE('',#602,#301);
#242=LINE('',#604,#302);
#243=LINE('',#606,#303);
#244=LINE('',#608,#304);
#245=LINE('',#610,#305);
#246=LINE('',#612,#306);
#247=LINE('',#614,#307);
#248=LINE('',#617,#308);
#249=LINE('',#619,#309);
#250=LINE('',#621,#310);
#251=LINE('',#623,#311);
#252=LINE('',#626,#312);
#253=LINE('',#628,#313);
#254=LINE('',#630,#314);
#255=LINE('',#632,#315);
#256=LINE('',#633,#316);
#257=LINE('',#635,#317);
#258=LINE('',#637,#318);
#259=LINE('',#638,#319);
#260=LINE('',#640,#320);
#261=LINE('',#642,#321);
#262=LINE('',#644,#322);
#263=LINE('',#646,#323);
#264=LINE('',#649,#324);
#265=LINE('',#650,#325);
#266=LINE('',#652,#326);
#267=LINE('',#654,#327);
#268=LINE('',#656,#328);
#269=LINE('',#658,#329);
#270=LINE('',#660,#330);
#271=LINE('',#661,#331);
#272=LINE('',#663,#332);
#273=LINE('',#665,#333);
#274=LINE('',#668,#334);
#275=LINE('',#669,#335);
#276=LINE('',#671,#336);
#277=LINE('',#673,#337);
#278=LINE('',#675,#338);
#279=LINE('',#677,#339);
#280=LINE('',#678,#340);
#281=LINE('',#680,#341);
#282=LINE('',#682,#342);
#283=LINE('',#684,#343);
#284=LINE('',#686,#344);
#285=LINE('',#687,#345);
#286=LINE('',#690,#346);
#287=LINE('',#692,#347);
#288=LINE('',#695,#348);
#289=LINE('',#697,#349);
#290=LINE('',#700,#350);
#291=LINE('',#702,#351);
#292=VECTOR('',#479,1.);
#293=VECTOR('',#480,1.);
#294=VECTOR('',#481,1.);
#295=VECTOR('',#482,1.);
#296=VECTOR('',#483,1.);
#297=VECTOR('',#484,1.);
#298=VECTOR('',#485,1.);
#299=VECTOR('',#486,1.);
#300=VECTOR('',#487,1.);
#301=VECTOR('',#488,1.);
#302=VECTOR('',#489,1.);
#303=VECTOR('',#490,1.);
#304=VECTOR('',#493,1.);
#305=VECTOR('',#494,1.);
#306=VECTOR('',#495,1.);
#307=VECTOR('',#498,1.);
#308=VECTOR('',#499,1.);
#309=VECTOR('',#500,1.);
#310=VECTOR('',#501,1.);
#311=VECTOR('',#504,1.);
#312=VECTOR('',#505,1.);
#313=VECTOR('',#506,1.);
#314=VECTOR('',#507,1.);
#315=VECTOR('',#510,1.);
#316=VECTOR('',#511,1.);
#317=VECTOR('',#514,1.);
#318=VECTOR('',#515,1.);
#319=VECTOR('',#516,1.);
#320=VECTOR('',#517,1.);
#321=VECTOR('',#518,1.);
#322=VECTOR('',#519,1.);
#323=VECTOR('',#522,1.);
#324=VECTOR('',#523,1.);
#325=VECTOR('',#524,1.);
#326=VECTOR('',#525,1.);
#327=VECTOR('',#526,1.);
#328=VECTOR('',#527,1.);
#329=VECTOR('',#528,1.);
#330=VECTOR('',#529,1.);
#331=VECTOR('',#530,1.);
#332=VECTOR('',#531,1.);
#333=VECTOR('',#534,1.);
#334=VECTOR('',#535,1.);
#335=VECTOR('',#536,1.);
#336=VECTOR('',#539,1.);
#337=VECTOR('',#542,1.);
#338=VECTOR('',#545,1.);
#339=VECTOR('',#546,1.);
#340=VECTOR('',#547,1.);
#341=VECTOR('',#548,1.);
#342=VECTOR('',#551,1.);
#343=VECTOR('',#552,1.);
#344=VECTOR('',#553,1.);
#345=VECTOR('',#554,1.);
#346=VECTOR('',#559,1.);
#347=VECTOR('',#562,1.);
#348=VECTOR('',#567,1.);
#349=VECTOR('',#570,1.);
#350=VECTOR('',#575,1.);
#351=VECTOR('',#578,1.);
#352=EDGE_LOOP('',(#12,#13,#14,#15,#16,#17,#18,#19,#20,#21,#22,#23));
#353=EDGE_LOOP('',(#24,#25,#26,#27));
#354=EDGE_LOOP('',(#28,#29,#30,#31));
#355=EDGE_LOOP('',(#32,#33,#34,#35));
#356=EDGE_LOOP('',(#36,#37,#38,#39));
#357=EDGE_LOOP('',(#40,#41,#42,#43,#44,#45,#46,#47));
#358=EDGE_LOOP('',(#48,#49,#50,#51,#52,#53,#54,#55,#56,#57,#58,#59));
#359=EDGE_LOOP('',(#60,#61,#62,#63,#64,#65,#66,#67));
#360=EDGE_LOOP('',(#68,#69,#70,#71));
#361=EDGE_LOOP('',(#72,#73,#74,#75));
#362=EDGE_LOOP('',(#76,#77,#78,#79,#80,#81,#82,#83));
#363=EDGE_LOOP('',(#84,#85,#86,#87,#88,#89,#90,#91));
#364=EDGE_LOOP('',(#92,#93,#94,#95));
#365=EDGE_LOOP('',(#96,#97,#98,#99));
#366=EDGE_LOOP('',(#100,#101,#102,#103));
#367=EDGE_LOOP('',(#104,#105,#106,#107));
#368=EDGE_LOOP('',(#108,#109,#110,#111));
#369=EDGE_LOOP('',(#112,#113,#114,#115));
#370=EDGE_LOOP('',(#116,#117,#118,#119));
#371=EDGE_LOOP('',(#120,#121,#122,#123));
#372=EDGE_LOOP('',(#124,#125,#126,#127));
#373=EDGE_LOOP('',(#128,#129,#130,#131));
#374=FACE_BOUND('',#352,.T.);
#375=FACE_BOUND('',#353,.T.);
#376=FACE_BOUND('',#354,.T.);
#377=FACE_BOUND('',#355,.T.);
#378=FACE_BOUND('',#356,.T.);
#379=FACE_BOUND('',#357,.T.);
#380=FACE_BOUND('',#358,.T.);
#381=FACE_BOUND('',#359,.T.);
#382=FACE_BOUND('',#360,.T.);
#383=FACE_BOUND('',#361,.T.);
#384=FACE_BOUND('',#362,.T.);
#385=FACE_BOUND('',#363,.T.);
#386=FACE_BOUND('',#364,.T.);
#387=FACE_BOUND('',#365,.T.);
#388=FACE_BOUND('',#366,.T.);
#389=FACE_BOUND('',#367,.T.);
#390=FACE_BOUND('',#368,.T.);
#391=FACE_BOUND('',#369,.T.);
#392=FACE_BOUND('',#370,.T.);
#393=FACE_BOUND('',#371,.T.);
#394=FACE_BOUND('',#372,.T.);
#395=FACE_BOUND('',#373,.T.);
#396=PLANE('',#453);
#397=PLANE('',#454);
#398=PLANE('',#455);
#399=PLANE('',#456);
#400=PLANE('',#457);
#401=PLANE('',#458);
#402=PLANE('',#459);
#403=PLANE('',#460);
#404=PLANE('',#461);
#405=PLANE('',#462);
#406=PLANE('',#463);
#407=PLANE('',#464);
#408=PLANE('',#465);
#409=PLANE('',#466);
#410=PLANE('',#467);
#411=PLANE('',#468);
#412=PLANE('',#469);
#413=PLANE('',#470);
#414=PLANE('',#471);
#415=PLANE('',#472);
#416=PLANE('',#473);
#417=PLANE('',#474);
#418=ADVANCED_FACE('',(#374),#396,.T.);
#419=ADVANCED_FACE('',(#375),#397,.F.);
#420=ADVANCED_FACE('',(#376),#398,.F.);
#421=ADVANCED_FACE('',(#377),#399,.F.);
#422=ADVANCED_FACE('',(#378),#400,.T.);
#423=ADVANCED_FACE('',(#379),#401,.T.);
#424=ADVANCED_FACE('',(#380),#402,.F.);
#425=ADVANCED_FACE('',(#381),#403,.F.);
#426=ADVANCED_FACE('',(#382),#404,.T.);
#427=ADVANCED_FACE('',(#383),#405,.F.);
#428=ADVANCED_FACE('',(#384),#406,.T.);
#429=ADVANCED_FACE('',(#385),#407,.F.);
#430=ADVANCED_FACE('',(#386),#408,.T.);
#431=ADVANCED_FACE('',(#387),#409,.T.);
#432=ADVANCED_FACE('',(#388),#410,.F.);
#433=ADVANCED_FACE('',(#389),#411,.F.);
#434=ADVANCED_FACE('',(#390),#412,.T.);
#435=ADVANCED_FACE('',(#391),#413,.F.);
#436=ADVANCED_FACE('',(#392),#414,.F.);
#437=ADVANCED_FACE('',(#393),#415,.T.);
#438=ADVANCED_FACE('',(#394),#416,.F.);
#439=ADVANCED_FACE('',(#395),#417,.F.);
#440=CLOSED_SHELL('',(#418,#419,#420,#421,#422,#423,#424,#425,#426,#427,
#428,#429,#430,#431,#432,#433,#434,#435,#436,#437,#438,#439));
#441=STYLED_ITEM('',(#442),#449);
#442=PRESENTATION_STYLE_ASSIGNMENT((#443));
#443=SURFACE_STYLE_USAGE(.BOTH.,#444);
#444=SURFACE_SIDE_STYLE('',(#445));
#445=SURFACE_STYLE_FILL_AREA(#446);
#446=FILL_AREA_STYLE('',(#447));
#447=FILL_AREA_STYLE_COLOUR('',#448);
#448=COLOUR_RGB('',0.498039215686275,0.498039215686275,0.498039215686275);
#449=MANIFOLD_SOLID_BREP('Slider Crayon',#440);
#450=SHAPE_DEFINITION_REPRESENTATION(#710,#451);
#451=SHAPE_REPRESENTATION('Slider Crayon',(#452),#705);
#452=AXIS2_PLACEMENT_3D('',#581,#475,#476);
#453=AXIS2_PLACEMENT_3D('',#582,#477,#478);
#454=AXIS2_PLACEMENT_3D('',#607,#491,#492);
#455=AXIS2_PLACEMENT_3D('',#613,#496,#497);
#456=AXIS2_PLACEMENT_3D('',#622,#502,#503);
#457=AXIS2_PLACEMENT_3D('',#631,#508,#509);
#458=AXIS2_PLACEMENT_3D('',#634,#512,#513);
#459=AXIS2_PLACEMENT_3D('',#645,#520,#521);
#460=AXIS2_PLACEMENT_3D('',#664,#532,#533);
#461=AXIS2_PLACEMENT_3D('',#670,#537,#538);
#462=AXIS2_PLACEMENT_3D('',#672,#540,#541);
#463=AXIS2_PLACEMENT_3D('',#674,#543,#544);
#464=AXIS2_PLACEMENT_3D('',#681,#549,#550);
#465=AXIS2_PLACEMENT_3D('',#688,#555,#556);
#466=AXIS2_PLACEMENT_3D('',#689,#557,#558);
#467=AXIS2_PLACEMENT_3D('',#691,#560,#561);
#468=AXIS2_PLACEMENT_3D('',#693,#563,#564);
#469=AXIS2_PLACEMENT_3D('',#694,#565,#566);
#470=AXIS2_PLACEMENT_3D('',#696,#568,#569);
#471=AXIS2_PLACEMENT_3D('',#698,#571,#572);
#472=AXIS2_PLACEMENT_3D('',#699,#573,#574);
#473=AXIS2_PLACEMENT_3D('',#701,#576,#577);
#474=AXIS2_PLACEMENT_3D('',#703,#579,#580);
#475=DIRECTION('',(0.,0.,1.));
#476=DIRECTION('',(1.,0.,0.));
#477=DIRECTION('',(0.,0.,-1.));
#478=DIRECTION('',(-1.,0.,0.));
#479=DIRECTION('',(-1.,0.,0.));
#480=DIRECTION('',(1.7347234759768E-16,-1.,0.));
#481=DIRECTION('',(-1.,0.,0.));
#482=DIRECTION('',(1.7347234759768E-16,-1.,0.));
#483=DIRECTION('',(-1.,0.,0.));
#484=DIRECTION('',(0.,1.,0.));
#485=DIRECTION('',(-1.,0.,0.));
#486=DIRECTION('',(2.04085114820801E-16,-1.,0.));
#487=DIRECTION('',(-1.,-6.19544098563146E-17,0.));
#488=DIRECTION('',(0.,-1.,0.));
#489=DIRECTION('',(-1.,0.,0.));
#490=DIRECTION('',(0.,1.,0.));
#491=DIRECTION('',(0.,-1.,0.));
#492=DIRECTION('',(1.,0.,0.));
#493=DIRECTION('',(0.,0.,1.));
#494=DIRECTION('',(0.,0.,-1.));
#495=DIRECTION('',(-1.,0.,0.));
#496=DIRECTION('',(0.,0.,-1.));
#497=DIRECTION('',(-1.,0.,0.));
#498=DIRECTION('',(1.,0.,0.));
#499=DIRECTION('',(0.,1.,0.));
#500=DIRECTION('',(-1.,0.,0.));
#501=DIRECTION('',(0.,1.,0.));
#502=DIRECTION('',(0.,0.,-1.));
#503=DIRECTION('',(-1.,0.,0.));
#504=DIRECTION('',(1.,0.,0.));
#505=DIRECTION('',(-2.04085114820801E-16,1.,0.));
#506=DIRECTION('',(-1.,0.,0.));
#507=DIRECTION('',(0.,1.,0.));
#508=DIRECTION('',(0.,-1.,0.));
#509=DIRECTION('',(1.,0.,0.));
#510=DIRECTION('',(0.,0.,1.));
#511=DIRECTION('',(0.,0.,-1.));
#512=DIRECTION('',(1.,0.,0.));
#513=DIRECTION('',(0.,0.,-1.));
#514=DIRECTION('',(0.,0.,-1.));
#515=DIRECTION('',(0.,0.,-1.));
#516=DIRECTION('',(0.,0.,-1.));
#517=DIRECTION('',(0.,1.,0.));
#518=DIRECTION('',(0.,0.,-1.));
#519=DIRECTION('',(0.,1.,0.));
#520=DIRECTION('',(0.,0.,-1.));
#521=DIRECTION('',(-1.,0.,0.));
#522=DIRECTION('',(1.,0.,0.));
#523=DIRECTION('',(-1.7347234759768E-16,1.,0.));
#524=DIRECTION('',(0.,1.,0.));
#525=DIRECTION('',(1.,0.,0.));
#526=DIRECTION('',(0.,1.,0.));
#527=DIRECTION('',(1.,6.19544098563146E-17,0.));
#528=DIRECTION('',(-2.04085114820801E-16,1.,0.));
#529=DIRECTION('',(1.,0.,0.));
#530=DIRECTION('',(-1.,0.,0.));
#531=DIRECTION('',(-1.7347234759768E-16,1.,0.));
#532=DIRECTION('',(1.,0.,0.));
#533=DIRECTION('',(0.,0.,-1.));
#534=DIRECTION('',(0.,-1.,0.));
#535=DIRECTION('',(0.,0.,1.));
#536=DIRECTION('',(0.,0.,1.));
#537=DIRECTION('',(0.,-1.,0.));
#538=DIRECTION('',(1.,0.,0.));
#539=DIRECTION('',(0.,0.,1.));
#540=DIRECTION('',(0.,-1.,0.));
#541=DIRECTION('',(1.,0.,0.));
#542=DIRECTION('',(0.,0.,1.));
#543=DIRECTION('',(1.,0.,0.));
#544=DIRECTION('',(0.,0.,-1.));
#545=DIRECTION('',(0.,0.,-1.));
#546=DIRECTION('',(0.,0.,1.));
#547=DIRECTION('',(0.,0.,-1.));
#548=DIRECTION('',(0.,1.,0.));
#549=DIRECTION('',(1.,2.04085114820801E-16,0.));
#550=DIRECTION('',(-2.04085114820801E-16,1.,0.));
#551=DIRECTION('',(0.,0.,-1.));
#552=DIRECTION('',(-2.04085114820801E-16,1.,0.));
#553=DIRECTION('',(0.,0.,-1.));
#554=DIRECTION('',(0.,0.,1.));
#555=DIRECTION('',(6.19544098563146E-17,-1.,0.));
#556=DIRECTION('',(1.,6.19544098563146E-17,0.));
#557=DIRECTION('',(0.,-1.,0.));
#558=DIRECTION('',(0.,0.,-1.));
#559=DIRECTION('',(1.,0.,0.));
#560=DIRECTION('',(0.,0.,-1.));
#561=DIRECTION('',(-1.,0.,0.));
#562=DIRECTION('',(1.,0.,0.));
#563=DIRECTION('',(0.,-1.,0.));
#564=DIRECTION('',(0.,0.,-1.));
#565=DIRECTION('',(0.,-1.,0.));
#566=DIRECTION('',(0.,0.,-1.));
#567=DIRECTION('',(1.,0.,0.));
#568=DIRECTION('',(0.,0.,-1.));
#569=DIRECTION('',(-1.,0.,0.));
#570=DIRECTION('',(1.,0.,0.));
#571=DIRECTION('',(0.,-1.,0.));
#572=DIRECTION('',(0.,0.,-1.));
#573=DIRECTION('',(1.,1.7347234759768E-16,0.));
#574=DIRECTION('',(-1.7347234759768E-16,1.,0.));
#575=DIRECTION('',(0.,0.,1.));
#576=DIRECTION('',(0.,-1.,0.));
#577=DIRECTION('',(0.,0.,-1.));
#578=DIRECTION('',(0.,0.,1.));
#579=DIRECTION('',(1.,1.7347234759768E-16,0.));
#580=DIRECTION('',(-1.7347234759768E-16,1.,0.));
#581=CARTESIAN_POINT('',(0.,0.,0.));
#582=CARTESIAN_POINT('',(0.,-0.02,-0.009));
#583=CARTESIAN_POINT('',(0.,0.,-0.009));
#584=CARTESIAN_POINT('',(-0.002,0.,-0.009));
#585=CARTESIAN_POINT('',(-0.0135,0.,-0.009));
#586=CARTESIAN_POINT('',(-0.002,-0.02,-0.009));
#587=CARTESIAN_POINT('',(-0.002,-0.00125,-0.009));
#588=CARTESIAN_POINT('',(0.,-0.00125,-0.009));
#589=CARTESIAN_POINT('',(0.002,-0.00125,-0.009));
#590=CARTESIAN_POINT('',(0.002,-0.02,-0.009));
#591=CARTESIAN_POINT('',(0.002,0.,-0.009));
#592=CARTESIAN_POINT('',(0.,0.,-0.009));
#593=CARTESIAN_POINT('',(0.0135,0.,-0.009));
#594=CARTESIAN_POINT('',(0.0135,-0.02,-0.009));
#595=CARTESIAN_POINT('',(0.0135,-0.02,-0.009));
#596=CARTESIAN_POINT('',(0.,-0.02,-0.009));
#597=CARTESIAN_POINT('',(0.0105,-0.02,-0.009));
#598=CARTESIAN_POINT('',(0.0105,-0.02,-0.009));
#599=CARTESIAN_POINT('',(0.0105,-0.003,-0.009));
#600=CARTESIAN_POINT('',(-1.05322496755735E-18,-0.003,-0.009));
#601=CARTESIAN_POINT('',(-0.0105,-0.003,-0.009));
#602=CARTESIAN_POINT('',(-0.0105,-0.02,-0.009));
#603=CARTESIAN_POINT('',(-0.0105,-0.02,-0.009));
#604=CARTESIAN_POINT('',(0.,-0.02,-0.009));
#605=CARTESIAN_POINT('',(-0.0135,-0.02,-0.009));
#606=CARTESIAN_POINT('',(-0.0135,-0.02,-0.009));
#607=CARTESIAN_POINT('',(0.,0.,0.));
#608=CARTESIAN_POINT('',(-0.002,0.,0.));
#609=CARTESIAN_POINT('',(-0.002,0.,0.009));
#610=CARTESIAN_POINT('',(-0.0135,0.,-1.7347234759768E-18));
#611=CARTESIAN_POINT('',(-0.0135,0.,0.009));
#612=CARTESIAN_POINT('',(0.,0.,0.009));
#613=CARTESIAN_POINT('',(0.,-0.02,0.009));
#614=CARTESIAN_POINT('',(-0.013502,-0.0153,0.009));
#615=CARTESIAN_POINT('',(-0.0135,-0.0153,0.009));
#616=CARTESIAN_POINT('',(-0.0105,-0.0153,0.009));
#617=CARTESIAN_POINT('',(-0.0135,-0.02,0.009));
#618=CARTESIAN_POINT('',(-0.0135,-0.02,0.009));
#619=CARTESIAN_POINT('',(0.,-0.02,0.009));
#620=CARTESIAN_POINT('',(-0.0105,-0.02,0.009));
#621=CARTESIAN_POINT('',(-0.0105,-0.0115,0.009));
#622=CARTESIAN_POINT('',(0.,-0.02,0.009));
#623=CARTESIAN_POINT('',(-0.013502,-0.0153,0.009));
#624=CARTESIAN_POINT('',(0.0105,-0.0153,0.009));
#625=CARTESIAN_POINT('',(0.0135,-0.0153,0.009));
#626=CARTESIAN_POINT('',(0.0105,-0.0115,0.009));
#627=CARTESIAN_POINT('',(0.0105,-0.02,0.009));
#628=CARTESIAN_POINT('',(0.,-0.02,0.009));
#629=CARTESIAN_POINT('',(0.0135,-0.02,0.009));
#630=CARTESIAN_POINT('',(0.0135,-0.02,0.009));
#631=CARTESIAN_POINT('',(0.,-0.02,0.));
#632=CARTESIAN_POINT('',(-0.0105,-0.02,-0.016));
#633=CARTESIAN_POINT('',(-0.0135,-0.02,-1.7347234759768E-18));
#634=CARTESIAN_POINT('',(0.0135,-0.02,0.));
#635=CARTESIAN_POINT('',(0.0135,-0.0153,0.0027));
#636=CARTESIAN_POINT('',(0.0135,-0.0153,-0.0036));
#637=CARTESIAN_POINT('',(0.0135,-0.02,0.));
#638=CARTESIAN_POINT('',(0.0135,0.,0.));
#639=CARTESIAN_POINT('',(0.0135,0.,0.009));
#640=CARTESIAN_POINT('',(0.0135,-0.02,0.009));
#641=CARTESIAN_POINT('',(0.0135,-0.0115,0.009));
#642=CARTESIAN_POINT('',(0.0135,-0.0115,0.0027));
#643=CARTESIAN_POINT('',(0.0135,-0.0115,-0.0036));
#644=CARTESIAN_POINT('',(0.0135,-0.0134,-0.0036));
#645=CARTESIAN_POINT('',(0.,-0.02,0.009));
#646=CARTESIAN_POINT('',(4.33680868994202E-19,-0.00125,0.009));
#647=CARTESIAN_POINT('',(-0.002,-0.00125,0.009));
#648=CARTESIAN_POINT('',(0.002,-0.00125,0.009));
#649=CARTESIAN_POINT('',(-0.002,0.,0.009));
#650=CARTESIAN_POINT('',(-0.0135,-0.02,0.009));
#651=CARTESIAN_POINT('',(-0.0135,-0.0115,0.009));
#652=CARTESIAN_POINT('',(-0.013502,-0.0115,0.009));
#653=CARTESIAN_POINT('',(-0.0105,-0.0115,0.009));
#654=CARTESIAN_POINT('',(-0.0105,-0.0115,0.009));
#655=CARTESIAN_POINT('',(-0.0105,-0.003,0.009));
#656=CARTESIAN_POINT('',(0.,-0.003,0.009));
#657=CARTESIAN_POINT('',(0.0105,-0.003,0.009));
#658=CARTESIAN_POINT('',(0.0105,-0.0115,0.009));
#659=CARTESIAN_POINT('',(0.0105,-0.0115,0.009));
#660=CARTESIAN_POINT('',(-0.013502,-0.0115,0.009));
#661=CARTESIAN_POINT('',(0.,0.,0.009));
#662=CARTESIAN_POINT('',(0.002,0.,0.009));
#663=CARTESIAN_POINT('',(0.002,0.,0.009));
#664=CARTESIAN_POINT('',(-0.0135,-0.02,-1.7347234759768E-18));
#665=CARTESIAN_POINT('',(-0.0135,-0.0134,-0.0036));
#666=CARTESIAN_POINT('',(-0.0135,-0.0115,-0.0036));
#667=CARTESIAN_POINT('',(-0.0135,-0.0153,-0.0036));
#668=CARTESIAN_POINT('',(-0.0135,-0.0115,0.0027));
#669=CARTESIAN_POINT('',(-0.0135,-0.0153,0.0027));
#670=CARTESIAN_POINT('',(0.,-0.02,0.));
#671=CARTESIAN_POINT('',(0.0105,-0.02,-0.016));
#672=CARTESIAN_POINT('',(0.,0.,0.));
#673=CARTESIAN_POINT('',(0.002,0.,0.));
#674=CARTESIAN_POINT('',(-0.0105,-0.0115,-0.016));
#675=CARTESIAN_POINT('',(-0.0105,-0.0153,-0.016));
#676=CARTESIAN_POINT('',(-0.0105,-0.0153,-0.0036));
#677=CARTESIAN_POINT('',(-0.0105,-0.003,-0.016));
#678=CARTESIAN_POINT('',(-0.0105,-0.0115,-0.016));
#679=CARTESIAN_POINT('',(-0.0105,-0.0115,-0.0036));
#680=CARTESIAN_POINT('',(-0.0105,-0.0115,-0.0036));
#681=CARTESIAN_POINT('',(0.0105,-0.0115,-0.016));
#682=CARTESIAN_POINT('',(0.0105,-0.0153,-0.016));
#683=CARTESIAN_POINT('',(0.0105,-0.0153,-0.0036));
#684=CARTESIAN_POINT('',(0.0105,-0.0115,-0.0036));
#685=CARTESIAN_POINT('',(0.0105,-0.0115,-0.0036));
#686=CARTESIAN_POINT('',(0.0105,-0.0115,-0.016));
#687=CARTESIAN_POINT('',(0.0105,-0.003,-0.016));
#688=CARTESIAN_POINT('',(0.,-0.003,-0.016));
#689=CARTESIAN_POINT('',(-0.013502,-0.0115,0.0027));
#690=CARTESIAN_POINT('',(-0.013502,-0.0115,-0.0036));
#691=CARTESIAN_POINT('',(-0.013502,-0.0134,-0.0036));
#692=CARTESIAN_POINT('',(-0.013502,-0.0153,-0.0036));
#693=CARTESIAN_POINT('',(-0.013502,-0.0153,0.0027));
#694=CARTESIAN_POINT('',(-0.013502,-0.0115,0.0027));
#695=CARTESIAN_POINT('',(-0.013502,-0.0115,-0.0036));
#696=CARTESIAN_POINT('',(-0.013502,-0.0134,-0.0036));
#697=CARTESIAN_POINT('',(-0.013502,-0.0153,-0.0036));
#698=CARTESIAN_POINT('',(-0.013502,-0.0153,0.0027));
#699=CARTESIAN_POINT('',(-0.002,0.,-0.016));
#700=CARTESIAN_POINT('',(-0.002,-0.00125,-0.016));
#701=CARTESIAN_POINT('',(4.33680868994202E-19,-0.00125,-0.016));
#702=CARTESIAN_POINT('',(0.002,-0.00125,-0.016));
#703=CARTESIAN_POINT('',(0.002,0.,-0.016));
#704=MECHANICAL_DESIGN_GEOMETRIC_PRESENTATION_REPRESENTATION('',(#441),
#705);
#705=(
GEOMETRIC_REPRESENTATION_CONTEXT(3)
GLOBAL_UNCERTAINTY_ASSIGNED_CONTEXT((#706))
GLOBAL_UNIT_ASSIGNED_CONTEXT((#709,#708,#707))
REPRESENTATION_CONTEXT('Slider Crayon','TOP_LEVEL_ASSEMBLY_PART')
);
#706=UNCERTAINTY_MEASURE_WITH_UNIT(LENGTH_MEASURE(1.E-8),#709,
'DISTANCE_ACCURACY_VALUE','Maximum Tolerance applied to model');
#707=(
NAMED_UNIT(*)
SI_UNIT($,.STERADIAN.)
SOLID_ANGLE_UNIT()
);
#708=(
NAMED_UNIT(*)
PLANE_ANGLE_UNIT()
SI_UNIT($,.RADIAN.)
);
#709=(
LENGTH_UNIT()
NAMED_UNIT(*)
SI_UNIT($,.METRE.)
);
#710=PRODUCT_DEFINITION_SHAPE('','',#711);
#711=PRODUCT_DEFINITION('','',#713,#712);
#712=PRODUCT_DEFINITION_CONTEXT('',#719,'design');
#713=PRODUCT_DEFINITION_FORMATION_WITH_SPECIFIED_SOURCE('','',#715,
 .NOT_KNOWN.);
#714=PRODUCT_RELATED_PRODUCT_CATEGORY('','',(#715));
#715=PRODUCT('Slider Crayon','Slider Crayon','Slider Crayon',(#717));
#716=PRODUCT_CATEGORY('','');
#717=PRODUCT_CONTEXT('',#719,'mechanical');
#718=APPLICATION_PROTOCOL_DEFINITION('international standard',
'ap242_managed_model_based_3d_engineering',2020,#719);
#719=APPLICATION_CONTEXT('managed model based 3d engineering');
ENDSEC;
END-ISO-10303-21;
