ISO-10303-21;
HEADER;
/* Generated by software containing ST-Developer
 * from STEP Tools, Inc. (www.steptools.com) 
 */
/* OPTION: using custom renumber hook */

FILE_DESCRIPTION(
/* description */ ('STEP AP242 Edition 2',
'CAx-IF Rec.Pracs.---Representation and Presentation of Product Manufa
cturing Information (PMI)---4.0---2014-10-13',
'CAx-IF Rec.Pracs.---3D Tessellated Geometry---0.4---2014-09-14','2;1',
'CAx-IF Rec.Pracs.---User Defined Attributes---1.5---2016-08-15'),
/* implementation_level */ '2;1');

FILE_NAME(
/* name */ 'Tube crayon - Tube Crayon',
/* time_stamp */ '2026-04-15T18:35:21Z',
/* author */ (''),
/* organization */ (''),
/* preprocessor_version */ 'ST-DEVELOPER v20',
/* originating_system */ 'ONSHAPE BY PTC INC, 1.213',
/* authorisation */ '  ');

FILE_SCHEMA (('AP242_MANAGED_MODEL_BASED_3D_ENGINEERING_MIM_LF { 1 0 10303 442 3 1 4 }'));
ENDSEC;

DATA;
#10=SHAPE_REPRESENTATION_RELATIONSHIP('','',#239,#11);
#11=ADVANCED_BREP_SHAPE_REPRESENTATION('',(#237),#385);
#12=CYLINDRICAL_SURFACE('',#244,0.0065);
#13=CYLINDRICAL_SURFACE('',#256,0.0053);
#14=CIRCLE('',#243,0.0065);
#15=CIRCLE('',#245,0.0065);
#16=CIRCLE('',#246,0.0065);
#17=CIRCLE('',#247,0.0065);
#18=CIRCLE('',#249,0.0053);
#19=CIRCLE('',#251,0.0053);
#20=ORIENTED_EDGE('',*,*,#76,.F.);
#21=ORIENTED_EDGE('',*,*,#77,.T.);
#22=ORIENTED_EDGE('',*,*,#78,.F.);
#23=ORIENTED_EDGE('',*,*,#79,.F.);
#24=ORIENTED_EDGE('',*,*,#80,.F.);
#25=ORIENTED_EDGE('',*,*,#81,.F.);
#26=ORIENTED_EDGE('',*,*,#82,.F.);
#27=ORIENTED_EDGE('',*,*,#83,.T.);
#28=ORIENTED_EDGE('',*,*,#84,.T.);
#29=ORIENTED_EDGE('',*,*,#77,.F.);
#30=ORIENTED_EDGE('',*,*,#85,.T.);
#31=ORIENTED_EDGE('',*,*,#86,.F.);
#32=ORIENTED_EDGE('',*,*,#87,.F.);
#33=ORIENTED_EDGE('',*,*,#88,.T.);
#34=ORIENTED_EDGE('',*,*,#89,.T.);
#35=ORIENTED_EDGE('',*,*,#83,.F.);
#36=ORIENTED_EDGE('',*,*,#90,.F.);
#37=ORIENTED_EDGE('',*,*,#91,.T.);
#38=ORIENTED_EDGE('',*,*,#92,.T.);
#39=ORIENTED_EDGE('',*,*,#90,.T.);
#40=ORIENTED_EDGE('',*,*,#93,.F.);
#41=ORIENTED_EDGE('',*,*,#91,.F.);
#42=ORIENTED_EDGE('',*,*,#94,.F.);
#43=ORIENTED_EDGE('',*,*,#87,.T.);
#44=ORIENTED_EDGE('',*,*,#82,.T.);
#45=ORIENTED_EDGE('',*,*,#95,.F.);
#46=ORIENTED_EDGE('',*,*,#89,.F.);
#47=ORIENTED_EDGE('',*,*,#96,.T.);
#48=ORIENTED_EDGE('',*,*,#78,.T.);
#49=ORIENTED_EDGE('',*,*,#84,.F.);
#50=ORIENTED_EDGE('',*,*,#81,.T.);
#51=ORIENTED_EDGE('',*,*,#97,.T.);
#52=ORIENTED_EDGE('',*,*,#98,.F.);
#53=ORIENTED_EDGE('',*,*,#95,.T.);
#54=ORIENTED_EDGE('',*,*,#99,.F.);
#55=ORIENTED_EDGE('',*,*,#100,.F.);
#56=ORIENTED_EDGE('',*,*,#101,.T.);
#57=ORIENTED_EDGE('',*,*,#79,.T.);
#58=ORIENTED_EDGE('',*,*,#96,.F.);
#59=ORIENTED_EDGE('',*,*,#88,.F.);
#60=ORIENTED_EDGE('',*,*,#94,.T.);
#61=ORIENTED_EDGE('',*,*,#98,.T.);
#62=ORIENTED_EDGE('',*,*,#92,.F.);
#63=ORIENTED_EDGE('',*,*,#93,.T.);
#64=ORIENTED_EDGE('',*,*,#80,.T.);
#65=ORIENTED_EDGE('',*,*,#102,.F.);
#66=ORIENTED_EDGE('',*,*,#99,.T.);
#67=ORIENTED_EDGE('',*,*,#97,.F.);
#68=ORIENTED_EDGE('',*,*,#76,.T.);
#69=ORIENTED_EDGE('',*,*,#101,.F.);
#70=ORIENTED_EDGE('',*,*,#103,.T.);
#71=ORIENTED_EDGE('',*,*,#85,.F.);
#72=ORIENTED_EDGE('',*,*,#100,.T.);
#73=ORIENTED_EDGE('',*,*,#102,.T.);
#74=ORIENTED_EDGE('',*,*,#86,.T.);
#75=ORIENTED_EDGE('',*,*,#103,.F.);
#76=EDGE_CURVE('',#104,#105,#124,.T.);
#77=EDGE_CURVE('',#104,#106,#125,.T.);
#78=EDGE_CURVE('',#107,#106,#126,.T.);
#79=EDGE_CURVE('',#105,#107,#127,.T.);
#80=EDGE_CURVE('',#108,#109,#128,.T.);
#81=EDGE_CURVE('',#110,#108,#129,.T.);
#82=EDGE_CURVE('',#111,#110,#130,.T.);
#83=EDGE_CURVE('',#111,#112,#14,.T.);
#84=EDGE_CURVE('',#112,#106,#131,.T.);
#85=EDGE_CURVE('',#104,#113,#132,.T.);
#86=EDGE_CURVE('',#109,#113,#133,.T.);
#87=EDGE_CURVE('',#114,#111,#134,.T.);
#88=EDGE_CURVE('',#114,#115,#15,.T.);
#89=EDGE_CURVE('',#115,#112,#135,.T.);
#90=EDGE_CURVE('',#116,#116,#16,.T.);
#91=EDGE_CURVE('',#117,#117,#17,.T.);
#92=EDGE_CURVE('',#118,#118,#18,.T.);
#93=EDGE_CURVE('',#119,#119,#19,.T.);
#94=EDGE_CURVE('',#114,#120,#136,.T.);
#95=EDGE_CURVE('',#120,#110,#137,.T.);
#96=EDGE_CURVE('',#115,#107,#138,.T.);
#97=EDGE_CURVE('',#108,#121,#139,.T.);
#98=EDGE_CURVE('',#120,#121,#140,.T.);
#99=EDGE_CURVE('',#122,#121,#141,.T.);
#100=EDGE_CURVE('',#123,#122,#142,.T.);
#101=EDGE_CURVE('',#123,#105,#143,.T.);
#102=EDGE_CURVE('',#122,#109,#144,.T.);
#103=EDGE_CURVE('',#123,#113,#145,.T.);
#104=VERTEX_POINT('',#325);
#105=VERTEX_POINT('',#326);
#106=VERTEX_POINT('',#328);
#107=VERTEX_POINT('',#330);
#108=VERTEX_POINT('',#334);
#109=VERTEX_POINT('',#335);
#110=VERTEX_POINT('',#337);
#111=VERTEX_POINT('',#339);
#112=VERTEX_POINT('',#341);
#113=VERTEX_POINT('',#344);
#114=VERTEX_POINT('',#348);
#115=VERTEX_POINT('',#350);
#116=VERTEX_POINT('',#353);
#117=VERTEX_POINT('',#355);
#118=VERTEX_POINT('',#358);
#119=VERTEX_POINT('',#361);
#120=VERTEX_POINT('',#364);
#121=VERTEX_POINT('',#370);
#122=VERTEX_POINT('',#374);
#123=VERTEX_POINT('',#376);
#124=LINE('',#324,#146);
#125=LINE('',#327,#147);
#126=LINE('',#329,#148);
#127=LINE('',#331,#149);
#128=LINE('',#333,#150);
#129=LINE('',#336,#151);
#130=LINE('',#338,#152);
#131=LINE('',#342,#153);
#132=LINE('',#343,#154);
#133=LINE('',#345,#155);
#134=LINE('',#347,#156);
#135=LINE('',#351,#157);
#136=LINE('',#363,#158);
#137=LINE('',#365,#159);
#138=LINE('',#367,#160);
#139=LINE('',#369,#161);
#140=LINE('',#371,#162);
#141=LINE('',#373,#163);
#142=LINE('',#375,#164);
#143=LINE('',#377,#165);
#144=LINE('',#380,#166);
#145=LINE('',#382,#167);
#146=VECTOR('',#264,1.);
#147=VECTOR('',#265,1.);
#148=VECTOR('',#266,1.);
#149=VECTOR('',#267,1.);
#150=VECTOR('',#270,1.);
#151=VECTOR('',#271,1.);
#152=VECTOR('',#272,1.);
#153=VECTOR('',#275,1.);
#154=VECTOR('',#276,1.);
#155=VECTOR('',#277,1.);
#156=VECTOR('',#280,1.);
#157=VECTOR('',#283,1.);
#158=VECTOR('',#298,1.);
#159=VECTOR('',#299,1.);
#160=VECTOR('',#302,1.);
#161=VECTOR('',#305,1.);
#162=VECTOR('',#306,1.);
#163=VECTOR('',#309,1.);
#164=VECTOR('',#310,1.);
#165=VECTOR('',#311,1.);
#166=VECTOR('',#316,1.);
#167=VECTOR('',#319,1.);
#168=EDGE_LOOP('',(#20,#21,#22,#23));
#169=EDGE_LOOP('',(#24,#25,#26,#27,#28,#29,#30,#31));
#170=EDGE_LOOP('',(#32,#33,#34,#35));
#171=EDGE_LOOP('',(#36));
#172=EDGE_LOOP('',(#37));
#173=EDGE_LOOP('',(#38));
#174=EDGE_LOOP('',(#39));
#175=EDGE_LOOP('',(#40));
#176=EDGE_LOOP('',(#41));
#177=EDGE_LOOP('',(#42,#43,#44,#45));
#178=EDGE_LOOP('',(#46,#47,#48,#49));
#179=EDGE_LOOP('',(#50,#51,#52,#53));
#180=EDGE_LOOP('',(#54,#55,#56,#57,#58,#59,#60,#61));
#181=EDGE_LOOP('',(#62));
#182=EDGE_LOOP('',(#63));
#183=EDGE_LOOP('',(#64,#65,#66,#67));
#184=EDGE_LOOP('',(#68,#69,#70,#71));
#185=EDGE_LOOP('',(#72,#73,#74,#75));
#186=FACE_BOUND('',#168,.T.);
#187=FACE_BOUND('',#169,.T.);
#188=FACE_BOUND('',#170,.T.);
#189=FACE_BOUND('',#171,.T.);
#190=FACE_BOUND('',#172,.T.);
#191=FACE_BOUND('',#173,.T.);
#192=FACE_BOUND('',#174,.T.);
#193=FACE_BOUND('',#175,.T.);
#194=FACE_BOUND('',#176,.T.);
#195=FACE_BOUND('',#177,.T.);
#196=FACE_BOUND('',#178,.T.);
#197=FACE_BOUND('',#179,.T.);
#198=FACE_BOUND('',#180,.T.);
#199=FACE_BOUND('',#181,.T.);
#200=FACE_BOUND('',#182,.T.);
#201=FACE_BOUND('',#183,.T.);
#202=FACE_BOUND('',#184,.T.);
#203=FACE_BOUND('',#185,.T.);
#204=PLANE('',#241);
#205=PLANE('',#242);
#206=PLANE('',#248);
#207=PLANE('',#250);
#208=PLANE('',#252);
#209=PLANE('',#253);
#210=PLANE('',#254);
#211=PLANE('',#255);
#212=PLANE('',#257);
#213=PLANE('',#258);
#214=PLANE('',#259);
#215=ADVANCED_FACE('',(#186),#204,.F.);
#216=ADVANCED_FACE('',(#187),#205,.F.);
#217=ADVANCED_FACE('',(#188,#189,#190),#12,.T.);
#218=ADVANCED_FACE('',(#191,#192),#206,.T.);
#219=ADVANCED_FACE('',(#193,#194),#207,.F.);
#220=ADVANCED_FACE('',(#195),#208,.F.);
#221=ADVANCED_FACE('',(#196),#209,.T.);
#222=ADVANCED_FACE('',(#197),#210,.F.);
#223=ADVANCED_FACE('',(#198),#211,.T.);
#224=ADVANCED_FACE('',(#199,#200),#13,.F.);
#225=ADVANCED_FACE('',(#201),#212,.F.);
#226=ADVANCED_FACE('',(#202),#213,.T.);
#227=ADVANCED_FACE('',(#203),#214,.F.);
#228=CLOSED_SHELL('',(#215,#216,#217,#218,#219,#220,#221,#222,#223,#224,
#225,#226,#227));
#229=STYLED_ITEM('',(#230),#237);
#230=PRESENTATION_STYLE_ASSIGNMENT((#231));
#231=SURFACE_STYLE_USAGE(.BOTH.,#232);
#232=SURFACE_SIDE_STYLE('',(#233));
#233=SURFACE_STYLE_FILL_AREA(#234);
#234=FILL_AREA_STYLE('',(#235));
#235=FILL_AREA_STYLE_COLOUR('',#236);
#236=COLOUR_RGB('',0.498039215686275,0.498039215686275,0.498039215686275);
#237=MANIFOLD_SOLID_BREP('Tube Crayon',#228);
#238=SHAPE_DEFINITION_REPRESENTATION(#390,#239);
#239=SHAPE_REPRESENTATION('Tube Crayon',(#240),#385);
#240=AXIS2_PLACEMENT_3D('',#322,#260,#261);
#241=AXIS2_PLACEMENT_3D('',#323,#262,#263);
#242=AXIS2_PLACEMENT_3D('',#332,#268,#269);
#243=AXIS2_PLACEMENT_3D('',#340,#273,#274);
#244=AXIS2_PLACEMENT_3D('',#346,#278,#279);
#245=AXIS2_PLACEMENT_3D('',#349,#281,#282);
#246=AXIS2_PLACEMENT_3D('',#352,#284,#285);
#247=AXIS2_PLACEMENT_3D('',#354,#286,#287);
#248=AXIS2_PLACEMENT_3D('',#356,#288,#289);
#249=AXIS2_PLACEMENT_3D('',#357,#290,#291);
#250=AXIS2_PLACEMENT_3D('',#359,#292,#293);
#251=AXIS2_PLACEMENT_3D('',#360,#294,#295);
#252=AXIS2_PLACEMENT_3D('',#362,#296,#297);
#253=AXIS2_PLACEMENT_3D('',#366,#300,#301);
#254=AXIS2_PLACEMENT_3D('',#368,#303,#304);
#255=AXIS2_PLACEMENT_3D('',#372,#307,#308);
#256=AXIS2_PLACEMENT_3D('',#378,#312,#313);
#257=AXIS2_PLACEMENT_3D('',#379,#314,#315);
#258=AXIS2_PLACEMENT_3D('',#381,#317,#318);
#259=AXIS2_PLACEMENT_3D('',#383,#320,#321);
#260=DIRECTION('',(0.,0.,1.));
#261=DIRECTION('',(1.,0.,0.));
#262=DIRECTION('',(-1.,-3.46944695195361E-16,0.));
#263=DIRECTION('',(3.46944695195361E-16,-1.,0.));
#264=DIRECTION('',(0.,0.,1.));
#265=DIRECTION('',(-3.46944695195361E-16,1.,0.));
#266=DIRECTION('',(0.,0.,-1.));
#267=DIRECTION('',(-3.46944695195361E-16,1.,0.));
#268=DIRECTION('',(0.,0.,1.));
#269=DIRECTION('',(1.,0.,0.));
#270=DIRECTION('',(-1.,-1.44560289664734E-16,0.));
#271=DIRECTION('',(-3.46944695195361E-16,1.,0.));
#272=DIRECTION('',(1.,0.,0.));
#273=DIRECTION('',(0.,0.,1.));
#274=DIRECTION('',(1.,0.,0.));
#275=DIRECTION('',(1.,0.,0.));
#276=DIRECTION('',(-1.,1.44560289664734E-16,0.));
#277=DIRECTION('',(0.,1.,0.));
#278=DIRECTION('',(0.,0.,-1.));
#279=DIRECTION('',(-1.,0.,0.));
#280=DIRECTION('',(0.,0.,-1.));
#281=DIRECTION('',(0.,0.,1.));
#282=DIRECTION('',(1.,0.,0.));
#283=DIRECTION('',(0.,0.,-1.));
#284=DIRECTION('',(0.,0.,1.));
#285=DIRECTION('',(1.,0.,0.));
#286=DIRECTION('',(0.,0.,1.));
#287=DIRECTION('',(1.,0.,0.));
#288=DIRECTION('',(0.,0.,1.));
#289=DIRECTION('',(1.,0.,0.));
#290=DIRECTION('',(0.,0.,-1.));
#291=DIRECTION('',(-1.,0.,0.));
#292=DIRECTION('',(0.,0.,1.));
#293=DIRECTION('',(1.,0.,0.));
#294=DIRECTION('',(0.,0.,-1.));
#295=DIRECTION('',(-1.,0.,0.));
#296=DIRECTION('',(0.,1.,0.));
#297=DIRECTION('',(0.,0.,1.));
#298=DIRECTION('',(1.,0.,0.));
#299=DIRECTION('',(0.,0.,-1.));
#300=DIRECTION('',(0.,1.,0.));
#301=DIRECTION('',(0.,0.,1.));
#302=DIRECTION('',(1.,0.,0.));
#303=DIRECTION('',(-1.,-3.46944695195361E-16,0.));
#304=DIRECTION('',(3.46944695195361E-16,-1.,0.));
#305=DIRECTION('',(0.,0.,1.));
#306=DIRECTION('',(-3.46944695195361E-16,1.,0.));
#307=DIRECTION('',(0.,0.,1.));
#308=DIRECTION('',(1.,0.,0.));
#309=DIRECTION('',(1.,1.44560289664734E-16,0.));
#310=DIRECTION('',(0.,-1.,0.));
#311=DIRECTION('',(1.,-1.44560289664734E-16,0.));
#312=DIRECTION('',(0.,0.,-1.));
#313=DIRECTION('',(-1.,0.,0.));
#314=DIRECTION('',(1.44560289664734E-16,-1.,0.));
#315=DIRECTION('',(1.,1.44560289664734E-16,0.));
#316=DIRECTION('',(0.,0.,-1.));
#317=DIRECTION('',(-1.44560289664734E-16,-1.,0.));
#318=DIRECTION('',(1.,-1.44560289664734E-16,0.));
#319=DIRECTION('',(0.,0.,-1.));
#320=DIRECTION('',(-1.,0.,0.));
#321=DIRECTION('',(0.,0.,1.));
#322=CARTESIAN_POINT('',(0.,0.,0.));
#323=CARTESIAN_POINT('',(0.013648,6.07153216591882E-18,0.0015));
#324=CARTESIAN_POINT('',(0.013648,0.002,0.0015));
#325=CARTESIAN_POINT('',(0.013648,0.002,-0.0015));
#326=CARTESIAN_POINT('',(0.013648,0.002,0.0015));
#327=CARTESIAN_POINT('',(0.013648,6.07153216591882E-18,-0.0015));
#328=CARTESIAN_POINT('',(0.013648,0.005,-0.0015));
#329=CARTESIAN_POINT('',(0.013648,0.005,0.0015));
#330=CARTESIAN_POINT('',(0.013648,0.005,0.0015));
#331=CARTESIAN_POINT('',(0.013648,6.07153216591882E-18,0.0015));
#332=CARTESIAN_POINT('',(0.008824,5.20417042793042E-18,-0.0015));
#333=CARTESIAN_POINT('',(0.013648,-0.002,-0.0015));
#334=CARTESIAN_POINT('',(0.013648,-0.002,-0.0015));
#335=CARTESIAN_POINT('',(0.012148,-0.002,-0.0015));
#336=CARTESIAN_POINT('',(0.013648,6.07153216591882E-18,-0.0015));
#337=CARTESIAN_POINT('',(0.013648,-0.005,-0.0015));
#338=CARTESIAN_POINT('',(0.008824,-0.005,-0.0015));
#339=CARTESIAN_POINT('',(0.00415331193145905,-0.005,-0.0015));
#340=CARTESIAN_POINT('',(0.,3.9801020972289E-19,-0.0015));
#341=CARTESIAN_POINT('',(0.00415331193145903,0.005,-0.0015));
#342=CARTESIAN_POINT('',(0.008824,0.005,-0.0015));
#343=CARTESIAN_POINT('',(0.013648,0.002,-0.0015));
#344=CARTESIAN_POINT('',(0.012148,0.002,-0.0015));
#345=CARTESIAN_POINT('',(0.012148,1.3010426069826E-18,-0.0015));
#346=CARTESIAN_POINT('',(0.,3.9801020972289E-19,0.0125));
#347=CARTESIAN_POINT('',(0.00415331193145905,-0.005,0.0125));
#348=CARTESIAN_POINT('',(0.00415331193145905,-0.005,0.0015));
#349=CARTESIAN_POINT('',(0.,3.9801020972289E-19,0.0015));
#350=CARTESIAN_POINT('',(0.00415331193145903,0.005,0.0015));
#351=CARTESIAN_POINT('',(0.00415331193145903,0.005,0.0125));
#352=CARTESIAN_POINT('',(0.,3.9801020972289E-19,0.0125));
#353=CARTESIAN_POINT('',(0.0065,3.9801020972289E-19,0.0125));
#354=CARTESIAN_POINT('',(0.,3.9801020972289E-19,-0.0125));
#355=CARTESIAN_POINT('',(0.0065,3.9801020972289E-19,-0.0125));
#356=CARTESIAN_POINT('',(0.,0.,0.0125));
#357=CARTESIAN_POINT('',(0.,-3.24531401774048E-19,0.0125));
#358=CARTESIAN_POINT('',(-0.0053,-3.24531401774048E-19,0.0125));
#359=CARTESIAN_POINT('',(0.,0.,-0.0125));
#360=CARTESIAN_POINT('',(0.,-3.24531401774048E-19,-0.0125));
#361=CARTESIAN_POINT('',(-0.0053,-3.24531401774048E-19,-0.0125));
#362=CARTESIAN_POINT('',(0.008824,-0.005,0.0015));
#363=CARTESIAN_POINT('',(0.008824,-0.005,0.0015));
#364=CARTESIAN_POINT('',(0.013648,-0.005,0.0015));
#365=CARTESIAN_POINT('',(0.013648,-0.005,0.0015));
#366=CARTESIAN_POINT('',(0.008824,0.005,0.0015));
#367=CARTESIAN_POINT('',(0.008824,0.005,0.0015));
#368=CARTESIAN_POINT('',(0.013648,6.07153216591882E-18,0.0015));
#369=CARTESIAN_POINT('',(0.013648,-0.002,0.0015));
#370=CARTESIAN_POINT('',(0.013648,-0.002,0.0015));
#371=CARTESIAN_POINT('',(0.013648,6.07153216591882E-18,0.0015));
#372=CARTESIAN_POINT('',(0.008824,5.20417042793042E-18,0.0015));
#373=CARTESIAN_POINT('',(0.008824,-0.002,0.0015));
#374=CARTESIAN_POINT('',(0.012148,-0.002,0.0015));
#375=CARTESIAN_POINT('',(0.012148,5.20417042793042E-18,0.0015));
#376=CARTESIAN_POINT('',(0.012148,0.002,0.0015));
#377=CARTESIAN_POINT('',(0.008824,0.002,0.0015));
#378=CARTESIAN_POINT('',(0.,-3.24531401774048E-19,0.0125));
#379=CARTESIAN_POINT('',(0.013648,-0.002,0.0235));
#380=CARTESIAN_POINT('',(0.012148,-0.002,0.0235));
#381=CARTESIAN_POINT('',(0.013648,0.002,0.0235));
#382=CARTESIAN_POINT('',(0.012148,0.002,0.0235));
#383=CARTESIAN_POINT('',(0.012148,1.3010426069826E-18,0.0235));
#384=MECHANICAL_DESIGN_GEOMETRIC_PRESENTATION_REPRESENTATION('',(#229),
#385);
#385=(
GEOMETRIC_REPRESENTATION_CONTEXT(3)
GLOBAL_UNCERTAINTY_ASSIGNED_CONTEXT((#386))
GLOBAL_UNIT_ASSIGNED_CONTEXT((#389,#388,#387))
REPRESENTATION_CONTEXT('Tube Crayon','TOP_LEVEL_ASSEMBLY_PART')
);
#386=UNCERTAINTY_MEASURE_WITH_UNIT(LENGTH_MEASURE(1.E-8),#389,
'DISTANCE_ACCURACY_VALUE','Maximum Tolerance applied to model');
#387=(
NAMED_UNIT(*)
SI_UNIT($,.STERADIAN.)
SOLID_ANGLE_UNIT()
);
#388=(
NAMED_UNIT(*)
PLANE_ANGLE_UNIT()
SI_UNIT($,.RADIAN.)
);
#389=(
LENGTH_UNIT()
NAMED_UNIT(*)
SI_UNIT($,.METRE.)
);
#390=PRODUCT_DEFINITION_SHAPE('','',#391);
#391=PRODUCT_DEFINITION('','',#393,#392);
#392=PRODUCT_DEFINITION_CONTEXT('',#399,'design');
#393=PRODUCT_DEFINITION_FORMATION_WITH_SPECIFIED_SOURCE('','',#395,
 .NOT_KNOWN.);
#394=PRODUCT_RELATED_PRODUCT_CATEGORY('','',(#395));
#395=PRODUCT('Tube Crayon','Tube Crayon','Tube Crayon',(#397));
#396=PRODUCT_CATEGORY('','');
#397=PRODUCT_CONTEXT('',#399,'mechanical');
#398=APPLICATION_PROTOCOL_DEFINITION('international standard',
'ap242_managed_model_based_3d_engineering',2020,#399);
#399=APPLICATION_CONTEXT('managed model based 3d engineering');
ENDSEC;
END-ISO-10303-21;
