  0
SECTION
  2
HEADER
  9
$ACADVER
  1
AC1014
  9
$HANDSEED
  5
FFFF
  9
$INSUNITS
 70
     4
  9
$MEASUREMENT
 70
     1
  0
ENDSEC
  0
SECTION
  2
TABLES
  0
TABLE
  2
VPORT
  5
8
330
0
100
AcDbSymbolTable
 70
     4
  0
VPORT
  5
2E
330
8
100
AcDbSymbolTableRecord
100
AcDbViewportTableRecord
  2
*ACTIVE
 70
     0
 10
0.0
 20
0.0
 11
1.0
 21
1.0
 12
210.0
 22
148.5
 13
0.0
 23
0.0
 14
10.0
 24
10.0
 15
10.0
 25
10.0
 16
0.0
 26
0.0
 36
1.0
 17
0.0
 27
0.0
 37
0.0
 40
341.0
 41
1.24
 42
50.0
 43
0.0
 44
0.0
 50
0.0
 51
0.0
 71
     0
 72
   100
 73
     1
 74
     3
 75
     0
 76
     0
 77
     0
 78
     0
  0
ENDTAB
  0
TABLE
  2
LTYPE
  5
5
330
0
100
AcDbSymbolTable
 70
     1
  0
LTYPE
  5
14
330
5
100
AcDbSymbolTableRecord
100
AcDbLinetypeTableRecord
  2
BYBLOCK
 70
     0
  3

 72
    65
 73
     0
 40
0.0
  0
LTYPE
  5
15
330
5
100
AcDbSymbolTableRecord
100
AcDbLinetypeTableRecord
  2
BYLAYER
 70
     0
  3

 72
    65
 73
     0
 40
0.0
  0
LTYPE
  5
16
330
5
100
AcDbSymbolTableRecord
100
AcDbLinetypeTableRecord
  2
CONTINUOUS
 70
     0
  3
Solid line
 72
    65
 73
     0
 40
0.0
  0
ENDTAB
  0
TABLE
  2
LAYER
  5
2
100
AcDbSymbolTable
 70
2
  0
LAYER
  5
50
100
AcDbSymbolTableRecord
100
AcDbLayerTableRecord
  2
0
 70
0
  6
CONTINUOUS
  0
LAYER
  5
51
100
AcDbSymbolTableRecord
100
AcDbLayerTableRecord
  2
Calque_1
 70
0
  6
CONTINUOUS
  0
ENDTAB
  0
TABLE
  2
STYLE
  5
3
330
0
100
AcDbSymbolTable
 70
     1
  0
STYLE
  5
11
330
3
100
AcDbSymbolTableRecord
100
AcDbTextStyleTableRecord
  2
STANDARD
 70
     0
 40
0.0
 41
1.0
 50
0.0
 71
     0
 42
2.5
  3
txt
  4

  0
ENDTAB
  0
TABLE
  2
VIEW
  5
6
330
0
100
AcDbSymbolTable
 70
     0
  0
ENDTAB
  0
TABLE
  2
UCS
  5
7
330
0
100
AcDbSymbolTable
 70
     0
  0
ENDTAB
  0
TABLE
  2
APPID
  5
9
330
0
100
AcDbSymbolTable
 70
     2
  0
APPID
  5
12
330
9
100
AcDbSymbolTableRecord
100
AcDbRegAppTableRecord
  2
ACAD
 70
     0
  0
ENDTAB
  0
TABLE
  2
DIMSTYLE
  5
A
330
0
100
AcDbSymbolTable
 70
     1
  0
DIMSTYLE
105
27
330
A
100
AcDbSymbolTableRecord
100
AcDbDimStyleTableRecord
  2
ISO-25
 70
     0
  3

  4

  5

  6

  7

 40
1.0
 41
2.5
 42
0.625
 43
3.75
 44
1.25
 45
0.0
 46
0.0
 47
0.0
 48
0.0
140
2.5
141
2.5
142
0.0
143
0.03937007874016
144
1.0
145
0.0
146
1.0
147
0.625
 71
     0
 72
     0
 73
     0
 74
     0
 75
     0
 76
     0
 77
     1
 78
     8
170
     0
171
     3
172
     1
173
     0
174
     0
175
     0
176
     0
177
     0
178
     0
270
     2
271
     2
272
     2
273
     2
274
     3
340
11
275
     0
280
     0
281
     0
282
     0
283
     0
284
     8
285
     0
286
     0
287
     3
288
     0
  0
ENDTAB
  0
TABLE
  2
BLOCK_RECORD
  5
1
330
0
100
AcDbSymbolTable
 70
     1
  0
BLOCK_RECORD
  5
1F
330
1
100
AcDbSymbolTableRecord
100
AcDbBlockTableRecord
  2
*MODEL_SPACE
  0
BLOCK_RECORD
  5
1B
330
1
100
AcDbSymbolTableRecord
100
AcDbBlockTableRecord
  2
*PAPER_SPACE
  0
ENDTAB
  0
ENDSEC
  0
SECTION
  2
BLOCKS
  0
BLOCK
  5
20
330
1F
100
AcDbEntity
  8
0
100
AcDbBlockBegin
  2
*MODEL_SPACE
 70
     0
 10
0.0
 20
0.0
 30
0.0
  3
*MODEL_SPACE
  1

  0
ENDBLK
  5
21
330
1F
100
AcDbEntity
  8
0
100
AcDbBlockEnd
  0
BLOCK
  5
1C
330
1B
100
AcDbEntity
 67
     1
  8
0
100
AcDbBlockBegin
  2
*PAPER_SPACE
  1

  0
ENDBLK
  5
1D
330
1B
100
AcDbEntity
 67
     1
  8
0
100
AcDbBlockEnd
  0
ENDSEC
  0
SECTION
  2
ENTITIES
  0
LWPOLYLINE
  5
100
100
AcDbEntity
  8
Calque_1
 62
7
100
AcDbPolyline
 90
200
 70
1
 10
100.904920
 20
284.026723
 30
0.0
 10
106.371922
 20
283.872206
 30
0.0
 10
111.757585
 20
283.415007
 30
0.0
 10
117.053505
 20
282.663062
 30
0.0
 10
122.251344
 20
281.624574
 30
0.0
 10
127.342688
 20
280.308273
 30
0.0
 10
132.319098
 20
278.722363
 30
0.0
 10
137.172344
 20
276.875044
 30
0.0
 10
141.894092
 20
274.774784
 30
0.0
 10
146.475611
 20
272.430314
 30
0.0
 10
150.908964
 20
269.849307
 30
0.0
 10
155.185419
 20
267.040494
 30
0.0
 10
159.296774
 20
264.012077
 30
0.0
 10
163.234563
 20
260.772787
 30
0.0
 10
166.990583
 20
257.330563
 30
0.0
 10
170.556368
 20
253.693869
 30
0.0
 10
173.923187
 20
249.870910
 30
0.0
 10
177.083366
 20
245.870415
 30
0.0
 10
180.027910
 20
241.700586
 30
0.0
 10
182.748617
 20
237.369627
 30
0.0
 10
185.237285
 20
232.886004
 30
0.0
 10
187.485182
 20
228.257918
 30
0.0
 10
189.484371
 20
223.494101
 30
0.0
 10
191.226121
 20
218.602491
 30
0.0
 10
192.702230
 20
213.591818
 30
0.0
 10
193.904230
 20
208.470020
 30
0.0
 10
194.823921
 20
203.245564
 30
0.0
 10
195.452570
 20
197.927181
 30
0.0
 10
195.782240
 20
192.522809
 30
0.0
 10
195.833040
 20
189.399142
 30
0.0
 10
195.833040
 20
189.399142
 30
0.0
 10
195.833040
 20
189.399142
 30
0.0
 10
195.833040
 20
189.399142
 30
0.0
 10
195.833040
 20
189.399142
 30
0.0
 10
195.833040
 20
189.399142
 30
0.0
 10
195.833040
 20
189.399142
 30
0.0
 10
195.833040
 20
189.399142
 30
0.0
 10
195.833040
 20
189.399142
 30
0.0
 10
195.833040
 20
189.399142
 30
0.0
 10
195.833040
 20
189.399142
 30
0.0
 10
195.833040
 20
189.399142
 30
0.0
 10
195.833040
 20
189.399142
 30
0.0
 10
195.833040
 20
189.399142
 30
0.0
 10
195.833040
 20
189.399142
 30
0.0
 10
195.833040
 20
189.399142
 30
0.0
 10
195.833040
 20
189.399142
 30
0.0
 10
195.833040
 20
189.399142
 30
0.0
 10
195.833040
 20
189.399142
 30
0.0
 10
195.833040
 20
189.399142
 30
0.0
 10
195.833040
 20
189.399142
 30
0.0
 10
195.833040
 20
189.399142
 30
0.0
 10
195.833040
 20
189.399142
 30
0.0
 10
195.833040
 20
189.399142
 30
0.0
 10
195.833040
 20
189.399142
 30
0.0
 10
195.833040
 20
189.399142
 30
0.0
 10
195.833040
 20
189.399142
 30
0.0
 10
195.833040
 20
189.399142
 30
0.0
 10
195.833040
 20
189.399142
 30
0.0
 10
195.719005
 20
184.723431
 30
0.0
 10
195.303081
 20
179.342607
 30
0.0
 10
194.590559
 20
174.050153
 30
0.0
 10
193.589377
 20
168.854272
 30
0.0
 10
192.308266
 20
163.763430
 30
0.0
 10
190.755163
 20
158.785831
 30
0.0
 10
188.939066
 20
153.929939
 30
0.0
 10
186.867910
 20
149.203957
 30
0.0
 10
184.550428
 20
144.616353
 30
0.0
 10
181.994556
 20
140.175591
 30
0.0
 10
179.209026
 20
135.889611
 30
0.0
 10
176.202040
 20
131.767408
 30
0.0
 10
172.982065
 20
127.816655
 30
0.0
 10
169.557567
 20
124.046347
 30
0.0
 10
165.936484
 20
120.464158
 30
0.0
 10
162.127812
 20
117.079083
 30
0.0
 10
158.139488
 20
113.899060
 30
0.0
 10
153.979979
 20
110.932820
 30
0.0
 10
149.658015
 20
108.188300
 30
0.0
 10
145.181535
 20
105.673968
 30
0.0
 10
140.559006
 20
103.398290
 30
0.0
 10
135.798893
 20
101.369467
 30
0.0
 10
130.909664
 20
99.595968
 30
0.0
 10
125.899361
 20
98.086257
 30
0.0
 10
120.776744
 20
96.848538
 30
0.0
 10
115.550039
 20
95.891012
 30
0.0
 10
110.227608
 20
95.222411
 30
0.0
 10
104.817856
 20
94.850671
 30
0.0
 10
100.904920
 20
94.771826
 30
0.0
 10
100.904920
 20
94.771826
 30
0.0
 10
100.904920
 20
94.771826
 30
0.0
 10
100.904920
 20
94.771826
 30
0.0
 10
100.904920
 20
94.771826
 30
0.0
 10
100.904920
 20
94.771826
 30
0.0
 10
100.904920
 20
94.771826
 30
0.0
 10
100.904920
 20
94.771826
 30
0.0
 10
100.904920
 20
94.771826
 30
0.0
 10
100.904920
 20
94.771826
 30
0.0
 10
100.904920
 20
94.771826
 30
0.0
 10
100.904920
 20
94.771826
 30
0.0
 10
100.904920
 20
94.771826
 30
0.0
 10
100.904920
 20
94.771826
 30
0.0
 10
100.904920
 20
94.771826
 30
0.0
 10
100.904920
 20
94.771826
 30
0.0
 10
100.904920
 20
94.771826
 30
0.0
 10
100.904920
 20
94.771826
 30
0.0
 10
100.904920
 20
94.771826
 30
0.0
 10
100.904920
 20
94.771826
 30
0.0
 10
100.904920
 20
94.771826
 30
0.0
 10
100.904920
 20
94.771826
 30
0.0
 10
100.904920
 20
94.771826
 30
0.0
 10
100.904920
 20
94.771826
 30
0.0
 10
100.904920
 20
94.771826
 30
0.0
 10
100.904920
 20
94.771826
 30
0.0
 10
100.904920
 20
94.771826
 30
0.0
 10
100.904920
 20
94.771826
 30
0.0
 10
100.904920
 20
94.771826
 30
0.0
 10
96.992002
 20
94.850671
 30
0.0
 10
91.582285
 20
95.222411
 30
0.0
 10
86.259880
 20
95.891012
 30
0.0
 10
81.033175
 20
96.848538
 30
0.0
 10
75.910531
 20
98.086257
 30
0.0
 10
70.900387
 20
99.595968
 30
0.0
 10
66.011158
 20
101.369467
 30
0.0
 10
61.251045
 20
103.398290
 30
0.0
 10
56.628516
 20
105.673968
 30
0.0
 10
52.152036
 20
108.188300
 30
0.0
 10
47.829808
 20
110.932820
 30
0.0
 10
43.670563
 20
113.899060
 30
0.0
 10
39.682239
 20
117.079083
 30
0.0
 10
35.873567
 20
120.464158
 30
0.0
 10
32.252484
 20
124.046347
 30
0.0
 10
28.827986
 20
127.816655
 30
0.0
 10
25.608011
 20
131.767408
 30
0.0
 10
22.601025
 20
135.889611
 30
0.0
 10
19.815496
 20
140.175591
 30
0.0
 10
17.259624
 20
144.616353
 30
0.0
 10
14.941877
 20
149.203957
 30
0.0
 10
12.870986
 20
153.929939
 30
0.0
 10
11.054623
 20
158.785831
 30
0.0
 10
9.501786
 20
163.763430
 30
0.0
 10
8.220675
 20
168.854272
 30
0.0
 10
7.219493
 20
174.050153
 30
0.0
 10
6.506971
 20
179.342607
 30
0.0
 10
6.091046
 20
184.723431
 30
0.0
 10
5.977011
 20
189.399142
 30
0.0
 10
5.977011
 20
189.399142
 30
0.0
 10
5.977011
 20
189.399142
 30
0.0
 10
5.977011
 20
189.399142
 30
0.0
 10
5.977011
 20
189.399142
 30
0.0
 10
5.977011
 20
189.399142
 30
0.0
 10
5.977011
 20
189.399142
 30
0.0
 10
5.977011
 20
189.399142
 30
0.0
 10
5.977011
 20
189.399142
 30
0.0
 10
5.977011
 20
189.399142
 30
0.0
 10
5.977011
 20
189.399142
 30
0.0
 10
5.977011
 20
189.399142
 30
0.0
 10
5.977011
 20
189.399142
 30
0.0
 10
5.977011
 20
189.399142
 30
0.0
 10
5.977011
 20
189.399142
 30
0.0
 10
5.977011
 20
189.399142
 30
0.0
 10
5.977011
 20
189.399142
 30
0.0
 10
5.977011
 20
189.399142
 30
0.0
 10
5.977011
 20
189.399142
 30
0.0
 10
5.977011
 20
189.399142
 30
0.0
 10
5.977011
 20
189.399142
 30
0.0
 10
5.977011
 20
189.399142
 30
0.0
 10
5.977011
 20
189.399142
 30
0.0
 10
5.977011
 20
189.399142
 30
0.0
 10
5.977011
 20
189.399142
 30
0.0
 10
5.977011
 20
189.399142
 30
0.0
 10
5.977011
 20
189.399142
 30
0.0
 10
5.977011
 20
189.399142
 30
0.0
 10
5.977011
 20
189.399142
 30
0.0
 10
6.027811
 20
192.522809
 30
0.0
 10
6.357481
 20
197.927181
 30
0.0
 10
6.986130
 20
203.245564
 30
0.0
 10
7.905821
 20
208.470020
 30
0.0
 10
9.107822
 20
213.591818
 30
0.0
 10
10.583930
 20
218.602491
 30
0.0
 10
12.325680
 20
223.494101
 30
0.0
 10
14.324605
 20
228.257918
 30
0.0
 10
16.572766
 20
232.886004
 30
0.0
 10
19.061434
 20
237.369627
 30
0.0
 10
21.782141
 20
241.700586
 30
0.0
 10
24.726685
 20
245.870415
 30
0.0
 10
27.886600
 20
249.870910
 30
0.0
 10
31.253683
 20
253.693869
 30
0.0
 10
34.819468
 20
257.330563
 30
0.0
 10
38.575224
 20
260.772787
 30
0.0
 10
42.513277
 20
264.012077
 30
0.0
 10
46.624633
 20
267.040494
 30
0.0
 10
50.901088
 20
269.849307
 30
0.0
 10
55.334176
 20
272.430314
 30
0.0
 10
59.915960
 20
274.774784
 30
0.0
 10
64.637443
 20
276.875044
 30
0.0
 10
69.490689
 20
278.722363
 30
0.0
 10
74.467231
 20
280.308273
 30
0.0
 10
79.558575
 20
281.624574
 30
0.0
 10
84.756387
 20
282.663062
 30
0.0
 10
90.052307
 20
283.415007
 30
0.0
 10
95.437947
 20
283.872206
 30
0.0
  0
LWPOLYLINE
  5
101
100
AcDbEntity
  8
Calque_1
 62
7
100
AcDbPolyline
 90
200
 70
1
 10
9.797060
 20
188.734774
 30
0.0
 10
10.344218
 20
199.525792
 30
0.0
 10
12.104489
 20
209.968089
 30
0.0
 10
15.009345
 20
219.988376
 30
0.0
 10
18.990526
 20
229.512835
 30
0.0
 10
23.979238
 20
238.467647
 30
0.0
 10
29.907220
 20
246.778728
 30
0.0
 10
36.705416
 20
254.373054
 30
0.0
 10
44.306092
 20
261.176277
 30
0.0
 10
52.640192
 20
267.114842
 30
0.0
 10
61.639453
 20
272.114931
 30
0.0
 10
71.235349
 20
276.102726
 30
0.0
 10
81.359089
 20
279.004937
 30
0.0
 10
91.942488
 20
280.747216
 30
0.0
 10
95.560581
 20
281.057572
 30
0.0
 10
95.560581
 20
281.057572
 30
0.0
 10
95.560581
 20
281.057572
 30
0.0
 10
95.560581
 20
281.057572
 30
0.0
 10
95.560581
 20
281.057572
 30
0.0
 10
95.560581
 20
281.057572
 30
0.0
 10
95.560581
 20
281.057572
 30
0.0
 10
95.560581
 20
281.057572
 30
0.0
 10
95.560581
 20
281.057572
 30
0.0
 10
95.560581
 20
281.057572
 30
0.0
 10
95.560581
 20
281.057572
 30
0.0
 10
95.560581
 20
281.057572
 30
0.0
 10
95.560581
 20
281.057572
 30
0.0
 10
95.579499
 20
281.058631
 30
0.0
 10
95.635379
 20
281.056514
 30
0.0
 10
95.689566
 20
281.048047
 30
0.0
 10
95.741635
 20
281.033231
 30
0.0
 10
95.791139
 20
281.012858
 30
0.0
 10
95.837679
 20
280.986664
 30
0.0
 10
95.880806
 20
280.955708
 30
0.0
 10
95.920070
 20
280.919989
 30
0.0
 10
95.955075
 20
280.880037
 30
0.0
 10
95.985343
 20
280.835852
 30
0.0
 10
96.010505
 20
280.788491
 30
0.0
 10
96.030084
 20
280.737691
 30
0.0
 10
96.043657
 20
280.684246
 30
0.0
 10
96.050774
 20
280.628154
 30
0.0
 10
96.050774
 20
280.628154
 30
0.0
 10
96.050774
 20
280.628154
 30
0.0
 10
96.050774
 20
280.628154
 30
0.0
 10
96.050774
 20
280.628154
 30
0.0
 10
96.050774
 20
280.628154
 30
0.0
 10
96.050774
 20
280.628154
 30
0.0
 10
96.050774
 20
280.628154
 30
0.0
 10
96.050774
 20
280.628154
 30
0.0
 10
96.050774
 20
280.628154
 30
0.0
 10
96.050774
 20
280.628154
 30
0.0
 10
96.050774
 20
280.628154
 30
0.0
 10
96.050774
 20
280.628154
 30
0.0
 10
96.050774
 20
280.628154
 30
0.0
 10
96.051753
 20
280.590583
 30
0.0
 10
96.047546
 20
280.535021
 30
0.0
 10
96.036910
 20
280.481575
 30
0.0
 10
96.020188
 20
280.430246
 30
0.0
 10
95.997805
 20
280.381827
 30
0.0
 10
95.970076
 20
280.336319
 30
0.0
 10
95.937427
 20
280.294515
 30
0.0
 10
95.900200
 20
280.256680
 30
0.0
 10
95.858793
 20
280.223078
 30
0.0
 10
95.813602
 20
280.194503
 30
0.0
 10
95.764945
 20
280.171219
 30
0.0
 10
95.713272
 20
280.153492
 30
0.0
 10
95.658874
 20
280.142115
 30
0.0
 10
95.621330
 20
280.138146
 30
0.0
 10
95.621330
 20
280.138146
 30
0.0
 10
95.621330
 20
280.138146
 30
0.0
 10
95.621330
 20
280.138146
 30
0.0
 10
95.621330
 20
280.138146
 30
0.0
 10
95.621330
 20
280.138146
 30
0.0
 10
95.621330
 20
280.138146
 30
0.0
 10
95.621330
 20
280.138146
 30
0.0
 10
95.621330
 20
280.138146
 30
0.0
 10
95.621330
 20
280.138146
 30
0.0
 10
95.621330
 20
280.138146
 30
0.0
 10
95.621330
 20
280.138146
 30
0.0
 10
95.621330
 20
280.138146
 30
0.0
 10
95.621330
 20
280.138146
 30
0.0
 10
85.007503
 20
278.812056
 30
0.0
 10
74.826005
 20
276.313599
 30
0.0
 10
65.144649
 20
272.715799
 30
0.0
 10
56.031352
 20
268.091682
 30
0.0
 10
47.554113
 20
262.514537
 30
0.0
 10
39.780135
 20
256.056595
 30
0.0
 10
32.777681
 20
248.791675
 30
0.0
 10
26.614749
 20
240.792273
 30
0.0
 10
21.358544
 20
232.131678
 30
0.0
 10
17.077591
 20
222.882914
 30
0.0
 10
13.839095
 20
213.118479
 30
0.0
 10
11.711318
 20
202.912189
 30
0.0
 10
10.761730
 20
192.336278
 30
0.0
 10
10.718867
 20
188.741653
 30
0.0
 10
10.718867
 20
188.741653
 30
0.0
 10
10.718867
 20
188.741653
 30
0.0
 10
10.718867
 20
188.741653
 30
0.0
 10
10.718867
 20
188.741653
 30
0.0
 10
10.718867
 20
188.741653
 30
0.0
 10
10.718867
 20
188.741653
 30
0.0
 10
10.718867
 20
188.741653
 30
0.0
 10
10.718867
 20
188.741653
 30
0.0
 10
10.718867
 20
188.741653
 30
0.0
 10
10.718867
 20
188.741653
 30
0.0
 10
10.718867
 20
188.741653
 30
0.0
 10
10.718867
 20
188.741653
 30
0.0
 10
10.815705
 20
185.147822
 30
0.0
 10
11.924043
 20
174.586992
 30
0.0
 10
14.205013
 20
164.413246
 30
0.0
 10
17.589559
 20
154.698817
 30
0.0
 10
22.009153
 20
145.515406
 30
0.0
 10
27.394476
 20
136.934714
 30
0.0
 10
33.676999
 20
129.029239
 30
0.0
 10
40.787667
 20
121.870417
 30
0.0
 10
48.657688
 20
115.530479
 30
0.0
 10
57.218007
 20
110.081392
 30
0.0
 10
66.399831
 20
105.595123
 30
0.0
 10
76.134633
 20
102.143637
 30
0.0
 10
86.352828
 20
99.798638
 30
0.0
 10
96.986022
 20
98.632356
 30
0.0
 10
96.986022
 20
98.632356
 30
0.0
 10
96.986022
 20
98.632356
 30
0.0
 10
96.986022
 20
98.632356
 30
0.0
 10
96.986022
 20
98.632356
 30
0.0
 10
96.986022
 20
98.632356
 30
0.0
 10
96.986022
 20
98.632356
 30
0.0
 10
96.986022
 20
98.632356
 30
0.0
 10
96.986022
 20
98.632356
 30
0.0
 10
96.986022
 20
98.632356
 30
0.0
 10
96.986022
 20
98.632356
 30
0.0
 10
96.986022
 20
98.632356
 30
0.0
 10
96.986022
 20
98.632356
 30
0.0
 10
96.986022
 20
98.632356
 30
0.0
 10
97.023620
 20
98.628652
 30
0.0
 10
97.078124
 20
98.618069
 30
0.0
 10
97.130035
 20
98.601135
 30
0.0
 10
97.179009
 20
98.578646
 30
0.0
 10
97.224623
 20
98.550600
 30
0.0
 10
97.266533
 20
98.517792
 30
0.0
 10
97.304316
 20
98.480486
 30
0.0
 10
97.337600
 20
98.438946
 30
0.0
 10
97.365990
 20
98.393967
 30
0.0
 10
97.389141
 20
98.345813
 30
0.0
 10
97.406630
 20
98.294748
 30
0.0
 10
97.418060
 20
98.241303
 30
0.0
 10
97.423087
 20
98.186005
 30
0.0
 10
97.422690
 20
98.148434
 30
0.0
 10
97.422690
 20
98.148434
 30
0.0
 10
97.422690
 20
98.148434
 30
0.0
 10
97.422690
 20
98.148434
 30
0.0
 10
97.422690
 20
98.148434
 30
0.0
 10
97.422690
 20
98.148434
 30
0.0
 10
97.422690
 20
98.148434
 30
0.0
 10
97.422690
 20
98.148434
 30
0.0
 10
97.422690
 20
98.148434
 30
0.0
 10
97.422690
 20
98.148434
 30
0.0
 10
97.422690
 20
98.148434
 30
0.0
 10
97.422690
 20
98.148434
 30
0.0
 10
97.422690
 20
98.148434
 30
0.0
 10
97.422690
 20
98.148434
 30
0.0
 10
97.416393
 20
98.092342
 30
0.0
 10
97.403640
 20
98.038632
 30
0.0
 10
97.384828
 20
97.987568
 30
0.0
 10
97.360381
 20
97.939678
 30
0.0
 10
97.330747
 20
97.895228
 30
0.0
 10
97.296325
 20
97.854747
 30
0.0
 10
97.257590
 20
97.818499
 30
0.0
 10
97.214913
 20
97.786749
 30
0.0
 10
97.168743
 20
97.760026
 30
0.0
 10
97.119531
 20
97.738595
 30
0.0
 10
97.067673
 20
97.723249
 30
0.0
 10
97.013592
 20
97.713724
 30
0.0
 10
96.957738
 20
97.711078
 30
0.0
 10
96.938794
 20
97.711607
 30
0.0
 10
96.938794
 20
97.711607
 30
0.0
 10
96.938794
 20
97.711607
 30
0.0
 10
96.938794
 20
97.711607
 30
0.0
 10
96.938794
 20
97.711607
 30
0.0
 10
96.938794
 20
97.711607
 30
0.0
 10
96.938794
 20
97.711607
 30
0.0
 10
96.938794
 20
97.711607
 30
0.0
 10
96.938794
 20
97.711607
 30
0.0
 10
96.938794
 20
97.711607
 30
0.0
 10
96.938794
 20
97.711607
 30
0.0
 10
96.938794
 20
97.711607
 30
0.0
 10
96.938794
 20
97.711607
 30
0.0
 10
93.316230
 20
97.967459
 30
0.0
 10
82.707298
 20
99.550724
 30
0.0
 10
72.540537
 20
102.300006
 30
0.0
 10
62.885639
 20
106.143074
 30
0.0
 10
53.812294
 20
111.007168
 30
0.0
 10
45.389824
 20
116.819527
 30
0.0
 10
37.688077
 20
123.507656
 30
0.0
 10
30.776375
 20
130.998530
 30
0.0
 10
24.724569
 20
139.219653
 30
0.0
 10
19.601977
 20
148.098265
 30
0.0
 10
15.478451
 20
157.561870
 30
0.0
 10
12.423311
 20
167.537707
 30
0.0
 10
10.506407
 20
177.952752
 30
0.0
  0
LWPOLYLINE
  5
102
100
AcDbEntity
  8
Calque_1
 62
7
100
AcDbPolyline
 90
200
 70
1
 10
104.755573
 20
281.515565
 30
0.0
 10
115.607030
 20
280.385796
 30
0.0
 10
126.036574
 20
278.043178
 30
0.0
 10
135.972989
 20
274.561795
 30
0.0
 10
145.344783
 20
270.016788
 30
0.0
 10
154.081049
 20
264.481712
 30
0.0
 10
162.110085
 20
258.031443
 30
0.0
 10
169.360982
 20
250.740065
 30
0.0
 10
175.762303
 20
242.682454
 30
0.0
 10
181.242611
 20
233.932430
 30
0.0
 10
185.730997
 20
224.564604
 30
0.0
 10
189.155759
 20
214.653589
 30
0.0
 10
191.445990
 20
204.273469
 30
0.0
 10
192.529986
 20
193.498856
 30
0.0
 10
192.610949
 20
189.832529
 30
0.0
 10
192.610949
 20
189.832529
 30
0.0
 10
192.610949
 20
189.832529
 30
0.0
 10
192.610949
 20
189.832529
 30
0.0
 10
192.610949
 20
189.832529
 30
0.0
 10
192.610949
 20
189.832529
 30
0.0
 10
192.610949
 20
189.832529
 30
0.0
 10
192.610949
 20
189.832529
 30
0.0
 10
192.610949
 20
189.832529
 30
0.0
 10
192.610949
 20
189.832529
 30
0.0
 10
192.610949
 20
189.832529
 30
0.0
 10
192.610949
 20
189.832529
 30
0.0
 10
192.610949
 20
189.832529
 30
0.0
 10
192.548242
 20
186.165673
 30
0.0
 10
191.518221
 20
175.385768
 30
0.0
 10
189.279849
 20
164.994535
 30
0.0
 10
185.904828
 20
155.066323
 30
0.0
 10
181.463273
 20
145.676272
 30
0.0
 10
176.026622
 20
136.899260
 30
0.0
 10
169.665782
 20
128.809635
 30
0.0
 10
162.451397
 20
121.482009
 30
0.0
 10
154.454640
 20
114.991788
 30
0.0
 10
145.746156
 20
109.413320
 30
0.0
 10
136.397115
 20
104.821217
 30
0.0
 10
126.478401
 20
101.290357
 30
0.0
 10
116.060737
 20
98.895616
 30
0.0
 10
105.215173
 20
97.711607
 30
0.0
 10
105.215173
 20
97.711607
 30
0.0
 10
105.215173
 20
97.711607
 30
0.0
 10
105.215173
 20
97.711607
 30
0.0
 10
105.215173
 20
97.711607
 30
0.0
 10
105.215173
 20
97.711607
 30
0.0
 10
105.215173
 20
97.711607
 30
0.0
 10
105.215173
 20
97.711607
 30
0.0
 10
105.215173
 20
97.711607
 30
0.0
 10
105.215173
 20
97.711607
 30
0.0
 10
105.215173
 20
97.711607
 30
0.0
 10
105.215173
 20
97.711607
 30
0.0
 10
105.215173
 20
97.711607
 30
0.0
 10
105.215173
 20
97.711607
 30
0.0
 10
105.177441
 20
97.711078
 30
0.0
 10
105.122140
 20
97.716370
 30
0.0
 10
105.068774
 20
97.727747
 30
0.0
 10
105.017770
 20
97.745209
 30
0.0
 10
104.969547
 20
97.768493
 30
0.0
 10
104.924539
 20
97.797068
 30
0.0
 10
104.883169
 20
97.830405
 30
0.0
 10
104.845857
 20
97.868241
 30
0.0
 10
104.813038
 20
97.910045
 30
0.0
 10
104.785130
 20
97.955818
 30
0.0
 10
104.762564
 20
98.004765
 30
0.0
 10
104.745760
 20
98.056624
 30
0.0
 10
104.735148
 20
98.111128
 30
0.0
 10
104.731724
 20
98.148699
 30
0.0
 10
104.731724
 20
98.148699
 30
0.0
 10
104.731724
 20
98.148699
 30
0.0
 10
104.731724
 20
98.148699
 30
0.0
 10
104.731724
 20
98.148699
 30
0.0
 10
104.731724
 20
98.148699
 30
0.0
 10
104.731724
 20
98.148699
 30
0.0
 10
104.731724
 20
98.148699
 30
0.0
 10
104.731724
 20
98.148699
 30
0.0
 10
104.731724
 20
98.148699
 30
0.0
 10
104.731724
 20
98.148699
 30
0.0
 10
104.731724
 20
98.148699
 30
0.0
 10
104.731724
 20
98.148699
 30
0.0
 10
104.731724
 20
98.148699
 30
0.0
 10
104.732351
 20
98.205055
 30
0.0
 10
104.739646
 20
98.259823
 30
0.0
 10
104.753224
 20
98.312475
 30
0.0
 10
104.772703
 20
98.362482
 30
0.0
 10
104.797695
 20
98.409842
 30
0.0
 10
104.827818
 20
98.453763
 30
0.0
 10
104.862687
 20
98.493715
 30
0.0
 10
104.901922
 20
98.529698
 30
0.0
 10
104.945131
 20
98.560919
 30
0.0
 10
104.991936
 20
98.586848
 30
0.0
 10
105.041950
 20
98.607750
 30
0.0
 10
105.094790
 20
98.622567
 30
0.0
 10
105.150069
 20
98.631033
 30
0.0
 10
105.168974
 20
98.632356
 30
0.0
 10
105.168974
 20
98.632356
 30
0.0
 10
105.168974
 20
98.632356
 30
0.0
 10
105.168974
 20
98.632356
 30
0.0
 10
105.168974
 20
98.632356
 30
0.0
 10
105.168974
 20
98.632356
 30
0.0
 10
105.168974
 20
98.632356
 30
0.0
 10
105.168974
 20
98.632356
 30
0.0
 10
105.168974
 20
98.632356
 30
0.0
 10
105.168974
 20
98.632356
 30
0.0
 10
105.168974
 20
98.632356
 30
0.0
 10
105.168974
 20
98.632356
 30
0.0
 10
105.168974
 20
98.632356
 30
0.0
 10
108.790710
 20
98.885298
 30
0.0
 10
119.394244
 20
100.465123
 30
0.0
 10
129.550739
 20
103.218903
 30
0.0
 10
139.190053
 20
107.072819
 30
0.0
 10
148.241702
 20
111.952523
 30
0.0
 10
156.635863
 20
117.784461
 30
0.0
 10
164.302155
 20
124.494022
 30
0.0
 10
171.170465
 20
132.007914
 30
0.0
 10
177.170414
 20
140.251527
 30
0.0
 10
182.231887
 20
149.151305
 30
0.0
 10
186.284769
 20
158.632902
 30
0.0
 10
189.258682
 20
168.622762
 30
0.0
 10
191.083511
 20
179.046538
 30
0.0
 10
191.689406
 20
189.830412
 30
0.0
 10
191.689406
 20
189.830412
 30
0.0
 10
191.689406
 20
189.830412
 30
0.0
 10
191.689406
 20
189.830412
 30
0.0
 10
191.689406
 20
189.830412
 30
0.0
 10
191.689406
 20
189.830412
 30
0.0
 10
191.689406
 20
189.830412
 30
0.0
 10
191.689406
 20
189.830412
 30
0.0
 10
191.689406
 20
189.830412
 30
0.0
 10
191.689406
 20
189.830412
 30
0.0
 10
191.689406
 20
189.830412
 30
0.0
 10
191.689406
 20
189.830412
 30
0.0
 10
191.689406
 20
189.830412
 30
0.0
 10
191.689406
 20
189.830412
 30
0.0
 10
191.388311
 20
197.054586
 30
0.0
 10
189.909292
 20
207.599277
 30
0.0
 10
187.259757
 20
217.728837
 30
0.0
 10
183.510616
 20
227.369448
 30
0.0
 10
178.731983
 20
236.447556
 30
0.0
 10
172.994765
 20
244.889605
 30
0.0
 10
166.369607
 20
252.621779
 30
0.0
 10
158.926622
 20
259.570787
 30
0.0
 10
150.736720
 20
265.662546
 30
0.0
 10
141.870544
 20
270.823502
 30
0.0
 10
132.398472
 20
274.980365
 30
0.0
 10
122.391017
 20
278.059053
 30
0.0
 10
111.918902
 20
279.986276
 30
0.0
 10
104.714174
 20
280.594817
 30
0.0
 10
104.714174
 20
280.594817
 30
0.0
 10
104.714174
 20
280.594817
 30
0.0
 10
104.714174
 20
280.594817
 30
0.0
 10
104.714174
 20
280.594817
 30
0.0
 10
104.714174
 20
280.594817
 30
0.0
 10
104.714174
 20
280.594817
 30
0.0
 10
104.714174
 20
280.594817
 30
0.0
 10
104.714174
 20
280.594817
 30
0.0
 10
104.714174
 20
280.594817
 30
0.0
 10
104.714174
 20
280.594817
 30
0.0
 10
104.714174
 20
280.594817
 30
0.0
 10
104.714174
 20
280.594817
 30
0.0
 10
104.714174
 20
280.594817
 30
0.0
 10
104.658088
 20
280.600637
 30
0.0
 10
104.604296
 20
280.613073
 30
0.0
 10
104.553181
 20
280.631594
 30
0.0
 10
104.505130
 20
280.655671
 30
0.0
 10
104.460526
 20
280.685039
 30
0.0
 10
104.419759
 20
280.719171
 30
0.0
 10
104.383207
 20
280.757800
 30
0.0
 10
104.351262
 20
280.800133
 30
0.0
 10
104.324303
 20
280.846170
 30
0.0
 10
104.302721
 20
280.895383
 30
0.0
 10
104.286894
 20
280.946977
 30
0.0
 10
104.277213
 20
281.000952
 30
0.0
 10
104.274059
 20
281.056779
 30
0.0
 10
104.274525
 20
281.075829
 30
0.0
 10
104.274525
 20
281.075829
 30
0.0
 10
104.274525
 20
281.075829
 30
0.0
 10
104.274525
 20
281.075829
 30
0.0
 10
104.274525
 20
281.075829
 30
0.0
 10
104.274525
 20
281.075829
 30
0.0
 10
104.274525
 20
281.075829
 30
0.0
 10
104.274525
 20
281.075829
 30
0.0
 10
104.274525
 20
281.075829
 30
0.0
 10
104.274525
 20
281.075829
 30
0.0
 10
104.274525
 20
281.075829
 30
0.0
 10
104.274525
 20
281.075829
 30
0.0
 10
104.274525
 20
281.075829
 30
0.0
 10
104.275760
 20
281.094614
 30
0.0
 10
104.283920
 20
281.150176
 30
0.0
 10
104.298424
 20
281.203093
 30
0.0
 10
104.318850
 20
281.253099
 30
0.0
 10
104.344774
 20
281.300195
 30
0.0
 10
104.375770
 20
281.343587
 30
0.0
 10
104.411420
 20
281.383009
 30
0.0
 10
104.451295
 20
281.417934
 30
0.0
 10
104.494972
 20
281.448361
 30
0.0
 10
104.542029
 20
281.473497
 30
0.0
 10
104.592040
 20
281.493076
 30
0.0
 10
104.644586
 20
281.507099
 30
0.0
 10
104.699238
 20
281.514507
 30
0.0
  0
LWPOLYLINE
  5
103
100
AcDbEntity
  8
Calque_1
 62
7
100
AcDbPolyline
 90
200
 70
1
 10
114.577855
 20
275.576471
 30
0.0
 10
114.593889
 20
274.591693
 30
0.0
 10
114.636143
 20
271.995340
 30
0.0
 10
114.695885
 20
268.324780
 30
0.0
 10
114.764386
 20
264.117117
 30
0.0
 10
114.832886
 20
259.909453
 30
0.0
 10
114.892629
 20
256.238893
 30
0.0
 10
114.934883
 20
253.642540
 30
0.0
 10
114.950917
 20
252.657762
 30
0.0
 10
114.950917
 20
252.657762
 30
0.0
 10
114.950917
 20
252.657762
 30
0.0
 10
114.950917
 20
252.657762
 30
0.0
 10
114.950917
 20
252.657762
 30
0.0
 10
114.950917
 20
252.657762
 30
0.0
 10
114.950917
 20
252.657762
 30
0.0
 10
114.950917
 20
252.657762
 30
0.0
 10
114.950917
 20
252.657762
 30
0.0
 10
114.693028
 20
252.657762
 30
0.0
 10
114.013208
 20
252.657762
 30
0.0
 10
113.052058
 20
252.657762
 30
0.0
 10
111.950228
 20
252.658027
 30
0.0
 10
110.848425
 20
252.658027
 30
0.0
 10
109.887275
 20
252.658027
 30
0.0
 10
109.207429
 20
252.658291
 30
0.0
 10
108.949566
 20
252.658291
 30
0.0
 10
108.949566
 20
252.658291
 30
0.0
 10
108.949566
 20
252.658291
 30
0.0
 10
108.949566
 20
252.658291
 30
0.0
 10
108.949566
 20
252.658291
 30
0.0
 10
108.949566
 20
252.658291
 30
0.0
 10
108.949566
 20
252.658291
 30
0.0
 10
108.949566
 20
252.658291
 30
0.0
 10
108.949566
 20
252.658291
 30
0.0
 10
108.947132
 20
253.340916
 30
0.0
 10
108.940649
 20
255.140874
 30
0.0
 10
108.931521
 20
257.685368
 30
0.0
 10
108.921070
 20
260.602396
 30
0.0
 10
108.910593
 20
263.519424
 30
0.0
 10
108.901465
 20
266.063918
 30
0.0
 10
108.895009
 20
267.863876
 30
0.0
 10
108.892575
 20
268.546501
 30
0.0
 10
108.892575
 20
268.546501
 30
0.0
 10
108.892575
 20
268.546501
 30
0.0
 10
108.892575
 20
268.546501
 30
0.0
 10
108.892575
 20
268.546501
 30
0.0
 10
108.892575
 20
268.546501
 30
0.0
 10
108.892575
 20
268.546501
 30
0.0
 10
108.892575
 20
268.546501
 30
0.0
 10
108.892575
 20
268.546501
 30
0.0
 10
108.670299
 20
267.847737
 30
0.0
 10
108.084327
 20
266.005975
 30
0.0
 10
107.255891
 20
263.401949
 30
0.0
 10
106.306197
 20
260.416659
 30
0.0
 10
105.356513
 20
257.431369
 30
0.0
 10
104.528067
 20
254.827343
 30
0.0
 10
103.942092
 20
252.985581
 30
0.0
 10
103.719825
 20
252.286817
 30
0.0
 10
103.719825
 20
252.286817
 30
0.0
 10
103.719825
 20
252.286817
 30
0.0
 10
103.719825
 20
252.286817
 30
0.0
 10
103.719825
 20
252.286817
 30
0.0
 10
103.719825
 20
252.286817
 30
0.0
 10
103.719825
 20
252.286817
 30
0.0
 10
103.719825
 20
252.286817
 30
0.0
 10
103.719825
 20
252.286817
 30
0.0
 10
103.488986
 20
252.285494
 30
0.0
 10
102.880413
 20
252.282319
 30
0.0
 10
102.020013
 20
252.277821
 30
0.0
 10
101.033692
 20
252.272529
 30
0.0
 10
100.047406
 20
252.267238
 30
0.0
 10
99.186982
 20
252.262740
 30
0.0
 10
98.578415
 20
252.259565
 30
0.0
 10
98.347593
 20
252.258242
 30
0.0
 10
98.347593
 20
252.258242
 30
0.0
 10
98.347593
 20
252.258242
 30
0.0
 10
98.347593
 20
252.258242
 30
0.0
 10
98.347593
 20
252.258242
 30
0.0
 10
98.347593
 20
252.258242
 30
0.0
 10
98.347593
 20
252.258242
 30
0.0
 10
98.347593
 20
252.258242
 30
0.0
 10
98.347593
 20
252.258242
 30
0.0
 10
98.109362
 20
252.953301
 30
0.0
 10
97.481348
 20
254.785539
 30
0.0
 10
96.593487
 20
257.375806
 30
0.0
 10
95.575663
 20
260.345221
 30
0.0
 10
94.557838
 20
263.314636
 30
0.0
 10
93.669977
 20
265.905168
 30
0.0
 10
93.041963
 20
267.737406
 30
0.0
 10
92.803732
 20
268.432201
 30
0.0
 10
92.803732
 20
268.432201
 30
0.0
 10
92.803732
 20
268.432201
 30
0.0
 10
92.803732
 20
268.432201
 30
0.0
 10
92.803732
 20
268.432201
 30
0.0
 10
92.803732
 20
268.432201
 30
0.0
 10
92.803732
 20
268.432201
 30
0.0
 10
92.803732
 20
268.432201
 30
0.0
 10
92.803732
 20
268.432201
 30
0.0
 10
92.828286
 20
267.732379
 30
0.0
 10
92.893029
 20
265.887177
 30
0.0
 10
92.984575
 20
263.278653
 30
0.0
 10
93.089482
 20
260.288071
 30
0.0
 10
93.194416
 20
257.297754
 30
0.0
 10
93.285935
 20
254.688966
 30
0.0
 10
93.350678
 20
252.843764
 30
0.0
 10
93.375232
 20
252.143942
 30
0.0
 10
93.375232
 20
252.143942
 30
0.0
 10
93.375232
 20
252.143942
 30
0.0
 10
93.375232
 20
252.143942
 30
0.0
 10
93.375232
 20
252.143942
 30
0.0
 10
93.375232
 20
252.143942
 30
0.0
 10
93.375232
 20
252.143942
 30
0.0
 10
93.375232
 20
252.143942
 30
0.0
 10
93.375232
 20
252.143942
 30
0.0
 10
93.114935
 20
252.143942
 30
0.0
 10
92.428659
 20
252.143942
 30
0.0
 10
91.458434
 20
252.144207
 30
0.0
 10
90.346206
 20
252.144207
 30
0.0
 10
89.234005
 20
252.144207
 30
0.0
 10
88.263753
 20
252.144207
 30
0.0
 10
87.577504
 20
252.144207
 30
0.0
 10
87.317207
 20
252.144207
 30
0.0
 10
87.317207
 20
252.144207
 30
0.0
 10
87.317207
 20
252.144207
 30
0.0
 10
87.317207
 20
252.144207
 30
0.0
 10
87.317207
 20
252.144207
 30
0.0
 10
87.317207
 20
252.144207
 30
0.0
 10
87.317207
 20
252.144207
 30
0.0
 10
87.317207
 20
252.144207
 30
0.0
 10
87.317207
 20
252.144207
 30
0.0
 10
87.309799
 20
253.148828
 30
0.0
 10
87.290325
 20
255.796775
 30
0.0
 10
87.262809
 20
259.540360
 30
0.0
 10
87.231244
 20
263.831896
 30
0.0
 10
87.199679
 20
268.123432
 30
0.0
 10
87.172163
 20
271.867017
 30
0.0
 10
87.152689
 20
274.515228
 30
0.0
 10
87.145307
 20
275.519586
 30
0.0
 10
87.145307
 20
275.519586
 30
0.0
 10
87.145307
 20
275.519586
 30
0.0
 10
87.145307
 20
275.519586
 30
0.0
 10
87.145307
 20
275.519586
 30
0.0
 10
87.145307
 20
275.519586
 30
0.0
 10
87.145307
 20
275.519586
 30
0.0
 10
87.145307
 20
275.519586
 30
0.0
 10
87.145307
 20
275.519586
 30
0.0
 10
87.521015
 20
275.516940
 30
0.0
 10
88.511535
 20
275.510590
 30
0.0
 10
89.911946
 20
275.501329
 30
0.0
 10
91.517277
 20
275.490746
 30
0.0
 10
93.122608
 20
275.480427
 30
0.0
 10
94.522993
 20
275.471167
 30
0.0
 10
95.513512
 20
275.464817
 30
0.0
 10
95.889246
 20
275.462171
 30
0.0
 10
95.889246
 20
275.462171
 30
0.0
 10
95.889246
 20
275.462171
 30
0.0
 10
95.889246
 20
275.462171
 30
0.0
 10
95.889246
 20
275.462171
 30
0.0
 10
95.889246
 20
275.462171
 30
0.0
 10
95.889246
 20
275.462171
 30
0.0
 10
95.889246
 20
275.462171
 30
0.0
 10
95.889246
 20
275.462171
 30
0.0
 10
96.112713
 20
274.843311
 30
0.0
 10
96.701887
 20
273.211893
 30
0.0
 10
97.534847
 20
270.905258
 30
0.0
 10
98.489700
 20
268.261280
 30
0.0
 10
99.444580
 20
265.617038
 30
0.0
 10
100.277541
 20
263.310403
 30
0.0
 10
100.866688
 20
261.678984
 30
0.0
 10
101.090181
 20
261.060125
 30
0.0
 10
101.090181
 20
261.060125
 30
0.0
 10
101.090181
 20
261.060125
 30
0.0
 10
101.090181
 20
261.060125
 30
0.0
 10
101.090181
 20
261.060125
 30
0.0
 10
101.090181
 20
261.060125
 30
0.0
 10
101.090181
 20
261.060125
 30
0.0
 10
101.090181
 20
261.060125
 30
0.0
 10
101.090181
 20
261.060125
 30
0.0
 10
101.276815
 20
261.688774
 30
0.0
 10
101.768857
 20
263.346122
 30
0.0
 10
102.464504
 20
265.689269
 30
0.0
 10
103.261950
 20
268.375580
 30
0.0
 10
104.059398
 20
271.061627
 30
0.0
 10
104.755044
 20
273.404774
 30
0.0
 10
105.247087
 20
275.062122
 30
0.0
 10
105.433724
 20
275.690771
 30
0.0
 10
105.433724
 20
275.690771
 30
0.0
 10
105.433724
 20
275.690771
 30
0.0
 10
105.433724
 20
275.690771
 30
0.0
 10
105.433724
 20
275.690771
 30
0.0
 10
105.433724
 20
275.690771
 30
0.0
 10
105.433724
 20
275.690771
 30
0.0
 10
105.433724
 20
275.690771
 30
0.0
 10
105.433724
 20
275.690771
 30
0.0
 10
105.826635
 20
275.686008
 30
0.0
 10
106.862482
 20
275.673044
 30
0.0
 10
108.326976
 20
275.654787
 30
0.0
 10
110.005781
 20
275.633621
 30
0.0
 10
111.684587
 20
275.612719
 30
0.0
 10
113.149080
 20
275.594463
 30
0.0
 10
114.184949
 20
275.581498
 30
0.0
  0
LWPOLYLINE
  5
104
100
AcDbEntity
  8
Calque_1
 62
7
100
AcDbPolyline
 90
200
 70
1
 10
96.049425
 20
247.154171
 30
0.0
 10
96.051780
 20
247.112632
 30
0.0
 10
96.050457
 20
247.071886
 30
0.0
 10
96.045588
 20
247.031934
 30
0.0
 10
96.037333
 20
246.993040
 30
0.0
 10
96.025824
 20
246.955205
 30
0.0
 10
96.011193
 20
246.918692
 30
0.0
 10
95.993598
 20
246.883767
 30
0.0
 10
95.973199
 20
246.850695
 30
0.0
 10
95.950100
 20
246.819209
 30
0.0
 10
95.924489
 20
246.789840
 30
0.0
 10
95.896443
 20
246.762853
 30
0.0
 10
95.866175
 20
246.737982
 30
0.0
 10
95.833790
 20
246.715757
 30
0.0
 10
95.799420
 20
246.696443
 30
0.0
 10
95.763225
 20
246.680039
 30
0.0
 10
95.725337
 20
246.666545
 30
0.0
 10
95.685914
 20
246.656491
 30
0.0
 10
95.645089
 20
246.649611
 30
0.0
 10
95.637522
 20
246.648818
 30
0.0
 10
95.637522
 20
246.648818
 30
0.0
 10
95.637522
 20
246.648818
 30
0.0
 10
95.637522
 20
246.648818
 30
0.0
 10
95.637522
 20
246.648818
 30
0.0
 10
95.637522
 20
246.648818
 30
0.0
 10
95.637522
 20
246.648818
 30
0.0
 10
95.637522
 20
246.648818
 30
0.0
 10
95.637522
 20
246.648818
 30
0.0
 10
95.637522
 20
246.648818
 30
0.0
 10
95.637522
 20
246.648818
 30
0.0
 10
95.637522
 20
246.648818
 30
0.0
 10
95.637522
 20
246.648818
 30
0.0
 10
95.637522
 20
246.648818
 30
0.0
 10
95.637522
 20
246.648818
 30
0.0
 10
95.637522
 20
246.648818
 30
0.0
 10
95.637522
 20
246.648818
 30
0.0
 10
95.637522
 20
246.648818
 30
0.0
 10
92.777724
 20
246.286339
 30
0.0
 10
88.377206
 20
245.443907
 30
0.0
 10
84.102444
 20
244.279742
 30
0.0
 10
79.966536
 20
242.807337
 30
0.0
 10
75.982762
 20
241.039658
 30
0.0
 10
72.164036
 20
238.989934
 30
0.0
 10
68.523638
 20
236.671128
 30
0.0
 10
65.074534
 20
234.096206
 30
0.0
 10
61.829953
 20
231.278662
 30
0.0
 10
58.803123
 20
228.231724
 30
0.0
 10
56.007275
 20
224.968093
 30
0.0
 10
53.455107
 20
221.500997
 30
0.0
 10
51.160379
 20
217.843931
 30
0.0
 10
49.135525
 20
214.009594
 30
0.0
 10
47.394305
 20
210.011216
 30
0.0
 10
45.949417
 20
205.862290
 30
0.0
 10
44.814091
 20
201.575516
 30
0.0
 10
44.001557
 20
197.164124
 30
0.0
 10
43.699138
 20
194.710116
 30
0.0
 10
43.699138
 20
194.710116
 30
0.0
 10
43.699138
 20
194.710116
 30
0.0
 10
43.699138
 20
194.710116
 30
0.0
 10
43.699138
 20
194.710116
 30
0.0
 10
43.699138
 20
194.710116
 30
0.0
 10
43.699138
 20
194.710116
 30
0.0
 10
43.699138
 20
194.710116
 30
0.0
 10
43.699138
 20
194.710116
 30
0.0
 10
43.699138
 20
194.710116
 30
0.0
 10
43.699138
 20
194.710116
 30
0.0
 10
43.699138
 20
194.710116
 30
0.0
 10
43.699138
 20
194.710116
 30
0.0
 10
43.699138
 20
194.710116
 30
0.0
 10
43.699138
 20
194.710116
 30
0.0
 10
43.699138
 20
194.710116
 30
0.0
 10
43.699138
 20
194.710116
 30
0.0
 10
43.699138
 20
194.710116
 30
0.0
 10
43.697815
 20
194.698739
 30
0.0
 10
43.690672
 20
194.657994
 30
0.0
 10
43.680353
 20
194.618835
 30
0.0
 10
43.666595
 20
194.581000
 30
0.0
 10
43.649926
 20
194.545017
 30
0.0
 10
43.630082
 20
194.510885
 30
0.0
 10
43.607857
 20
194.478606
 30
0.0
 10
43.582722
 20
194.448444
 30
0.0
 10
43.555470
 20
194.420663
 30
0.0
 10
43.526101
 20
194.395263
 30
0.0
 10
43.494351
 20
194.372509
 30
0.0
 10
43.461014
 20
194.352400
 30
0.0
 10
43.425824
 20
194.334938
 30
0.0
 10
43.389312
 20
194.320650
 30
0.0
 10
43.351476
 20
194.309538
 30
0.0
 10
43.312318
 20
194.301600
 30
0.0
 10
43.272366
 20
194.296838
 30
0.0
 10
43.231620
 20
194.296044
 30
0.0
 10
43.193785
 20
194.298161
 30
0.0
 10
43.193785
 20
194.298161
 30
0.0
 10
43.193785
 20
194.298161
 30
0.0
 10
43.193785
 20
194.298161
 30
0.0
 10
43.193785
 20
194.298161
 30
0.0
 10
43.193785
 20
194.298161
 30
0.0
 10
43.193785
 20
194.298161
 30
0.0
 10
43.193785
 20
194.298161
 30
0.0
 10
43.193785
 20
194.298161
 30
0.0
 10
43.193785
 20
194.298161
 30
0.0
 10
43.193785
 20
194.298161
 30
0.0
 10
43.193785
 20
194.298161
 30
0.0
 10
43.193785
 20
194.298161
 30
0.0
 10
43.193785
 20
194.298161
 30
0.0
 10
43.193785
 20
194.298161
 30
0.0
 10
43.193785
 20
194.298161
 30
0.0
 10
43.193785
 20
194.298161
 30
0.0
 10
43.193785
 20
194.298161
 30
0.0
 10
43.193785
 20
194.298161
 30
0.0
 10
43.156479
 20
194.303452
 30
0.0
 10
43.116527
 20
194.312713
 30
0.0
 10
43.078427
 20
194.325413
 30
0.0
 10
43.041650
 20
194.341023
 30
0.0
 10
43.006725
 20
194.359544
 30
0.0
 10
42.973916
 20
194.380975
 30
0.0
 10
42.942960
 20
194.405052
 30
0.0
 10
42.914385
 20
194.431511
 30
0.0
 10
42.887927
 20
194.460350
 30
0.0
 10
42.864114
 20
194.491042
 30
0.0
 10
42.842948
 20
194.523850
 30
0.0
 10
42.824692
 20
194.558510
 30
0.0
 10
42.809346
 20
194.594494
 30
0.0
 10
42.796910
 20
194.632065
 30
0.0
 10
42.787650
 20
194.670694
 30
0.0
 10
42.781829
 20
194.710381
 30
0.0
 10
42.779712
 20
194.750862
 30
0.0
 10
42.781035
 20
194.792137
 30
0.0
 10
42.781829
 20
194.803514
 30
0.0
 10
42.781829
 20
194.803514
 30
0.0
 10
42.781829
 20
194.803514
 30
0.0
 10
42.781829
 20
194.803514
 30
0.0
 10
42.781829
 20
194.803514
 30
0.0
 10
42.781829
 20
194.803514
 30
0.0
 10
42.781829
 20
194.803514
 30
0.0
 10
42.781829
 20
194.803514
 30
0.0
 10
42.781829
 20
194.803514
 30
0.0
 10
42.781829
 20
194.803514
 30
0.0
 10
42.781829
 20
194.803514
 30
0.0
 10
42.781829
 20
194.803514
 30
0.0
 10
42.781829
 20
194.803514
 30
0.0
 10
42.781829
 20
194.803514
 30
0.0
 10
42.781829
 20
194.803514
 30
0.0
 10
42.781829
 20
194.803514
 30
0.0
 10
42.781829
 20
194.803514
 30
0.0
 10
42.781829
 20
194.803514
 30
0.0
 10
43.089275
 20
197.296415
 30
0.0
 10
43.914773
 20
201.777658
 30
0.0
 10
45.068091
 20
206.132429
 30
0.0
 10
46.535733
 20
210.347236
 30
0.0
 10
48.304735
 20
214.408850
 30
0.0
 10
50.361603
 20
218.304041
 30
0.0
 10
52.692844
 20
222.019051
 30
0.0
 10
55.285493
 20
225.541180
 30
0.0
 10
58.125791
 20
228.856405
 30
0.0
 10
61.200510
 20
231.952026
 30
0.0
 10
64.496420
 20
234.814020
 30
0.0
 10
68.000293
 20
237.429688
 30
0.0
 10
71.698370
 20
239.785270
 30
0.0
 10
75.577686
 20
241.867803
 30
0.0
 10
79.624694
 20
243.663528
 30
0.0
 10
83.826167
 20
245.159215
 30
0.0
 10
88.168741
 20
246.341637
 30
0.0
 10
92.639082
 20
247.197563
 30
0.0
 10
95.544230
 20
247.566127
 30
0.0
 10
95.544230
 20
247.566127
 30
0.0
 10
95.544230
 20
247.566127
 30
0.0
 10
95.544230
 20
247.566127
 30
0.0
 10
95.544230
 20
247.566127
 30
0.0
 10
95.544230
 20
247.566127
 30
0.0
 10
95.544230
 20
247.566127
 30
0.0
 10
95.544230
 20
247.566127
 30
0.0
 10
95.544230
 20
247.566127
 30
0.0
 10
95.544230
 20
247.566127
 30
0.0
 10
95.544230
 20
247.566127
 30
0.0
 10
95.544230
 20
247.566127
 30
0.0
 10
95.544230
 20
247.566127
 30
0.0
 10
95.544230
 20
247.566127
 30
0.0
 10
95.544230
 20
247.566127
 30
0.0
 10
95.544230
 20
247.566127
 30
0.0
 10
95.544230
 20
247.566127
 30
0.0
 10
95.544230
 20
247.566127
 30
0.0
 10
95.551797
 20
247.566656
 30
0.0
 10
95.593099
 20
247.568508
 30
0.0
 10
95.633712
 20
247.566392
 30
0.0
 10
95.673505
 20
247.560835
 30
0.0
 10
95.712267
 20
247.552104
 30
0.0
 10
95.749838
 20
247.539933
 30
0.0
 10
95.786033
 20
247.524852
 30
0.0
 10
95.820666
 20
247.506596
 30
0.0
 10
95.853607
 20
247.485694
 30
0.0
 10
95.884616
 20
247.462146
 30
0.0
 10
95.913588
 20
247.436217
 30
0.0
 10
95.940284
 20
247.407642
 30
0.0
 10
95.964547
 20
247.376950
 30
0.0
 10
95.986242
 20
247.344142
 30
0.0
 10
96.005134
 20
247.309481
 30
0.0
 10
96.021088
 20
247.272969
 30
0.0
 10
96.033894
 20
247.234869
 30
0.0
 10
96.043392
 20
247.195182
 30
0.0
  0
LWPOLYLINE
  5
105
100
AcDbEntity
  8
Calque_1
 62
7
100
AcDbPolyline
 90
200
 70
1
 10
100.609434
 20
247.838118
 30
0.0
 10
103.642550
 20
247.783085
 30
0.0
 10
106.654732
 20
247.570889
 30
0.0
 10
109.640419
 20
247.204177
 30
0.0
 10
112.594038
 20
246.685066
 30
0.0
 10
115.510034
 20
246.015935
 30
0.0
 10
118.382823
 20
245.198903
 30
0.0
 10
121.206876
 20
244.236350
 30
0.0
 10
123.976584
 20
243.130658
 30
0.0
 10
126.686390
 20
241.883942
 30
0.0
 10
129.330765
 20
240.498586
 30
0.0
 10
131.904231
 20
238.976969
 30
0.0
 10
134.400837
 20
237.321209
 30
0.0
 10
136.815421
 20
235.533421
 30
0.0
 10
139.142429
 20
233.616517
 30
0.0
 10
141.376038
 20
231.572085
 30
0.0
 10
142.208945
 20
230.752407
 30
0.0
 10
142.208945
 20
230.752407
 30
0.0
 10
142.208945
 20
230.752407
 30
0.0
 10
142.208945
 20
230.752407
 30
0.0
 10
142.208945
 20
230.752407
 30
0.0
 10
142.208945
 20
230.752407
 30
0.0
 10
142.208945
 20
230.752407
 30
0.0
 10
142.208945
 20
230.752407
 30
0.0
 10
142.208945
 20
230.752407
 30
0.0
 10
142.208945
 20
230.752407
 30
0.0
 10
142.208945
 20
230.752407
 30
0.0
 10
142.208945
 20
230.752407
 30
0.0
 10
142.208945
 20
230.752407
 30
0.0
 10
142.208945
 20
230.752407
 30
0.0
 10
142.208945
 20
230.752407
 30
0.0
 10
142.701070
 20
230.252345
 30
0.0
 10
144.756086
 20
228.025614
 30
0.0
 10
146.683838
 20
225.705221
 30
0.0
 10
148.482208
 20
223.296722
 30
0.0
 10
150.148817
 20
220.805673
 30
0.0
 10
151.681281
 20
218.237631
 30
0.0
 10
153.077486
 20
215.598415
 30
0.0
 10
154.335049
 20
212.893319
 30
0.0
 10
155.451854
 20
210.128162
 30
0.0
 10
156.425519
 20
207.308236
 30
0.0
 10
157.253929
 20
204.439363
 30
0.0
 10
157.934436
 20
201.527097
 30
0.0
 10
158.465454
 20
198.576732
 30
0.0
 10
158.844072
 20
195.594088
 30
0.0
 10
159.068174
 20
192.584721
 30
0.0
 10
159.135908
 20
189.554188
 30
0.0
 10
159.132203
 20
189.086405
 30
0.0
 10
159.132203
 20
189.086405
 30
0.0
 10
159.132203
 20
189.086405
 30
0.0
 10
159.132203
 20
189.086405
 30
0.0
 10
159.132203
 20
189.086405
 30
0.0
 10
159.132203
 20
189.086405
 30
0.0
 10
159.132203
 20
189.086405
 30
0.0
 10
159.132203
 20
189.086405
 30
0.0
 10
159.132203
 20
189.086405
 30
0.0
 10
159.132203
 20
189.086405
 30
0.0
 10
159.132203
 20
189.086405
 30
0.0
 10
159.132203
 20
189.086405
 30
0.0
 10
159.132203
 20
189.086405
 30
0.0
 10
159.132203
 20
189.086405
 30
0.0
 10
159.132203
 20
189.086405
 30
0.0
 10
158.979539
 20
189.086934
 30
0.0
 10
157.668266
 20
189.091432
 30
0.0
 10
155.171925
 20
189.099899
 30
0.0
 10
151.680752
 20
189.111805
 30
0.0
 10
147.384718
 20
189.126357
 30
0.0
 10
142.474058
 20
189.143290
 30
0.0
 10
137.139006
 20
189.161546
 30
0.0
 10
131.569798
 20
189.180596
 30
0.0
 10
125.956935
 20
189.199646
 30
0.0
 10
120.490280
 20
189.218432
 30
0.0
 10
115.360147
 20
189.235894
 30
0.0
 10
110.756774
 20
189.251769
 30
0.0
 10
106.870420
 20
189.264998
 30
0.0
 10
103.891233
 20
189.275053
 30
0.0
 10
102.009480
 20
189.281667
 30
0.0
 10
101.411027
 20
189.283519
 30
0.0
 10
101.411027
 20
189.283519
 30
0.0
 10
101.411027
 20
189.283519
 30
0.0
 10
101.411027
 20
189.283519
 30
0.0
 10
101.411027
 20
189.283519
 30
0.0
 10
101.411027
 20
189.283519
 30
0.0
 10
101.411027
 20
189.283519
 30
0.0
 10
101.411027
 20
189.283519
 30
0.0
 10
101.411027
 20
189.283519
 30
0.0
 10
101.411027
 20
189.283519
 30
0.0
 10
101.411027
 20
189.283519
 30
0.0
 10
101.411027
 20
189.283519
 30
0.0
 10
101.411027
 20
189.283519
 30
0.0
 10
101.411027
 20
189.283519
 30
0.0
 10
101.411027
 20
189.283519
 30
0.0
 10
101.411027
 20
189.283519
 30
0.0
 10
101.410062
 20
189.158371
 30
0.0
 10
101.405387
 20
188.537924
 30
0.0
 10
101.397089
 20
187.403657
 30
0.0
 10
101.385450
 20
185.761390
 30
0.0
 10
101.370753
 20
183.616945
 30
0.0
 10
101.353280
 20
180.976671
 30
0.0
 10
101.333311
 20
177.846125
 30
0.0
 10
101.311129
 20
174.231657
 30
0.0
 10
101.287015
 20
170.139087
 30
0.0
 10
101.261250
 20
165.574501
 30
0.0
 10
101.234114
 20
160.543720
 30
0.0
 10
101.205909
 20
155.052564
 30
0.0
 10
101.176885
 20
149.107649
 30
0.0
 10
101.147331
 20
142.714265
 30
0.0
 10
101.117539
 20
135.878764
 30
0.0
 10
101.096928
 20
130.890580
 30
0.0
 10
101.096928
 20
130.890580
 30
0.0
 10
101.096928
 20
130.890580
 30
0.0
 10
101.096928
 20
130.890580
 30
0.0
 10
101.096928
 20
130.890580
 30
0.0
 10
101.096928
 20
130.890580
 30
0.0
 10
101.096928
 20
130.890580
 30
0.0
 10
101.096928
 20
130.890580
 30
0.0
 10
101.096928
 20
130.890580
 30
0.0
 10
101.096928
 20
130.890580
 30
0.0
 10
101.096928
 20
130.890580
 30
0.0
 10
101.096928
 20
130.890580
 30
0.0
 10
101.096928
 20
130.890580
 30
0.0
 10
101.096928
 20
130.890580
 30
0.0
 10
101.096928
 20
130.890580
 30
0.0
 10
101.096928
 20
130.890580
 30
0.0
 10
95.385613
 20
131.277665
 30
0.0
 10
89.383256
 20
132.290753
 30
0.0
 10
83.604128
 20
133.889099
 30
0.0
 10
78.079979
 20
136.041217
 30
0.0
 10
72.842691
 20
138.714035
 30
0.0
 10
67.923564
 20
141.875802
 30
0.0
 10
63.354745
 20
145.493974
 30
0.0
 10
59.167983
 20
149.536273
 30
0.0
 10
55.394765
 20
153.970420
 30
0.0
 10
52.067105
 20
158.764135
 30
0.0
 10
49.216752
 20
163.884874
 30
0.0
 10
46.874928
 20
169.300624
 30
0.0
 10
45.074176
 20
174.979104
 30
0.0
 10
43.845453
 20
180.887771
 30
0.0
 10
43.221037
 20
186.994347
 30
0.0
 10
43.145366
 20
189.870629
 30
0.0
 10
43.145366
 20
189.870629
 30
0.0
 10
43.145366
 20
189.870629
 30
0.0
 10
43.145366
 20
189.870629
 30
0.0
 10
43.145366
 20
189.870629
 30
0.0
 10
43.145366
 20
189.870629
 30
0.0
 10
43.145366
 20
189.870629
 30
0.0
 10
43.145366
 20
189.870629
 30
0.0
 10
43.145366
 20
189.870629
 30
0.0
 10
43.145366
 20
189.870629
 30
0.0
 10
43.145366
 20
189.870629
 30
0.0
 10
43.145366
 20
189.870629
 30
0.0
 10
43.145366
 20
189.870629
 30
0.0
 10
43.145366
 20
189.870629
 30
0.0
 10
43.145366
 20
189.870629
 30
0.0
 10
43.162564
 20
189.870629
 30
0.0
 10
44.071407
 20
189.871158
 30
0.0
 10
46.224583
 20
189.872746
 30
0.0
 10
49.431858
 20
189.875127
 30
0.0
 10
53.503261
 20
189.878302
 30
0.0
 10
58.248028
 20
189.881741
 30
0.0
 10
63.475924
 20
189.885710
 30
0.0
 10
68.996448
 20
189.889943
 30
0.0
 10
74.619631
 20
189.894177
 30
0.0
 10
80.155130
 20
189.898145
 30
0.0
 10
85.412315
 20
189.902114
 30
0.0
 10
90.200976
 20
189.905818
 30
0.0
 10
94.330773
 20
189.908729
 30
0.0
 10
97.611364
 20
189.911375
 30
0.0
 10
99.852435
 20
189.912962
 30
0.0
 10
100.863645
 20
189.913756
 30
0.0
 10
100.902221
 20
189.913756
 30
0.0
 10
100.902221
 20
189.913756
 30
0.0
 10
100.902221
 20
189.913756
 30
0.0
 10
100.902221
 20
189.913756
 30
0.0
 10
100.902221
 20
189.913756
 30
0.0
 10
100.902221
 20
189.913756
 30
0.0
 10
100.902221
 20
189.913756
 30
0.0
 10
100.902221
 20
189.913756
 30
0.0
 10
100.902221
 20
189.913756
 30
0.0
 10
100.902221
 20
189.913756
 30
0.0
 10
100.902221
 20
189.913756
 30
0.0
 10
100.902221
 20
189.913756
 30
0.0
 10
100.902221
 20
189.913756
 30
0.0
 10
100.902221
 20
189.913756
 30
0.0
 10
100.902221
 20
189.913756
 30
0.0
 10
100.901692
 20
190.020647
 30
0.0
 10
100.895554
 20
191.236935
 30
0.0
 10
100.883303
 20
193.657341
 30
0.0
 10
100.865947
 20
197.090834
 30
0.0
 10
100.844436
 20
201.346652
 30
0.0
 10
100.819724
 20
206.234029
 30
0.0
 10
100.792790
 20
211.561672
 30
0.0
 10
100.764611
 20
217.139082
 30
0.0
 10
100.736116
 20
222.775229
 30
0.0
 10
100.708308
 20
228.279349
 30
0.0
 10
100.682114
 20
233.460149
 30
0.0
 10
100.658514
 20
238.127128
 30
0.0
 10
100.638485
 20
242.089259
 30
0.0
 10
100.622980
 20
245.155776
 30
0.0
 10
100.612979
 20
247.135650
 30
0.0
  0
LWPOLYLINE
  5
106
100
AcDbEntity
  8
Calque_1
 62
7
100
AcDbPolyline
 90
200
 70
1
 10
50.419017
 20
226.571731
 30
0.0
 10
50.405524
 20
226.557443
 30
0.0
 10
50.366895
 20
226.515639
 30
0.0
 10
50.304718
 20
226.448699
 30
0.0
 10
50.220845
 20
226.358477
 30
0.0
 10
50.117393
 20
226.247087
 30
0.0
 10
49.996214
 20
226.116648
 30
0.0
 10
49.859160
 20
225.969010
 30
0.0
 10
49.708347
 20
225.806292
 30
0.0
 10
49.545364
 20
225.630873
 30
0.0
 10
49.372327
 20
225.444607
 30
0.0
 10
49.191088
 20
225.249345
 30
0.0
 10
49.003498
 20
225.047203
 30
0.0
 10
48.811411
 20
224.840564
 30
0.0
 10
48.617207
 20
224.631279
 30
0.0
 10
48.422209
 20
224.421464
 30
0.0
 10
48.228799
 20
224.212973
 30
0.0
 10
48.038564
 20
224.008186
 30
0.0
 10
47.853356
 20
223.808690
 30
0.0
 10
47.675292
 20
223.617132
 30
0.0
 10
47.506488
 20
223.435099
 30
0.0
 10
47.348267
 20
223.264972
 30
0.0
 10
47.203276
 20
223.108604
 30
0.0
 10
47.072572
 20
222.968110
 30
0.0
 10
46.958801
 20
222.845344
 30
0.0
 10
46.863551
 20
222.742950
 30
0.0
 10
46.788939
 20
222.662252
 30
0.0
 10
46.736551
 20
222.605896
 30
0.0
 10
46.708505
 20
222.575733
 30
0.0
 10
46.704007
 20
222.570971
 30
0.0
 10
46.704007
 20
222.570971
 30
0.0
 10
46.704007
 20
222.570971
 30
0.0
 10
46.704007
 20
222.570971
 30
0.0
 10
46.704007
 20
222.570971
 30
0.0
 10
46.704007
 20
222.570971
 30
0.0
 10
46.704007
 20
222.570971
 30
0.0
 10
46.704007
 20
222.570971
 30
0.0
 10
46.704007
 20
222.570971
 30
0.0
 10
46.704007
 20
222.570971
 30
0.0
 10
46.704007
 20
222.570971
 30
0.0
 10
46.704007
 20
222.570971
 30
0.0
 10
46.704007
 20
222.570971
 30
0.0
 10
46.704007
 20
222.570971
 30
0.0
 10
46.704007
 20
222.570971
 30
0.0
 10
46.704007
 20
222.570971
 30
0.0
 10
46.704007
 20
222.570971
 30
0.0
 10
46.704007
 20
222.570971
 30
0.0
 10
46.704007
 20
222.570971
 30
0.0
 10
46.704007
 20
222.570971
 30
0.0
 10
46.704007
 20
222.570971
 30
0.0
 10
46.704007
 20
222.570971
 30
0.0
 10
46.704007
 20
222.570971
 30
0.0
 10
46.704007
 20
222.570971
 30
0.0
 10
46.704007
 20
222.570971
 30
0.0
 10
46.704007
 20
222.570971
 30
0.0
 10
46.704007
 20
222.570971
 30
0.0
 10
46.704007
 20
222.570971
 30
0.0
 10
46.704007
 20
222.570971
 30
0.0
 10
46.658499
 20
222.612246
 30
0.0
 10
46.496045
 20
222.760148
 30
0.0
 10
46.224054
 20
223.007798
 30
0.0
 10
45.850992
 20
223.347257
 30
0.0
 10
45.385855
 20
223.770326
 30
0.0
 10
44.837904
 20
224.269065
 30
0.0
 10
44.215340
 20
224.835801
 30
0.0
 10
43.527424
 20
225.461805
 30
0.0
 10
42.782623
 20
226.139402
 30
0.0
 10
41.989932
 20
226.860920
 30
0.0
 10
41.158348
 20
227.617627
 30
0.0
 10
40.296336
 20
228.402116
 30
0.0
 10
39.412894
 20
229.205919
 30
0.0
 10
38.517016
 20
230.021364
 30
0.0
 10
37.617169
 20
230.839983
 30
0.0
 10
36.722614
 20
231.654105
 30
0.0
 10
35.841817
 20
232.455792
 30
0.0
 10
34.983510
 20
233.236841
 30
0.0
 10
34.156952
 20
233.989050
 30
0.0
 10
33.370612
 20
234.704483
 30
0.0
 10
32.633484
 20
235.375465
 30
0.0
 10
31.954299
 20
235.993531
 30
0.0
 10
31.341789
 20
236.550743
 30
0.0
 10
30.804950
 20
237.039428
 30
0.0
 10
30.352778
 20
237.450854
 30
0.0
 10
29.993474
 20
237.777879
 30
0.0
 10
29.736564
 20
238.011770
 30
0.0
 10
29.590250
 20
238.144591
 30
0.0
 10
29.558764
 20
238.173430
 30
0.0
 10
29.558764
 20
238.173430
 30
0.0
 10
29.558764
 20
238.173430
 30
0.0
 10
29.558764
 20
238.173430
 30
0.0
 10
29.558764
 20
238.173430
 30
0.0
 10
29.558764
 20
238.173430
 30
0.0
 10
29.558764
 20
238.173430
 30
0.0
 10
29.558764
 20
238.173430
 30
0.0
 10
29.558764
 20
238.173430
 30
0.0
 10
29.558764
 20
238.173430
 30
0.0
 10
29.558764
 20
238.173430
 30
0.0
 10
29.558764
 20
238.173430
 30
0.0
 10
29.558764
 20
238.173430
 30
0.0
 10
29.558764
 20
238.173430
 30
0.0
 10
29.558764
 20
238.173430
 30
0.0
 10
29.558764
 20
238.173430
 30
0.0
 10
29.558764
 20
238.173430
 30
0.0
 10
29.558764
 20
238.173430
 30
0.0
 10
29.558764
 20
238.173430
 30
0.0
 10
29.558764
 20
238.173430
 30
0.0
 10
29.558764
 20
238.173430
 30
0.0
 10
29.558764
 20
238.173430
 30
0.0
 10
29.558764
 20
238.173430
 30
0.0
 10
29.558764
 20
238.173430
 30
0.0
 10
29.558764
 20
238.173430
 30
0.0
 10
29.558764
 20
238.173430
 30
0.0
 10
29.558764
 20
238.173430
 30
0.0
 10
29.558764
 20
238.173430
 30
0.0
 10
29.558764
 20
238.173430
 30
0.0
 10
29.564850
 20
238.180574
 30
0.0
 10
29.592367
 20
238.213118
 30
0.0
 10
29.641314
 20
238.270532
 30
0.0
 10
29.709577
 20
238.350701
 30
0.0
 10
29.795566
 20
238.451772
 30
0.0
 10
29.897431
 20
238.571628
 30
0.0
 10
30.013847
 20
238.708417
 30
0.0
 10
30.142964
 20
238.860288
 30
0.0
 10
30.282928
 20
239.024859
 30
0.0
 10
30.432418
 20
239.200542
 30
0.0
 10
30.589580
 20
239.384956
 30
0.0
 10
30.752563
 20
239.576779
 30
0.0
 10
30.919779
 20
239.773364
 30
0.0
 10
31.089906
 20
239.973124
 30
0.0
 10
31.260827
 20
240.174207
 30
0.0
 10
31.430954
 20
240.374232
 30
0.0
 10
31.598964
 20
240.571611
 30
0.0
 10
31.762741
 20
240.763963
 30
0.0
 10
31.920697
 20
240.949964
 30
0.0
 10
32.071245
 20
241.126971
 30
0.0
 10
32.212797
 20
241.293129
 30
0.0
 10
32.343501
 20
241.446851
 30
0.0
 10
32.461769
 20
241.585757
 30
0.0
 10
32.566015
 20
241.708259
 30
0.0
 10
32.654386
 20
241.812240
 30
0.0
 10
32.725294
 20
241.895320
 30
0.0
 10
32.776888
 20
241.956174
 30
0.0
 10
32.807844
 20
241.992422
 30
0.0
 10
32.816310
 20
242.002740
 30
0.0
 10
32.816310
 20
242.002740
 30
0.0
 10
32.816310
 20
242.002740
 30
0.0
 10
32.816310
 20
242.002740
 30
0.0
 10
32.816310
 20
242.002740
 30
0.0
 10
32.816310
 20
242.002740
 30
0.0
 10
32.816310
 20
242.002740
 30
0.0
 10
32.816310
 20
242.002740
 30
0.0
 10
32.816310
 20
242.002740
 30
0.0
 10
32.816310
 20
242.002740
 30
0.0
 10
32.816310
 20
242.002740
 30
0.0
 10
32.816310
 20
242.002740
 30
0.0
 10
32.816310
 20
242.002740
 30
0.0
 10
32.816310
 20
242.002740
 30
0.0
 10
32.816310
 20
242.002740
 30
0.0
 10
32.816310
 20
242.002740
 30
0.0
 10
32.816310
 20
242.002740
 30
0.0
 10
32.816310
 20
242.002740
 30
0.0
 10
32.816310
 20
242.002740
 30
0.0
 10
32.816310
 20
242.002740
 30
0.0
 10
32.816310
 20
242.002740
 30
0.0
 10
32.816310
 20
242.002740
 30
0.0
 10
32.816310
 20
242.002740
 30
0.0
 10
32.816310
 20
242.002740
 30
0.0
 10
32.816310
 20
242.002740
 30
0.0
 10
32.816310
 20
242.002740
 30
0.0
 10
32.816310
 20
242.002740
 30
0.0
 10
32.816310
 20
242.002740
 30
0.0
 10
32.816310
 20
242.002740
 30
0.0
 10
32.837212
 20
241.984484
 30
0.0
 10
32.970298
 20
241.867803
 30
0.0
 10
33.218477
 20
241.650316
 30
0.0
 10
33.572753
 20
241.339695
 30
0.0
 10
34.024132
 20
240.943879
 30
0.0
 10
34.563352
 20
240.471334
 30
0.0
 10
35.181682
 20
239.929203
 30
0.0
 10
35.869598
 20
239.325954
 30
0.0
 10
36.618633
 20
238.669524
 30
0.0
 10
37.419261
 20
237.967849
 30
0.0
 10
38.262487
 20
237.228340
 30
0.0
 10
39.139580
 20
236.459726
 30
0.0
 10
40.041014
 20
235.669417
 30
0.0
 10
40.958058
 20
234.865349
 30
0.0
 10
41.881718
 20
234.055725
 30
0.0
 10
42.802731
 20
233.248483
 30
0.0
 10
43.711838
 20
232.451294
 30
0.0
 10
44.600573
 20
231.672362
 30
0.0
 10
45.459409
 20
230.919358
 30
0.0
 10
46.279352
 20
230.200486
 30
0.0
 10
47.051670
 20
229.523683
 30
0.0
 10
47.766837
 20
228.896621
 30
0.0
 10
48.416124
 20
228.327503
 30
0.0
 10
48.990269
 20
227.824002
 30
0.0
 10
49.480541
 20
227.394319
 30
0.0
 10
49.877416
 20
227.046392
 30
0.0
 10
50.172161
 20
226.787895
 30
0.0
 10
50.355782
 20
226.627028
 30
0.0
  0
LWPOLYLINE
  5
107
100
AcDbEntity
  8
Calque_1
 62
7
100
AcDbPolyline
 90
70
 70
0
 10
59.106600
 20
237.658023
 30
0.0
 10
58.577963
 20
236.772728
 30
0.0
 10
57.955929
 20
235.813879
 30
0.0
 10
57.240761
 20
234.781212
 30
0.0
 10
56.432195
 20
233.675255
 30
0.0
 10
55.530232
 20
232.495479
 30
0.0
 10
54.535135
 20
231.242414
 30
0.0
 10
53.563586
 20
230.056289
 30
0.0
 10
53.563586
 20
230.056289
 30
0.0
 10
53.563586
 20
230.056289
 30
0.0
 10
53.563586
 20
230.056289
 30
0.0
 10
53.563586
 20
230.056289
 30
0.0
 10
53.563586
 20
230.056289
 30
0.0
 10
53.563586
 20
230.056289
 30
0.0
 10
53.554591
 20
230.064755
 30
0.0
 10
53.287891
 20
230.318226
 30
0.0
 10
52.742321
 20
230.836808
 30
0.0
 10
52.042499
 20
231.501706
 30
0.0
 10
51.312514
 20
232.195442
 30
0.0
 10
50.676986
 20
232.799221
 30
0.0
 10
50.260003
 20
233.195566
 30
0.0
 10
50.165018
 20
233.285789
 30
0.0
 10
50.165018
 20
233.285789
 30
0.0
 10
50.165018
 20
233.285789
 30
0.0
 10
50.165018
 20
233.285789
 30
0.0
 10
50.165018
 20
233.285789
 30
0.0
 10
50.165018
 20
233.285789
 30
0.0
 10
50.165018
 20
233.285789
 30
0.0
 10
50.199149
 20
233.330503
 30
0.0
 10
50.522734
 20
233.753042
 30
0.0
 10
51.091058
 20
234.495462
 30
0.0
 10
51.783736
 20
235.400071
 30
0.0
 10
52.480384
 20
236.310237
 30
0.0
 10
53.061143
 20
237.068796
 30
0.0
 10
53.405630
 20
237.518588
 30
0.0
 10
53.451668
 20
237.578912
 30
0.0
 10
53.451668
 20
237.578912
 30
0.0
 10
53.451668
 20
237.578912
 30
0.0
 10
53.451668
 20
237.578912
 30
0.0
 10
53.451668
 20
237.578912
 30
0.0
 10
53.451668
 20
237.578912
 30
0.0
 10
53.451668
 20
237.578912
 30
0.0
 10
53.863623
 20
238.267093
 30
0.0
 10
54.092752
 20
239.340242
 30
0.0
 10
53.869444
 20
240.287184
 30
0.0
 10
53.289743
 20
241.013729
 30
0.0
 10
52.449692
 20
241.425420
 30
0.0
 10
51.445335
 20
241.428331
 30
0.0
 10
50.372980
 20
240.927740
 30
0.0
 10
50.077970
 20
240.688556
 30
0.0
 10
50.077970
 20
240.688556
 30
0.0
 10
50.077970
 20
240.688556
 30
0.0
 10
50.077970
 20
240.688556
 30
0.0
 10
50.077970
 20
240.688556
 30
0.0
 10
50.077970
 20
240.688556
 30
0.0
 10
50.077970
 20
240.688556
 30
0.0
 10
49.594048
 20
240.242205
 30
0.0
 10
49.024400
 20
239.681818
 30
0.0
 10
48.471422
 20
239.098413
 30
0.0
 10
47.934848
 20
238.491988
 30
0.0
 10
47.414942
 20
237.862281
 30
0.0
 10
46.911705
 20
237.209819
 30
0.0
 10
46.425137
 20
236.534074
 30
0.0
 10
46.392064
 20
236.486449
 30
0.0
 10
46.392064
 20
236.486449
 30
0.0
 10
46.392064
 20
236.486449
 30
0.0
 10
46.392064
 20
236.486449
 30
0.0
 10
46.392064
 20
236.486449
 30
0.0
 10
46.392064
 20
236.486449
 30
0.0
 10
46.392064
 20
236.486449
 30
0.0
  0
LWPOLYLINE
  5
108
100
AcDbEntity
  8
Calque_1
 62
7
100
AcDbPolyline
 90
64
 70
0
 10
46.391800
 20
236.486714
 30
0.0
 10
46.171666
 20
236.686209
 30
0.0
 10
45.631123
 20
237.175688
 30
0.0
 10
44.902726
 20
237.835293
 30
0.0
 10
44.119296
 20
238.544640
 30
0.0
 10
43.413918
 20
239.183344
 30
0.0
 10
42.918883
 20
239.631547
 30
0.0
 10
42.763044
 20
239.772835
 30
0.0
 10
42.763044
 20
239.772835
 30
0.0
 10
42.763044
 20
239.772835
 30
0.0
 10
42.763044
 20
239.772835
 30
0.0
 10
42.763044
 20
239.772835
 30
0.0
 10
42.763044
 20
239.772835
 30
0.0
 10
42.763044
 20
239.772835
 30
0.0
 10
42.772304
 20
239.784212
 30
0.0
 10
42.985823
 20
240.042974
 30
0.0
 10
43.409420
 20
240.556794
 30
0.0
 10
43.947846
 20
241.210050
 30
0.0
 10
44.506116
 20
241.887117
 30
0.0
 10
44.988716
 20
242.472640
 30
0.0
 10
45.300659
 20
242.850993
 30
0.0
 10
45.366805
 20
242.931162
 30
0.0
 10
45.366805
 20
242.931162
 30
0.0
 10
45.366805
 20
242.931162
 30
0.0
 10
45.366805
 20
242.931162
 30
0.0
 10
45.366805
 20
242.931162
 30
0.0
 10
45.366805
 20
242.931162
 30
0.0
 10
45.366805
 20
242.931162
 30
0.0
 10
45.748334
 20
243.465620
 30
0.0
 10
46.153675
 20
244.560200
 30
0.0
 10
46.048635
 20
245.476186
 30
0.0
 10
45.561538
 20
246.160133
 30
0.0
 10
44.820177
 20
246.557801
 30
0.0
 10
43.953138
 20
246.616009
 30
0.0
 10
43.088745
 20
246.280254
 30
0.0
 10
42.736056
 20
245.987889
 30
0.0
 10
42.736056
 20
245.987889
 30
0.0
 10
42.736056
 20
245.987889
 30
0.0
 10
42.736056
 20
245.987889
 30
0.0
 10
42.736056
 20
245.987889
 30
0.0
 10
42.736056
 20
245.987889
 30
0.0
 10
42.736056
 20
245.987889
 30
0.0
 10
42.477559
 20
245.723306
 30
0.0
 10
42.066661
 20
245.290978
 30
0.0
 10
41.635920
 20
244.823989
 30
0.0
 10
41.185335
 20
244.322339
 30
0.0
 10
40.715171
 20
243.786030
 30
0.0
 10
40.225428
 20
243.215324
 30
0.0
 10
39.715841
 20
242.609694
 30
0.0
 10
39.589900
 20
242.458352
 30
0.0
 10
39.589900
 20
242.458352
 30
0.0
 10
39.589900
 20
242.458352
 30
0.0
 10
39.589900
 20
242.458352
 30
0.0
 10
39.589900
 20
242.458352
 30
0.0
 10
39.589900
 20
242.458352
 30
0.0
 10
39.589900
 20
242.458352
 30
0.0
 10
39.440146
 20
242.605725
 30
0.0
 10
38.964690
 20
243.073243
 30
0.0
 10
38.287093
 20
243.739992
 30
0.0
 10
37.534619
 20
244.480295
 30
0.0
 10
36.834797
 20
245.168476
 30
0.0
 10
36.315421
 20
245.679386
 30
0.0
 10
36.104019
 20
245.887348
 30
0.0
 10
36.104019
 20
245.887348
 30
0.0
  0
LWPOLYLINE
  5
109
100
AcDbEntity
  8
Calque_1
 62
7
100
AcDbPolyline
 90
69
 70
0
 10
36.103754
 20
245.887612
 30
0.0
 10
36.103754
 20
245.887612
 30
0.0
 10
36.103754
 20
245.887612
 30
0.0
 10
36.103754
 20
245.887612
 30
0.0
 10
36.103754
 20
245.887612
 30
0.0
 10
36.103754
 20
245.887612
 30
0.0
 10
36.172281
 20
245.960637
 30
0.0
 10
37.147534
 20
246.984574
 30
0.0
 10
38.086804
 20
247.942099
 30
0.0
 10
38.990355
 20
248.833480
 30
0.0
 10
39.858187
 20
249.658449
 30
0.0
 10
40.690300
 20
250.417538
 30
0.0
 10
41.486695
 20
251.110216
 30
0.0
 10
42.118520
 20
251.633561
 30
0.0
 10
42.118520
 20
251.633561
 30
0.0
 10
42.118520
 20
251.633561
 30
0.0
 10
42.118520
 20
251.633561
 30
0.0
 10
42.118520
 20
251.633561
 30
0.0
 10
42.118520
 20
251.633561
 30
0.0
 10
42.118520
 20
251.633561
 30
0.0
 10
42.513807
 20
251.926190
 30
0.0
 10
44.068761
 20
252.669933
 30
0.0
 10
45.712880
 20
252.913879
 30
0.0
 10
47.309373
 20
252.655116
 30
0.0
 10
48.721982
 20
251.889942
 30
0.0
 10
49.814710
 20
250.615181
 30
0.0
 10
50.451297
 20
248.827659
 30
0.0
 10
50.556865
 20
247.458971
 30
0.0
 10
50.556865
 20
247.458971
 30
0.0
 10
50.556865
 20
247.458971
 30
0.0
 10
50.556865
 20
247.458971
 30
0.0
 10
50.556865
 20
247.458971
 30
0.0
 10
50.556865
 20
247.458971
 30
0.0
 10
50.556865
 20
247.458971
 30
0.0
 10
50.544165
 20
247.008121
 30
0.0
 10
50.497334
 20
246.325497
 30
0.0
 10
50.464261
 20
245.939735
 30
0.0
 10
50.495482
 20
245.800300
 30
0.0
 10
50.641532
 20
245.856656
 30
0.0
 10
50.953210
 20
246.058268
 30
0.0
 10
51.481054
 20
246.354072
 30
0.0
 10
51.774476
 20
246.492185
 30
0.0
 10
51.774476
 20
246.492185
 30
0.0
 10
51.774476
 20
246.492185
 30
0.0
 10
51.774476
 20
246.492185
 30
0.0
 10
51.774476
 20
246.492185
 30
0.0
 10
51.774476
 20
246.492185
 30
0.0
 10
51.774476
 20
246.492185
 30
0.0
 10
52.372434
 20
246.719461
 30
0.0
 10
53.266989
 20
246.930334
 30
0.0
 10
54.179271
 20
247.001507
 30
0.0
 10
55.092082
 20
246.931922
 30
0.0
 10
55.988225
 20
246.722107
 30
0.0
 10
56.850501
 20
246.371270
 30
0.0
 10
57.661977
 20
245.879410
 30
0.0
 10
57.822050
 20
245.760083
 30
0.0
 10
57.822050
 20
245.760083
 30
0.0
 10
57.822050
 20
245.760083
 30
0.0
 10
57.822050
 20
245.760083
 30
0.0
 10
57.822050
 20
245.760083
 30
0.0
 10
57.822050
 20
245.760083
 30
0.0
 10
57.822050
 20
245.760083
 30
0.0
 10
58.745974
 20
244.894368
 30
0.0
 10
59.488393
 20
243.816986
 30
0.0
 10
59.940037
 20
242.649910
 30
0.0
 10
60.114132
 20
241.421451
 30
0.0
 10
60.024439
 20
240.160713
 30
0.0
 10
59.683920
 20
238.896536
 30
0.0
 10
59.106600
 20
237.658023
 30
0.0
  0
LWPOLYLINE
  5
10a
100
AcDbEntity
  8
Calque_1
 62
7
100
AcDbPolyline
 90
200
 70
1
 10
161.129805
 20
251.856340
 30
0.0
 10
160.750393
 20
251.366862
 30
0.0
 10
159.750534
 20
250.076755
 30
0.0
 10
158.336602
 20
248.252720
 30
0.0
 10
156.715767
 20
246.161720
 30
0.0
 10
155.094931
 20
244.070721
 30
0.0
 10
153.681000
 20
242.246686
 30
0.0
 10
152.680876
 20
240.956579
 30
0.0
 10
152.301729
 20
240.467101
 30
0.0
 10
152.301729
 20
240.467101
 30
0.0
 10
152.301729
 20
240.467101
 30
0.0
 10
152.301729
 20
240.467101
 30
0.0
 10
152.301729
 20
240.467101
 30
0.0
 10
152.301729
 20
240.467101
 30
0.0
 10
152.301729
 20
240.467101
 30
0.0
 10
152.301729
 20
240.467101
 30
0.0
 10
152.301729
 20
240.467101
 30
0.0
 10
152.877461
 20
240.728773
 30
0.0
 10
154.395638
 20
241.418276
 30
0.0
 10
156.542200
 20
242.393000
 30
0.0
 10
159.002822
 20
243.510334
 30
0.0
 10
161.463180
 20
244.627933
 30
0.0
 10
163.609741
 20
245.602657
 30
0.0
 10
165.127919
 20
246.292160
 30
0.0
 10
165.703916
 20
246.553832
 30
0.0
 10
165.703916
 20
246.553832
 30
0.0
 10
165.703916
 20
246.553832
 30
0.0
 10
165.703916
 20
246.553832
 30
0.0
 10
165.703916
 20
246.553832
 30
0.0
 10
165.703916
 20
246.553832
 30
0.0
 10
165.703916
 20
246.553832
 30
0.0
 10
165.703916
 20
246.553832
 30
0.0
 10
165.703916
 20
246.553832
 30
0.0
 10
165.865841
 20
246.362274
 30
0.0
 10
166.293142
 20
245.857450
 30
0.0
 10
166.897185
 20
245.143340
 30
0.0
 10
167.589599
 20
244.324985
 30
0.0
 10
168.282013
 20
243.506895
 30
0.0
 10
168.886320
 20
242.792785
 30
0.0
 10
169.313357
 20
242.287961
 30
0.0
 10
169.475547
 20
242.096403
 30
0.0
 10
169.475547
 20
242.096403
 30
0.0
 10
169.475547
 20
242.096403
 30
0.0
 10
169.475547
 20
242.096403
 30
0.0
 10
169.475547
 20
242.096403
 30
0.0
 10
169.475547
 20
242.096403
 30
0.0
 10
169.475547
 20
242.096403
 30
0.0
 10
169.475547
 20
242.096403
 30
0.0
 10
169.475547
 20
242.096403
 30
0.0
 10
169.087403
 20
241.558505
 30
0.0
 10
168.064525
 20
240.140605
 30
0.0
 10
166.618315
 20
238.136124
 30
0.0
 10
164.960438
 20
235.838221
 30
0.0
 10
163.302825
 20
233.540318
 30
0.0
 10
161.856614
 20
231.535572
 30
0.0
 10
160.833472
 20
230.117672
 30
0.0
 10
160.445593
 20
229.580039
 30
0.0
 10
160.445593
 20
229.580039
 30
0.0
 10
160.445593
 20
229.580039
 30
0.0
 10
160.445593
 20
229.580039
 30
0.0
 10
160.445593
 20
229.580039
 30
0.0
 10
160.445593
 20
229.580039
 30
0.0
 10
160.445593
 20
229.580039
 30
0.0
 10
160.445593
 20
229.580039
 30
0.0
 10
160.445593
 20
229.580039
 30
0.0
 10
161.034820
 20
229.881928
 30
0.0
 10
162.588716
 20
230.678323
 30
0.0
 10
164.785548
 20
231.804124
 30
0.0
 10
167.303585
 20
233.094760
 30
0.0
 10
169.821886
 20
234.385396
 30
0.0
 10
172.018454
 20
235.511196
 30
0.0
 10
173.572350
 20
236.307591
 30
0.0
 10
174.161576
 20
236.609480
 30
0.0
 10
174.161576
 20
236.609480
 30
0.0
 10
174.161576
 20
236.609480
 30
0.0
 10
174.161576
 20
236.609480
 30
0.0
 10
174.161576
 20
236.609480
 30
0.0
 10
174.161576
 20
236.609480
 30
0.0
 10
174.161576
 20
236.609480
 30
0.0
 10
174.161576
 20
236.609480
 30
0.0
 10
174.161576
 20
236.609480
 30
0.0
 10
174.296778
 20
236.422949
 30
0.0
 10
174.652642
 20
235.931090
 30
0.0
 10
175.155879
 20
235.235501
 30
0.0
 10
175.732935
 20
234.438048
 30
0.0
 10
176.309990
 20
233.640595
 30
0.0
 10
176.813227
 20
232.945006
 30
0.0
 10
177.169091
 20
232.453146
 30
0.0
 10
177.304293
 20
232.266350
 30
0.0
 10
177.304293
 20
232.266350
 30
0.0
 10
177.304293
 20
232.266350
 30
0.0
 10
177.304293
 20
232.266350
 30
0.0
 10
177.304293
 20
232.266350
 30
0.0
 10
177.304293
 20
232.266350
 30
0.0
 10
177.304293
 20
232.266350
 30
0.0
 10
177.304293
 20
232.266350
 30
0.0
 10
177.304293
 20
232.266350
 30
0.0
 10
176.380898
 20
231.820793
 30
0.0
 10
173.946470
 20
230.645780
 30
0.0
 10
170.504774
 20
228.984463
 30
0.0
 10
166.559577
 20
227.079994
 30
0.0
 10
162.614380
 20
225.175526
 30
0.0
 10
159.172685
 20
223.514209
 30
0.0
 10
156.738256
 20
222.339196
 30
0.0
 10
155.814862
 20
221.893374
 30
0.0
 10
155.814862
 20
221.893374
 30
0.0
 10
155.814862
 20
221.893374
 30
0.0
 10
155.814862
 20
221.893374
 30
0.0
 10
155.814862
 20
221.893374
 30
0.0
 10
155.814862
 20
221.893374
 30
0.0
 10
155.814862
 20
221.893374
 30
0.0
 10
155.814862
 20
221.893374
 30
0.0
 10
155.814862
 20
221.893374
 30
0.0
 10
155.670135
 20
222.077524
 30
0.0
 10
155.288077
 20
222.563298
 30
0.0
 10
154.748063
 20
223.249891
 30
0.0
 10
154.129203
 20
224.037025
 30
0.0
 10
153.510344
 20
224.824160
 30
0.0
 10
152.970330
 20
225.510753
 30
0.0
 10
152.588272
 20
225.996262
 30
0.0
 10
152.443545
 20
226.180412
 30
0.0
 10
152.443545
 20
226.180412
 30
0.0
 10
152.443545
 20
226.180412
 30
0.0
 10
152.443545
 20
226.180412
 30
0.0
 10
152.443545
 20
226.180412
 30
0.0
 10
152.443545
 20
226.180412
 30
0.0
 10
152.443545
 20
226.180412
 30
0.0
 10
152.443545
 20
226.180412
 30
0.0
 10
152.443545
 20
226.180412
 30
0.0
 10
152.851268
 20
226.752705
 30
0.0
 10
153.925739
 20
228.261093
 30
0.0
 10
155.445239
 20
230.393897
 30
0.0
 10
157.186989
 20
232.838643
 30
0.0
 10
158.928739
 20
235.283655
 30
0.0
 10
160.448239
 20
237.416194
 30
0.0
 10
161.522975
 20
238.924846
 30
0.0
 10
161.930433
 20
239.496875
 30
0.0
 10
161.930433
 20
239.496875
 30
0.0
 10
161.930433
 20
239.496875
 30
0.0
 10
161.930433
 20
239.496875
 30
0.0
 10
161.930433
 20
239.496875
 30
0.0
 10
161.930433
 20
239.496875
 30
0.0
 10
161.930433
 20
239.496875
 30
0.0
 10
161.930433
 20
239.496875
 30
0.0
 10
161.930433
 20
239.496875
 30
0.0
 10
161.277178
 20
239.197367
 30
0.0
 10
159.555007
 20
238.407322
 30
0.0
 10
157.120314
 20
237.290782
 30
0.0
 10
154.328964
 20
236.010729
 30
0.0
 10
151.537877
 20
234.730412
 30
0.0
 10
149.102920
 20
233.613872
 30
0.0
 10
147.380749
 20
232.823827
 30
0.0
 10
146.727494
 20
232.524319
 30
0.0
 10
146.727494
 20
232.524319
 30
0.0
 10
146.727494
 20
232.524319
 30
0.0
 10
146.727494
 20
232.524319
 30
0.0
 10
146.727494
 20
232.524319
 30
0.0
 10
146.727494
 20
232.524319
 30
0.0
 10
146.727494
 20
232.524319
 30
0.0
 10
146.727494
 20
232.524319
 30
0.0
 10
146.727494
 20
232.524319
 30
0.0
 10
146.585148
 20
232.712702
 30
0.0
 10
146.209705
 20
233.209853
 30
0.0
 10
145.678952
 20
233.912321
 30
0.0
 10
145.070411
 20
234.717977
 30
0.0
 10
144.462134
 20
235.523367
 30
0.0
 10
143.931381
 20
236.225835
 30
0.0
 10
143.555938
 20
236.722986
 30
0.0
 10
143.413592
 20
236.911370
 30
0.0
 10
143.413592
 20
236.911370
 30
0.0
 10
143.413592
 20
236.911370
 30
0.0
 10
143.413592
 20
236.911370
 30
0.0
 10
143.413592
 20
236.911370
 30
0.0
 10
143.413592
 20
236.911370
 30
0.0
 10
143.413592
 20
236.911370
 30
0.0
 10
143.413592
 20
236.911370
 30
0.0
 10
143.413592
 20
236.911370
 30
0.0
 10
144.032452
 20
237.731577
 30
0.0
 10
145.663870
 20
239.894014
 30
0.0
 10
147.970240
 20
242.951006
 30
0.0
 10
150.614218
 20
246.455408
 30
0.0
 10
153.258461
 20
249.960074
 30
0.0
 10
155.564831
 20
253.017066
 30
0.0
 10
157.196250
 20
255.179503
 30
0.0
 10
157.815109
 20
255.999710
 30
0.0
 10
157.815109
 20
255.999710
 30
0.0
 10
157.815109
 20
255.999710
 30
0.0
 10
157.815109
 20
255.999710
 30
0.0
 10
157.815109
 20
255.999710
 30
0.0
 10
157.815109
 20
255.999710
 30
0.0
 10
157.815109
 20
255.999710
 30
0.0
 10
157.815109
 20
255.999710
 30
0.0
 10
157.815109
 20
255.999710
 30
0.0
 10
157.957455
 20
255.821646
 30
0.0
 10
158.333163
 20
255.352276
 30
0.0
 10
158.863916
 20
254.688701
 30
0.0
 10
159.472457
 20
253.928025
 30
0.0
 10
160.080998
 20
253.167349
 30
0.0
 10
160.612016
 20
252.503775
 30
0.0
 10
160.987459
 20
252.034405
 30
0.0
  0
LWPOLYLINE
  5
10b
100
AcDbEntity
  8
Calque_1
 62
7
100
AcDbPolyline
 90
200
 70
1
 10
158.916039
 20
183.970693
 30
0.0
 10
158.319934
 20
179.430184
 30
0.0
 10
157.382516
 20
175.009002
 30
0.0
 10
156.117280
 20
170.720905
 30
0.0
 10
154.537984
 20
166.579917
 30
0.0
 10
152.658916
 20
162.599530
 30
0.0
 10
150.493304
 20
158.793768
 30
0.0
 10
148.055436
 20
155.176125
 30
0.0
 10
145.359071
 20
151.760358
 30
0.0
 10
142.417701
 20
148.560227
 30
0.0
 10
139.245351
 20
145.590018
 30
0.0
 10
135.855778
 20
142.862696
 30
0.0
 10
132.263006
 20
140.392550
 30
0.0
 10
128.480580
 20
138.193071
 30
0.0
 10
124.522498
 20
136.278284
 30
0.0
 10
120.402491
 20
134.661417
 30
0.0
 10
116.134423
 20
133.357023
 30
0.0
 10
111.732080
 20
132.378066
 30
0.0
 10
107.209298
 20
131.738833
 30
0.0
 10
106.375123
 20
131.660252
 30
0.0
 10
106.375123
 20
131.660252
 30
0.0
 10
106.375123
 20
131.660252
 30
0.0
 10
106.375123
 20
131.660252
 30
0.0
 10
106.375123
 20
131.660252
 30
0.0
 10
106.375123
 20
131.660252
 30
0.0
 10
106.375123
 20
131.660252
 30
0.0
 10
106.375123
 20
131.660252
 30
0.0
 10
106.375123
 20
131.660252
 30
0.0
 10
106.375123
 20
131.660252
 30
0.0
 10
106.375123
 20
131.660252
 30
0.0
 10
106.375123
 20
131.660252
 30
0.0
 10
106.375123
 20
131.660252
 30
0.0
 10
106.375123
 20
131.660252
 30
0.0
 10
106.375123
 20
131.660252
 30
0.0
 10
106.375123
 20
131.660252
 30
0.0
 10
106.375123
 20
131.660252
 30
0.0
 10
106.375123
 20
131.660252
 30
0.0
 10
106.348697
 20
131.658665
 30
0.0
 10
106.307699
 20
131.659194
 30
0.0
 10
106.267504
 20
131.663427
 30
0.0
 10
106.228282
 20
131.671100
 30
0.0
 10
106.190211
 20
131.681948
 30
0.0
 10
106.153461
 20
131.695971
 30
0.0
 10
106.118205
 20
131.713169
 30
0.0
 10
106.084619
 20
131.733013
 30
0.0
 10
106.052877
 20
131.755502
 30
0.0
 10
106.023148
 20
131.780637
 30
0.0
 10
105.995611
 20
131.808419
 30
0.0
 10
105.970438
 20
131.838052
 30
0.0
 10
105.947798
 20
131.870066
 30
0.0
 10
105.927872
 20
131.904198
 30
0.0
 10
105.910828
 20
131.939916
 30
0.0
 10
105.896842
 20
131.977223
 30
0.0
 10
105.886086
 20
132.016381
 30
0.0
 10
105.878736
 20
132.056862
 30
0.0
 10
105.876223
 20
132.079352
 30
0.0
 10
105.876223
 20
132.079352
 30
0.0
 10
105.876223
 20
132.079352
 30
0.0
 10
105.876223
 20
132.079352
 30
0.0
 10
105.876223
 20
132.079352
 30
0.0
 10
105.876223
 20
132.079352
 30
0.0
 10
105.876223
 20
132.079352
 30
0.0
 10
105.876223
 20
132.079352
 30
0.0
 10
105.876223
 20
132.079352
 30
0.0
 10
105.876223
 20
132.079352
 30
0.0
 10
105.876223
 20
132.079352
 30
0.0
 10
105.876223
 20
132.079352
 30
0.0
 10
105.876223
 20
132.079352
 30
0.0
 10
105.876223
 20
132.079352
 30
0.0
 10
105.876223
 20
132.079352
 30
0.0
 10
105.876223
 20
132.079352
 30
0.0
 10
105.876223
 20
132.079352
 30
0.0
 10
105.876223
 20
132.079352
 30
0.0
 10
105.875371
 20
132.090729
 30
0.0
 10
105.874633
 20
132.132004
 30
0.0
 10
105.877522
 20
132.172485
 30
0.0
 10
105.883896
 20
132.212172
 30
0.0
 10
105.893608
 20
132.250537
 30
0.0
 10
105.906517
 20
132.287843
 30
0.0
 10
105.922477
 20
132.323562
 30
0.0
 10
105.941342
 20
132.357958
 30
0.0
 10
105.962966
 20
132.390237
 30
0.0
 10
105.987205
 20
132.420664
 30
0.0
 10
106.013914
 20
132.449239
 30
0.0
 10
106.042950
 20
132.475168
 30
0.0
 10
106.074165
 20
132.498716
 30
0.0
 10
106.107415
 20
132.519618
 30
0.0
 10
106.142555
 20
132.537874
 30
0.0
 10
106.179440
 20
132.552955
 30
0.0
 10
106.217929
 20
132.564861
 30
0.0
 10
106.257870
 20
132.573593
 30
0.0
 10
106.295322
 20
132.578355
 30
0.0
 10
106.295322
 20
132.578355
 30
0.0
 10
106.295322
 20
132.578355
 30
0.0
 10
106.295322
 20
132.578355
 30
0.0
 10
106.295322
 20
132.578355
 30
0.0
 10
106.295322
 20
132.578355
 30
0.0
 10
106.295322
 20
132.578355
 30
0.0
 10
106.295322
 20
132.578355
 30
0.0
 10
106.295322
 20
132.578355
 30
0.0
 10
106.295322
 20
132.578355
 30
0.0
 10
106.295322
 20
132.578355
 30
0.0
 10
106.295322
 20
132.578355
 30
0.0
 10
106.295322
 20
132.578355
 30
0.0
 10
106.295322
 20
132.578355
 30
0.0
 10
106.295322
 20
132.578355
 30
0.0
 10
106.295322
 20
132.578355
 30
0.0
 10
106.295322
 20
132.578355
 30
0.0
 10
106.295322
 20
132.578355
 30
0.0
 10
106.295322
 20
132.578355
 30
0.0
 10
110.364238
 20
133.079740
 30
0.0
 10
114.730043
 20
133.953128
 30
0.0
 10
118.967419
 20
135.150896
 30
0.0
 10
123.062794
 20
136.659283
 30
0.0
 10
127.002567
 20
138.465062
 30
0.0
 10
130.773139
 20
140.554210
 30
0.0
 10
134.360885
 20
142.913761
 30
0.0
 10
137.752309
 20
145.529958
 30
0.0
 10
140.933655
 20
148.389042
 30
0.0
 10
143.891429
 20
151.477783
 30
0.0
 10
146.611871
 20
154.782425
 30
0.0
 10
149.081754
 20
158.289473
 30
0.0
 10
151.287053
 20
161.985433
 30
0.0
 10
153.214540
 20
165.856811
 30
0.0
 10
154.850192
 20
169.890114
 30
0.0
 10
156.180780
 20
174.071584
 30
0.0
 10
157.192810
 20
178.387727
 30
0.0
 10
157.872259
 20
182.825313
 30
0.0
 10
157.997936
 20
184.054830
 30
0.0
 10
157.997936
 20
184.054830
 30
0.0
 10
157.997936
 20
184.054830
 30
0.0
 10
157.997936
 20
184.054830
 30
0.0
 10
157.997936
 20
184.054830
 30
0.0
 10
157.997936
 20
184.054830
 30
0.0
 10
157.997936
 20
184.054830
 30
0.0
 10
157.997936
 20
184.054830
 30
0.0
 10
157.997936
 20
184.054830
 30
0.0
 10
157.997936
 20
184.054830
 30
0.0
 10
157.997936
 20
184.054830
 30
0.0
 10
157.997936
 20
184.054830
 30
0.0
 10
157.997936
 20
184.054830
 30
0.0
 10
157.997936
 20
184.054830
 30
0.0
 10
157.997936
 20
184.054830
 30
0.0
 10
157.997936
 20
184.054830
 30
0.0
 10
157.997936
 20
184.054830
 30
0.0
 10
157.997936
 20
184.054830
 30
0.0
 10
158.000582
 20
184.077319
 30
0.0
 10
158.008255
 20
184.117801
 30
0.0
 10
158.019103
 20
184.156694
 30
0.0
 10
158.033390
 20
184.194001
 30
0.0
 10
158.050588
 20
184.229719
 30
0.0
 10
158.070696
 20
184.263586
 30
0.0
 10
158.093450
 20
184.295600
 30
0.0
 10
158.118850
 20
184.325234
 30
0.0
 10
158.146367
 20
184.352750
 30
0.0
 10
158.176265
 20
184.377621
 30
0.0
 10
158.208015
 20
184.400111
 30
0.0
 10
158.241882
 20
184.419954
 30
0.0
 10
158.277071
 20
184.436888
 30
0.0
 10
158.313848
 20
184.450646
 30
0.0
 10
158.351948
 20
184.461494
 30
0.0
 10
158.391371
 20
184.468902
 30
0.0
 10
158.431588
 20
184.472871
 30
0.0
 10
158.472598
 20
184.473400
 30
0.0
 10
158.499056
 20
184.471813
 30
0.0
 10
158.499056
 20
184.471813
 30
0.0
 10
158.499056
 20
184.471813
 30
0.0
 10
158.499056
 20
184.471813
 30
0.0
 10
158.499056
 20
184.471813
 30
0.0
 10
158.499056
 20
184.471813
 30
0.0
 10
158.499056
 20
184.471813
 30
0.0
 10
158.499056
 20
184.471813
 30
0.0
 10
158.499056
 20
184.471813
 30
0.0
 10
158.499056
 20
184.471813
 30
0.0
 10
158.499056
 20
184.471813
 30
0.0
 10
158.499056
 20
184.471813
 30
0.0
 10
158.499056
 20
184.471813
 30
0.0
 10
158.499056
 20
184.471813
 30
0.0
 10
158.499056
 20
184.471813
 30
0.0
 10
158.499056
 20
184.471813
 30
0.0
 10
158.499056
 20
184.471813
 30
0.0
 10
158.499056
 20
184.471813
 30
0.0
 10
158.506465
 20
184.471019
 30
0.0
 10
158.547475
 20
184.464669
 30
0.0
 10
158.586898
 20
184.454879
 30
0.0
 10
158.624998
 20
184.441915
 30
0.0
 10
158.661246
 20
184.425775
 30
0.0
 10
158.695906
 20
184.406725
 30
0.0
 10
158.728450
 20
184.384765
 30
0.0
 10
158.758877
 20
184.360423
 30
0.0
 10
158.787187
 20
184.333700
 30
0.0
 10
158.813116
 20
184.304596
 30
0.0
 10
158.836664
 20
184.273375
 30
0.0
 10
158.857302
 20
184.240303
 30
0.0
 10
158.875293
 20
184.205642
 30
0.0
 10
158.890374
 20
184.169394
 30
0.0
 10
158.902281
 20
184.131559
 30
0.0
 10
158.911012
 20
184.092930
 30
0.0
 10
158.916304
 20
184.052978
 30
0.0
 10
158.917891
 20
184.012232
 30
0.0
  0
ENDSEC
  0
SECTION
  2
OBJECTS
  0
DICTIONARY
  5
C
330
0
100
AcDbDictionary
  3
ACAD_GROUP
350
D
  3
ACAD_MLINESTYLE
350
17
  0
DICTIONARY
  5
D
330
C
100
AcDbDictionary
  0
DICTIONARY
  5
1A
330
C
100
AcDbDictionary
  0
DICTIONARY
  5
17
330
C
100
AcDbDictionary
  3
STANDARD
350
18
  0
DICTIONARY
  5
19
330
C
100
AcDbDictionary
  0
ENDSEC
  0
EOF
