999
"DXF R12 Output" (www.mydxf.blogspot.com)
 0 
SECTION
 2 
HEADER
 9 
$ACADVER
 1 
AC1009
 9 
$EXTMIN
 10 
 0 
 20 
 0 
 9 
$EXTMAX
 10 
 8.5 
 20 
 11 
 0 
ENDSEC
 0 
SECTION
 2 
ENTITIES
0
LINE
8
Layer 1
10
96.565086
20
122.427130
11
89.300759
21
123.196541
0
LINE
8
Layer 1
10
89.300759
20
123.196541
11
82.436763
21
124.405407
0
LINE
8
Layer 1
10
82.436763
20
124.405407
11
75.992659
21
126.046029
0
LINE
8
Layer 1
10
75.992659
20
126.046029
11
69.988007
21
128.110710
0
LINE
8
Layer 1
10
69.988007
20
128.110710
11
64.442366
21
130.591752
0
LINE
8
Layer 1
10
64.442366
20
130.591752
11
59.375296
21
133.481456
0
LINE
8
Layer 1
10
59.375296
20
133.481456
11
57.027338
21
135.077151
0
LINE
8
Layer 1
10
57.027338
20
135.077151
11
54.806357
21
136.772125
0
LINE
8
Layer 1
10
54.806357
20
136.772125
11
52.714799
21
138.565415
0
LINE
8
Layer 1
10
52.714799
20
138.565415
11
50.755109
21
140.456060
0
LINE
8
Layer 1
10
50.755109
20
140.456060
11
48.121878
21
143.389680
0
LINE
8
Layer 1
10
48.121878
20
143.389680
11
45.842656
21
146.434166
0
LINE
8
Layer 1
10
45.842656
20
146.434166
11
43.916494
21
149.591775
0
LINE
8
Layer 1
10
43.916494
20
149.591775
11
42.342446
21
152.864765
0
LINE
8
Layer 1
10
42.342446
20
152.864765
11
41.119564
21
156.255392
0
LINE
8
Layer 1
10
41.119564
20
156.255392
11
40.246900
21
159.765914
0
LINE
8
Layer 1
10
40.246900
20
159.765914
11
39.723509
21
163.398588
0
LINE
8
Layer 1
10
39.723509
20
163.398588
11
39.548441
21
167.155670
0
LINE
8
Layer 1
10
39.548441
20
167.155670
11
39.745573
21
171.265837
0
LINE
8
Layer 1
10
39.745573
20
171.265837
11
40.384269
21
175.026815
0
LINE
8
Layer 1
10
40.384269
20
175.026815
11
41.531207
21
178.716873
0
LINE
8
Layer 1
10
41.531207
20
178.716873
11
43.253065
21
182.614280
0
LINE
8
Layer 1
10
43.253065
20
182.614280
11
44.807918
21
185.429530
0
LINE
8
Layer 1
10
44.807918
20
185.429530
11
46.622228
21
188.142324
0
LINE
8
Layer 1
10
46.622228
20
188.142324
11
48.684796
21
190.746113
0
LINE
8
Layer 1
10
48.684796
20
190.746113
11
50.984420
21
193.234350
0
LINE
8
Layer 1
10
50.984420
20
193.234350
11
53.509899
21
195.600484
0
LINE
8
Layer 1
10
53.509899
20
195.600484
11
56.250033
21
197.837967
0
LINE
8
Layer 1
10
56.250033
20
197.837967
11
59.193620
21
199.940250
0
LINE
8
Layer 1
10
59.193620
20
199.940250
11
62.329461
21
201.900784
0
LINE
8
Layer 1
10
62.329461
20
201.900784
11
65.646354
21
203.713021
0
LINE
8
Layer 1
10
65.646354
20
203.713021
11
69.133099
21
205.370412
0
LINE
8
Layer 1
10
69.133099
20
205.370412
11
72.778495
21
206.866407
0
LINE
8
Layer 1
10
72.778495
20
206.866407
11
76.571341
21
208.194458
0
LINE
8
Layer 1
10
76.571341
20
208.194458
11
80.500436
21
209.348016
0
LINE
8
Layer 1
10
80.500436
20
209.348016
11
84.554580
21
210.320533
0
LINE
8
Layer 1
10
84.554580
20
210.320533
11
88.722572
21
211.105459
0
LINE
8
Layer 1
10
88.722572
20
211.105459
11
92.993211
21
211.696245
0
LINE
8
Layer 1
10
92.993211
20
211.696245
11
99.164775
21
212.208782
0
LINE
8
Layer 1
10
99.164775
20
212.208782
11
105.204091
21
212.295418
0
LINE
8
Layer 1
10
105.204091
20
212.295418
11
111.454895
21
211.948886
0
LINE
8
Layer 1
10
111.454895
20
211.948886
11
118.260920
21
211.161917
0
LINE
8
Layer 1
10
118.260920
20
211.161917
11
124.069362
21
210.220327
0
LINE
8
Layer 1
10
124.069362
20
210.220327
11
130.050594
21
209.056647
0
LINE
8
Layer 1
10
130.050594
20
209.056647
11
135.002561
21
207.923412
0
LINE
8
Layer 1
10
135.002561
20
207.923412
11
137.723210
21
207.073158
0
LINE
8
Layer 1
10
137.723210
20
207.073158
11
138.334691
21
207.162704
0
LINE
8
Layer 1
10
138.334691
20
207.162704
11
139.395160
21
207.936053
0
LINE
8
Layer 1
10
139.395160
20
207.936053
11
140.654810
21
209.012773
0
LINE
8
Layer 1
10
140.654810
20
209.012773
11
151.550570
21
205.780022
0
LINE
8
Layer 1
10
151.550570
20
205.780022
11
162.662960
21
202.338945
0
LINE
8
Layer 1
10
162.662960
20
202.338945
11
165.370040
21
190.678880
0
LINE
8
Layer 1
10
165.370040
20
190.678880
11
167.860500
21
179.227140
0
LINE
8
Layer 1
10
167.860500
20
179.227140
11
164.491960
21
175.679440
0
LINE
8
Layer 1
10
164.491960
20
175.679440
11
159.000651
21
169.843271
0
LINE
8
Layer 1
10
159.000651
20
169.843271
11
157.563070
21
168.125990
0
LINE
8
Layer 1
10
157.563070
20
168.125990
11
164.959880
21
156.817400
0
LINE
8
Layer 1
10
164.959880
20
156.817400
11
172.368210
21
145.498780
0
LINE
8
Layer 1
10
172.368210
20
145.498780
11
170.714570
21
144.202650
0
LINE
8
Layer 1
10
170.714570
20
144.202650
11
165.064262
21
140.711566
0
LINE
8
Layer 1
10
165.064262
20
140.711566
11
159.072891
21
137.416029
0
LINE
8
Layer 1
10
159.072891
20
137.416029
11
152.833165
21
134.354056
0
LINE
8
Layer 1
10
152.833165
20
134.354056
11
146.437795
21
131.563667
0
LINE
8
Layer 1
10
146.437795
20
131.563667
11
139.979488
21
129.082882
0
LINE
8
Layer 1
10
139.979488
20
129.082882
11
133.550954
21
126.949717
0
LINE
8
Layer 1
10
133.550954
20
126.949717
11
127.244902
21
125.202194
0
LINE
8
Layer 1
10
127.244902
20
125.202194
11
121.154040
21
123.878330
0
LINE
8
Layer 1
10
121.154040
20
123.878330
11
114.360860
21
122.811750
0
LINE
8
Layer 1
10
114.360860
20
122.811750
11
110.533430
21
122.496585
0
LINE
8
Layer 1
10
110.533430
20
122.496585
11
105.620197
21
122.312915
0
LINE
8
Layer 1
10
105.620197
20
122.312915
11
100.628352
21
122.282508
0
LINE
8
Layer 1
10
100.628352
20
122.282508
11
96.565086
21
122.427130
0
LINE
8
Layer 1
10
96.565086
20
122.427130
11
96.565086
21
122.427130
0
LINE
8
Layer 1
10
113.498420
20
127.302440
11
118.716003
21
128.044799
0
LINE
8
Layer 1
10
118.716003
20
128.044799
11
123.871960
21
129.012544
0
LINE
8
Layer 1
10
123.871960
20
129.012544
11
128.969891
21
130.206776
0
LINE
8
Layer 1
10
128.969891
20
130.206776
11
134.013394
21
131.628596
0
LINE
8
Layer 1
10
134.013394
20
131.628596
11
139.006066
21
133.279107
0
LINE
8
Layer 1
10
139.006066
20
133.279107
11
143.951508
21
135.159410
0
LINE
8
Layer 1
10
143.951508
20
135.159410
11
148.853316
21
137.270607
0
LINE
8
Layer 1
10
148.853316
20
137.270607
11
153.715090
21
139.613800
0
LINE
8
Layer 1
10
153.715090
20
139.613800
11
162.168081
21
144.208443
0
LINE
8
Layer 1
10
162.168081
20
144.208443
11
165.113597
21
145.998538
0
LINE
8
Layer 1
10
165.113597
20
145.998538
11
166.196110
21
146.864320
0
LINE
8
Layer 1
10
166.196110
20
146.864320
11
159.829520
21
156.470510
0
LINE
8
Layer 1
10
159.829520
20
156.470510
11
153.579420
21
165.780920
0
LINE
8
Layer 1
10
153.579420
20
165.780920
11
150.294370
21
163.824650
0
LINE
8
Layer 1
10
150.294370
20
163.824650
11
145.158275
21
160.956775
0
LINE
8
Layer 1
10
145.158275
20
160.956775
11
139.813705
21
158.326716
0
LINE
8
Layer 1
10
139.813705
20
158.326716
11
134.477227
21
156.034280
0
LINE
8
Layer 1
10
134.477227
20
156.034280
11
129.365410
21
154.179270
0
LINE
8
Layer 1
10
129.365410
20
154.179270
11
123.806246
21
152.569299
0
LINE
8
Layer 1
10
123.806246
20
152.569299
11
120.588830
21
151.887760
0
LINE
8
Layer 1
10
120.588830
20
151.887760
11
120.439350
21
167.096430
0
LINE
8
Layer 1
10
120.439350
20
167.096430
11
120.454217
21
180.108406
0
LINE
8
Layer 1
10
120.454217
20
180.108406
11
120.592550
21
181.899058
0
LINE
8
Layer 1
10
120.592550
20
181.899058
11
120.709876
21
182.163928
0
LINE
8
Layer 1
10
120.709876
20
182.163928
11
120.865190
21
182.217400
0
LINE
8
Layer 1
10
120.865190
20
182.217400
11
124.040190
21
181.670050
0
LINE
8
Layer 1
10
124.040190
20
181.670050
11
127.455209
21
180.836617
0
LINE
8
Layer 1
10
127.455209
20
180.836617
11
130.884290
21
179.734558
0
LINE
8
Layer 1
10
130.884290
20
179.734558
11
134.278693
21
178.388829
0
LINE
8
Layer 1
10
134.278693
20
178.388829
11
137.589677
21
176.824384
0
LINE
8
Layer 1
10
137.589677
20
176.824384
11
140.768501
21
175.066178
0
LINE
8
Layer 1
10
140.768501
20
175.066178
11
143.766424
21
173.139165
0
LINE
8
Layer 1
10
143.766424
20
173.139165
11
146.534704
21
171.068301
0
LINE
8
Layer 1
10
146.534704
20
171.068301
11
149.024600
21
168.878540
0
LINE
8
Layer 1
10
149.024600
20
168.878540
11
150.419520
21
167.539520
0
LINE
8
Layer 1
10
150.419520
20
167.539520
11
156.087110
21
173.385020
0
LINE
8
Layer 1
10
156.087110
20
173.385020
11
162.402020
21
179.999810
0
LINE
8
Layer 1
10
162.402020
20
179.999810
11
163.049330
21
180.769100
0
LINE
8
Layer 1
10
163.049330
20
180.769100
11
161.057990
21
189.761480
0
LINE
8
Layer 1
10
161.057990
20
189.761480
11
158.987610
21
198.847045
0
LINE
8
Layer 1
10
158.987610
20
198.847045
11
150.379990
21
201.444530
0
LINE
8
Layer 1
10
150.379990
20
201.444530
11
141.851400
21
203.948829
0
LINE
8
Layer 1
10
141.851400
20
203.948829
11
140.698120
21
202.795555
0
LINE
8
Layer 1
10
140.698120
20
202.795555
11
139.544850
21
201.642282
0
LINE
8
Layer 1
10
139.544850
20
201.642282
11
136.941580
21
202.511858
0
LINE
8
Layer 1
10
136.941580
20
202.511858
11
130.433532
21
204.391343
0
LINE
8
Layer 1
10
130.433532
20
204.391343
11
123.338034
21
205.890568
0
LINE
8
Layer 1
10
123.338034
20
205.890568
11
115.773041
21
206.988635
0
LINE
8
Layer 1
10
115.773041
20
206.988635
11
107.856510
21
207.664647
0
LINE
8
Layer 1
10
107.856510
20
207.664647
11
103.814687
21
207.806867
0
LINE
8
Layer 1
10
103.814687
20
207.806867
11
99.829643
21
207.772529
0
LINE
8
Layer 1
10
99.829643
20
207.772529
11
95.909168
21
207.564178
0
LINE
8
Layer 1
10
95.909168
20
207.564178
11
92.061056
21
207.184363
0
LINE
8
Layer 1
10
92.061056
20
207.184363
11
88.293096
21
206.635630
0
LINE
8
Layer 1
10
88.293096
20
206.635630
11
84.613081
21
205.920526
0
LINE
8
Layer 1
10
84.613081
20
205.920526
11
81.028802
21
205.041597
0
LINE
8
Layer 1
10
81.028802
20
205.041597
11
77.548051
21
204.001392
0
LINE
8
Layer 1
10
77.548051
20
204.001392
11
74.178620
21
202.802455
0
LINE
8
Layer 1
10
74.178620
20
202.802455
11
70.928300
21
201.447335
0
LINE
8
Layer 1
10
70.928300
20
201.447335
11
67.804883
21
199.938578
0
LINE
8
Layer 1
10
67.804883
20
199.938578
11
64.816160
21
198.278731
0
LINE
8
Layer 1
10
64.816160
20
198.278731
11
61.969923
21
196.470341
0
LINE
8
Layer 1
10
61.969923
20
196.470341
11
59.273964
21
194.515954
0
LINE
8
Layer 1
10
59.273964
20
194.515954
11
56.736074
21
192.418118
0
LINE
8
Layer 1
10
56.736074
20
192.418118
11
54.364044
21
190.179380
0
LINE
8
Layer 1
10
54.364044
20
190.179380
11
52.497126
21
188.170883
0
LINE
8
Layer 1
10
52.497126
20
188.170883
11
50.814307
21
186.103322
0
LINE
8
Layer 1
10
50.814307
20
186.103322
11
49.316544
21
183.981525
0
LINE
8
Layer 1
10
49.316544
20
183.981525
11
48.004794
21
181.810318
0
LINE
8
Layer 1
10
48.004794
20
181.810318
11
46.880016
21
179.594530
0
LINE
8
Layer 1
10
46.880016
20
179.594530
11
45.943166
21
177.338988
0
LINE
8
Layer 1
10
45.943166
20
177.338988
11
45.195202
21
175.048520
0
LINE
8
Layer 1
10
45.195202
20
175.048520
11
44.637081
21
172.727951
0
LINE
8
Layer 1
10
44.637081
20
172.727951
11
44.269760
21
170.382111
0
LINE
8
Layer 1
10
44.269760
20
170.382111
11
44.094198
21
168.015826
0
LINE
8
Layer 1
10
44.094198
20
168.015826
11
44.111350
21
165.633923
0
LINE
8
Layer 1
10
44.111350
20
165.633923
11
44.322175
21
163.241231
0
LINE
8
Layer 1
10
44.322175
20
163.241231
11
44.727630
21
160.842576
0
LINE
8
Layer 1
10
44.727630
20
160.842576
11
45.328672
21
158.442786
0
LINE
8
Layer 1
10
45.328672
20
158.442786
11
46.126259
21
156.046688
0
LINE
8
Layer 1
10
46.126259
20
156.046688
11
47.121348
21
153.659110
0
LINE
8
Layer 1
10
47.121348
20
153.659110
11
48.246152
21
151.487248
0
LINE
8
Layer 1
10
48.246152
20
151.487248
11
49.627270
21
149.288091
0
LINE
8
Layer 1
10
49.627270
20
149.288091
11
51.232760
21
147.097460
0
LINE
8
Layer 1
10
51.232760
20
147.097460
11
53.030680
21
144.951178
0
LINE
8
Layer 1
10
53.030680
20
144.951178
11
54.989086
21
142.885063
0
LINE
8
Layer 1
10
54.989086
20
142.885063
11
57.076035
21
140.934938
0
LINE
8
Layer 1
10
57.076035
20
140.934938
11
59.259585
21
139.136623
0
LINE
8
Layer 1
10
59.259585
20
139.136623
11
61.507794
21
137.525940
0
LINE
8
Layer 1
10
61.507794
20
137.525940
11
64.940819
21
135.428068
0
LINE
8
Layer 1
10
64.940819
20
135.428068
11
68.584402
21
133.544786
0
LINE
8
Layer 1
10
68.584402
20
133.544786
11
72.428696
21
131.879276
0
LINE
8
Layer 1
10
72.428696
20
131.879276
11
76.463852
21
130.434718
0
LINE
8
Layer 1
10
76.463852
20
130.434718
11
80.680022
21
129.214292
0
LINE
8
Layer 1
10
80.680022
20
129.214292
11
85.067356
21
128.221180
0
LINE
8
Layer 1
10
85.067356
20
128.221180
11
89.616008
21
127.458563
0
LINE
8
Layer 1
10
89.616008
20
127.458563
11
94.316128
21
126.929620
0
LINE
8
Layer 1
10
94.316128
20
126.929620
11
98.384525
21
126.776805
0
LINE
8
Layer 1
10
98.384525
20
126.776805
11
103.834757
21
126.805436
0
LINE
8
Layer 1
10
103.834757
20
126.805436
11
109.321248
21
126.989365
0
LINE
8
Layer 1
10
109.321248
20
126.989365
11
113.498420
21
127.302440
0
LINE
8
Layer 1
10
113.498420
20
127.302440
11
113.498420
21
127.302440
0
LINE
8
Layer 1
10
92.331753
20
130.630870
11
87.932814
21
131.230368
0
LINE
8
Layer 1
10
87.932814
20
131.230368
11
83.713197
21
132.038740
0
LINE
8
Layer 1
10
83.713197
20
132.038740
11
79.681237
21
133.050072
0
LINE
8
Layer 1
10
79.681237
20
133.050072
11
75.845272
21
134.258452
0
LINE
8
Layer 1
10
75.845272
20
134.258452
11
72.213636
21
135.657969
0
LINE
8
Layer 1
10
72.213636
20
135.657969
11
68.794666
21
137.242710
0
LINE
8
Layer 1
10
68.794666
20
137.242710
11
65.596698
21
139.006763
0
LINE
8
Layer 1
10
65.596698
20
139.006763
11
62.628067
21
140.944216
0
LINE
8
Layer 1
10
62.628067
20
140.944216
11
59.897109
21
143.049157
0
LINE
8
Layer 1
10
59.897109
20
143.049157
11
57.412161
21
145.315674
0
LINE
8
Layer 1
10
57.412161
20
145.315674
11
55.181557
21
147.737854
0
LINE
8
Layer 1
10
55.181557
20
147.737854
11
53.213635
21
150.309785
0
LINE
8
Layer 1
10
53.213635
20
150.309785
11
51.516729
21
153.025555
0
LINE
8
Layer 1
10
51.516729
20
153.025555
11
50.099177
21
155.879253
0
LINE
8
Layer 1
10
50.099177
20
155.879253
11
48.969313
21
158.864965
0
LINE
8
Layer 1
10
48.969313
20
158.864965
11
48.135473
21
161.976780
0
LINE
8
Layer 1
10
48.135473
20
161.976780
11
47.754657
21
164.692380
0
LINE
8
Layer 1
10
47.754657
20
164.692380
11
47.652578
21
167.743399
0
LINE
8
Layer 1
10
47.652578
20
167.743399
11
47.824898
21
170.755379
0
LINE
8
Layer 1
10
47.824898
20
170.755379
11
48.267278
21
173.353860
0
LINE
8
Layer 1
10
48.267278
20
173.353860
11
49.066838
21
175.968296
0
LINE
8
Layer 1
10
49.066838
20
175.968296
11
50.116620
21
178.503372
0
LINE
8
Layer 1
10
50.116620
20
178.503372
11
51.416131
21
180.958398
0
LINE
8
Layer 1
10
51.416131
20
180.958398
11
52.964874
21
183.332685
0
LINE
8
Layer 1
10
52.964874
20
183.332685
11
54.762356
21
185.625542
0
LINE
8
Layer 1
10
54.762356
20
185.625542
11
56.808083
21
187.836280
0
LINE
8
Layer 1
10
56.808083
20
187.836280
11
59.101559
21
189.964209
0
LINE
8
Layer 1
10
59.101559
20
189.964209
11
61.642291
21
192.008640
0
LINE
8
Layer 1
10
61.642291
20
192.008640
11
66.246601
21
195.107526
0
LINE
8
Layer 1
10
66.246601
20
195.107526
11
71.222816
21
197.772085
0
LINE
8
Layer 1
10
71.222816
20
197.772085
11
76.540806
21
199.994265
0
LINE
8
Layer 1
10
76.540806
20
199.994265
11
82.170443
21
201.766012
0
LINE
8
Layer 1
10
82.170443
20
201.766012
11
88.081597
21
203.079271
0
LINE
8
Layer 1
10
88.081597
20
203.079271
11
94.244141
21
203.925988
0
LINE
8
Layer 1
10
94.244141
20
203.925988
11
100.627945
21
204.298111
0
LINE
8
Layer 1
10
100.627945
20
204.298111
11
107.202880
21
204.187585
0
LINE
8
Layer 1
10
107.202880
20
204.187585
11
116.091796
21
203.424927
0
LINE
8
Layer 1
10
116.091796
20
203.424927
11
120.298750
21
202.839129
0
LINE
8
Layer 1
10
120.298750
20
202.839129
11
124.347275
21
202.117038
0
LINE
8
Layer 1
10
124.347275
20
202.117038
11
128.237301
21
201.258665
0
LINE
8
Layer 1
10
128.237301
20
201.258665
11
131.968757
21
200.264027
0
LINE
8
Layer 1
10
131.968757
20
200.264027
11
135.541573
21
199.133137
0
LINE
8
Layer 1
10
135.541573
20
199.133137
11
138.955680
21
197.866009
0
LINE
8
Layer 1
10
138.955680
20
197.866009
11
140.335850
21
197.313380
0
LINE
8
Layer 1
10
140.335850
20
197.313380
11
141.546280
21
198.715414
0
LINE
8
Layer 1
10
141.546280
20
198.715414
11
142.756710
21
200.117447
0
LINE
8
Layer 1
10
142.756710
20
200.117447
11
149.268980
21
198.190904
0
LINE
8
Layer 1
10
149.268980
20
198.190904
11
155.969730
21
196.053900
0
LINE
8
Layer 1
10
155.969730
20
196.053900
11
157.649360
21
188.718940
0
LINE
8
Layer 1
10
157.649360
20
188.718940
11
159.140510
21
181.594440
0
LINE
8
Layer 1
10
159.140510
20
181.594440
11
155.385740
21
177.738730
0
LINE
8
Layer 1
10
155.385740
20
177.738730
11
150.908190
21
173.115460
0
LINE
8
Layer 1
10
150.908190
20
173.115460
11
150.185400
21
172.347890
0
LINE
8
Layer 1
10
150.185400
20
172.347890
11
148.642950
21
173.732530
0
LINE
8
Layer 1
10
148.642950
20
173.732530
11
145.577449
21
176.108150
0
LINE
8
Layer 1
10
145.577449
20
176.108150
11
141.764840
21
178.474814
0
LINE
8
Layer 1
10
141.764840
20
178.474814
11
137.533018
21
180.647496
0
LINE
8
Layer 1
10
137.533018
20
180.647496
11
133.209880
21
182.441170
0
LINE
8
Layer 1
10
133.209880
20
182.441170
11
127.338613
21
184.297072
0
LINE
8
Layer 1
10
127.338613
20
184.297072
11
121.143540
21
185.754256
0
LINE
8
Layer 1
10
121.143540
20
185.754256
11
114.748830
21
186.804562
0
LINE
8
Layer 1
10
114.748830
20
186.804562
11
108.278651
21
187.439828
0
LINE
8
Layer 1
10
108.278651
20
187.439828
11
101.857172
21
187.651891
0
LINE
8
Layer 1
10
101.857172
20
187.651891
11
95.608561
21
187.432593
0
LINE
8
Layer 1
10
95.608561
20
187.432593
11
89.656987
21
186.773769
0
LINE
8
Layer 1
10
89.656987
20
186.773769
11
84.126618
21
185.667260
0
LINE
8
Layer 1
10
84.126618
20
185.667260
11
79.775712
21
184.342401
0
LINE
8
Layer 1
10
79.775712
20
184.342401
11
75.898356
21
182.699390
0
LINE
8
Layer 1
10
75.898356
20
182.699390
11
72.527397
21
180.767961
0
LINE
8
Layer 1
10
72.527397
20
180.767961
11
69.695682
21
178.577851
0
LINE
8
Layer 1
10
69.695682
20
178.577851
11
67.436059
21
176.158797
0
LINE
8
Layer 1
10
67.436059
20
176.158797
11
66.531046
21
174.872709
0
LINE
8
Layer 1
10
66.531046
20
174.872709
11
65.781374
21
173.540535
0
LINE
8
Layer 1
10
65.781374
20
173.540535
11
65.191149
21
172.165993
0
LINE
8
Layer 1
10
65.191149
20
172.165993
11
64.764476
21
170.752800
0
LINE
8
Layer 1
10
64.764476
20
170.752800
11
64.505461
21
169.304674
0
LINE
8
Layer 1
10
64.505461
20
169.304674
11
64.418210
21
167.825330
0
LINE
8
Layer 1
10
64.418210
20
167.825330
11
64.504822
21
166.263120
0
LINE
8
Layer 1
10
64.504822
20
166.263120
11
64.762313
21
164.736801
0
LINE
8
Layer 1
10
64.762313
20
164.736801
11
65.187163
21
163.249698
0
LINE
8
Layer 1
10
65.187163
20
163.249698
11
65.775853
21
161.805136
0
LINE
8
Layer 1
10
65.775853
20
161.805136
11
66.524865
21
160.406443
0
LINE
8
Layer 1
10
66.524865
20
160.406443
11
67.430678
21
159.056943
0
LINE
8
Layer 1
10
67.430678
20
159.056943
11
69.698634
21
156.518826
0
LINE
8
Layer 1
10
69.698634
20
156.518826
11
72.551568
21
154.217393
0
LINE
8
Layer 1
10
72.551568
20
154.217393
11
75.961328
21
152.179250
0
LINE
8
Layer 1
10
75.961328
20
152.179250
11
79.899760
21
150.431004
0
LINE
8
Layer 1
10
79.899760
20
150.431004
11
84.338711
21
148.999260
0
LINE
8
Layer 1
10
84.338711
20
148.999260
11
88.713069
21
148.030630
0
LINE
8
Layer 1
10
88.713069
20
148.030630
11
93.520928
21
147.349960
0
LINE
8
Layer 1
10
93.520928
20
147.349960
11
98.644266
21
146.956464
0
LINE
8
Layer 1
10
98.644266
20
146.956464
11
103.965065
21
146.849358
0
LINE
8
Layer 1
10
103.965065
20
146.849358
11
109.365304
21
147.027854
0
LINE
8
Layer 1
10
109.365304
20
147.027854
11
114.726962
21
147.491167
0
LINE
8
Layer 1
10
114.726962
20
147.491167
11
119.932021
21
148.238511
0
LINE
8
Layer 1
10
119.932021
20
148.238511
11
124.862460
21
149.269100
0
LINE
8
Layer 1
10
124.862460
20
149.269100
11
130.774118
21
150.972236
0
LINE
8
Layer 1
10
130.774118
20
150.972236
11
136.782158
21
153.207421
0
LINE
8
Layer 1
10
136.782158
20
153.207421
11
143.038151
21
156.037253
0
LINE
8
Layer 1
10
143.038151
20
156.037253
11
149.693670
21
159.524330
0
LINE
8
Layer 1
10
149.693670
20
159.524330
11
151.756265
21
160.601290
0
LINE
8
Layer 1
10
151.756265
20
160.601290
11
152.702260
21
160.961130
0
LINE
8
Layer 1
10
152.702260
20
160.961130
11
157.161910
21
154.264750
0
LINE
8
Layer 1
10
157.161910
20
154.264750
11
161.470720
21
147.719220
0
LINE
8
Layer 1
10
161.470720
20
147.719220
11
157.063740
21
145.349090
0
LINE
8
Layer 1
10
157.063740
20
145.349090
11
151.414900
21
142.419843
0
LINE
8
Layer 1
10
151.414900
20
142.419843
11
146.065938
21
139.881317
0
LINE
8
Layer 1
10
146.065938
20
139.881317
11
140.926650
21
137.702881
0
LINE
8
Layer 1
10
140.926650
20
137.702881
11
135.906833
21
135.853906
0
LINE
8
Layer 1
10
135.906833
20
135.853906
11
130.916283
21
134.303764
0
LINE
8
Layer 1
10
130.916283
20
134.303764
11
125.864798
21
133.021825
0
LINE
8
Layer 1
10
125.864798
20
133.021825
11
120.662175
21
131.977460
0
LINE
8
Layer 1
10
120.662175
20
131.977460
11
115.218210
21
131.140040
0
LINE
8
Layer 1
10
115.218210
20
131.140040
11
110.091515
21
130.658574
0
LINE
8
Layer 1
10
110.091515
20
130.658574
11
102.650500
21
130.478780
0
LINE
8
Layer 1
10
102.650500
20
130.478780
11
96.236011
21
130.490216
0
LINE
8
Layer 1
10
96.236011
20
130.490216
11
92.331753
21
130.630870
0
LINE
8
Layer 1
10
92.331753
20
130.630870
11
92.331753
21
130.630870
0
LINE
8
Layer 1
10
99.938524
20
150.376180
11
99.078628
21
150.500930
0
LINE
8
Layer 1
10
99.078628
20
150.500930
11
99.078628
21
156.834160
0
LINE
8
Layer 1
10
99.078628
20
156.834160
11
99.078628
21
163.167400
0
LINE
8
Layer 1
10
99.078628
20
163.167400
11
105.296340
21
163.167400
0
LINE
8
Layer 1
10
105.296340
20
163.167400
11
111.514040
21
163.167400
0
LINE
8
Layer 1
10
111.514040
20
163.167400
11
111.514040
21
156.978000
0
LINE
8
Layer 1
10
111.514040
20
156.978000
11
111.442450
21
151.962069
0
LINE
8
Layer 1
10
111.442450
20
151.962069
11
111.329714
21
150.974796
0
LINE
8
Layer 1
10
111.329714
20
150.974796
11
111.145020
21
150.646990
0
LINE
8
Layer 1
10
111.145020
20
150.646990
11
105.754275
21
150.380841
0
LINE
8
Layer 1
10
105.754275
20
150.380841
11
99.938524
21
150.376180
0
LINE
8
Layer 1
10
99.938524
20
150.376180
11
99.938524
21
150.376180
0
LINE
8
Layer 1
10
108.339040
20
156.817400
11
108.258040
21
159.438510
0
LINE
8
Layer 1
10
108.258040
20
159.438510
11
105.296330
21
159.463210
0
LINE
8
Layer 1
10
105.296330
20
159.463210
11
102.253620
21
159.463210
0
LINE
8
Layer 1
10
102.253620
20
159.463210
11
102.253620
21
156.817380
0
LINE
8
Layer 1
10
102.253620
20
156.817380
11
102.253620
21
154.171550
0
LINE
8
Layer 1
10
102.253620
20
154.171550
11
105.296330
21
154.171550
0
LINE
8
Layer 1
10
105.296330
20
154.171550
11
108.339030
21
154.171550
0
LINE
8
Layer 1
10
108.339030
20
154.171550
11
108.339040
21
156.817400
0
LINE
8
Layer 1
10
86.977223
20
151.675970
11
82.792407
21
152.907766
0
LINE
8
Layer 1
10
82.792407
20
152.907766
11
78.667969
21
154.693886
0
LINE
8
Layer 1
10
78.667969
20
154.693886
11
74.929410
21
156.870293
0
LINE
8
Layer 1
10
74.929410
20
156.870293
11
73.306555
21
158.053593
0
LINE
8
Layer 1
10
73.306555
20
158.053593
11
71.902233
21
159.272950
0
LINE
8
Layer 1
10
71.902233
20
159.272950
11
69.970026
21
161.429408
0
LINE
8
Layer 1
10
69.970026
20
161.429408
11
68.683879
21
163.592015
0
LINE
8
Layer 1
10
68.683879
20
163.592015
11
68.274195
21
164.695600
0
LINE
8
Layer 1
10
68.274195
20
164.695600
11
68.015365
21
165.824694
0
LINE
8
Layer 1
10
68.015365
20
165.824694
11
67.936056
21
168.191370
0
LINE
8
Layer 1
10
67.936056
20
168.191370
11
68.425369
21
170.649290
0
LINE
8
Layer 1
10
68.425369
20
170.649290
11
69.459493
21
172.937953
0
LINE
8
Layer 1
10
69.459493
20
172.937953
11
71.026393
21
175.047990
0
LINE
8
Layer 1
10
71.026393
20
175.047990
11
73.114033
21
176.970030
0
LINE
8
Layer 1
10
73.114033
20
176.970030
11
75.710378
21
178.694704
0
LINE
8
Layer 1
10
75.710378
20
178.694704
11
78.803392
21
180.212642
0
LINE
8
Layer 1
10
78.803392
20
180.212642
11
82.381041
21
181.514474
0
LINE
8
Layer 1
10
82.381041
20
181.514474
11
86.431289
21
182.590830
0
LINE
8
Layer 1
10
86.431289
20
182.590830
11
89.651631
21
183.275730
0
LINE
8
Layer 1
10
89.651631
20
183.275730
11
89.818211
21
167.268440
0
LINE
8
Layer 1
10
89.818211
20
167.268440
11
89.818211
21
151.261150
0
LINE
8
Layer 1
10
89.818211
20
151.261150
11
89.222899
21
151.287750
0
LINE
8
Layer 1
10
89.222899
20
151.287750
11
86.977223
21
151.676000
0
LINE
8
Layer 1
10
86.977223
20
151.676000
11
86.977223
21
151.675970
0
LINE
8
Layer 1
10
85.320294
20
167.273480
11
85.320294
21
177.729570
0
LINE
8
Layer 1
10
85.320294
20
177.729570
11
84.592690
21
177.555590
0
LINE
8
Layer 1
10
84.592690
20
177.555590
11
81.897036
21
176.636214
0
LINE
8
Layer 1
10
81.897036
20
176.636214
11
78.972227
21
175.218765
0
LINE
8
Layer 1
10
78.972227
20
175.218765
11
76.334401
21
173.586238
0
LINE
8
Layer 1
10
76.334401
20
173.586238
11
74.499693
21
172.021630
0
LINE
8
Layer 1
10
74.499693
20
172.021630
11
73.227115
21
170.178731
0
LINE
8
Layer 1
10
73.227115
20
170.178731
11
72.579308
21
168.299203
0
LINE
8
Layer 1
10
72.579308
20
168.299203
11
72.493721
21
167.368489
0
LINE
8
Layer 1
10
72.493721
20
167.368489
11
72.569159
21
166.455963
0
LINE
8
Layer 1
10
72.569159
20
166.455963
11
72.807234
21
165.570738
0
LINE
8
Layer 1
10
72.807234
20
165.570738
11
73.209556
21
164.721930
0
LINE
8
Layer 1
10
73.209556
20
164.721930
11
74.712862
21
162.815896
0
LINE
8
Layer 1
10
74.712862
20
162.815896
11
76.915134
21
160.931200
0
LINE
8
Layer 1
10
76.915134
20
160.931200
11
79.655423
21
159.186041
0
LINE
8
Layer 1
10
79.655423
20
159.186041
11
82.772784
21
157.698620
0
LINE
8
Layer 1
10
82.772784
20
157.698620
11
85.121857
21
156.821850
0
LINE
8
Layer 1
10
85.121857
20
156.821850
11
85.262003
21
159.890350
0
LINE
8
Layer 1
10
85.262003
20
159.890350
11
85.320294
21
167.273480
0
LINE
8
Layer 1
10
85.320294
20
167.273480
11
85.320294
21
167.273480
0
LINE
8
Layer 1
10
99.078628
20
177.890320
11
99.078628
21
184.146570
0
LINE
8
Layer 1
10
99.078628
20
184.146570
11
104.833320
21
184.001690
0
LINE
8
Layer 1
10
104.833320
20
184.001690
11
111.051020
21
183.670260
0
LINE
8
Layer 1
10
111.051020
20
183.670260
11
111.301246
21
183.402393
0
LINE
8
Layer 1
10
111.301246
20
183.402393
11
111.440645
21
182.574076
0
LINE
8
Layer 1
10
111.440645
20
182.574076
11
111.514040
21
177.558880
0
LINE
8
Layer 1
10
111.514040
20
177.558880
11
111.514040
21
171.634070
0
LINE
8
Layer 1
10
111.514040
20
171.634070
11
105.296340
21
171.634070
0
LINE
8
Layer 1
10
105.296340
20
171.634070
11
99.078628
21
171.634070
0
LINE
8
Layer 1
10
99.078628
20
171.634070
11
99.078628
21
177.890320
0
LINE
8
Layer 1
10
108.282330
20
177.616080
11
108.357930
21
180.026220
0
LINE
8
Layer 1
10
108.357930
20
180.026220
11
107.120940
21
180.195770
0
LINE
8
Layer 1
10
107.120940
20
180.195770
11
104.068790
21
180.365320
0
LINE
8
Layer 1
10
104.068790
20
180.365320
11
102.253640
21
180.365320
0
LINE
8
Layer 1
10
102.253640
20
180.365320
11
102.253640
21
177.895870
0
LINE
8
Layer 1
10
102.253640
20
177.895870
11
102.438450
21
175.241620
0
LINE
8
Layer 1
10
102.438450
20
175.241620
11
105.415010
21
175.131380
0
LINE
8
Layer 1
10
105.415010
20
175.131380
11
108.206760
21
175.205980
0
LINE
8
Layer 1
10
108.206760
20
175.205980
11
108.282330
21
177.616080
0
LINE
8
Layer 1
10
128.877780
20
158.778340
11
133.861667
21
160.684350
0
LINE
8
Layer 1
10
133.861667
20
160.684350
11
139.075325
21
162.962535
0
LINE
8
Layer 1
10
139.075325
20
162.962535
11
143.231407
21
165.017542
0
LINE
8
Layer 1
10
143.231407
20
165.017542
11
144.510563
21
165.775307
0
LINE
8
Layer 1
10
144.510563
20
165.775307
11
145.042570
21
166.254020
0
LINE
8
Layer 1
10
145.042570
20
166.254020
11
144.401192
21
166.998645
0
LINE
8
Layer 1
10
144.401192
20
166.998645
11
142.659759
21
168.404631
0
LINE
8
Layer 1
10
142.659759
20
168.404631
11
140.367516
21
170.055711
0
LINE
8
Layer 1
10
140.367516
20
170.055711
11
138.073710
21
171.535620
0
LINE
8
Layer 1
10
138.073710
20
171.535620
11
135.128014
21
173.121942
0
LINE
8
Layer 1
10
135.128014
20
173.121942
11
131.830890
21
174.630989
0
LINE
8
Layer 1
10
131.830890
20
174.630989
11
128.570599
21
175.898369
0
LINE
8
Layer 1
10
128.570599
20
175.898369
11
125.735400
21
176.759690
0
LINE
8
Layer 1
10
125.735400
20
176.759690
11
125.007800
21
176.935820
0
LINE
8
Layer 1
10
125.007800
20
176.935820
11
125.007800
21
167.273480
0
LINE
8
Layer 1
10
125.007800
20
167.273480
11
125.075532
21
160.432525
0
LINE
8
Layer 1
10
125.075532
20
160.432525
11
125.239760
21
157.611150
0
LINE
8
Layer 1
10
125.239760
20
157.611150
11
128.877780
21
158.778340
0
LINE
8
Layer 1
10
128.877780
20
158.778340
11
128.877780
21
158.778340
 0 
ENDSEC
 0 
EOF