  0
SECTION
  2
HEADER
  9
$ACADVER
  1
AC1027
  9
$ACADMAINTVER
 70
105
  9
$DWGCODEPAGE
  3
ANSI_1252
  9
$LASTSAVEDBY
  1
ezdxf
  9
$REQUIREDVERSIONS
160
0
  9
$INSBASE
 10
0.0
 20
0.0
 30
0.0
  9
$EXTMIN
 10
1e+20
 20
1e+20
 30
1e+20
  9
$EXTMAX
 10
-1e+20
 20
-1e+20
 30
-1e+20
  9
$LIMMIN
 10
0.0
 20
0.0
  9
$LIMMAX
 10
420.0
 20
297.0
  9
$ORTHOMODE
 70
0
  9
$REGENMODE
 70
1
  9
$FILLMODE
 70
1
  9
$QTEXTMODE
 70
0
  9
$MIRRTEXT
 70
1
  9
$LTSCALE
 40
1.0
  9
$ATTMODE
 70
1
  9
$TEXTSIZE
 40
2.5
  9
$TRACEWID
 40
1.0
  9
$TEXTSTYLE
  7
Standard
  9
$CLAYER
  8
0
  9
$CELTYPE
  6
ByLayer
  9
$CECOLOR
 62
256
  9
$CELTSCALE
 40
1.0
  9
$DISPSILH
 70
0
  9
$DIMSCALE
 40
1.0
  9
$DIMASZ
 40
2.5
  9
$DIMEXO
 40
0.625
  9
$DIMDLI
 40
3.75
  9
$DIMRND
 40
0.0
  9
$DIMDLE
 40
0.0
  9
$DIMEXE
 40
1.25
  9
$DIMTP
 40
0.0
  9
$DIMTM
 40
0.0
  9
$DIMTXT
 40
2.5
  9
$DIMCEN
 40
2.5
  9
$DIMTSZ
 40
0.0
  9
$DIMTOL
 70
0
  9
$DIMLIM
 70
0
  9
$DIMTIH
 70
0
  9
$DIMTOH
 70
0
  9
$DIMSE1
 70
0
  9
$DIMSE2
 70
0
  9
$DIMTAD
 70
1
  9
$DIMZIN
 70
8
  9
$DIMBLK
  1

  9
$DIMASO
 70
1
  9
$DIMSHO
 70
1
  9
$DIMPOST
  1

  9
$DIMAPOST
  1

  9
$DIMALT
 70
0
  9
$DIMALTD
 70
3
  9
$DIMALTF
 40
0.03937007874
  9
$DIMLFAC
 40
1.0
  9
$DIMTOFL
 70
1
  9
$DIMTVP
 40
0.0
  9
$DIMTIX
 70
0
  9
$DIMSOXD
 70
0
  9
$DIMSAH
 70
0
  9
$DIMBLK1
  1

  9
$DIMBLK2
  1

  9
$DIMSTYLE
  2
ISO-25
  9
$DIMCLRD
 70
0
  9
$DIMCLRE
 70
0
  9
$DIMCLRT
 70
0
  9
$DIMTFAC
 40
1.0
  9
$DIMGAP
 40
0.625
  9
$DIMJUST
 70
0
  9
$DIMSD1
 70
0
  9
$DIMSD2
 70
0
  9
$DIMTOLJ
 70
0
  9
$DIMTZIN
 70
8
  9
$DIMALTZ
 70
0
  9
$DIMALTTZ
 70
0
  9
$DIMUPT
 70
0
  9
$DIMDEC
 70
2
  9
$DIMTDEC
 70
2
  9
$DIMALTU
 70
2
  9
$DIMALTTD
 70
3
  9
$DIMTXSTY
  7
Standard
  9
$DIMAUNIT
 70
0
  9
$DIMADEC
 70
0
  9
$DIMALTRND
 40
0.0
  9
$DIMAZIN
 70
0
  9
$DIMDSEP
 70
44
  9
$DIMATFIT
 70
3
  9
$DIMFRAC
 70
0
  9
$DIMLDRBLK
  1

  9
$DIMLUNIT
 70
2
  9
$DIMLWD
 70
-2
  9
$DIMLWE
 70
-2
  9
$DIMTMOVE
 70
0
  9
$DIMFXL
 40
1.0
  9
$DIMFXLON
 70
0
  9
$DIMJOGANG
 40
0.785398163397
  9
$DIMTFILL
 70
0
  9
$DIMTFILLCLR
 70
0
  9
$DIMARCSYM
 70
0
  9
$DIMLTYPE
  6

  9
$DIMLTEX1
  6

  9
$DIMLTEX2
  6

  9
$DIMTXTDIRECTION
 70
0
  9
$LUNITS
 70
2
  9
$LUPREC
 70
4
  9
$SKETCHINC
 40
1.0
  9
$FILLETRAD
 40
10.0
  9
$AUNITS
 70
0
  9
$AUPREC
 70
2
  9
$MENU
  1
.
  9
$ELEVATION
 40
0.0
  9
$PELEVATION
 40
0.0
  9
$THICKNESS
 40
0.0
  9
$LIMCHECK
 70
0
  9
$CHAMFERA
 40
0.0
  9
$CHAMFERB
 40
0.0
  9
$CHAMFERC
 40
0.0
  9
$CHAMFERD
 40
0.0
  9
$SKPOLY
 70
0
  9
$TDCREATE
 40
2461118.4776157406
  9
$TDUCREATE
 40
2458532.153996898
  9
$TDUPDATE
 40
2461118.4776157406
  9
$TDUUPDATE
 40
2458532.1544311
  9
$TDINDWG
 40
0.0
  9
$TDUSRTIMER
 40
0.0
  9
$USRTIMER
 70
1
  9
$ANGBASE
 50
0.0
  9
$ANGDIR
 70
0
  9
$PDMODE
 70
0
  9
$PDSIZE
 40
0.0
  9
$PLINEWID
 40
0.0
  9
$SPLFRAME
 70
0
  9
$SPLINETYPE
 70
6
  9
$SPLINESEGS
 70
8
  9
$HANDSEED
  5
168
  9
$SURFTAB1
 70
6
  9
$SURFTAB2
 70
6
  9
$SURFTYPE
 70
6
  9
$SURFU
 70
6
  9
$SURFV
 70
6
  9
$UCSBASE
  2

  9
$UCSNAME
  2

  9
$UCSORG
 10
0.0
 20
0.0
 30
0.0
  9
$UCSXDIR
 10
1.0
 20
0.0
 30
0.0
  9
$UCSYDIR
 10
0.0
 20
1.0
 30
0.0
  9
$UCSORTHOREF
  2

  9
$UCSORTHOVIEW
 70
0
  9
$UCSORGTOP
 10
0.0
 20
0.0
 30
0.0
  9
$UCSORGBOTTOM
 10
0.0
 20
0.0
 30
0.0
  9
$UCSORGLEFT
 10
0.0
 20
0.0
 30
0.0
  9
$UCSORGRIGHT
 10
0.0
 20
0.0
 30
0.0
  9
$UCSORGFRONT
 10
0.0
 20
0.0
 30
0.0
  9
$UCSORGBACK
 10
0.0
 20
0.0
 30
0.0
  9
$PUCSBASE
  2

  9
$PUCSNAME
  2

  9
$PUCSORG
 10
0.0
 20
0.0
 30
0.0
  9
$PUCSXDIR
 10
1.0
 20
0.0
 30
0.0
  9
$PUCSYDIR
 10
0.0
 20
1.0
 30
0.0
  9
$PUCSORTHOREF
  2

  9
$PUCSORTHOVIEW
 70
0
  9
$PUCSORGTOP
 10
0.0
 20
0.0
 30
0.0
  9
$PUCSORGBOTTOM
 10
0.0
 20
0.0
 30
0.0
  9
$PUCSORGLEFT
 10
0.0
 20
0.0
 30
0.0
  9
$PUCSORGRIGHT
 10
0.0
 20
0.0
 30
0.0
  9
$PUCSORGFRONT
 10
0.0
 20
0.0
 30
0.0
  9
$PUCSORGBACK
 10
0.0
 20
0.0
 30
0.0
  9
$USERI1
 70
0
  9
$USERI2
 70
0
  9
$USERI3
 70
0
  9
$USERI4
 70
0
  9
$USERI5
 70
0
  9
$USERR1
 40
0.0
  9
$USERR2
 40
0.0
  9
$USERR3
 40
0.0
  9
$USERR4
 40
0.0
  9
$USERR5
 40
0.0
  9
$WORLDVIEW
 70
1
  9
$SHADEDGE
 70
3
  9
$SHADEDIF
 70
70
  9
$TILEMODE
 70
1
  9
$MAXACTVP
 70
64
  9
$PINSBASE
 10
0.0
 20
0.0
 30
0.0
  9
$PLIMCHECK
 70
0
  9
$PEXTMIN
 10
1e+20
 20
1e+20
 30
1e+20
  9
$PEXTMAX
 10
-1e+20
 20
-1e+20
 30
-1e+20
  9
$PLIMMIN
 10
0.0
 20
0.0
  9
$PLIMMAX
 10
420.0
 20
297.0
  9
$UNITMODE
 70
0
  9
$VISRETAIN
 70
1
  9
$PLINEGEN
 70
0
  9
$PSLTSCALE
 70
1
  9
$TREEDEPTH
 70
3020
  9
$CMLSTYLE
  2
Standard
  9
$CMLJUST
 70
0
  9
$CMLSCALE
 40
20.0
  9
$PROXYGRAPHICS
 70
1
  9
$MEASUREMENT
 70
1
  9
$CELWEIGHT
370
-1
  9
$ENDCAPS
280
0
  9
$JOINSTYLE
280
0
  9
$LWDISPLAY
290
0
  9
$INSUNITS
 70
6
  9
$HYPERLINKBASE
  1

  9
$STYLESHEET
  1

  9
$XEDIT
290
1
  9
$CEPSNTYPE
380
0
  9
$PSTYLEMODE
290
1
  9
$FINGERPRINTGUID
  2
{A9856192-C846-4306-909A-7306E286BDE4}
  9
$VERSIONGUID
  2
{9DD098E6-C1E2-4521-B382-83055417DCCF}
  9
$EXTNAMES
290
1
  9
$PSVPSCALE
 40
0.0
  9
$OLESTARTUP
290
0
  9
$SORTENTS
280
127
  9
$INDEXCTL
280
0
  9
$HIDETEXT
280
1
  9
$XCLIPFRAME
280
1
  9
$HALOGAP
280
0
  9
$OBSCOLOR
 70
257
  9
$OBSLTYPE
280
0
  9
$INTERSECTIONDISPLAY
280
0
  9
$INTERSECTIONCOLOR
 70
257
  9
$DIMASSOC
280
2
  9
$PROJECTNAME
  1

  9
$CAMERADISPLAY
290
0
  9
$LENSLENGTH
 40
50.0
  9
$CAMERAHEIGHT
 40
0.0
  9
$STEPSPERSEC
 40
24.0
  9
$STEPSIZE
 40
100.0
  9
$3DDWFPREC
 40
2.0
  9
$PSOLWIDTH
 40
0.005
  9
$PSOLHEIGHT
 40
0.08
  9
$LOFTANG1
 40
1.570796326795
  9
$LOFTANG2
 40
1.570796326795
  9
$LOFTMAG1
 40
0.0
  9
$LOFTMAG2
 40
0.0
  9
$LOFTPARAM
 70
7
  9
$LOFTNORMALS
280
1
  9
$LATITUDE
 40
37.795
  9
$LONGITUDE
 40
-122.394
  9
$NORTHDIRECTION
 40
0.0
  9
$TIMEZONE
 70
-8000
  9
$LIGHTGLYPHDISPLAY
280
1
  9
$TILEMODELIGHTSYNCH
280
1
  9
$CMATERIAL
347
20
  9
$SOLIDHIST
280
0
  9
$SHOWHIST
280
1
  9
$DWFFRAME
280
2
  9
$DGNFRAME
280
2
  9
$REALWORLDSCALE
290
1
  9
$INTERFERECOLOR
 62
256
  9
$CSHADOW
280
0
  9
$SHADOWPLANELOCATION
 40
0.0
  0
ENDSEC
  0
SECTION
  2
CLASSES
  0
CLASS
  1
ACDBDICTIONARYWDFLT
  2
AcDbDictionaryWithDefault
  3
ObjectDBX Classes
 90
0
 91
0
280
0
281
0
  0
CLASS
  1
SUN
  2
AcDbSun
  3
SCENEOE
 90
1153
 91
0
280
0
281
0
  0
CLASS
  1
VISUALSTYLE
  2
AcDbVisualStyle
  3
ObjectDBX Classes
 90
4095
 91
0
280
0
281
0
  0
CLASS
  1
MATERIAL
  2
AcDbMaterial
  3
ObjectDBX Classes
 90
1153
 91
0
280
0
281
0
  0
CLASS
  1
SCALE
  2
AcDbScale
  3
ObjectDBX Classes
 90
1153
 91
0
280
0
281
0
  0
CLASS
  1
TABLESTYLE
  2
AcDbTableStyle
  3
ObjectDBX Classes
 90
4095
 91
0
280
0
281
0
  0
CLASS
  1
MLEADERSTYLE
  2
AcDbMLeaderStyle
  3
ACDB_MLEADERSTYLE_CLASS
 90
4095
 91
0
280
0
281
0
  0
CLASS
  1
DICTIONARYVAR
  2
AcDbDictionaryVar
  3
ObjectDBX Classes
 90
0
 91
0
280
0
281
0
  0
CLASS
  1
CELLSTYLEMAP
  2
AcDbCellStyleMap
  3
ObjectDBX Classes
 90
1152
 91
0
280
0
281
0
  0
CLASS
  1
MENTALRAYRENDERSETTINGS
  2
AcDbMentalRayRenderSettings
  3
SCENEOE
 90
1024
 91
0
280
0
281
0
  0
CLASS
  1
ACDBDETAILVIEWSTYLE
  2
AcDbDetailViewStyle
  3
ObjectDBX Classes
 90
1025
 91
0
280
0
281
0
  0
CLASS
  1
ACDBSECTIONVIEWSTYLE
  2
AcDbSectionViewStyle
  3
ObjectDBX Classes
 90
1025
 91
0
280
0
281
0
  0
CLASS
  1
RASTERVARIABLES
  2
AcDbRasterVariables
  3
ISM
 90
0
 91
0
280
0
281
0
  0
CLASS
  1
LAYOUT
  2
AcDbLayout
  3
ObjectDBX Classes
 90
0
 91
0
280
0
281
0
  0
CLASS
  1
ACDBPLACEHOLDER
  2
AcDbPlaceHolder
  3
ObjectDBX Classes
 90
0
 91
0
280
0
281
0
  0
ENDSEC
  0
SECTION
  2
TABLES
  0
TABLE
  2
VPORT
  5
8
330
0
100
AcDbSymbolTable
 70
1
  0
VPORT
  5
23
330
8
100
AcDbSymbolTableRecord
100
AcDbViewportTableRecord
  2
*Active
 70
0
 10
0.0
 20
0.0
 11
1.0
 21
1.0
 12
0.0
 22
0.0
 13
0.0
 23
0.0
 14
0.5
 24
0.5
 15
0.5
 25
0.5
 16
0.0
 26
0.0
 36
1.0
 17
0.0
 27
0.0
 37
0.0
 40
1000.0
 41
1.34
 42
50.0
 43
0.0
 44
0.0
 50
0.0
 51
0.0
 71
0
 72
1000
 73
1
 74
3
 75
0
 76
0
 77
0
 78
0
281
0
 65
0
146
0.0
  0
ENDTAB
  0
TABLE
  2
LTYPE
  5
2
330
0
100
AcDbSymbolTable
 70
3
  0
LTYPE
  5
24
330
2
100
AcDbSymbolTableRecord
100
AcDbLinetypeTableRecord
  2
ByBlock
 70
0
  3

 72
65
 73
0
 40
0.0
  0
LTYPE
  5
25
330
2
100
AcDbSymbolTableRecord
100
AcDbLinetypeTableRecord
  2
ByLayer
 70
0
  3

 72
65
 73
0
 40
0.0
  0
LTYPE
  5
26
330
2
100
AcDbSymbolTableRecord
100
AcDbLinetypeTableRecord
  2
Continuous
 70
0
  3

 72
65
 73
0
 40
0.0
  0
ENDTAB
  0
TABLE
  2
LAYER
  5
1
330
0
100
AcDbSymbolTable
 70
2
  0
LAYER
  5
27
330
1
100
AcDbSymbolTableRecord
100
AcDbLayerTableRecord
  2
0
 70
0
 62
7
  6
Continuous
370
-3
390
13
347
21
  0
LAYER
  5
28
330
1
100
AcDbSymbolTableRecord
100
AcDbLayerTableRecord
  2
Defpoints
 70
0
 62
7
  6
Continuous
290
0
370
-3
390
13
347
21
  0
ENDTAB
  0
TABLE
  2
STYLE
  5
5
330
0
100
AcDbSymbolTable
 70
1
  0
STYLE
  5
29
330
5
100
AcDbSymbolTableRecord
100
AcDbTextStyleTableRecord
  2
Standard
 70
0
 40
0.0
 41
1.0
 50
0.0
 71
0
 42
2.5
  3
txt
  4

  0
ENDTAB
  0
TABLE
  2
VIEW
  5
7
330
0
100
AcDbSymbolTable
 70
0
  0
ENDTAB
  0
TABLE
  2
UCS
  5
6
330
0
100
AcDbSymbolTable
 70
0
  0
ENDTAB
  0
TABLE
  2
APPID
  5
3
330
0
100
AcDbSymbolTable
 70
3
  0
APPID
  5
2A
330
3
100
AcDbSymbolTableRecord
100
AcDbRegAppTableRecord
  2
ACAD
 70
0
  0
APPID
  5
165
330
3
100
AcDbSymbolTableRecord
100
AcDbRegAppTableRecord
  2
HATCHBACKGROUNDCOLOR
 70
0
  0
APPID
  5
166
330
3
100
AcDbSymbolTableRecord
100
AcDbRegAppTableRecord
  2
EZDXF
 70
0
  0
ENDTAB
  0
TABLE
  2
DIMSTYLE
  5
4
330
0
100
AcDbSymbolTable
 70
1
100
AcDbDimStyleTable
  0
DIMSTYLE
105
2B
330
4
100
AcDbSymbolTableRecord
100
AcDbDimStyleTableRecord
  2
Standard
 70
0
 40
1.0
 41
2.5
 42
0.625
 43
3.75
 44
1.25
 45
0.0
 46
0.0
 47
0.0
 48
0.0
 49
2.5
140
2.5
141
2.5
142
0.0
143
0.03937007874
144
1.0
145
0.0
146
1.0
147
0.625
148
0.0
 69
0
 70
0
 71
0
 72
0
 73
0
 74
0
 75
0
 76
0
 77
1
 78
8
 79
3
170
0
171
3
172
1
173
0
174
0
175
0
176
0
177
0
178
0
179
2
271
2
272
2
273
2
274
3
275
0
276
0
277
2
278
44
279
0
280
0
281
0
282
0
283
0
284
8
285
0
286
0
288
0
289
3
290
0
371
-2
372
-2
  0
ENDTAB
  0
TABLE
  2
BLOCK_RECORD
  5
9
330
0
100
AcDbSymbolTable
 70
2
  0
BLOCK_RECORD
  5
17
330
9
100
AcDbSymbolTableRecord
100
AcDbBlockTableRecord
  2
*Model_Space
340
1A
 70
0
280
1
281
0
  0
BLOCK_RECORD
  5
1B
330
9
100
AcDbSymbolTableRecord
100
AcDbBlockTableRecord
  2
*Paper_Space
340
1E
 70
0
280
1
281
0
  0
ENDTAB
  0
ENDSEC
  0
SECTION
  2
BLOCKS
  0
BLOCK
  5
18
330
17
100
AcDbEntity
  8
0
100
AcDbBlockBegin
  2
*Model_Space
 70
0
 10
0.0
 20
0.0
 30
0.0
  3
*Model_Space
  1

  0
ENDBLK
  5
19
330
17
100
AcDbEntity
  8
0
100
AcDbBlockEnd
  0
BLOCK
  5
1C
330
1B
100
AcDbEntity
  8
0
100
AcDbBlockBegin
  2
*Paper_Space
 70
0
 10
0.0
 20
0.0
 30
0.0
  3
*Paper_Space
  1

  0
ENDBLK
  5
1D
330
1B
100
AcDbEntity
  8
0
100
AcDbBlockEnd
  0
ENDSEC
  0
SECTION
  2
ENTITIES
  0
LINE
  5
2F
330
17
100
AcDbEntity
  8
0
100
AcDbLine
 10
-53.84896090095077
 20
124.45352973040178
 30
0.0
 11
-54.31157290095075
 21
124.9049797304018
 31
0.0
  0
LINE
  5
30
330
17
100
AcDbEntity
  8
0
100
AcDbLine
 10
-54.31157290095075
 20
124.9049797304018
 30
0.0
 11
-54.31157290095075
 21
133.9151997304018
 31
0.0
  0
LINE
  5
31
330
17
100
AcDbEntity
  8
0
100
AcDbLine
 10
-54.31157290095075
 20
133.9151997304018
 30
0.0
 11
-54.31157290095075
 21
142.92539973040175
 31
0.0
  0
LINE
  5
32
330
17
100
AcDbEntity
  8
0
100
AcDbLine
 10
-54.31157290095075
 20
142.92539973040175
 30
0.0
 11
-53.323851900950785
 21
146.62596973040178
 31
0.0
  0
LINE
  5
33
330
17
100
AcDbEntity
  8
0
100
AcDbLine
 10
-53.323851900950785
 20
146.62596973040178
 30
0.0
 11
-52.336130900950764
 21
150.32654973040178
 31
0.0
  0
LINE
  5
34
330
17
100
AcDbEntity
  8
0
100
AcDbLine
 10
-52.336130900950764
 20
150.32654973040178
 30
0.0
 11
-50.74019090095078
 21
152.9802297304018
 31
0.0
  0
LINE
  5
35
330
17
100
AcDbEntity
  8
0
100
AcDbLine
 10
-50.74019090095078
 20
152.9802297304018
 30
0.0
 11
-49.144251900950735
 21
155.6338997304018
 31
0.0
  0
LINE
  5
36
330
17
100
AcDbEntity
  8
0
100
AcDbLine
 10
-49.144251900950735
 20
155.6338997304018
 30
0.0
 11
-46.33445690095073
 21
158.3032097304018
 31
0.0
  0
LINE
  5
37
330
17
100
AcDbEntity
  8
0
100
AcDbLine
 10
-46.33445690095073
 20
158.3032097304018
 30
0.0
 11
-43.52466390095077
 21
160.97250973040178
 31
0.0
  0
LINE
  5
38
330
17
100
AcDbEntity
  8
0
100
AcDbLine
 10
-43.52466390095077
 20
160.97250973040178
 30
0.0
 11
-40.25590590095078
 21
162.5572397304018
 31
0.0
  0
LINE
  5
39
330
17
100
AcDbEntity
  8
0
100
AcDbLine
 10
-40.25590590095078
 20
162.5572397304018
 30
0.0
 11
-36.987145900950736
 21
164.1419597304018
 31
0.0
  0
LINE
  5
3A
330
17
100
AcDbEntity
  8
0
100
AcDbLine
 10
-36.987145900950736
 20
164.1419597304018
 30
0.0
 11
-32.95261590095072
 21
164.85117973040178
 31
0.0
  0
LINE
  5
3B
330
17
100
AcDbEntity
  8
0
100
AcDbLine
 10
-32.95261590095072
 20
164.85117973040178
 30
0.0
 11
-28.91808890095075
 21
165.5603897304018
 31
0.0
  0
LINE
  5
3C
330
17
100
AcDbEntity
  8
0
100
AcDbLine
 10
-28.91808890095075
 20
165.5603897304018
 30
0.0
 11
-24.31056990095078
 21
164.6228797304018
 31
0.0
  0
LINE
  5
3D
330
17
100
AcDbEntity
  8
0
100
AcDbLine
 10
-24.31056990095078
 20
164.6228797304018
 30
0.0
 11
-19.70304990095076
 21
163.6853797304018
 31
0.0
  0
LINE
  5
3E
330
17
100
AcDbEntity
  8
0
100
AcDbLine
 10
-19.70304990095076
 20
163.6853797304018
 30
0.0
 11
-16.81038990095078
 21
162.0310897304018
 31
0.0
  0
LINE
  5
3F
330
17
100
AcDbEntity
  8
0
100
AcDbLine
 10
-16.81038990095078
 20
162.0310897304018
 30
0.0
 11
-13.917739900950778
 21
160.3768097304018
 31
0.0
  0
LINE
  5
40
330
17
100
AcDbEntity
  8
0
100
AcDbLine
 10
-13.917739900950778
 20
160.3768097304018
 30
0.0
 11
-10.860719900950755
 21
157.18750973040179
 31
0.0
  0
LINE
  5
41
330
17
100
AcDbEntity
  8
0
100
AcDbLine
 10
-10.860719900950755
 20
157.18750973040179
 30
0.0
 11
-7.80374990095072
 21
153.99822973040182
 31
0.0
  0
LINE
  5
42
330
17
100
AcDbEntity
  8
0
100
AcDbLine
 10
-7.80374990095072
 20
153.99822973040182
 30
0.0
 11
-6.117049900950747
 21
150.40296973040176
 31
0.0
  0
LINE
  5
43
330
17
100
AcDbEntity
  8
0
100
AcDbLine
 10
-6.117049900950747
 20
150.40296973040176
 30
0.0
 11
-4.430379900950754
 21
146.8076997304018
 31
0.0
  0
LINE
  5
44
330
17
100
AcDbEntity
  8
0
100
AcDbLine
 10
-4.430379900950754
 20
146.8076997304018
 30
0.0
 11
-4.11317990095074
 21
139.29203973040177
 31
0.0
  0
LINE
  5
45
330
17
100
AcDbEntity
  8
0
100
AcDbLine
 10
-4.11317990095074
 20
139.29203973040177
 30
0.0
 11
-3.795999900950733
 21
131.7763797304018
 31
0.0
  0
LINE
  5
46
330
17
100
AcDbEntity
  8
0
100
AcDbLine
 10
-3.795999900950733
 20
131.7763797304018
 30
0.0
 11
-1.7596499009507625
 21
132.14866973040182
 31
0.0
  0
LINE
  5
47
330
17
100
AcDbEntity
  8
0
100
AcDbLine
 10
-1.7596499009507625
 20
132.14866973040182
 30
0.0
 11
0.2767100990492395
 21
132.52095973040178
 31
0.0
  0
LINE
  5
48
330
17
100
AcDbEntity
  8
0
100
AcDbLine
 10
0.2767100990492395
 20
132.52095973040178
 30
0.0
 11
2.3619200990492573
 21
133.34275973040178
 31
0.0
  0
LINE
  5
49
330
17
100
AcDbEntity
  8
0
100
AcDbLine
 10
2.3619200990492573
 20
133.34275973040178
 30
0.0
 11
4.44714009904925
 21
134.16457973040178
 31
0.0
  0
LINE
  5
4A
330
17
100
AcDbEntity
  8
0
100
AcDbLine
 10
4.44714009904925
 20
134.16457973040178
 30
0.0
 11
7.35446009904922
 21
136.7797597304018
 31
0.0
  0
LINE
  5
4B
330
17
100
AcDbEntity
  8
0
100
AcDbLine
 10
7.35446009904922
 20
136.7797597304018
 30
0.0
 11
10.26176009904924
 21
139.39492973040177
 31
0.0
  0
LINE
  5
4C
330
17
100
AcDbEntity
  8
0
100
AcDbLine
 10
10.26176009904924
 20
139.39492973040177
 30
0.0
 11
11.709180099049263
 21
142.67831973040177
 31
0.0
  0
LINE
  5
4D
330
17
100
AcDbEntity
  8
0
100
AcDbLine
 10
11.709180099049263
 20
142.67831973040177
 30
0.0
 11
13.156600099049228
 21
145.96168973040176
 31
0.0
  0
LINE
  5
4E
330
17
100
AcDbEntity
  8
0
100
AcDbLine
 10
13.156600099049228
 20
145.96168973040176
 30
0.0
 11
12.900010099049268
 21
150.4788097304018
 31
0.0
  0
LINE
  5
4F
330
17
100
AcDbEntity
  8
0
100
AcDbLine
 10
12.900010099049268
 20
150.4788097304018
 30
0.0
 11
12.643420099049251
 21
154.9959197304018
 31
0.0
  0
LINE
  5
50
330
17
100
AcDbEntity
  8
0
100
AcDbLine
 10
12.643420099049251
 20
154.9959197304018
 30
0.0
 11
11.404560099049263
 21
157.48617973040177
 31
0.0
  0
LINE
  5
51
330
17
100
AcDbEntity
  8
0
100
AcDbLine
 10
11.404560099049263
 20
157.48617973040177
 30
0.0
 11
10.16571009904925
 21
159.97642973040178
 31
0.0
  0
LINE
  5
52
330
17
100
AcDbEntity
  8
0
100
AcDbLine
 10
10.16571009904925
 20
159.97642973040178
 30
0.0
 11
7.982290099049237
 21
162.10714973040177
 31
0.0
  0
LINE
  5
53
330
17
100
AcDbEntity
  8
0
100
AcDbLine
 10
7.982290099049237
 20
162.10714973040177
 30
0.0
 11
5.798880099049256
 21
164.2378597304018
 31
0.0
  0
LINE
  5
54
330
17
100
AcDbEntity
  8
0
100
AcDbLine
 10
5.798880099049256
 20
164.2378597304018
 30
0.0
 11
3.1762800990492224
 21
165.54350973040178
 31
0.0
  0
LINE
  5
55
330
17
100
AcDbEntity
  8
0
100
AcDbLine
 10
3.1762800990492224
 20
165.54350973040178
 30
0.0
 11
0.5536600990492389
 21
166.8491597304018
 31
0.0
  0
LINE
  5
56
330
17
100
AcDbEntity
  8
0
100
AcDbLine
 10
0.5536600990492389
 20
166.8491597304018
 30
0.0
 11
-9.391079900950785
 21
167.74693973040178
 31
0.0
  0
LINE
  5
57
330
17
100
AcDbEntity
  8
0
100
AcDbLine
 10
-9.391079900950785
 20
167.74693973040178
 30
0.0
 11
-19.33583990095076
 21
168.6447297304018
 31
0.0
  0
LINE
  5
58
330
17
100
AcDbEntity
  8
0
100
AcDbLine
 10
-19.33583990095076
 20
168.6447297304018
 30
0.0
 11
-26.967513900950735
 21
169.28803973040178
 31
0.0
  0
LINE
  5
59
330
17
100
AcDbEntity
  8
0
100
AcDbLine
 10
-26.967513900950735
 20
169.28803973040178
 30
0.0
 11
-34.59918390095072
 21
169.9313597304018
 31
0.0
  0
LINE
  5
5A
330
17
100
AcDbEntity
  8
0
100
AcDbLine
 10
-34.59918390095072
 20
169.9313597304018
 30
0.0
 11
-38.90298090095075
 21
171.83568973040178
 31
0.0
  0
LINE
  5
5B
330
17
100
AcDbEntity
  8
0
100
AcDbLine
 10
-38.90298090095075
 20
171.83568973040178
 30
0.0
 11
-43.206774900950734
 21
173.7400097304018
 31
0.0
  0
LINE
  5
5C
330
17
100
AcDbEntity
  8
0
100
AcDbLine
 10
-43.206774900950734
 20
173.7400097304018
 30
0.0
 11
-46.41726890095077
 21
176.95653973040177
 31
0.0
  0
LINE
  5
5D
330
17
100
AcDbEntity
  8
0
100
AcDbLine
 10
-46.41726890095077
 20
176.95653973040177
 30
0.0
 11
-49.62776190095076
 21
180.17306973040178
 31
0.0
  0
LINE
  5
5E
330
17
100
AcDbEntity
  8
0
100
AcDbLine
 10
-49.62776190095076
 20
180.17306973040178
 30
0.0
 11
-51.364827900950786
 21
183.63779973040178
 31
0.0
  0
LINE
  5
5F
330
17
100
AcDbEntity
  8
0
100
AcDbLine
 10
-51.364827900950786
 20
183.63779973040178
 30
0.0
 11
-53.10189590095075
 21
187.10251973040178
 31
0.0
  0
LINE
  5
60
330
17
100
AcDbEntity
  8
0
100
AcDbLine
 10
-53.10189590095075
 20
187.10251973040178
 30
0.0
 11
-53.833942900950774
 21
191.2730297304018
 31
0.0
  0
LINE
  5
61
330
17
100
AcDbEntity
  8
0
100
AcDbLine
 10
-53.833942900950774
 20
191.2730297304018
 30
0.0
 11
-54.56598990095074
 21
195.4435197304018
 31
0.0
  0
LINE
  5
62
330
17
100
AcDbEntity
  8
0
100
AcDbLine
 10
-54.56598990095074
 20
195.4435197304018
 30
0.0
 11
-53.39911990095072
 21
200.27364473040177
 31
0.0
  0
LINE
  5
63
330
17
100
AcDbEntity
  8
0
100
AcDbLine
 10
-53.39911990095072
 20
200.27364473040177
 30
0.0
 11
-52.23225090095076
 21
205.10375873040178
 31
0.0
  0
LINE
  5
64
330
17
100
AcDbEntity
  8
0
100
AcDbLine
 10
-52.23225090095076
 20
205.10375873040178
 30
0.0
 11
-49.61865890095078
 21
208.9231677304018
 31
0.0
  0
LINE
  5
65
330
17
100
AcDbEntity
  8
0
100
AcDbLine
 10
-49.61865890095078
 20
208.9231677304018
 30
0.0
 11
-47.00506490095074
 21
212.74255973040178
 31
0.0
  0
LINE
  5
66
330
17
100
AcDbEntity
  8
0
100
AcDbLine
 10
-47.00506490095074
 20
212.74255973040178
 30
0.0
 11
-43.40539790095073
 21
215.2580017304018
 31
0.0
  0
LINE
  5
67
330
17
100
AcDbEntity
  8
0
100
AcDbLine
 10
-43.40539790095073
 20
215.2580017304018
 30
0.0
 11
-39.80572990095072
 21
217.77345973040178
 31
0.0
  0
LINE
  5
68
330
17
100
AcDbEntity
  8
0
100
AcDbLine
 10
-39.80572990095072
 20
217.77345973040178
 30
0.0
 11
-36.43518090095074
 21
218.92118873040178
 31
0.0
  0
LINE
  5
69
330
17
100
AcDbEntity
  8
0
100
AcDbLine
 10
-36.43518090095074
 20
218.92118873040178
 30
0.0
 11
-33.064632900950755
 21
220.0689347304018
 31
0.0
  0
LINE
  5
6A
330
17
100
AcDbEntity
  8
0
100
AcDbLine
 10
-33.064632900950755
 20
220.0689347304018
 30
0.0
 11
-14.759569900950737
 21
220.0689347304018
 31
0.0
  0
LINE
  5
6B
330
17
100
AcDbEntity
  8
0
100
AcDbLine
 10
-14.759569900950737
 20
220.0689347304018
 30
0.0
 11
3.545480099049257
 21
220.0689347304018
 31
0.0
  0
LINE
  5
6C
330
17
100
AcDbEntity
  8
0
100
AcDbLine
 10
3.545480099049257
 20
220.0689347304018
 30
0.0
 11
3.9732000990492224
 21
215.39389973040178
 31
0.0
  0
LINE
  5
6D
330
17
100
AcDbEntity
  8
0
100
AcDbLine
 10
3.9732000990492224
 20
215.39389973040178
 30
0.0
 11
4.4009500990492825
 21
210.71886473040178
 31
0.0
  0
LINE
  5
6E
330
17
100
AcDbEntity
  8
0
100
AcDbLine
 10
4.4009500990492825
 20
210.71886473040178
 30
0.0
 11
6.278620099049249
 21
207.75511473040177
 31
0.0
  0
LINE
  5
6F
330
17
100
AcDbEntity
  8
0
100
AcDbLine
 10
6.278620099049249
 20
207.75511473040177
 30
0.0
 11
8.156300099049247
 21
204.79136473040177
 31
0.0
  0
LINE
  5
70
330
17
100
AcDbEntity
  8
0
100
AcDbLine
 10
8.156300099049247
 20
204.79136473040177
 30
0.0
 11
11.356510099049274
 21
202.8605857304018
 31
0.0
  0
LINE
  5
71
330
17
100
AcDbEntity
  8
0
100
AcDbLine
 10
11.356510099049274
 20
202.8605857304018
 30
0.0
 11
14.556730099049219
 21
200.9298077304018
 31
0.0
  0
LINE
  5
72
330
17
100
AcDbEntity
  8
0
100
AcDbLine
 10
14.556730099049219
 20
200.9298077304018
 30
0.0
 11
19.184260099049254
 21
200.9298077304018
 31
0.0
  0
LINE
  5
73
330
17
100
AcDbEntity
  8
0
100
AcDbLine
 10
19.184260099049254
 20
200.9298077304018
 30
0.0
 11
23.81179009904929
 21
200.9298077304018
 31
0.0
  0
LINE
  5
74
330
17
100
AcDbEntity
  8
0
100
AcDbLine
 10
23.81179009904929
 20
200.9298077304018
 30
0.0
 11
26.79955009904927
 21
202.64388373040177
 31
0.0
  0
LINE
  5
75
330
17
100
AcDbEntity
  8
0
100
AcDbLine
 10
26.79955009904927
 20
202.64388373040177
 30
0.0
 11
29.787320099049225
 21
204.3579767304018
 31
0.0
  0
LINE
  5
76
330
17
100
AcDbEntity
  8
0
100
AcDbLine
 10
29.787320099049225
 20
204.3579767304018
 30
0.0
 11
31.51268009904925
 21
206.79070473040179
 31
0.0
  0
LINE
  5
77
330
17
100
AcDbEntity
  8
0
100
AcDbLine
 10
31.51268009904925
 20
206.79070473040179
 30
0.0
 11
33.23804009904927
 21
209.22343273040178
 31
0.0
  0
LINE
  5
78
330
17
100
AcDbEntity
  8
0
100
AcDbLine
 10
33.23804009904927
 20
209.22343273040178
 30
0.0
 11
33.90040009904925
 21
212.4132707304018
 31
0.0
  0
LINE
  5
79
330
17
100
AcDbEntity
  8
0
100
AcDbLine
 10
33.90040009904925
 20
212.4132707304018
 30
0.0
 11
34.56277009904926
 21
215.6031247304018
 31
0.0
  0
LINE
  5
7A
330
17
100
AcDbEntity
  8
0
100
AcDbLine
 10
34.56277009904926
 20
215.6031247304018
 30
0.0
 11
34.74416009904928
 21
217.83602973040178
 31
0.0
  0
LINE
  5
7B
330
17
100
AcDbEntity
  8
0
100
AcDbLine
 10
34.74416009904928
 20
217.83602973040178
 30
0.0
 11
34.92557009904925
 21
220.0689347304018
 31
0.0
  0
LINE
  5
7C
330
17
100
AcDbEntity
  8
0
100
AcDbLine
 10
34.92557009904925
 20
220.0689347304018
 30
0.0
 11
39.50183009904924
 21
220.0689347304018
 31
0.0
  0
LINE
  5
7D
330
17
100
AcDbEntity
  8
0
100
AcDbLine
 10
39.50183009904924
 20
220.0689347304018
 30
0.0
 11
44.078100099049266
 21
220.0689347304018
 31
0.0
  0
LINE
  5
7E
330
17
100
AcDbEntity
  8
0
100
AcDbLine
 10
44.078100099049266
 20
220.0689347304018
 30
0.0
 11
44.25993009904926
 21
210.9039957304018
 31
0.0
  0
LINE
  5
7F
330
17
100
AcDbEntity
  8
0
100
AcDbLine
 10
44.25993009904926
 20
210.9039957304018
 30
0.0
 11
44.441790099049285
 21
201.73905673040178
 31
0.0
  0
LINE
  5
80
330
17
100
AcDbEntity
  8
0
100
AcDbLine
 10
44.441790099049285
 20
201.73905673040178
 30
0.0
 11
43.445390099049234
 21
197.9435767304018
 31
0.0
  0
LINE
  5
81
330
17
100
AcDbEntity
  8
0
100
AcDbLine
 10
43.445390099049234
 20
197.9435767304018
 30
0.0
 11
42.44898009904921
 21
194.14809973040178
 31
0.0
  0
LINE
  5
82
330
17
100
AcDbEntity
  8
0
100
AcDbLine
 10
42.44898009904921
 20
194.14809973040178
 30
0.0
 11
40.78297009904924
 21
191.37392973040178
 31
0.0
  0
LINE
  5
83
330
17
100
AcDbEntity
  8
0
100
AcDbLine
 10
40.78297009904924
 20
191.37392973040178
 30
0.0
 11
39.116980099049215
 21
188.59974973040178
 31
0.0
  0
LINE
  5
84
330
17
100
AcDbEntity
  8
0
100
AcDbLine
 10
39.116980099049215
 20
188.59974973040178
 30
0.0
 11
36.26307009904929
 21
186.03258973040178
 31
0.0
  0
LINE
  5
85
330
17
100
AcDbEntity
  8
0
100
AcDbLine
 10
36.26307009904929
 20
186.03258973040178
 30
0.0
 11
33.40914009904924
 21
183.46543973040178
 31
0.0
  0
LINE
  5
86
330
17
100
AcDbEntity
  8
0
100
AcDbLine
 10
33.40914009904924
 20
183.46543973040178
 30
0.0
 11
29.917960099049253
 21
181.67110973040178
 31
0.0
  0
LINE
  5
87
330
17
100
AcDbEntity
  8
0
100
AcDbLine
 10
29.917960099049253
 20
181.67110973040178
 30
0.0
 11
26.426790099049242
 21
179.87677973040178
 31
0.0
  0
LINE
  5
88
330
17
100
AcDbEntity
  8
0
100
AcDbLine
 10
26.426790099049242
 20
179.87677973040178
 30
0.0
 11
19.235530099049242
 21
179.87677973040178
 31
0.0
  0
LINE
  5
89
330
17
100
AcDbEntity
  8
0
100
AcDbLine
 10
19.235530099049242
 20
179.87677973040178
 30
0.0
 11
12.044250099049236
 21
179.87677973040178
 31
0.0
  0
LINE
  5
8A
330
17
100
AcDbEntity
  8
0
100
AcDbLine
 10
12.044250099049236
 20
179.87677973040178
 30
0.0
 11
8.274930099049243
 21
181.73960973040178
 31
0.0
  0
LINE
  5
8B
330
17
100
AcDbEntity
  8
0
100
AcDbLine
 10
8.274930099049243
 20
181.73960973040178
 30
0.0
 11
4.5056400990492875
 21
183.60243973040178
 31
0.0
  0
LINE
  5
8C
330
17
100
AcDbEntity
  8
0
100
AcDbLine
 10
4.5056400990492875
 20
183.60243973040178
 30
0.0
 11
1.211730099049248
 21
187.0011797304018
 31
0.0
  0
LINE
  5
8D
330
17
100
AcDbEntity
  8
0
100
AcDbLine
 10
1.211730099049248
 20
187.0011797304018
 30
0.0
 11
-2.0821699009507597
 21
190.3999197304018
 31
0.0
  0
LINE
  5
8E
330
17
100
AcDbEntity
  8
0
100
AcDbLine
 10
-2.0821699009507597
 20
190.3999197304018
 30
0.0
 11
-3.7792099009507183
 21
194.0172297304018
 31
0.0
  0
LINE
  5
8F
330
17
100
AcDbEntity
  8
0
100
AcDbLine
 10
-3.7792099009507183
 20
194.0172297304018
 30
0.0
 11
-5.476239900950759
 21
197.6345667304018
 31
0.0
  0
LINE
  5
90
330
17
100
AcDbEntity
  8
0
100
AcDbLine
 10
-5.476239900950759
 20
197.6345667304018
 30
0.0
 11
-5.794819900950756
 21
205.18340373040178
 31
0.0
  0
LINE
  5
91
330
17
100
AcDbEntity
  8
0
100
AcDbLine
 10
-5.794819900950756
 20
205.18340373040178
 30
0.0
 11
-6.11341990095076
 21
212.73225973040178
 31
0.0
  0
LINE
  5
92
330
17
100
AcDbEntity
  8
0
100
AcDbLine
 10
-6.11341990095076
 20
212.73225973040178
 30
0.0
 11
-6.558759900950747
 21
212.73225973040178
 31
0.0
  0
LINE
  5
93
330
17
100
AcDbEntity
  8
0
100
AcDbLine
 10
-6.558759900950747
 20
212.73225973040178
 30
0.0
 11
-7.0041299009507725
 21
212.73225973040178
 31
0.0
  0
LINE
  5
94
330
17
100
AcDbEntity
  8
0
100
AcDbLine
 10
-7.0041299009507725
 20
212.73225973040178
 30
0.0
 11
-10.296039900950746
 21
211.7782637304018
 31
0.0
  0
LINE
  5
95
330
17
100
AcDbEntity
  8
0
100
AcDbLine
 10
-10.296039900950746
 20
211.7782637304018
 30
0.0
 11
-13.587989900950788
 21
210.82426873040177
 31
0.0
  0
LINE
  5
96
330
17
100
AcDbEntity
  8
0
100
AcDbLine
 10
-13.587989900950788
 20
210.82426873040177
 30
0.0
 11
-16.719609900950786
 21
208.13424173040178
 31
0.0
  0
LINE
  5
97
330
17
100
AcDbEntity
  8
0
100
AcDbLine
 10
-16.719609900950786
 20
208.13424173040178
 30
0.0
 11
-19.851229900950784
 21
205.44421373040177
 31
0.0
  0
LINE
  5
98
330
17
100
AcDbEntity
  8
0
100
AcDbLine
 10
-19.851229900950784
 20
205.44421373040177
 30
0.0
 11
-21.38496990095075
 21
202.23005273040178
 31
0.0
  0
LINE
  5
99
330
17
100
AcDbEntity
  8
0
100
AcDbLine
 10
-21.38496990095075
 20
202.23005273040178
 30
0.0
 11
-22.918709900950773
 21
199.01588673040177
 31
0.0
  0
LINE
  5
9A
330
17
100
AcDbEntity
  8
0
100
AcDbLine
 10
-22.918709900950773
 20
199.01588673040177
 30
0.0
 11
-22.918709900950773
 21
194.86908973040178
 31
0.0
  0
LINE
  5
9B
330
17
100
AcDbEntity
  8
0
100
AcDbLine
 10
-22.918709900950773
 20
194.86908973040178
 30
0.0
 11
-22.918709900950773
 21
190.72228973040177
 31
0.0
  0
LINE
  5
9C
330
17
100
AcDbEntity
  8
0
100
AcDbLine
 10
-22.918709900950773
 20
190.72228973040177
 30
0.0
 11
-21.38976990095074
 21
187.5324297304018
 31
0.0
  0
LINE
  5
9D
330
17
100
AcDbEntity
  8
0
100
AcDbLine
 10
-21.38976990095074
 20
187.5324297304018
 30
0.0
 11
-19.860839900950737
 21
184.34257973040178
 31
0.0
  0
LINE
  5
9E
330
17
100
AcDbEntity
  8
0
100
AcDbLine
 10
-19.860839900950737
 20
184.34257973040178
 30
0.0
 11
-16.87016990095077
 21
181.66328973040177
 31
0.0
  0
LINE
  5
9F
330
17
100
AcDbEntity
  8
0
100
AcDbLine
 10
-16.87016990095077
 20
181.66328973040177
 30
0.0
 11
-13.879499900950748
 21
178.9839897304018
 31
0.0
  0
LINE
  5
A0
330
17
100
AcDbEntity
  8
0
100
AcDbLine
 10
-13.879499900950748
 20
178.9839897304018
 30
0.0
 11
-10.397019900950738
 21
178.03003973040177
 31
0.0
  0
LINE
  5
A1
330
17
100
AcDbEntity
  8
0
100
AcDbLine
 10
-10.397019900950738
 20
178.03003973040177
 30
0.0
 11
-6.914559900950735
 21
177.07609973040178
 31
0.0
  0
LINE
  5
A2
330
17
100
AcDbEntity
  8
0
100
AcDbLine
 10
-6.914559900950735
 20
177.07609973040178
 30
0.0
 11
6.487350099049252
 21
176.06660973040178
 31
0.0
  0
LINE
  5
A3
330
17
100
AcDbEntity
  8
0
100
AcDbLine
 10
6.487350099049252
 20
176.06660973040178
 30
0.0
 11
19.889280099049245
 21
175.0571497304018
 31
0.0
  0
LINE
  5
A4
330
17
100
AcDbEntity
  8
0
100
AcDbLine
 10
19.889280099049245
 20
175.0571497304018
 30
0.0
 11
22.548880099049256
 21
174.73387973040178
 31
0.0
  0
LINE
  5
A5
330
17
100
AcDbEntity
  8
0
100
AcDbLine
 10
22.548880099049256
 20
174.73387973040178
 30
0.0
 11
25.20848009904921
 21
174.41063973040178
 31
0.0
  0
LINE
  5
A6
330
17
100
AcDbEntity
  8
0
100
AcDbLine
 10
25.20848009904921
 20
174.41063973040178
 30
0.0
 11
29.08638009904928
 21
172.5943197304018
 31
0.0
  0
LINE
  5
A7
330
17
100
AcDbEntity
  8
0
100
AcDbLine
 10
29.08638009904928
 20
172.5943197304018
 30
0.0
 11
32.96431009904927
 21
170.77801973040178
 31
0.0
  0
LINE
  5
A8
330
17
100
AcDbEntity
  8
0
100
AcDbLine
 10
32.96431009904927
 20
170.77801973040178
 30
0.0
 11
35.57933009904923
 21
168.5413997304018
 31
0.0
  0
LINE
  5
A9
330
17
100
AcDbEntity
  8
0
100
AcDbLine
 10
35.57933009904923
 20
168.5413997304018
 30
0.0
 11
38.19433009904924
 21
166.30476973040177
 31
0.0
  0
LINE
  5
AA
330
17
100
AcDbEntity
  8
0
100
AcDbLine
 10
38.19433009904924
 20
166.30476973040177
 30
0.0
 11
40.294660099049224
 21
162.88323973040178
 31
0.0
  0
LINE
  5
AB
330
17
100
AcDbEntity
  8
0
100
AcDbLine
 10
40.294660099049224
 20
162.88323973040178
 30
0.0
 11
42.39499009904921
 21
159.46171973040177
 31
0.0
  0
LINE
  5
AC
330
17
100
AcDbEntity
  8
0
100
AcDbLine
 10
42.39499009904921
 20
159.46171973040177
 30
0.0
 11
43.47708009904926
 21
155.3247097304018
 31
0.0
  0
LINE
  5
AD
330
17
100
AcDbEntity
  8
0
100
AcDbLine
 10
43.47708009904926
 20
155.3247097304018
 30
0.0
 11
44.559170099049254
 21
151.1876997304018
 31
0.0
  0
LINE
  5
AE
330
17
100
AcDbEntity
  8
0
100
AcDbLine
 10
44.559170099049254
 20
151.1876997304018
 30
0.0
 11
44.17004009904929
 21
147.55452973040178
 31
0.0
  0
LINE
  5
AF
330
17
100
AcDbEntity
  8
0
100
AcDbLine
 10
44.17004009904929
 20
147.55452973040178
 30
0.0
 11
43.78089009904926
 21
143.92134973040174
 31
0.0
  0
LINE
  5
B0
330
17
100
AcDbEntity
  8
0
100
AcDbLine
 10
43.78089009904926
 20
143.92134973040174
 30
0.0
 11
42.52902009904926
 21
140.70618973040177
 31
0.0
  0
LINE
  5
B1
330
17
100
AcDbEntity
  8
0
100
AcDbLine
 10
42.52902009904926
 20
140.70618973040177
 30
0.0
 11
41.27713009904926
 21
137.4910297304018
 31
0.0
  0
LINE
  5
B2
330
17
100
AcDbEntity
  8
0
100
AcDbLine
 10
41.27713009904926
 20
137.4910297304018
 30
0.0
 11
38.88721009904924
 21
134.31389973040177
 31
0.0
  0
LINE
  5
B3
330
17
100
AcDbEntity
  8
0
100
AcDbLine
 10
38.88721009904924
 20
134.31389973040177
 30
0.0
 11
36.49729009904922
 21
131.1367697304018
 31
0.0
  0
LINE
  5
B4
330
17
100
AcDbEntity
  8
0
100
AcDbLine
 10
36.49729009904922
 20
131.1367697304018
 30
0.0
 11
32.65502009904924
 21
128.63293973040174
 31
0.0
  0
LINE
  5
B5
330
17
100
AcDbEntity
  8
0
100
AcDbLine
 10
32.65502009904924
 20
128.63293973040174
 30
0.0
 11
28.812750099049254
 21
126.12909973040178
 31
0.0
  0
LINE
  5
B6
330
17
100
AcDbEntity
  8
0
100
AcDbLine
 10
28.812750099049254
 20
126.12909973040178
 30
0.0
 11
24.351010099049233
 21
125.07152973040178
 31
0.0
  0
LINE
  5
B7
330
17
100
AcDbEntity
  8
0
100
AcDbLine
 10
24.351010099049233
 20
125.07152973040178
 30
0.0
 11
19.889280099049245
 21
124.01395973040178
 31
0.0
  0
LINE
  5
B8
330
17
100
AcDbEntity
  8
0
100
AcDbLine
 10
19.889280099049245
 20
124.01395973040178
 30
0.0
 11
3.2186000990492403
 21
124.1936597304018
 31
0.0
  0
LINE
  5
B9
330
17
100
AcDbEntity
  8
0
100
AcDbLine
 10
3.2186000990492403
 20
124.1936597304018
 30
0.0
 11
-13.452079900950764
 21
124.37332973040179
 31
0.0
  0
LINE
  5
BA
330
17
100
AcDbEntity
  8
0
100
AcDbLine
 10
-13.452079900950764
 20
124.37332973040179
 30
0.0
 11
-13.866969900950721
 21
128.90306973040174
 31
0.0
  0
LINE
  5
BB
330
17
100
AcDbEntity
  8
0
100
AcDbLine
 10
-13.866969900950721
 20
128.90306973040174
 30
0.0
 11
-14.281879900950742
 21
133.4327897304018
 31
0.0
  0
LINE
  5
BC
330
17
100
AcDbEntity
  8
0
100
AcDbLine
 10
-14.281879900950742
 20
133.4327897304018
 30
0.0
 11
-15.093079900950784
 21
134.9637897304018
 31
0.0
  0
LINE
  5
BD
330
17
100
AcDbEntity
  8
0
100
AcDbLine
 10
-15.093079900950784
 20
134.9637897304018
 30
0.0
 11
-15.904269900950737
 21
136.49477973040177
 31
0.0
  0
LINE
  5
BE
330
17
100
AcDbEntity
  8
0
100
AcDbLine
 10
-15.904269900950737
 20
136.49477973040177
 30
0.0
 11
-17.54354990095078
 21
138.6368397304018
 31
0.0
  0
LINE
  5
BF
330
17
100
AcDbEntity
  8
0
100
AcDbLine
 10
-17.54354990095078
 20
138.6368397304018
 30
0.0
 11
-19.182829900950765
 21
140.7788997304018
 31
0.0
  0
LINE
  5
C0
330
17
100
AcDbEntity
  8
0
100
AcDbLine
 10
-19.182829900950765
 20
140.7788997304018
 30
0.0
 11
-22.52808990095076
 21
142.29892973040182
 31
0.0
  0
LINE
  5
C1
330
17
100
AcDbEntity
  8
0
100
AcDbLine
 10
-22.52808990095076
 20
142.29892973040182
 30
0.0
 11
-25.87335990095073
 21
143.8189797304018
 31
0.0
  0
LINE
  5
C2
330
17
100
AcDbEntity
  8
0
100
AcDbLine
 10
-25.87335990095073
 20
143.8189797304018
 30
0.0
 11
-29.17719890095077
 21
143.82597973040174
 31
0.0
  0
LINE
  5
C3
330
17
100
AcDbEntity
  8
0
100
AcDbLine
 10
-29.17719890095077
 20
143.82597973040174
 30
0.0
 11
-32.481036900950755
 21
143.8329797304018
 31
0.0
  0
LINE
  5
C4
330
17
100
AcDbEntity
  8
0
100
AcDbLine
 10
-32.481036900950755
 20
143.8329797304018
 30
0.0
 11
-35.82493790095077
 21
142.2068597304018
 31
0.0
  0
LINE
  5
C5
330
17
100
AcDbEntity
  8
0
100
AcDbLine
 10
-35.82493790095077
 20
142.2068597304018
 30
0.0
 11
-39.16883990095073
 21
140.58074973040175
 31
0.0
  0
LINE
  5
C6
330
17
100
AcDbEntity
  8
0
100
AcDbLine
 10
-39.16883990095073
 20
140.58074973040175
 30
0.0
 11
-40.89106690095076
 21
138.3772897304018
 31
0.0
  0
LINE
  5
C7
330
17
100
AcDbEntity
  8
0
100
AcDbLine
 10
-40.89106690095076
 20
138.3772897304018
 30
0.0
 11
-42.613294900950734
 21
136.1738497304018
 31
0.0
  0
LINE
  5
C8
330
17
100
AcDbEntity
  8
0
100
AcDbLine
 10
-42.613294900950734
 20
136.1738497304018
 30
0.0
 11
-43.26089690095074
 21
134.36097973040182
 31
0.0
  0
LINE
  5
C9
330
17
100
AcDbEntity
  8
0
100
AcDbLine
 10
-43.26089690095074
 20
134.36097973040182
 30
0.0
 11
-43.90849890095075
 21
132.5481097304018
 31
0.0
  0
LINE
  5
CA
330
17
100
AcDbEntity
  8
0
100
AcDbLine
 10
-43.90849890095075
 20
132.5481097304018
 30
0.0
 11
-44.370333900950754
 21
128.46149973040178
 31
0.0
  0
LINE
  5
CB
330
17
100
AcDbEntity
  8
0
100
AcDbLine
 10
-44.370333900950754
 20
128.46149973040178
 30
0.0
 11
-44.83216890095076
 21
124.3748597304018
 31
0.0
  0
LINE
  5
CC
330
17
100
AcDbEntity
  8
0
100
AcDbLine
 10
-44.83216890095076
 20
124.3748597304018
 30
0.0
 11
-49.10925890095075
 21
124.18923973040177
 31
0.0
  0
LINE
  5
CD
330
17
100
AcDbEntity
  8
0
100
AcDbLine
 10
-49.10925890095075
 20
124.18923973040177
 30
0.0
 11
-53.386351900950785
 21
124.0036197304018
 31
0.0
  0
LINE
  5
CE
330
17
100
AcDbEntity
  8
0
100
AcDbLine
 10
-53.386351900950785
 20
124.0036197304018
 30
0.0
 11
-53.84896090095077
 21
124.45352973040178
 31
0.0
  0
LINE
  5
CF
330
17
100
AcDbEntity
  8
0
100
AcDbLine
 10
-45.80640990095077
 20
129.31761973040182
 30
0.0
 11
-45.79990990095075
 21
132.6669597304018
 31
0.0
  0
LINE
  5
D0
330
17
100
AcDbEntity
  8
0
100
AcDbLine
 10
-45.79990990095075
 20
132.6669597304018
 30
0.0
 11
-44.27450290095078
 21
135.85680973040178
 31
0.0
  0
LINE
  5
D1
330
17
100
AcDbEntity
  8
0
100
AcDbLine
 10
-44.27450290095078
 20
135.85680973040178
 30
0.0
 11
-42.74909590095075
 21
139.0466697304018
 31
0.0
  0
LINE
  5
D2
330
17
100
AcDbEntity
  8
0
100
AcDbLine
 10
-42.74909590095075
 20
139.0466697304018
 30
0.0
 11
-40.116952900950764
 21
141.36205973040177
 31
0.0
  0
LINE
  5
D3
330
17
100
AcDbEntity
  8
0
100
AcDbLine
 10
-40.116952900950764
 20
141.36205973040177
 30
0.0
 11
-37.48480790095073
 21
143.6774497304018
 31
0.0
  0
LINE
  5
D4
330
17
100
AcDbEntity
  8
0
100
AcDbLine
 10
-37.48480790095073
 20
143.6774497304018
 30
0.0
 11
-34.94778790095074
 21
144.52030973040178
 31
0.0
  0
LINE
  5
D5
330
17
100
AcDbEntity
  8
0
100
AcDbLine
 10
-34.94778790095074
 20
144.52030973040178
 30
0.0
 11
-32.410765900950764
 21
145.36316973040175
 31
0.0
  0
LINE
  5
D6
330
17
100
AcDbEntity
  8
0
100
AcDbLine
 10
-32.410765900950764
 20
145.36316973040175
 30
0.0
 11
-28.81513090095075
 21
145.33736973040175
 31
0.0
  0
LINE
  5
D7
330
17
100
AcDbEntity
  8
0
100
AcDbLine
 10
-28.81513090095075
 20
145.33736973040175
 30
0.0
 11
-25.219499900950723
 21
145.31156973040174
 31
0.0
  0
LINE
  5
D8
330
17
100
AcDbEntity
  8
0
100
AcDbLine
 10
-25.219499900950723
 20
145.31156973040174
 30
0.0
 11
-22.27026990095078
 21
144.03679973040175
 31
0.0
  0
LINE
  5
D9
330
17
100
AcDbEntity
  8
0
100
AcDbLine
 10
-22.27026990095078
 20
144.03679973040175
 30
0.0
 11
-19.321049900950754
 21
142.76203973040174
 31
0.0
  0
LINE
  5
DA
330
17
100
AcDbEntity
  8
0
100
AcDbLine
 10
-19.321049900950754
 20
142.76203973040174
 30
0.0
 11
-17.105049900950746
 21
140.59953973040177
 31
0.0
  0
LINE
  5
DB
330
17
100
AcDbEntity
  8
0
100
AcDbLine
 10
-17.105049900950746
 20
140.59953973040177
 30
0.0
 11
-14.88905990095077
 21
138.4370397304018
 31
0.0
  0
LINE
  5
DC
330
17
100
AcDbEntity
  8
0
100
AcDbLine
 10
-14.88905990095077
 20
138.4370397304018
 30
0.0
 11
-13.694549900950733
 21
135.87099973040176
 31
0.0
  0
LINE
  5
DD
330
17
100
AcDbEntity
  8
0
100
AcDbLine
 10
-13.694549900950733
 20
135.87099973040176
 30
0.0
 11
-12.500049900950785
 21
133.30494973040175
 31
0.0
  0
LINE
  5
DE
330
17
100
AcDbEntity
  8
0
100
AcDbLine
 10
-12.500049900950785
 20
133.30494973040175
 30
0.0
 11
-12.485749900950736
 21
129.6001797304018
 31
0.0
  0
LINE
  5
DF
330
17
100
AcDbEntity
  8
0
100
AcDbLine
 10
-12.485749900950736
 20
129.6001797304018
 30
0.0
 11
-12.471449900950745
 21
125.89541973040178
 31
0.0
  0
LINE
  5
E0
330
17
100
AcDbEntity
  8
0
100
AcDbLine
 10
-12.471449900950745
 20
125.89541973040178
 30
0.0
 11
5.997050099049261
 21
126.09133973040178
 31
0.0
  0
LINE
  5
E1
330
17
100
AcDbEntity
  8
0
100
AcDbLine
 10
5.997050099049261
 20
126.09133973040178
 30
0.0
 11
24.46555009904921
 21
126.28727973040179
 31
0.0
  0
LINE
  5
E2
330
17
100
AcDbEntity
  8
0
100
AcDbLine
 10
24.46555009904921
 20
126.28727973040179
 30
0.0
 11
28.06118009904924
 21
127.95242973040178
 31
0.0
  0
LINE
  5
E3
330
17
100
AcDbEntity
  8
0
100
AcDbLine
 10
28.06118009904924
 20
127.95242973040178
 30
0.0
 11
31.656810099049267
 21
129.6175897304018
 31
0.0
  0
LINE
  5
E4
330
17
100
AcDbEntity
  8
0
100
AcDbLine
 10
31.656810099049267
 20
129.6175897304018
 30
0.0
 11
34.73811009904921
 21
132.2923197304018
 31
0.0
  0
LINE
  5
E5
330
17
100
AcDbEntity
  8
0
100
AcDbLine
 10
34.73811009904921
 20
132.2923197304018
 30
0.0
 11
37.819410099049264
 21
134.96704973040175
 31
0.0
  0
LINE
  5
E6
330
17
100
AcDbEntity
  8
0
100
AcDbLine
 10
37.819410099049264
 20
134.96704973040175
 30
0.0
 11
39.96812009904926
 21
139.22635973040178
 31
0.0
  0
LINE
  5
E7
330
17
100
AcDbEntity
  8
0
100
AcDbLine
 10
39.96812009904926
 20
139.22635973040178
 30
0.0
 11
42.11683009904925
 21
143.48564973040175
 31
0.0
  0
LINE
  5
E8
330
17
100
AcDbEntity
  8
0
100
AcDbLine
 10
42.11683009904925
 20
143.48564973040175
 30
0.0
 11
42.11683009904925
 21
149.5597897304018
 31
0.0
  0
LINE
  5
E9
330
17
100
AcDbEntity
  8
0
100
AcDbLine
 10
42.11683009904925
 20
149.5597897304018
 30
0.0
 11
42.11683009904925
 21
155.63392973040177
 31
0.0
  0
LINE
  5
EA
330
17
100
AcDbEntity
  8
0
100
AcDbLine
 10
42.11683009904925
 20
155.63392973040177
 30
0.0
 11
40.37759009904926
 21
159.2544997304018
 31
0.0
  0
LINE
  5
EB
330
17
100
AcDbEntity
  8
0
100
AcDbLine
 10
40.37759009904926
 20
159.2544997304018
 30
0.0
 11
38.63835009904926
 21
162.87507973040178
 31
0.0
  0
LINE
  5
EC
330
17
100
AcDbEntity
  8
0
100
AcDbLine
 10
38.63835009904926
 20
162.87507973040178
 30
0.0
 11
35.966140099049255
 21
165.70410973040177
 31
0.0
  0
LINE
  5
ED
330
17
100
AcDbEntity
  8
0
100
AcDbLine
 10
35.966140099049255
 20
165.70410973040177
 30
0.0
 11
33.29394009904922
 21
168.53312973040178
 31
0.0
  0
LINE
  5
EE
330
17
100
AcDbEntity
  8
0
100
AcDbLine
 10
33.29394009904922
 20
168.53312973040178
 30
0.0
 11
29.533500099049206
 21
170.4553397304018
 31
0.0
  0
LINE
  5
EF
330
17
100
AcDbEntity
  8
0
100
AcDbLine
 10
29.533500099049206
 20
170.4553397304018
 30
0.0
 11
25.77304009904924
 21
172.37754973040177
 31
0.0
  0
LINE
  5
F0
330
17
100
AcDbEntity
  8
0
100
AcDbLine
 10
25.77304009904924
 20
172.37754973040177
 30
0.0
 11
24.08939009904924
 21
172.7620297304018
 31
0.0
  0
LINE
  5
F1
330
17
100
AcDbEntity
  8
0
100
AcDbLine
 10
24.08939009904924
 20
172.7620297304018
 30
0.0
 11
22.405750099049214
 21
173.1465097304018
 31
0.0
  0
LINE
  5
F2
330
17
100
AcDbEntity
  8
0
100
AcDbLine
 10
22.405750099049214
 20
173.1465097304018
 30
0.0
 11
6.764950099049258
 21
174.44250973040178
 31
0.0
  0
LINE
  5
F3
330
17
100
AcDbEntity
  8
0
100
AcDbLine
 10
6.764950099049258
 20
174.44250973040178
 30
0.0
 11
-8.875819900950773
 21
175.73852973040178
 31
0.0
  0
LINE
  5
F4
330
17
100
AcDbEntity
  8
0
100
AcDbLine
 10
-8.875819900950773
 20
175.73852973040178
 30
0.0
 11
-11.92916990095074
 21
176.72564973040178
 31
0.0
  0
LINE
  5
F5
330
17
100
AcDbEntity
  8
0
100
AcDbLine
 10
-11.92916990095074
 20
176.72564973040178
 30
0.0
 11
-14.982529900950738
 21
177.7127797304018
 31
0.0
  0
LINE
  5
F6
330
17
100
AcDbEntity
  8
0
100
AcDbLine
 10
-14.982529900950738
 20
177.7127797304018
 30
0.0
 11
-17.939669900950776
 21
180.25291973040177
 31
0.0
  0
LINE
  5
F7
330
17
100
AcDbEntity
  8
0
100
AcDbLine
 10
-17.939669900950776
 20
180.25291973040177
 30
0.0
 11
-20.896809900950757
 21
182.79305973040178
 31
0.0
  0
LINE
  5
F8
330
17
100
AcDbEntity
  8
0
100
AcDbLine
 10
-20.896809900950757
 20
182.79305973040178
 30
0.0
 11
-22.731329900950755
 21
186.4386997304018
 31
0.0
  0
LINE
  5
F9
330
17
100
AcDbEntity
  8
0
100
AcDbLine
 10
-22.731329900950755
 20
186.4386997304018
 30
0.0
 11
-24.565859900950727
 21
190.08433973040178
 31
0.0
  0
LINE
  5
FA
330
17
100
AcDbEntity
  8
0
100
AcDbLine
 10
-24.565859900950727
 20
190.08433973040178
 30
0.0
 11
-24.552459900950737
 21
194.8691197304018
 31
0.0
  0
LINE
  5
FB
330
17
100
AcDbEntity
  8
0
100
AcDbLine
 10
-24.552459900950737
 20
194.8691197304018
 30
0.0
 11
-24.539059900950747
 21
199.65389773040178
 31
0.0
  0
LINE
  5
FC
330
17
100
AcDbEntity
  8
0
100
AcDbLine
 10
-24.539059900950747
 20
199.65389773040178
 30
0.0
 11
-23.15529990095075
 21
202.60285773040178
 31
0.0
  0
LINE
  5
FD
330
17
100
AcDbEntity
  8
0
100
AcDbLine
 10
-23.15529990095075
 20
202.60285773040178
 30
0.0
 11
-21.771539900950756
 21
205.55181773040178
 31
0.0
  0
LINE
  5
FE
330
17
100
AcDbEntity
  8
0
100
AcDbLine
 10
-21.771539900950756
 20
205.55181773040178
 30
0.0
 11
-19.461899900950755
 21
208.04659373040178
 31
0.0
  0
LINE
  5
FF
330
17
100
AcDbEntity
  8
0
100
AcDbLine
 10
-19.461899900950755
 20
208.04659373040178
 30
0.0
 11
-17.152259900950753
 21
210.54138573040177
 31
0.0
  0
LINE
  5
100
330
17
100
AcDbEntity
  8
0
100
AcDbLine
 10
-17.152259900950753
 20
210.54138573040177
 30
0.0
 11
-13.994779900950732
 21
212.08934873040178
 31
0.0
  0
LINE
  5
101
330
17
100
AcDbEntity
  8
0
100
AcDbLine
 10
-13.994779900950732
 20
212.08934873040178
 30
0.0
 11
-10.837309900950743
 21
213.6373117304018
 31
0.0
  0
LINE
  5
102
330
17
100
AcDbEntity
  8
0
100
AcDbLine
 10
-10.837309900950743
 20
213.6373117304018
 30
0.0
 11
-7.568539900950782
 21
213.6632717304018
 31
0.0
  0
LINE
  5
103
330
17
100
AcDbEntity
  8
0
100
AcDbLine
 10
-7.568539900950782
 20
213.6632717304018
 30
0.0
 11
-4.2997899009507705
 21
213.68922173040178
 31
0.0
  0
LINE
  5
104
330
17
100
AcDbEntity
  8
0
100
AcDbLine
 10
-4.2997899009507705
 20
213.68922173040178
 30
0.0
 11
-3.9721799009507777
 21
205.71458573040178
 31
0.0
  0
LINE
  5
105
330
17
100
AcDbEntity
  8
0
100
AcDbLine
 10
-3.9721799009507777
 20
205.71458573040178
 30
0.0
 11
-3.6445799009507596
 21
197.73994673040178
 31
0.0
  0
LINE
  5
106
330
17
100
AcDbEntity
  8
0
100
AcDbLine
 10
-3.6445799009507596
 20
197.73994673040178
 30
0.0
 11
-1.8996699009507552
 21
194.1057597304018
 31
0.0
  0
LINE
  5
107
330
17
100
AcDbEntity
  8
0
100
AcDbLine
 10
-1.8996699009507552
 20
194.1057597304018
 30
0.0
 11
-0.15476990095078236
 21
190.4715597304018
 31
0.0
  0
LINE
  5
108
330
17
100
AcDbEntity
  8
0
100
AcDbLine
 10
-0.15476990095078236
 20
190.4715597304018
 30
0.0
 11
2.711480099049254
 21
187.67450973040178
 31
0.0
  0
LINE
  5
109
330
17
100
AcDbEntity
  8
0
100
AcDbLine
 10
2.711480099049254
 20
187.67450973040178
 30
0.0
 11
5.577690099049278
 21
184.87745973040177
 31
0.0
  0
LINE
  5
10A
330
17
100
AcDbEntity
  8
0
100
AcDbLine
 10
5.577690099049278
 20
184.87745973040177
 30
0.0
 11
9.169500099049287
 21
183.16256973040177
 31
0.0
  0
LINE
  5
10B
330
17
100
AcDbEntity
  8
0
100
AcDbLine
 10
9.169500099049287
 20
183.16256973040177
 30
0.0
 11
12.761300099049208
 21
181.44768973040178
 31
0.0
  0
LINE
  5
10C
330
17
100
AcDbEntity
  8
0
100
AcDbLine
 10
12.761300099049208
 20
181.44768973040178
 30
0.0
 11
17.01701009904923
 21
181.05987973040178
 31
0.0
  0
LINE
  5
10D
330
17
100
AcDbEntity
  8
0
100
AcDbLine
 10
17.01701009904923
 20
181.05987973040178
 30
0.0
 11
21.272710099049277
 21
180.67206973040177
 31
0.0
  0
LINE
  5
10E
330
17
100
AcDbEntity
  8
0
100
AcDbLine
 10
21.272710099049277
 20
180.67206973040177
 30
0.0
 11
25.15712009904928
 21
181.74844973040177
 31
0.0
  0
LINE
  5
10F
330
17
100
AcDbEntity
  8
0
100
AcDbLine
 10
25.15712009904928
 20
181.74844973040177
 30
0.0
 11
29.041560099049207
 21
182.82483973040178
 31
0.0
  0
LINE
  5
110
330
17
100
AcDbEntity
  8
0
100
AcDbLine
 10
29.041560099049207
 20
182.82483973040178
 30
0.0
 11
32.42661009904924
 21
185.06513973040177
 31
0.0
  0
LINE
  5
111
330
17
100
AcDbEntity
  8
0
100
AcDbLine
 10
32.42661009904924
 20
185.06513973040177
 30
0.0
 11
35.81167009904925
 21
187.3054397304018
 31
0.0
  0
LINE
  5
112
330
17
100
AcDbEntity
  8
0
100
AcDbLine
 10
35.81167009904925
 20
187.3054397304018
 30
0.0
 11
38.17624009904921
 21
190.6558297304018
 31
0.0
  0
LINE
  5
113
330
17
100
AcDbEntity
  8
0
100
AcDbLine
 10
38.17624009904921
 20
190.6558297304018
 30
0.0
 11
40.540820099049256
 21
194.0062097304018
 31
0.0
  0
LINE
  5
114
330
17
100
AcDbEntity
  8
0
100
AcDbLine
 10
40.540820099049256
 20
194.0062097304018
 30
0.0
 11
41.492140099049266
 21
197.09091673040177
 31
0.0
  0
LINE
  5
115
330
17
100
AcDbEntity
  8
0
100
AcDbLine
 10
41.492140099049266
 20
197.09091673040177
 30
0.0
 11
42.443460099049275
 21
200.1756317304018
 31
0.0
  0
LINE
  5
116
330
17
100
AcDbEntity
  8
0
100
AcDbLine
 10
42.443460099049275
 20
200.1756317304018
 30
0.0
 11
42.443460099049275
 21
209.32481773040178
 31
0.0
  0
LINE
  5
117
330
17
100
AcDbEntity
  8
0
100
AcDbLine
 10
42.443460099049275
 20
209.32481773040178
 30
0.0
 11
42.443460099049275
 21
218.4740037304018
 31
0.0
  0
LINE
  5
118
330
17
100
AcDbEntity
  8
0
100
AcDbLine
 10
42.443460099049275
 20
218.4740037304018
 30
0.0
 11
39.17471009904921
 21
218.4740037304018
 31
0.0
  0
LINE
  5
119
330
17
100
AcDbEntity
  8
0
100
AcDbLine
 10
39.17471009904921
 20
218.4740037304018
 30
0.0
 11
35.905940099049246
 21
218.4740037304018
 31
0.0
  0
LINE
  5
11A
330
17
100
AcDbEntity
  8
0
100
AcDbLine
 10
35.905940099049246
 20
218.4740037304018
 30
0.0
 11
35.89894009904924
 21
215.1246467304018
 31
0.0
  0
LINE
  5
11B
330
17
100
AcDbEntity
  8
0
100
AcDbLine
 10
35.89894009904924
 20
215.1246467304018
 30
0.0
 11
35.891940099049236
 21
211.77530573040178
 31
0.0
  0
LINE
  5
11C
330
17
100
AcDbEntity
  8
0
100
AcDbLine
 10
35.891940099049236
 20
211.77530573040178
 30
0.0
 11
34.36753009904925
 21
208.58079873040177
 31
0.0
  0
LINE
  5
11D
330
17
100
AcDbEntity
  8
0
100
AcDbLine
 10
34.36753009904925
 20
208.58079873040177
 30
0.0
 11
32.843140099049265
 21
205.3863087304018
 31
0.0
  0
LINE
  5
11E
330
17
100
AcDbEntity
  8
0
100
AcDbLine
 10
32.843140099049265
 20
205.3863087304018
 30
0.0
 11
30.33551009904926
 21
203.23773373040177
 31
0.0
  0
LINE
  5
11F
330
17
100
AcDbEntity
  8
0
100
AcDbLine
 10
30.33551009904926
 20
203.23773373040177
 30
0.0
 11
27.827910099049234
 21
201.0891757304018
 31
0.0
  0
LINE
  5
120
330
17
100
AcDbEntity
  8
0
100
AcDbLine
 10
27.827910099049234
 20
201.0891757304018
 30
0.0
 11
25.492230099049266
 21
200.1343637304018
 31
0.0
  0
LINE
  5
121
330
17
100
AcDbEntity
  8
0
100
AcDbLine
 10
25.492230099049266
 20
200.1343637304018
 30
0.0
 11
23.15655009904924
 21
199.17956873040177
 31
0.0
  0
LINE
  5
122
330
17
100
AcDbEntity
  8
0
100
AcDbLine
 10
23.15655009904924
 20
199.17956873040177
 30
0.0
 11
19.234040099049253
 21
199.18776873040179
 31
0.0
  0
LINE
  5
123
330
17
100
AcDbEntity
  8
0
100
AcDbLine
 10
19.234040099049253
 20
199.18776873040179
 30
0.0
 11
15.31152009904929
 21
199.19596873040177
 31
0.0
  0
LINE
  5
124
330
17
100
AcDbEntity
  8
0
100
AcDbLine
 10
15.31152009904929
 20
199.19596873040177
 30
0.0
 11
12.528020099049286
 21
200.29415473040177
 31
0.0
  0
LINE
  5
125
330
17
100
AcDbEntity
  8
0
100
AcDbLine
 10
12.528020099049286
 20
200.29415473040177
 30
0.0
 11
9.74451009904925
 21
201.39234073040177
 31
0.0
  0
LINE
  5
126
330
17
100
AcDbEntity
  8
0
100
AcDbLine
 10
9.74451009904925
 20
201.39234073040177
 30
0.0
 11
6.823860099049284
 21
204.5623937304018
 31
0.0
  0
LINE
  5
127
330
17
100
AcDbEntity
  8
0
100
AcDbLine
 10
6.823860099049284
 20
204.5623937304018
 30
0.0
 11
3.9032200990492356
 21
207.73243073040177
 31
0.0
  0
LINE
  5
128
330
17
100
AcDbEntity
  8
0
100
AcDbLine
 10
3.9032200990492356
 20
207.73243073040177
 30
0.0
 11
3.2369400990492068
 21
210.07338473040178
 31
0.0
  0
LINE
  5
129
330
17
100
AcDbEntity
  8
0
100
AcDbLine
 10
3.2369400990492068
 20
210.07338473040178
 30
0.0
 11
2.5706700990492664
 21
212.41432273040178
 31
0.0
  0
LINE
  5
12A
330
17
100
AcDbEntity
  8
0
100
AcDbLine
 10
2.5706700990492664
 20
212.41432273040178
 30
0.0
 11
2.5666700990492473
 21
215.48112573040177
 31
0.0
  0
LINE
  5
12B
330
17
100
AcDbEntity
  8
0
100
AcDbLine
 10
2.5666700990492473
 20
215.48112573040177
 30
0.0
 11
2.562670099049228
 21
218.5479297304018
 31
0.0
  0
LINE
  5
12C
330
17
100
AcDbEntity
  8
0
100
AcDbLine
 10
2.562670099049228
 20
218.5479297304018
 30
0.0
 11
-15.922299900950748
 21
218.3520077304018
 31
0.0
  0
LINE
  5
12D
330
17
100
AcDbEntity
  8
0
100
AcDbLine
 10
-15.922299900950748
 20
218.3520077304018
 30
0.0
 11
-34.40726990095072
 21
218.15607073040178
 31
0.0
  0
LINE
  5
12E
330
17
100
AcDbEntity
  8
0
100
AcDbLine
 10
-34.40726990095072
 20
218.15607073040178
 30
0.0
 11
-38.72032090095075
 21
216.08271673040178
 31
0.0
  0
LINE
  5
12F
330
17
100
AcDbEntity
  8
0
100
AcDbLine
 10
-38.72032090095075
 20
216.08271673040178
 30
0.0
 11
-43.03337390095078
 21
214.00934773040177
 31
0.0
  0
LINE
  5
130
330
17
100
AcDbEntity
  8
0
100
AcDbLine
 10
-43.03337390095078
 20
214.00934773040177
 30
0.0
 11
-45.79025590095074
 21
211.09066873040177
 31
0.0
  0
LINE
  5
131
330
17
100
AcDbEntity
  8
0
100
AcDbLine
 10
-45.79025590095074
 20
211.09066873040177
 30
0.0
 11
-48.54713790095076
 21
208.1720057304018
 31
0.0
  0
LINE
  5
132
330
17
100
AcDbEntity
  8
0
100
AcDbLine
 10
-48.54713790095076
 20
208.1720057304018
 30
0.0
 11
-50.28638390095074
 21
204.5514407304018
 31
0.0
  0
LINE
  5
133
330
17
100
AcDbEntity
  8
0
100
AcDbLine
 10
-50.28638390095074
 20
204.5514407304018
 30
0.0
 11
-52.025629900950776
 21
200.93085873040178
 31
0.0
  0
LINE
  5
134
330
17
100
AcDbEntity
  8
0
100
AcDbLine
 10
-52.025629900950776
 20
200.93085873040178
 30
0.0
 11
-52.025629900950776
 21
194.87014973040178
 31
0.0
  0
LINE
  5
135
330
17
100
AcDbEntity
  8
0
100
AcDbLine
 10
-52.025629900950776
 20
194.87014973040178
 30
0.0
 11
-52.025629900950776
 21
188.80942973040177
 31
0.0
  0
LINE
  5
136
330
17
100
AcDbEntity
  8
0
100
AcDbLine
 10
-52.025629900950776
 20
188.80942973040177
 30
0.0
 11
-50.30288590095074
 21
185.22401973040178
 31
0.0
  0
LINE
  5
137
330
17
100
AcDbEntity
  8
0
100
AcDbLine
 10
-50.30288590095074
 20
185.22401973040178
 30
0.0
 11
-48.58014090095077
 21
181.63861973040179
 31
0.0
  0
LINE
  5
138
330
17
100
AcDbEntity
  8
0
100
AcDbLine
 10
-48.58014090095077
 20
181.63861973040179
 30
0.0
 11
-46.10817890095075
 21
178.9685097304018
 31
0.0
  0
LINE
  5
139
330
17
100
AcDbEntity
  8
0
100
AcDbLine
 10
-46.10817890095075
 20
178.9685097304018
 30
0.0
 11
-43.63621890095078
 21
176.2983897304018
 31
0.0
  0
LINE
  5
13A
330
17
100
AcDbEntity
  8
0
100
AcDbLine
 10
-43.63621890095078
 20
176.2983897304018
 30
0.0
 11
-40.94510690095075
 21
174.75935973040177
 31
0.0
  0
LINE
  5
13B
330
17
100
AcDbEntity
  8
0
100
AcDbLine
 10
-40.94510690095075
 20
174.75935973040177
 30
0.0
 11
-38.25399690095077
 21
173.22033973040178
 31
0.0
  0
LINE
  5
13C
330
17
100
AcDbEntity
  8
0
100
AcDbLine
 10
-38.25399690095077
 20
173.22033973040178
 30
0.0
 11
-35.513115900950766
 21
172.27664973040177
 31
0.0
  0
LINE
  5
13D
330
17
100
AcDbEntity
  8
0
100
AcDbLine
 10
-35.513115900950766
 20
172.27664973040177
 30
0.0
 11
-32.77223690095076
 21
171.3329497304018
 31
0.0
  0
LINE
  5
13E
330
17
100
AcDbEntity
  8
0
100
AcDbLine
 10
-32.77223690095076
 20
171.3329497304018
 30
0.0
 11
-16.270069900950773
 21
169.9916097304018
 31
0.0
  0
LINE
  5
13F
330
17
100
AcDbEntity
  8
0
100
AcDbLine
 10
-16.270069900950773
 20
169.9916097304018
 30
0.0
 11
0.23212009904926845
 21
168.6502697304018
 31
0.0
  0
LINE
  5
140
330
17
100
AcDbEntity
  8
0
100
AcDbLine
 10
0.23212009904926845
 20
168.6502697304018
 30
0.0
 11
2.983170099049289
 21
167.46270973040177
 31
0.0
  0
LINE
  5
141
330
17
100
AcDbEntity
  8
0
100
AcDbLine
 10
2.983170099049289
 20
167.46270973040177
 30
0.0
 11
5.734230099049228
 21
166.27516973040179
 31
0.0
  0
LINE
  5
142
330
17
100
AcDbEntity
  8
0
100
AcDbLine
 10
5.734230099049228
 20
166.27516973040179
 30
0.0
 11
8.650650099049244
 21
163.6517897304018
 31
0.0
  0
LINE
  5
143
330
17
100
AcDbEntity
  8
0
100
AcDbLine
 10
8.650650099049244
 20
163.6517897304018
 30
0.0
 11
11.567080099049235
 21
161.0284197304018
 31
0.0
  0
LINE
  5
144
330
17
100
AcDbEntity
  8
0
100
AcDbLine
 10
11.567080099049235
 20
161.0284197304018
 30
0.0
 11
13.091760099049225
 21
157.69371973040177
 31
0.0
  0
LINE
  5
145
330
17
100
AcDbEntity
  8
0
100
AcDbLine
 10
13.091760099049225
 20
157.69371973040177
 30
0.0
 11
14.616460099049277
 21
154.35901973040177
 31
0.0
  0
LINE
  5
146
330
17
100
AcDbEntity
  8
0
100
AcDbLine
 10
14.616460099049277
 20
154.35901973040177
 30
0.0
 11
14.63676009904924
 21
149.5742397304018
 31
0.0
  0
LINE
  5
147
330
17
100
AcDbEntity
  8
0
100
AcDbLine
 10
14.63676009904924
 20
149.5742397304018
 30
0.0
 11
14.65706009904926
 21
144.78945973040175
 31
0.0
  0
LINE
  5
148
330
17
100
AcDbEntity
  8
0
100
AcDbLine
 10
14.65706009904926
 20
144.78945973040175
 30
0.0
 11
12.833020099049236
 21
141.16475973040178
 31
0.0
  0
LINE
  5
149
330
17
100
AcDbEntity
  8
0
100
AcDbLine
 10
12.833020099049236
 20
141.16475973040178
 30
0.0
 11
11.008990099049242
 21
137.5400697304018
 31
0.0
  0
LINE
  5
14A
330
17
100
AcDbEntity
  8
0
100
AcDbLine
 10
11.008990099049242
 20
137.5400697304018
 30
0.0
 11
8.613460099049234
 21
135.48752973040177
 31
0.0
  0
LINE
  5
14B
330
17
100
AcDbEntity
  8
0
100
AcDbLine
 10
8.613460099049234
 20
135.48752973040177
 30
0.0
 11
6.217920099049252
 21
133.43499973040178
 31
0.0
  0
LINE
  5
14C
330
17
100
AcDbEntity
  8
0
100
AcDbLine
 10
6.217920099049252
 20
133.43499973040178
 30
0.0
 11
2.772280099049226
 21
131.89558973040175
 31
0.0
  0
LINE
  5
14D
330
17
100
AcDbEntity
  8
0
100
AcDbLine
 10
2.772280099049226
 20
131.89558973040175
 30
0.0
 11
-0.6733999009507556
 21
130.35617973040178
 31
0.0
  0
LINE
  5
14E
330
17
100
AcDbEntity
  8
0
100
AcDbLine
 10
-0.6733999009507556
 20
130.35617973040178
 30
0.0
 11
-3.141319900950748
 21
130.55513973040178
 31
0.0
  0
LINE
  5
14F
330
17
100
AcDbEntity
  8
0
100
AcDbLine
 10
-3.141319900950748
 20
130.55513973040178
 30
0.0
 11
-5.609259900950747
 21
130.75409973040178
 31
0.0
  0
LINE
  5
150
330
17
100
AcDbEntity
  8
0
100
AcDbLine
 10
-5.609259900950747
 20
130.75409973040178
 30
0.0
 11
-5.936849900950733
 21
138.7287397304018
 31
0.0
  0
LINE
  5
151
330
17
100
AcDbEntity
  8
0
100
AcDbLine
 10
-5.936849900950733
 20
138.7287397304018
 30
0.0
 11
-6.264459900950783
 21
146.7033697304018
 31
0.0
  0
LINE
  5
152
330
17
100
AcDbEntity
  8
0
100
AcDbLine
 10
-6.264459900950783
 20
146.7033697304018
 30
0.0
 11
-8.009359900950756
 21
150.3375697304018
 31
0.0
  0
LINE
  5
153
330
17
100
AcDbEntity
  8
0
100
AcDbLine
 10
-8.009359900950756
 20
150.3375697304018
 30
0.0
 11
-9.754279900950735
 21
153.9717597304018
 31
0.0
  0
LINE
  5
154
330
17
100
AcDbEntity
  8
0
100
AcDbLine
 10
-9.754279900950735
 20
153.9717597304018
 30
0.0
 11
-12.783329900950775
 21
156.9276797304018
 31
0.0
  0
LINE
  5
155
330
17
100
AcDbEntity
  8
0
100
AcDbLine
 10
-12.783329900950775
 20
156.9276797304018
 30
0.0
 11
-15.812369900950785
 21
159.8836097304018
 31
0.0
  0
LINE
  5
156
330
17
100
AcDbEntity
  8
0
100
AcDbLine
 10
-15.812369900950785
 20
159.8836097304018
 30
0.0
 11
-19.536459900950717
 21
161.58710973040178
 31
0.0
  0
LINE
  5
157
330
17
100
AcDbEntity
  8
0
100
AcDbLine
 10
-19.536459900950717
 20
161.58710973040178
 30
0.0
 11
-23.26055990095074
 21
163.29060973040177
 31
0.0
  0
LINE
  5
158
330
17
100
AcDbEntity
  8
0
100
AcDbLine
 10
-23.26055990095074
 20
163.29060973040177
 30
0.0
 11
-29.144328900950768
 21
163.28560973040177
 31
0.0
  0
LINE
  5
159
330
17
100
AcDbEntity
  8
0
100
AcDbLine
 10
-29.144328900950768
 20
163.28560973040177
 30
0.0
 11
-35.028095900950746
 21
163.28060973040178
 31
0.0
  0
LINE
  5
15A
330
17
100
AcDbEntity
  8
0
100
AcDbLine
 10
-35.028095900950746
 20
163.28060973040178
 30
0.0
 11
-38.77932190095078
 21
161.4889297304018
 31
0.0
  0
LINE
  5
15B
330
17
100
AcDbEntity
  8
0
100
AcDbLine
 10
-38.77932190095078
 20
161.4889297304018
 30
0.0
 11
-42.530545900950756
 21
159.69725973040178
 31
0.0
  0
LINE
  5
15C
330
17
100
AcDbEntity
  8
0
100
AcDbLine
 10
-42.530545900950756
 20
159.69725973040178
 30
0.0
 11
-45.435576900950764
 21
156.86235973040178
 31
0.0
  0
LINE
  5
15D
330
17
100
AcDbEntity
  8
0
100
AcDbLine
 10
-45.435576900950764
 20
156.86235973040178
 30
0.0
 11
-48.34060890095077
 21
154.02745973040177
 31
0.0
  0
LINE
  5
15E
330
17
100
AcDbEntity
  8
0
100
AcDbLine
 10
-48.34060890095077
 20
154.02745973040177
 30
0.0
 11
-50.183126900950754
 21
150.36586973040176
 31
0.0
  0
LINE
  5
15F
330
17
100
AcDbEntity
  8
0
100
AcDbLine
 10
-50.183126900950754
 20
150.36586973040176
 30
0.0
 11
-52.02564690095073
 21
146.70427973040182
 31
0.0
  0
LINE
  5
160
330
17
100
AcDbEntity
  8
0
100
AcDbLine
 10
-52.02564690095073
 20
146.70427973040182
 30
0.0
 11
-52.24533290095076
 21
136.33724973040182
 31
0.0
  0
LINE
  5
161
330
17
100
AcDbEntity
  8
0
100
AcDbLine
 10
-52.24533290095076
 20
136.33724973040182
 30
0.0
 11
-52.46501990095078
 21
125.9702297304018
 31
0.0
  0
LINE
  5
162
330
17
100
AcDbEntity
  8
0
100
AcDbLine
 10
-52.46501990095078
 20
125.9702297304018
 30
0.0
 11
-49.14001190095075
 21
125.9702297304018
 31
0.0
  0
LINE
  5
163
330
17
100
AcDbEntity
  8
0
100
AcDbLine
 10
-49.14001190095075
 20
125.9702297304018
 30
0.0
 11
-45.81500390095073
 21
125.9702297304018
 31
0.0
  0
LINE
  5
164
330
17
100
AcDbEntity
  8
0
100
AcDbLine
 10
-45.81500390095073
 20
125.9702297304018
 30
0.0
 11
-45.80640990095077
 21
129.31761973040182
 31
0.0
  0
ENDSEC
  0
SECTION
  2
OBJECTS
  0
DICTIONARY
  5
A
330
0
100
AcDbDictionary
281
1
  3
ACAD_COLOR
350
B
  3
ACAD_GROUP
350
C
  3
ACAD_LAYOUT
350
D
  3
ACAD_MATERIAL
350
E
  3
ACAD_MLEADERSTYLE
350
F
  3
ACAD_MLINESTYLE
350
10
  3
ACAD_PLOTSETTINGS
350
11
  3
ACAD_PLOTSTYLENAME
350
12
  3
ACAD_SCALELIST
350
14
  3
ACAD_TABLESTYLE
350
15
  3
ACAD_VISUALSTYLE
350
16
  3
EZDXF_META
350
2D
  0
DICTIONARY
  5
B
330
A
100
AcDbDictionary
281
1
  0
DICTIONARY
  5
C
330
A
100
AcDbDictionary
281
1
  0
DICTIONARY
  5
D
330
A
100
AcDbDictionary
281
1
  3
Model
350
1A
  3
Layout1
350
1E
  0
DICTIONARY
  5
E
330
A
100
AcDbDictionary
281
1
  3
ByBlock
350
1F
  3
ByLayer
350
20
  3
Global
350
21
  0
DICTIONARY
  5
F
330
A
100
AcDbDictionary
281
1
  3
Standard
350
2C
  0
DICTIONARY
  5
10
330
A
100
AcDbDictionary
281
1
  3
Standard
350
22
  0
DICTIONARY
  5
11
330
A
100
AcDbDictionary
281
1
  0
ACDBDICTIONARYWDFLT
  5
12
330
A
100
AcDbDictionary
281
1
  3
Normal
350
13
100
AcDbDictionaryWithDefault
340
13
  0
ACDBPLACEHOLDER
  5
13
330
12
  0
DICTIONARY
  5
14
330
A
100
AcDbDictionary
281
1
  0
DICTIONARY
  5
15
330
A
100
AcDbDictionary
281
1
  0
DICTIONARY
  5
16
330
A
100
AcDbDictionary
281
1
  0
LAYOUT
  5
1A
330
D
100
AcDbPlotSettings
  1

  4
A3
  6

 40
7.5
 41
20.0
 42
7.5
 43
20.0
 44
420.0
 45
297.0
 46
0.0
 47
0.0
 48
0.0
 49
0.0
140
0.0
141
0.0
142
1.0
143
1.0
 70
1024
 72
1
 73
0
 74
5
  7

 75
16
 76
0
 77
2
 78
300
147
1.0
148
0.0
149
0.0
100
AcDbLayout
  1
Model
 70
1
 71
0
 10
0.0
 20
0.0
 11
420.0
 21
297.0
 12
0.0
 22
0.0
 32
0.0
 14
1e+20
 24
1e+20
 34
1e+20
 15
-1e+20
 25
-1e+20
 35
-1e+20
146
0.0
 13
0.0
 23
0.0
 33
0.0
 16
1.0
 26
0.0
 36
0.0
 17
0.0
 27
1.0
 37
0.0
 76
1
330
17
  0
LAYOUT
  5
1E
330
D
100
AcDbPlotSettings
  1

  4
A3
  6

 40
7.5
 41
20.0
 42
7.5
 43
20.0
 44
420.0
 45
297.0
 46
0.0
 47
0.0
 48
0.0
 49
0.0
140
0.0
141
0.0
142
1.0
143
1.0
 70
0
 72
1
 73
0
 74
5
  7

 75
16
 76
0
 77
2
 78
300
147
1.0
148
0.0
149
0.0
100
AcDbLayout
  1
Layout1
 70
1
 71
1
 10
0.0
 20
0.0
 11
420.0
 21
297.0
 12
0.0
 22
0.0
 32
0.0
 14
1e+20
 24
1e+20
 34
1e+20
 15
-1e+20
 25
-1e+20
 35
-1e+20
146
0.0
 13
0.0
 23
0.0
 33
0.0
 16
1.0
 26
0.0
 36
0.0
 17
0.0
 27
1.0
 37
0.0
 76
1
330
1B
  0
MATERIAL
  5
1F
102
{ACAD_REACTORS
330
E
102
}
330
E
100
AcDbMaterial
  1
ByBlock
  2

 70
0
 40
1.0
 71
1
 41
1.0
 91
-1023410177
 42
1.0
 72
1
  3

 73
1
 74
1
 75
1
 44
0.5
 73
0
 45
1.0
 46
1.0
 77
1
  4

 78
1
 79
1
170
1
 48
1.0
171
1
  6

172
1
173
1
174
1
140
1.0
141
1.0
175
1
  7

176
1
177
1
178
1
143
1.0
179
1
  8

270
1
271
1
272
1
145
1.0
146
1.0
273
1
  9

274
1
275
1
276
1
 42
1.0
 72
1
  3

 73
1
 74
1
 75
1
 94
63
  0
MATERIAL
  5
20
102
{ACAD_REACTORS
330
E
102
}
330
E
100
AcDbMaterial
  1
ByLayer
  2

 70
0
 40
1.0
 71
1
 41
1.0
 91
-1023410177
 42
1.0
 72
1
  3

 73
1
 74
1
 75
1
 44
0.5
 73
0
 45
1.0
 46
1.0
 77
1
  4

 78
1
 79
1
170
1
 48
1.0
171
1
  6

172
1
173
1
174
1
140
1.0
141
1.0
175
1
  7

176
1
177
1
178
1
143
1.0
179
1
  8

270
1
271
1
272
1
145
1.0
146
1.0
273
1
  9

274
1
275
1
276
1
 42
1.0
 72
1
  3

 73
1
 74
1
 75
1
 94
63
  0
MATERIAL
  5
21
102
{ACAD_REACTORS
330
E
102
}
330
E
100
AcDbMaterial
  1
Global
  2

 70
0
 40
1.0
 71
1
 41
1.0
 91
-1023410177
 42
1.0
 72
1
  3

 73
1
 74
1
 75
1
 44
0.5
 73
0
 45
1.0
 46
1.0
 77
1
  4

 78
1
 79
1
170
1
 48
1.0
171
1
  6

172
1
173
1
174
1
140
1.0
141
1.0
175
1
  7

176
1
177
1
178
1
143
1.0
179
1
  8

270
1
271
1
272
1
145
1.0
146
1.0
273
1
  9

274
1
275
1
276
1
 42
1.0
 72
1
  3

 73
1
 74
1
 75
1
 94
63
  0
MLINESTYLE
  5
22
102
{ACAD_REACTORS
330
10
102
}
330
10
100
AcDbMlineStyle
  2
Standard
 70
0
  3

 62
256
 51
90.0
 52
90.0
 71
2
 49
0.5
 62
256
  6
BYLAYER
 49
-0.5
 62
256
  6
BYLAYER
  0
MLEADERSTYLE
  5
2C
102
{ACAD_REACTORS
330
F
102
}
330
F
100
AcDbMLeaderStyle
179
2
170
2
171
1
172
0
 90
2
 40
0.0
 41
0.0
173
1
 91
-1056964608
 92
-2
290
1
 42
2.0
291
1
 43
8.0
  3
Standard
 44
4.0
300

342
29
174
1
175
1
176
0
178
1
 93
-1056964608
 45
4.0
292
0
297
0
 46
4.0
 94
-1056964608
 47
1.0
 49
1.0
140
1.0
294
1
141
0.0
177
0
142
1.0
295
0
296
0
143
3.75
271
0
272
9
273
9
  0
DICTIONARY
  5
2D
330
A
100
AcDbDictionary
280
1
281
1
  3
CREATED_BY_EZDXF
350
2E
  3
WRITTEN_BY_EZDXF
350
167
  0
DICTIONARYVAR
  5
2E
330
2D
100
DictionaryVariables
280
0
  1
1.4.3 @ 2026-03-18T15:27:46.466910+00:00
  0
DICTIONARYVAR
  5
167
330
2D
100
DictionaryVariables
280
0
  1
1.4.3 @ 2026-03-18T15:27:46.479912+00:00
  0
ENDSEC
  0
EOF
