  0
SECTION
  2
HEADER
  9
$ACADVER
  1
AC1014
  9
$HANDSEED
  5
FFFF
  9
$INSUNITS
 70
     4
  9
$MEASUREMENT
 70
     1
  0
ENDSEC
  0
SECTION
  2
TABLES
  0
TABLE
  2
VPORT
  5
8
330
0
100
AcDbSymbolTable
 70
     4
  0
VPORT
  5
2E
330
8
100
AcDbSymbolTableRecord
100
AcDbViewportTableRecord
  2
*ACTIVE
 70
     0
 10
0.0
 20
0.0
 11
1.0
 21
1.0
 12
210.0
 22
148.5
 13
0.0
 23
0.0
 14
10.0
 24
10.0
 15
10.0
 25
10.0
 16
0.0
 26
0.0
 36
1.0
 17
0.0
 27
0.0
 37
0.0
 40
341.0
 41
1.24
 42
50.0
 43
0.0
 44
0.0
 50
0.0
 51
0.0
 71
     0
 72
   100
 73
     1
 74
     3
 75
     0
 76
     0
 77
     0
 78
     0
  0
ENDTAB
  0
TABLE
  2
LTYPE
  5
5
330
0
100
AcDbSymbolTable
 70
     1
  0
LTYPE
  5
14
330
5
100
AcDbSymbolTableRecord
100
AcDbLinetypeTableRecord
  2
BYBLOCK
 70
     0
  3

 72
    65
 73
     0
 40
0.0
  0
LTYPE
  5
15
330
5
100
AcDbSymbolTableRecord
100
AcDbLinetypeTableRecord
  2
BYLAYER
 70
     0
  3

 72
    65
 73
     0
 40
0.0
  0
LTYPE
  5
16
330
5
100
AcDbSymbolTableRecord
100
AcDbLinetypeTableRecord
  2
CONTINUOUS
 70
     0
  3
Solid line
 72
    65
 73
     0
 40
0.0
  0
ENDTAB
  0
TABLE
  2
LAYER
  5
2
100
AcDbSymbolTable
 70
2
  0
LAYER
  5
50
100
AcDbSymbolTableRecord
100
AcDbLayerTableRecord
  2
0
 70
0
  6
CONTINUOUS
  0
LAYER
  5
51
100
AcDbSymbolTableRecord
100
AcDbLayerTableRecord
  2
Calque_1
 70
0
  6
CONTINUOUS
  0
ENDTAB
  0
TABLE
  2
STYLE
  5
3
330
0
100
AcDbSymbolTable
 70
     1
  0
STYLE
  5
11
330
3
100
AcDbSymbolTableRecord
100
AcDbTextStyleTableRecord
  2
STANDARD
 70
     0
 40
0.0
 41
1.0
 50
0.0
 71
     0
 42
2.5
  3
txt
  4

  0
ENDTAB
  0
TABLE
  2
VIEW
  5
6
330
0
100
AcDbSymbolTable
 70
     0
  0
ENDTAB
  0
TABLE
  2
UCS
  5
7
330
0
100
AcDbSymbolTable
 70
     0
  0
ENDTAB
  0
TABLE
  2
APPID
  5
9
330
0
100
AcDbSymbolTable
 70
     2
  0
APPID
  5
12
330
9
100
AcDbSymbolTableRecord
100
AcDbRegAppTableRecord
  2
ACAD
 70
     0
  0
ENDTAB
  0
TABLE
  2
DIMSTYLE
  5
A
330
0
100
AcDbSymbolTable
 70
     1
  0
DIMSTYLE
105
27
330
A
100
AcDbSymbolTableRecord
100
AcDbDimStyleTableRecord
  2
ISO-25
 70
     0
  3

  4

  5

  6

  7

 40
1.0
 41
2.5
 42
0.625
 43
3.75
 44
1.25
 45
0.0
 46
0.0
 47
0.0
 48
0.0
140
2.5
141
2.5
142
0.0
143
0.03937007874016
144
1.0
145
0.0
146
1.0
147
0.625
 71
     0
 72
     0
 73
     0
 74
     0
 75
     0
 76
     0
 77
     1
 78
     8
170
     0
171
     3
172
     1
173
     0
174
     0
175
     0
176
     0
177
     0
178
     0
270
     2
271
     2
272
     2
273
     2
274
     3
340
11
275
     0
280
     0
281
     0
282
     0
283
     0
284
     8
285
     0
286
     0
287
     3
288
     0
  0
ENDTAB
  0
TABLE
  2
BLOCK_RECORD
  5
1
330
0
100
AcDbSymbolTable
 70
     1
  0
BLOCK_RECORD
  5
1F
330
1
100
AcDbSymbolTableRecord
100
AcDbBlockTableRecord
  2
*MODEL_SPACE
  0
BLOCK_RECORD
  5
1B
330
1
100
AcDbSymbolTableRecord
100
AcDbBlockTableRecord
  2
*PAPER_SPACE
  0
ENDTAB
  0
ENDSEC
  0
SECTION
  2
BLOCKS
  0
BLOCK
  5
20
330
1F
100
AcDbEntity
  8
0
100
AcDbBlockBegin
  2
*MODEL_SPACE
 70
     0
 10
0.0
 20
0.0
 30
0.0
  3
*MODEL_SPACE
  1

  0
ENDBLK
  5
21
330
1F
100
AcDbEntity
  8
0
100
AcDbBlockEnd
  0
BLOCK
  5
1C
330
1B
100
AcDbEntity
 67
     1
  8
0
100
AcDbBlockBegin
  2
*PAPER_SPACE
  1

  0
ENDBLK
  5
1D
330
1B
100
AcDbEntity
 67
     1
  8
0
100
AcDbBlockEnd
  0
ENDSEC
  0
SECTION
  2
ENTITIES
  0
LWPOLYLINE
  5
100
100
AcDbEntity
  8
Calque_1
 62
7
100
AcDbPolyline
 90
160
 70
1
 10
72.099949
 20
125.493380
 30
0.0
 10
71.637337
 20
125.944830
 30
0.0
 10
71.637337
 20
134.955050
 30
0.0
 10
71.637337
 20
143.965250
 30
0.0
 10
72.625058
 20
147.665820
 30
0.0
 10
73.612779
 20
151.366400
 30
0.0
 10
75.208719
 20
154.020080
 30
0.0
 10
76.804658
 20
156.673750
 30
0.0
 10
79.614453
 20
159.343060
 30
0.0
 10
82.424246
 20
162.012360
 30
0.0
 10
85.693004
 20
163.597090
 30
0.0
 10
88.961764
 20
165.181810
 30
0.0
 10
92.996294
 20
165.891030
 30
0.0
 10
97.030821
 20
166.600240
 30
0.0
 10
101.638340
 20
165.662730
 30
0.0
 10
106.245860
 20
164.725230
 30
0.0
 10
109.138520
 20
163.070940
 30
0.0
 10
112.031170
 20
161.416660
 30
0.0
 10
115.088190
 20
158.227360
 30
0.0
 10
118.145160
 20
155.038080
 30
0.0
 10
119.831860
 20
151.442820
 30
0.0
 10
121.518530
 20
147.847550
 30
0.0
 10
121.835730
 20
140.331890
 30
0.0
 10
122.152910
 20
132.816230
 30
0.0
 10
124.189260
 20
133.188520
 30
0.0
 10
126.225620
 20
133.560810
 30
0.0
 10
128.310830
 20
134.382610
 30
0.0
 10
130.396050
 20
135.204430
 30
0.0
 10
133.303370
 20
137.819610
 30
0.0
 10
136.210670
 20
140.434780
 30
0.0
 10
137.658090
 20
143.718170
 30
0.0
 10
139.105510
 20
147.001540
 30
0.0
 10
138.848920
 20
151.518660
 30
0.0
 10
138.592330
 20
156.035770
 30
0.0
 10
137.353470
 20
158.526030
 30
0.0
 10
136.114620
 20
161.016280
 30
0.0
 10
133.931200
 20
163.147000
 30
0.0
 10
131.747790
 20
165.277710
 30
0.0
 10
129.125190
 20
166.583360
 30
0.0
 10
126.502570
 20
167.889010
 30
0.0
 10
116.557830
 20
168.786790
 30
0.0
 10
106.613070
 20
169.684580
 30
0.0
 10
98.981396
 20
170.327890
 30
0.0
 10
91.349726
 20
170.971210
 30
0.0
 10
87.045929
 20
172.875540
 30
0.0
 10
82.742135
 20
174.779860
 30
0.0
 10
79.531641
 20
177.996390
 30
0.0
 10
76.321148
 20
181.212920
 30
0.0
 10
74.584082
 20
184.677650
 30
0.0
 10
72.847014
 20
188.142370
 30
0.0
 10
72.114967
 20
192.312880
 30
0.0
 10
71.382920
 20
196.483370
 30
0.0
 10
72.549790
 20
201.313495
 30
0.0
 10
73.716659
 20
206.143609
 30
0.0
 10
76.330251
 20
209.963018
 30
0.0
 10
78.943845
 20
213.782410
 30
0.0
 10
82.543512
 20
216.297852
 30
0.0
 10
86.143180
 20
218.813310
 30
0.0
 10
89.513729
 20
219.961039
 30
0.0
 10
92.884277
 20
221.108785
 30
0.0
 10
111.189340
 20
221.108785
 30
0.0
 10
129.494390
 20
221.108785
 30
0.0
 10
129.922110
 20
216.433750
 30
0.0
 10
130.349860
 20
211.758715
 30
0.0
 10
132.227530
 20
208.794965
 30
0.0
 10
134.105210
 20
205.831215
 30
0.0
 10
137.305420
 20
203.900436
 30
0.0
 10
140.505640
 20
201.969658
 30
0.0
 10
145.133170
 20
201.969658
 30
0.0
 10
149.760700
 20
201.969658
 30
0.0
 10
152.748460
 20
203.683734
 30
0.0
 10
155.736230
 20
205.397827
 30
0.0
 10
157.461590
 20
207.830555
 30
0.0
 10
159.186950
 20
210.263283
 30
0.0
 10
159.849310
 20
213.453121
 30
0.0
 10
160.511680
 20
216.642975
 30
0.0
 10
160.693070
 20
218.875880
 30
0.0
 10
160.874480
 20
221.108785
 30
0.0
 10
165.450740
 20
221.108785
 30
0.0
 10
170.027010
 20
221.108785
 30
0.0
 10
170.208840
 20
211.943846
 30
0.0
 10
170.390700
 20
202.778907
 30
0.0
 10
169.394300
 20
198.983427
 30
0.0
 10
168.397890
 20
195.187950
 30
0.0
 10
166.731880
 20
192.413780
 30
0.0
 10
165.065890
 20
189.639600
 30
0.0
 10
162.211980
 20
187.072440
 30
0.0
 10
159.358050
 20
184.505290
 30
0.0
 10
155.866870
 20
182.710960
 30
0.0
 10
152.375700
 20
180.916630
 30
0.0
 10
145.184440
 20
180.916630
 30
0.0
 10
137.993160
 20
180.916630
 30
0.0
 10
134.223840
 20
182.779460
 30
0.0
 10
130.454550
 20
184.642290
 30
0.0
 10
127.160640
 20
188.041030
 30
0.0
 10
123.866740
 20
191.439770
 30
0.0
 10
122.169700
 20
195.057080
 30
0.0
 10
120.472670
 20
198.674417
 30
0.0
 10
120.154090
 20
206.223254
 30
0.0
 10
119.835490
 20
213.772110
 30
0.0
 10
119.390150
 20
213.772110
 30
0.0
 10
118.944780
 20
213.772110
 30
0.0
 10
115.652870
 20
212.818114
 30
0.0
 10
112.360920
 20
211.864119
 30
0.0
 10
109.229300
 20
209.174092
 30
0.0
 10
106.097680
 20
206.484064
 30
0.0
 10
104.563940
 20
203.269903
 30
0.0
 10
103.030200
 20
200.055737
 30
0.0
 10
103.030200
 20
195.908940
 30
0.0
 10
103.030200
 20
191.762140
 30
0.0
 10
104.559140
 20
188.572280
 30
0.0
 10
106.088070
 20
185.382430
 30
0.0
 10
109.078740
 20
182.703140
 30
0.0
 10
112.069410
 20
180.023840
 30
0.0
 10
115.551890
 20
179.069890
 30
0.0
 10
119.034350
 20
178.115950
 30
0.0
 10
132.436260
 20
177.106460
 30
0.0
 10
145.838190
 20
176.097000
 30
0.0
 10
148.497790
 20
175.773730
 30
0.0
 10
151.157390
 20
175.450490
 30
0.0
 10
155.035290
 20
173.634170
 30
0.0
 10
158.913220
 20
171.817870
 30
0.0
 10
161.528240
 20
169.581250
 30
0.0
 10
164.143240
 20
167.344620
 30
0.0
 10
166.243570
 20
163.923090
 30
0.0
 10
168.343900
 20
160.501570
 30
0.0
 10
169.425990
 20
156.364560
 30
0.0
 10
170.508080
 20
152.227550
 30
0.0
 10
170.118950
 20
148.594380
 30
0.0
 10
169.729800
 20
144.961200
 30
0.0
 10
168.477930
 20
141.746040
 30
0.0
 10
167.226040
 20
138.530880
 30
0.0
 10
164.836120
 20
135.353750
 30
0.0
 10
162.446200
 20
132.176620
 30
0.0
 10
158.603930
 20
129.672790
 30
0.0
 10
154.761660
 20
127.168950
 30
0.0
 10
150.299920
 20
126.111380
 30
0.0
 10
145.838190
 20
125.053810
 30
0.0
 10
129.167510
 20
125.233510
 30
0.0
 10
112.496830
 20
125.413180
 30
0.0
 10
112.081940
 20
129.942920
 30
0.0
 10
111.667030
 20
134.472640
 30
0.0
 10
110.855830
 20
136.003640
 30
0.0
 10
110.044640
 20
137.534630
 30
0.0
 10
108.405360
 20
139.676690
 30
0.0
 10
106.766080
 20
141.818750
 30
0.0
 10
103.420820
 20
143.338780
 30
0.0
 10
100.075550
 20
144.858830
 30
0.0
 10
96.771711
 20
144.865830
 30
0.0
 10
93.467873
 20
144.872830
 30
0.0
 10
90.123972
 20
143.246710
 30
0.0
 10
86.780070
 20
141.620600
 30
0.0
 10
85.057843
 20
139.417140
 30
0.0
 10
83.335615
 20
137.213700
 30
0.0
 10
82.688013
 20
135.400830
 30
0.0
 10
82.040411
 20
133.587960
 30
0.0
 10
81.578576
 20
129.501350
 30
0.0
 10
81.116741
 20
125.414710
 30
0.0
 10
76.839651
 20
125.229090
 30
0.0
 10
72.562558
 20
125.043470
 30
0.0
  0
LWPOLYLINE
  5
101
100
AcDbEntity
  8
Calque_1
 62
7
100
AcDbPolyline
 90
150
 70
1
 10
80.142500
 20
130.357470
 30
0.0
 10
80.149000
 20
133.706810
 30
0.0
 10
81.674407
 20
136.896660
 30
0.0
 10
83.199814
 20
140.086520
 30
0.0
 10
85.831957
 20
142.401910
 30
0.0
 10
88.464102
 20
144.717300
 30
0.0
 10
91.001122
 20
145.560160
 30
0.0
 10
93.538144
 20
146.403020
 30
0.0
 10
97.133779
 20
146.377220
 30
0.0
 10
100.729410
 20
146.351420
 30
0.0
 10
103.678640
 20
145.076650
 30
0.0
 10
106.627860
 20
143.801890
 30
0.0
 10
108.843860
 20
141.639390
 30
0.0
 10
111.059850
 20
139.476890
 30
0.0
 10
112.254360
 20
136.910850
 30
0.0
 10
113.448860
 20
134.344800
 30
0.0
 10
113.463160
 20
130.640030
 30
0.0
 10
113.477460
 20
126.935270
 30
0.0
 10
131.945960
 20
127.131190
 30
0.0
 10
150.414460
 20
127.327130
 30
0.0
 10
154.010090
 20
128.992280
 30
0.0
 10
157.605720
 20
130.657440
 30
0.0
 10
160.687020
 20
133.332170
 30
0.0
 10
163.768320
 20
136.006900
 30
0.0
 10
165.917030
 20
140.266210
 30
0.0
 10
168.065740
 20
144.525500
 30
0.0
 10
168.065740
 20
150.599640
 30
0.0
 10
168.065740
 20
156.673780
 30
0.0
 10
166.326500
 20
160.294350
 30
0.0
 10
164.587260
 20
163.914930
 30
0.0
 10
161.915050
 20
166.743960
 30
0.0
 10
159.242850
 20
169.572980
 30
0.0
 10
155.482410
 20
171.495190
 30
0.0
 10
151.721950
 20
173.417400
 30
0.0
 10
150.038300
 20
173.801880
 30
0.0
 10
148.354660
 20
174.186360
 30
0.0
 10
132.713860
 20
175.482360
 30
0.0
 10
117.073090
 20
176.778380
 30
0.0
 10
114.019740
 20
177.765500
 30
0.0
 10
110.966380
 20
178.752630
 30
0.0
 10
108.009240
 20
181.292770
 30
0.0
 10
105.052100
 20
183.832910
 30
0.0
 10
103.217580
 20
187.478550
 30
0.0
 10
101.383050
 20
191.124190
 30
0.0
 10
101.396450
 20
195.908970
 30
0.0
 10
101.409850
 20
200.693748
 30
0.0
 10
102.793610
 20
203.642708
 30
0.0
 10
104.177370
 20
206.591668
 30
0.0
 10
106.487010
 20
209.086444
 30
0.0
 10
108.796650
 20
211.581236
 30
0.0
 10
111.954130
 20
213.129199
 30
0.0
 10
115.111600
 20
214.677162
 30
0.0
 10
118.380370
 20
214.703122
 30
0.0
 10
121.649120
 20
214.729072
 30
0.0
 10
121.976730
 20
206.754436
 30
0.0
 10
122.304330
 20
198.779797
 30
0.0
 10
124.049240
 20
195.145610
 30
0.0
 10
125.794140
 20
191.511410
 30
0.0
 10
128.660390
 20
188.714360
 30
0.0
 10
131.526600
 20
185.917310
 30
0.0
 10
135.118410
 20
184.202420
 30
0.0
 10
138.710210
 20
182.487540
 30
0.0
 10
142.965920
 20
182.099730
 30
0.0
 10
147.221620
 20
181.711920
 30
0.0
 10
151.106030
 20
182.788300
 30
0.0
 10
154.990470
 20
183.864690
 30
0.0
 10
158.375520
 20
186.104990
 30
0.0
 10
161.760580
 20
188.345290
 30
0.0
 10
164.125150
 20
191.695680
 30
0.0
 10
166.489730
 20
195.046060
 30
0.0
 10
167.441050
 20
198.130767
 30
0.0
 10
168.392370
 20
201.215482
 30
0.0
 10
168.392370
 20
210.364668
 30
0.0
 10
168.392370
 20
219.513854
 30
0.0
 10
165.123620
 20
219.513854
 30
0.0
 10
161.854850
 20
219.513854
 30
0.0
 10
161.847850
 20
216.164497
 30
0.0
 10
161.840850
 20
212.815156
 30
0.0
 10
160.316440
 20
209.620649
 30
0.0
 10
158.792050
 20
206.426159
 30
0.0
 10
156.284420
 20
204.277584
 30
0.0
 10
153.776820
 20
202.129026
 30
0.0
 10
151.441140
 20
201.174214
 30
0.0
 10
149.105460
 20
200.219419
 30
0.0
 10
145.182950
 20
200.227619
 30
0.0
 10
141.260430
 20
200.235819
 30
0.0
 10
138.476930
 20
201.334005
 30
0.0
 10
135.693420
 20
202.432191
 30
0.0
 10
132.772770
 20
205.602244
 30
0.0
 10
129.852130
 20
208.772281
 30
0.0
 10
129.185850
 20
211.113235
 30
0.0
 10
128.519580
 20
213.454173
 30
0.0
 10
128.515580
 20
216.520976
 30
0.0
 10
128.511580
 20
219.587780
 30
0.0
 10
110.026610
 20
219.391858
 30
0.0
 10
91.541640
 20
219.195921
 30
0.0
 10
87.228589
 20
217.122567
 30
0.0
 10
82.915536
 20
215.049198
 30
0.0
 10
80.158654
 20
212.130519
 30
0.0
 10
77.401772
 20
209.211856
 30
0.0
 10
75.662526
 20
205.591291
 30
0.0
 10
73.923280
 20
201.970709
 30
0.0
 10
73.923280
 20
195.910000
 30
0.0
 10
73.923280
 20
189.849280
 30
0.0
 10
75.646024
 20
186.263870
 30
0.0
 10
77.368769
 20
182.678470
 30
0.0
 10
79.840731
 20
180.008360
 30
0.0
 10
82.312691
 20
177.338240
 30
0.0
 10
85.003803
 20
175.799210
 30
0.0
 10
87.694913
 20
174.260190
 30
0.0
 10
90.435794
 20
173.316500
 30
0.0
 10
93.176673
 20
172.372800
 30
0.0
 10
109.678840
 20
171.031460
 30
0.0
 10
126.181030
 20
169.690120
 30
0.0
 10
128.932080
 20
168.502560
 30
0.0
 10
131.683140
 20
167.315020
 30
0.0
 10
134.599560
 20
164.691640
 30
0.0
 10
137.515990
 20
162.068270
 30
0.0
 10
139.040670
 20
158.733570
 30
0.0
 10
140.565370
 20
155.398870
 30
0.0
 10
140.585670
 20
150.614090
 30
0.0
 10
140.605970
 20
145.829310
 30
0.0
 10
138.781930
 20
142.204610
 30
0.0
 10
136.957900
 20
138.579920
 30
0.0
 10
134.562370
 20
136.527380
 30
0.0
 10
132.166830
 20
134.474850
 30
0.0
 10
128.721190
 20
132.935440
 30
0.0
 10
125.275510
 20
131.396030
 30
0.0
 10
122.807590
 20
131.594990
 30
0.0
 10
120.339650
 20
131.793950
 30
0.0
 10
120.012060
 20
139.768590
 30
0.0
 10
119.684450
 20
147.743220
 30
0.0
 10
117.939550
 20
151.377420
 30
0.0
 10
116.194630
 20
155.011610
 30
0.0
 10
113.165580
 20
157.967530
 30
0.0
 10
110.136540
 20
160.923460
 30
0.0
 10
106.412450
 20
162.626960
 30
0.0
 10
102.688350
 20
164.330460
 30
0.0
 10
96.804581
 20
164.325460
 30
0.0
 10
90.920814
 20
164.320460
 30
0.0
 10
87.169588
 20
162.528780
 30
0.0
 10
83.418364
 20
160.737110
 30
0.0
 10
80.513333
 20
157.902210
 30
0.0
 10
77.608301
 20
155.067310
 30
0.0
 10
75.765783
 20
151.405720
 30
0.0
 10
73.923263
 20
147.744130
 30
0.0
 10
73.703577
 20
137.377100
 30
0.0
 10
73.483890
 20
127.010080
 30
0.0
 10
76.808898
 20
127.010080
 30
0.0
 10
80.133906
 20
127.010080
 30
0.0
  0
ENDSEC
  0
SECTION
  2
OBJECTS
  0
DICTIONARY
  5
C
330
0
100
AcDbDictionary
  3
ACAD_GROUP
350
D
  3
ACAD_MLINESTYLE
350
17
  0
DICTIONARY
  5
D
330
C
100
AcDbDictionary
  0
DICTIONARY
  5
1A
330
C
100
AcDbDictionary
  0
DICTIONARY
  5
17
330
C
100
AcDbDictionary
  3
STANDARD
350
18
  0
DICTIONARY
  5
19
330
C
100
AcDbDictionary
  0
ENDSEC
  0
EOF
