  0
SECTION
  2
HEADER
  9
$ACADVER
  1
AC1014
  9
$HANDSEED
  5
FFFF
  9
$INSUNITS
 70
     0
  9
$MEASUREMENT
 70
     1
  0
ENDSEC
  0
SECTION
  2
TABLES
  0
TABLE
  2
VPORT
  5
8
330
0
100
AcDbSymbolTable
 70
     4
  0
VPORT
  5
2E
330
8
100
AcDbSymbolTableRecord
100
AcDbViewportTableRecord
  2
*ACTIVE
 70
     0
 10
0.0
 20
0.0
 11
1.0
 21
1.0
 12
210.0
 22
148.5
 13
0.0
 23
0.0
 14
10.0
 24
10.0
 15
10.0
 25
10.0
 16
0.0
 26
0.0
 36
1.0
 17
0.0
 27
0.0
 37
0.0
 40
341.0
 41
1.24
 42
50.0
 43
0.0
 44
0.0
 50
0.0
 51
0.0
 71
     0
 72
   100
 73
     1
 74
     3
 75
     0
 76
     0
 77
     0
 78
     0
  0
ENDTAB
  0
TABLE
  2
LTYPE
  5
5
330
0
100
AcDbSymbolTable
 70
     1
  0
LTYPE
  5
14
330
5
100
AcDbSymbolTableRecord
100
AcDbLinetypeTableRecord
  2
BYBLOCK
 70
     0
  3

 72
    65
 73
     0
 40
0.0
  0
LTYPE
  5
15
330
5
100
AcDbSymbolTableRecord
100
AcDbLinetypeTableRecord
  2
BYLAYER
 70
     0
  3

 72
    65
 73
     0
 40
0.0
  0
LTYPE
  5
16
330
5
100
AcDbSymbolTableRecord
100
AcDbLinetypeTableRecord
  2
CONTINUOUS
 70
     0
  3
Solid line
 72
    65
 73
     0
 40
0.0
  0
ENDTAB
  0
TABLE
  2
LAYER
  5
2
100
AcDbSymbolTable
 70
2
  0
LAYER
  5
50
100
AcDbSymbolTableRecord
100
AcDbLayerTableRecord
  2
0
 70
0
  6
CONTINUOUS
  0
LAYER
  5
51
100
AcDbSymbolTableRecord
100
AcDbLayerTableRecord
  2
Calque_1
 70
0
  6
CONTINUOUS
  0
ENDTAB
  0
TABLE
  2
STYLE
  5
3
330
0
100
AcDbSymbolTable
 70
     1
  0
STYLE
  5
11
330
3
100
AcDbSymbolTableRecord
100
AcDbTextStyleTableRecord
  2
STANDARD
 70
     0
 40
0.0
 41
1.0
 50
0.0
 71
     0
 42
2.5
  3
txt
  4

  0
ENDTAB
  0
TABLE
  2
VIEW
  5
6
330
0
100
AcDbSymbolTable
 70
     0
  0
ENDTAB
  0
TABLE
  2
UCS
  5
7
330
0
100
AcDbSymbolTable
 70
     0
  0
ENDTAB
  0
TABLE
  2
APPID
  5
9
330
0
100
AcDbSymbolTable
 70
     2
  0
APPID
  5
12
330
9
100
AcDbSymbolTableRecord
100
AcDbRegAppTableRecord
  2
ACAD
 70
     0
  0
ENDTAB
  0
TABLE
  2
DIMSTYLE
  5
A
330
0
100
AcDbSymbolTable
 70
     1
  0
DIMSTYLE
105
27
330
A
100
AcDbSymbolTableRecord
100
AcDbDimStyleTableRecord
  2
ISO-25
 70
     0
  3

  4

  5

  6

  7

 40
1.0
 41
2.5
 42
0.625
 43
3.75
 44
1.25
 45
0.0
 46
0.0
 47
0.0
 48
0.0
140
2.5
141
2.5
142
0.0
143
0.03937007874016
144
1.0
145
0.0
146
1.0
147
0.625
 71
     0
 72
     0
 73
     0
 74
     0
 75
     0
 76
     0
 77
     1
 78
     8
170
     0
171
     3
172
     1
173
     0
174
     0
175
     0
176
     0
177
     0
178
     0
270
     2
271
     2
272
     2
273
     2
274
     3
340
11
275
     0
280
     0
281
     0
282
     0
283
     0
284
     8
285
     0
286
     0
287
     3
288
     0
  0
ENDTAB
  0
TABLE
  2
BLOCK_RECORD
  5
1
330
0
100
AcDbSymbolTable
 70
     1
  0
BLOCK_RECORD
  5
1F
330
1
100
AcDbSymbolTableRecord
100
AcDbBlockTableRecord
  2
*MODEL_SPACE
  0
BLOCK_RECORD
  5
1B
330
1
100
AcDbSymbolTableRecord
100
AcDbBlockTableRecord
  2
*PAPER_SPACE
  0
ENDTAB
  0
ENDSEC
  0
SECTION
  2
BLOCKS
  0
BLOCK
  5
20
330
1F
100
AcDbEntity
  8
0
100
AcDbBlockBegin
  2
*MODEL_SPACE
 70
     0
 10
0.0
 20
0.0
 30
0.0
  3
*MODEL_SPACE
  1

  0
ENDBLK
  5
21
330
1F
100
AcDbEntity
  8
0
100
AcDbBlockEnd
  0
BLOCK
  5
1C
330
1B
100
AcDbEntity
 67
     1
  8
0
100
AcDbBlockBegin
  2
*PAPER_SPACE
  1

  0
ENDBLK
  5
1D
330
1B
100
AcDbEntity
 67
     1
  8
0
100
AcDbBlockEnd
  0
ENDSEC
  0
SECTION
  2
ENTITIES
  0
LWPOLYLINE
  5
100
100
AcDbEntity
  8
Calque_1
 62
7
100
AcDbPolyline
 90
160
 70
1
 10
355.043190
 20
529.511355
 30
0.0
 10
354.194780
 20
530.246055
 30
0.0
 10
354.194780
 20
544.909335
 30
0.0
 10
354.194780
 20
559.572595
 30
0.0
 10
356.006210
 20
565.594925
 30
0.0
 10
357.817620
 20
571.617275
 30
0.0
 10
360.744480
 20
575.935895
 30
0.0
 10
363.671330
 20
580.254485
 30
0.0
 10
368.824320
 20
584.598535
 30
0.0
 10
373.977300
 20
588.942575
 30
0.0
 10
379.972000
 20
591.521575
 30
0.0
 10
385.966690
 20
594.100555
 30
0.0
 10
393.365760
 20
595.254745
 30
0.0
 10
400.764830
 20
596.408925
 30
0.0
 10
409.214730
 20
594.883205
 30
0.0
 10
417.664630
 20
593.357515
 30
0.0
 10
422.969590
 20
590.665315
 30
0.0
 10
428.274530
 20
587.973125
 30
0.0
 10
433.880910
 20
582.782835
 30
0.0
 10
439.487200
 20
577.592585
 30
0.0
 10
442.580500
 20
571.741635
 30
0.0
 10
445.673750
 20
565.890675
 30
0.0
 10
446.255470
 20
553.659635
 30
0.0
 10
446.837160
 20
541.428605
 30
0.0
 10
450.571690
 20
542.034475
 30
0.0
 10
454.306250
 20
542.640335
 30
0.0
 10
458.130390
 20
543.977745
 30
0.0
 10
461.954550
 20
545.315175
 30
0.0
 10
467.286390
 20
549.571145
 30
0.0
 10
472.618200
 20
553.827085
 30
0.0
 10
475.272680
 20
559.170495
 30
0.0
 10
477.927160
 20
564.513875
 30
0.0
 10
477.456590
 20
571.865065
 30
0.0
 10
476.986020
 20
579.216235
 30
0.0
 10
474.714030
 20
583.268895
 30
0.0
 10
472.442060
 20
587.321545
 30
0.0
 10
468.437800
 20
590.789095
 30
0.0
 10
464.433560
 20
594.256625
 30
0.0
 10
459.623880
 20
596.381445
 30
0.0
 10
454.814160
 20
598.506275
 30
0.0
 10
436.576130
 20
599.967325
 30
0.0
 10
418.338070
 20
601.428395
 30
0.0
 10
404.342070
 20
602.475315
 30
0.0
 10
390.346070
 20
603.522265
 30
0.0
 10
382.453170
 20
606.621375
 30
0.0
 10
374.560290
 20
609.720485
 30
0.0
 10
368.672440
 20
614.955085
 30
0.0
 10
362.784600
 20
620.189685
 30
0.0
 10
359.598930
 20
625.828205
 30
0.0
 10
356.413260
 20
631.466715
 30
0.0
 10
355.070730
 20
638.253825
 30
0.0
 10
353.728210
 20
645.040915
 30
0.0
 10
355.868170
 20
652.901495
 30
0.0
 10
358.008130
 20
660.762045
 30
0.0
 10
362.801300
 20
666.977775
 30
0.0
 10
367.594460
 20
673.193475
 30
0.0
 10
374.196030
 20
677.287125
 30
0.0
 10
380.797590
 20
681.380795
 30
0.0
 10
386.978960
 20
683.248615
 30
0.0
 10
393.160340
 20
685.116465
 30
0.0
 10
426.730660
 20
685.116465
 30
0.0
 10
460.300970
 20
685.116465
 30
0.0
 10
461.085380
 20
677.508285
 30
0.0
 10
461.869840
 20
669.900105
 30
0.0
 10
465.313380
 20
665.076885
 30
0.0
 10
468.756920
 20
660.253655
 30
0.0
 10
474.625900
 20
657.111495
 30
0.0
 10
480.494910
 20
653.969335
 30
0.0
 10
488.981500
 20
653.969335
 30
0.0
 10
497.468100
 20
653.969335
 30
0.0
 10
502.947470
 20
656.758835
 30
0.0
 10
508.426850
 20
659.548355
 30
0.0
 10
511.591050
 20
663.507395
 30
0.0
 10
514.755250
 20
667.466435
 30
0.0
 10
515.969980
 20
672.657595
 30
0.0
 10
517.184720
 20
677.848785
 30
0.0
 10
517.517380
 20
681.482625
 30
0.0
 10
517.850070
 20
685.116465
 30
0.0
 10
526.242640
 20
685.116465
 30
0.0
 10
534.635230
 20
685.116465
 30
0.0
 10
534.968700
 20
670.201395
 30
0.0
 10
535.302220
 20
655.286305
 30
0.0
 10
533.474880
 20
649.109525
 30
0.0
 10
531.647530
 20
642.932735
 30
0.0
 10
528.592180
 20
638.418035
 30
0.0
 10
525.536850
 20
633.903315
 30
0.0
 10
520.302960
 20
629.725505
 30
0.0
 10
515.069030
 20
625.547705
 30
0.0
 10
508.666430
 20
622.627605
 30
0.0
 10
502.263850
 20
619.707505
 30
0.0
 10
489.075530
 20
619.707505
 30
0.0
 10
475.887180
 20
619.707505
 30
0.0
 10
468.974480
 20
622.739085
 30
0.0
 10
462.061840
 20
625.770665
 30
0.0
 10
456.021020
 20
631.301795
 30
0.0
 10
449.980210
 20
636.832925
 30
0.0
 10
446.867950
 20
642.719755
 30
0.0
 10
443.755710
 20
648.606635
 30
0.0
 10
443.171450
 20
660.891665
 30
0.0
 10
442.587160
 20
673.176715
 30
0.0
 10
441.770430
 20
673.176715
 30
0.0
 10
440.953650
 20
673.176715
 30
0.0
 10
434.916500
 20
671.624175
 30
0.0
 10
428.879270
 20
670.071635
 30
0.0
 10
423.136070
 20
665.693875
 30
0.0
 10
417.392880
 20
661.316105
 30
0.0
 10
414.580100
 20
656.085355
 30
0.0
 10
411.767320
 20
650.854605
 30
0.0
 10
411.767320
 20
644.106085
 30
0.0
 10
411.767320
 20
637.357555
 30
0.0
 10
414.571300
 20
632.166355
 30
0.0
 10
417.375260
 20
626.975175
 30
0.0
 10
422.859950
 20
622.614875
 30
0.0
 10
428.344650
 20
618.254565
 30
0.0
 10
434.731310
 20
616.702105
 30
0.0
 10
441.117920
 20
615.149655
 30
0.0
 10
465.696170
 20
613.506805
 30
0.0
 10
490.274470
 20
611.864005
 30
0.0
 10
495.152010
 20
611.337915
 30
0.0
 10
500.029540
 20
610.811875
 30
0.0
 10
507.141370
 20
607.855975
 30
0.0
 10
514.253250
 20
604.900125
 30
0.0
 10
519.049030
 20
601.260235
 30
0.0
 10
523.844770
 20
597.620325
 30
0.0
 10
527.696640
 20
592.052105
 30
0.0
 10
531.548510
 20
586.483905
 30
0.0
 10
533.533000
 20
579.751305
 30
0.0
 10
535.517490
 20
573.018715
 30
0.0
 10
534.803840
 20
567.106065
 30
0.0
 10
534.090170
 20
561.193415
 30
0.0
 10
531.794320
 20
555.961035
 30
0.0
 10
529.498430
 20
550.728665
 30
0.0
 10
525.115470
 20
545.558185
 30
0.0
 10
520.732510
 20
540.387695
 30
0.0
 10
513.686030
 20
536.312955
 30
0.0
 10
506.639550
 20
532.238195
 30
0.0
 10
498.456990
 20
530.517095
 30
0.0
 10
490.274470
 20
528.795995
 30
0.0
 10
459.701490
 20
529.088445
 30
0.0
 10
429.128520
 20
529.380835
 30
0.0
 10
428.367640
 20
536.752565
 30
0.0
 10
427.606720
 20
544.124265
 30
0.0
 10
426.119020
 20
546.615815
 30
0.0
 10
424.631360
 20
549.107365
 30
0.0
 10
421.625020
 20
552.593365
 30
0.0
 10
418.618690
 20
556.079365
 30
0.0
 10
412.483690
 20
558.553075
 30
0.0
 10
406.348670
 20
561.026815
 30
0.0
 10
400.289640
 20
561.038215
 30
0.0
 10
394.230610
 20
561.049615
 30
0.0
 10
388.098110
 20
558.403265
 30
0.0
 10
381.965600
 20
555.756925
 30
0.0
 10
378.807150
 20
552.170995
 30
0.0
 10
375.648690
 20
548.585105
 30
0.0
 10
374.461030
 20
545.634825
 30
0.0
 10
373.273370
 20
542.684555
 30
0.0
 10
372.426390
 20
536.033975
 30
0.0
 10
371.579410
 20
529.383355
 30
0.0
 10
363.735500
 20
529.081275
 30
0.0
 10
355.891590
 20
528.779195
 30
0.0
  0
ENDSEC
  0
SECTION
  2
OBJECTS
  0
DICTIONARY
  5
C
330
0
100
AcDbDictionary
  3
ACAD_GROUP
350
D
  3
ACAD_MLINESTYLE
350
17
  0
DICTIONARY
  5
D
330
C
100
AcDbDictionary
  0
DICTIONARY
  5
1A
330
C
100
AcDbDictionary
  0
DICTIONARY
  5
17
330
C
100
AcDbDictionary
  3
STANDARD
350
18
  0
DICTIONARY
  5
19
330
C
100
AcDbDictionary
  0
ENDSEC
  0
EOF
